%FSLAX45Y45*%
G04 Gerber Fmt 4.5, Leading zero omitted, Abs format (unit mm)*
G04 Created by KiCad (PCBNEW 5.1.12-1.fc34) date 2022-01-17 20:57:30*
%MOMM*%
%LPD*%
G01*
G04 APERTURE LIST*
%TA.AperFunction,Profile*%
%ADD10C,0.050000*%
%TD*%
%ADD11C,0.200000*%
%ADD12C,0.300000*%
G04 APERTURE END LIST*
D10*
X3810000Y-14351000D02*
X3810000Y-4445000D01*
X13716000Y-14351000D02*
X3810000Y-14351000D01*
X13716000Y-4445000D02*
X13716000Y-14351000D01*
X3810000Y-4445000D02*
X13716000Y-4445000D01*
D11*
X4346500Y-6569000D02*
X4416500Y-6639000D01*
X4416500Y-6569000D02*
X4346500Y-6639000D01*
X5108500Y-6569000D02*
X5178500Y-6639000D01*
X5178500Y-6569000D02*
X5108500Y-6639000D01*
X5553000Y-9236000D02*
X5623000Y-9306000D01*
X5623000Y-9236000D02*
X5553000Y-9306000D01*
X5553000Y-9744000D02*
X5623000Y-9814000D01*
X5623000Y-9744000D02*
X5553000Y-9814000D01*
X5553000Y-12347500D02*
X5623000Y-12417500D01*
X5623000Y-12347500D02*
X5553000Y-12417500D01*
X5553000Y-13490500D02*
X5623000Y-13560500D01*
X5623000Y-13490500D02*
X5553000Y-13560500D01*
X5616500Y-6759500D02*
X5686500Y-6829500D01*
X5686500Y-6759500D02*
X5616500Y-6829500D01*
X5616500Y-7521500D02*
X5686500Y-7591500D01*
X5686500Y-7521500D02*
X5616500Y-7591500D01*
X5616500Y-10188500D02*
X5686500Y-10258500D01*
X5686500Y-10188500D02*
X5616500Y-10258500D01*
X5616500Y-10950500D02*
X5686500Y-11020500D01*
X5686500Y-10950500D02*
X5616500Y-11020500D01*
X6315000Y-9236000D02*
X6385000Y-9306000D01*
X6385000Y-9236000D02*
X6315000Y-9306000D01*
X6315000Y-9744000D02*
X6385000Y-9814000D01*
X6385000Y-9744000D02*
X6315000Y-9814000D01*
X6315000Y-12347500D02*
X6385000Y-12417500D01*
X6385000Y-12347500D02*
X6315000Y-12417500D01*
X6315000Y-13490500D02*
X6385000Y-13560500D01*
X6385000Y-13490500D02*
X6315000Y-13560500D01*
X6823000Y-6378500D02*
X6893000Y-6448500D01*
X6893000Y-6378500D02*
X6823000Y-6448500D01*
X6823000Y-7140500D02*
X6893000Y-7210500D01*
X6893000Y-7140500D02*
X6823000Y-7210500D01*
X7204000Y-6378500D02*
X7274000Y-6448500D01*
X7274000Y-6378500D02*
X7204000Y-6448500D01*
X7204000Y-7140500D02*
X7274000Y-7210500D01*
X7274000Y-7140500D02*
X7204000Y-7210500D01*
X7204000Y-8791500D02*
X7274000Y-8861500D01*
X7274000Y-8791500D02*
X7204000Y-8861500D01*
X7458000Y-6378500D02*
X7528000Y-6448500D01*
X7528000Y-6378500D02*
X7458000Y-6448500D01*
X7458000Y-7140500D02*
X7528000Y-7210500D01*
X7528000Y-7140500D02*
X7458000Y-7210500D01*
X7458000Y-12284000D02*
X7528000Y-12354000D01*
X7528000Y-12284000D02*
X7458000Y-12354000D01*
X7585000Y-11268000D02*
X7655000Y-11338000D01*
X7655000Y-11268000D02*
X7585000Y-11338000D01*
X7585000Y-12030000D02*
X7655000Y-12100000D01*
X7655000Y-12030000D02*
X7585000Y-12100000D01*
X7712000Y-8537500D02*
X7782000Y-8607500D01*
X7782000Y-8537500D02*
X7712000Y-8607500D01*
X7712000Y-9299500D02*
X7782000Y-9369500D01*
X7782000Y-9299500D02*
X7712000Y-9369500D01*
X7966000Y-8791500D02*
X8036000Y-8861500D01*
X8036000Y-8791500D02*
X7966000Y-8861500D01*
X7966000Y-9109000D02*
X8036000Y-9179000D01*
X8036000Y-9109000D02*
X7966000Y-9179000D01*
X7966000Y-9871000D02*
X8036000Y-9941000D01*
X8036000Y-9871000D02*
X7966000Y-9941000D01*
X7966000Y-11268000D02*
X8036000Y-11338000D01*
X8036000Y-11268000D02*
X7966000Y-11338000D01*
X7966000Y-12030000D02*
X8036000Y-12100000D01*
X8036000Y-12030000D02*
X7966000Y-12100000D01*
X8220000Y-9109000D02*
X8290000Y-9179000D01*
X8290000Y-9109000D02*
X8220000Y-9179000D01*
X8220000Y-9871000D02*
X8290000Y-9941000D01*
X8290000Y-9871000D02*
X8220000Y-9941000D01*
X8220000Y-11268000D02*
X8290000Y-11338000D01*
X8290000Y-11268000D02*
X8220000Y-11338000D01*
X8220000Y-12030000D02*
X8290000Y-12100000D01*
X8290000Y-12030000D02*
X8220000Y-12100000D01*
X8220000Y-12284000D02*
X8290000Y-12354000D01*
X8290000Y-12284000D02*
X8220000Y-12354000D01*
X8474000Y-8093000D02*
X8544000Y-8163000D01*
X8544000Y-8093000D02*
X8474000Y-8163000D01*
X8474000Y-8855000D02*
X8544000Y-8925000D01*
X8544000Y-8855000D02*
X8474000Y-8925000D01*
X8474000Y-9109000D02*
X8544000Y-9179000D01*
X8544000Y-9109000D02*
X8474000Y-9179000D01*
X8474000Y-9871000D02*
X8544000Y-9941000D01*
X8544000Y-9871000D02*
X8474000Y-9941000D01*
X8537500Y-7013500D02*
X8607500Y-7083500D01*
X8607500Y-7013500D02*
X8537500Y-7083500D01*
X8537500Y-7775500D02*
X8607500Y-7845500D01*
X8607500Y-7775500D02*
X8537500Y-7845500D01*
X8728000Y-11268000D02*
X8798000Y-11338000D01*
X8798000Y-11268000D02*
X8728000Y-11338000D01*
X8728000Y-12030000D02*
X8798000Y-12100000D01*
X8798000Y-12030000D02*
X8728000Y-12100000D01*
X8918500Y-6378500D02*
X8988500Y-6448500D01*
X8988500Y-6378500D02*
X8918500Y-6448500D01*
X8918500Y-7140500D02*
X8988500Y-7210500D01*
X8988500Y-7140500D02*
X8918500Y-7210500D01*
X9236000Y-9109000D02*
X9306000Y-9179000D01*
X9306000Y-9109000D02*
X9236000Y-9179000D01*
X9236000Y-9871000D02*
X9306000Y-9941000D01*
X9306000Y-9871000D02*
X9236000Y-9941000D01*
X9236000Y-11268000D02*
X9306000Y-11338000D01*
X9306000Y-11268000D02*
X9236000Y-11338000D01*
X9236000Y-12030000D02*
X9306000Y-12100000D01*
X9306000Y-12030000D02*
X9236000Y-12100000D01*
X9490000Y-9109000D02*
X9560000Y-9179000D01*
X9560000Y-9109000D02*
X9490000Y-9179000D01*
X9490000Y-9871000D02*
X9560000Y-9941000D01*
X9560000Y-9871000D02*
X9490000Y-9941000D01*
X9744000Y-9109000D02*
X9814000Y-9179000D01*
X9814000Y-9109000D02*
X9744000Y-9179000D01*
X9744000Y-9871000D02*
X9814000Y-9941000D01*
X9814000Y-9871000D02*
X9744000Y-9941000D01*
X9934500Y-7839000D02*
X10004500Y-7909000D01*
X10004500Y-7839000D02*
X9934500Y-7909000D01*
X9998000Y-9109000D02*
X10068000Y-9179000D01*
X10068000Y-9109000D02*
X9998000Y-9179000D01*
X9998000Y-9871000D02*
X10068000Y-9941000D01*
X10068000Y-9871000D02*
X9998000Y-9941000D01*
X10569500Y-6378500D02*
X10639500Y-6448500D01*
X10639500Y-6378500D02*
X10569500Y-6448500D01*
X10569500Y-7140500D02*
X10639500Y-7210500D01*
X10639500Y-7140500D02*
X10569500Y-7210500D01*
X10696500Y-7839000D02*
X10766500Y-7909000D01*
X10766500Y-7839000D02*
X10696500Y-7909000D01*
X11395000Y-11268000D02*
X11465000Y-11338000D01*
X11465000Y-11268000D02*
X11395000Y-11338000D01*
X11395000Y-12030000D02*
X11465000Y-12100000D01*
X11465000Y-12030000D02*
X11395000Y-12100000D01*
X11585500Y-7585000D02*
X11655500Y-7655000D01*
X11655500Y-7585000D02*
X11585500Y-7655000D01*
X11585500Y-8347000D02*
X11655500Y-8417000D01*
X11655500Y-8347000D02*
X11585500Y-8417000D01*
X11649000Y-9109000D02*
X11719000Y-9179000D01*
X11719000Y-9109000D02*
X11649000Y-9179000D01*
X11649000Y-9871000D02*
X11719000Y-9941000D01*
X11719000Y-9871000D02*
X11649000Y-9941000D01*
X11839500Y-7902500D02*
X11909500Y-7972500D01*
X11909500Y-7902500D02*
X11839500Y-7972500D01*
X12220500Y-7521500D02*
X12290500Y-7591500D01*
X12290500Y-7521500D02*
X12220500Y-7591500D01*
X12220500Y-8283500D02*
X12290500Y-8353500D01*
X12290500Y-8283500D02*
X12220500Y-8353500D01*
X12538000Y-9109000D02*
X12608000Y-9179000D01*
X12608000Y-9109000D02*
X12538000Y-9179000D01*
X12538000Y-9871000D02*
X12608000Y-9941000D01*
X12608000Y-9871000D02*
X12538000Y-9941000D01*
X12538000Y-11268000D02*
X12608000Y-11338000D01*
X12608000Y-11268000D02*
X12538000Y-11338000D01*
X12538000Y-12030000D02*
X12608000Y-12100000D01*
X12608000Y-12030000D02*
X12538000Y-12100000D01*
X12601500Y-7902500D02*
X12671500Y-7972500D01*
X12671500Y-7902500D02*
X12601500Y-7972500D01*
X12792000Y-9109000D02*
X12862000Y-9179000D01*
X12862000Y-9109000D02*
X12792000Y-9179000D01*
X12792000Y-9871000D02*
X12862000Y-9941000D01*
X12862000Y-9871000D02*
X12792000Y-9941000D01*
X12792000Y-11268000D02*
X12862000Y-11338000D01*
X12862000Y-11268000D02*
X12792000Y-11338000D01*
X12792000Y-12030000D02*
X12862000Y-12100000D01*
X12862000Y-12030000D02*
X12792000Y-12100000D01*
X13046000Y-11268000D02*
X13116000Y-11338000D01*
X13116000Y-11268000D02*
X13046000Y-11338000D01*
X13046000Y-12030000D02*
X13116000Y-12100000D01*
X13116000Y-12030000D02*
X13046000Y-12100000D01*
X5628000Y-12636500D02*
G75*
G03*
X5628000Y-12636500I-40000J0D01*
G01*
X5628000Y-13271500D02*
G75*
G03*
X5628000Y-13271500I-40000J0D01*
G01*
X6136000Y-7620000D02*
G75*
G03*
X6136000Y-7620000I-40000J0D01*
G01*
X6136000Y-7874000D02*
G75*
G03*
X6136000Y-7874000I-40000J0D01*
G01*
X6136000Y-8128000D02*
G75*
G03*
X6136000Y-8128000I-40000J0D01*
G01*
X6136000Y-10223500D02*
G75*
G03*
X6136000Y-10223500I-40000J0D01*
G01*
X6136000Y-10985500D02*
G75*
G03*
X6136000Y-10985500I-40000J0D01*
G01*
X6136000Y-11307000D02*
G75*
G03*
X6136000Y-11307000I-40000J0D01*
G01*
X6136000Y-11557000D02*
G75*
G03*
X6136000Y-11557000I-40000J0D01*
G01*
X6390000Y-10223500D02*
G75*
G03*
X6390000Y-10223500I-40000J0D01*
G01*
X6390000Y-10985500D02*
G75*
G03*
X6390000Y-10985500I-40000J0D01*
G01*
X6390000Y-12636500D02*
G75*
G03*
X6390000Y-12636500I-40000J0D01*
G01*
X6390000Y-13271500D02*
G75*
G03*
X6390000Y-13271500I-40000J0D01*
G01*
X6644000Y-10223500D02*
G75*
G03*
X6644000Y-10223500I-40000J0D01*
G01*
X6644000Y-10985500D02*
G75*
G03*
X6644000Y-10985500I-40000J0D01*
G01*
X6898000Y-10223500D02*
G75*
G03*
X6898000Y-10223500I-40000J0D01*
G01*
X6898000Y-10985500D02*
G75*
G03*
X6898000Y-10985500I-40000J0D01*
G01*
X6961500Y-8259000D02*
G75*
G03*
X6961500Y-8259000I-40000J0D01*
G01*
X6961500Y-8509000D02*
G75*
G03*
X6961500Y-8509000I-40000J0D01*
G01*
X7025000Y-12386500D02*
G75*
G03*
X7025000Y-12386500I-40000J0D01*
G01*
X7025000Y-12636500D02*
G75*
G03*
X7025000Y-12636500I-40000J0D01*
G01*
X7025000Y-13275500D02*
G75*
G03*
X7025000Y-13275500I-40000J0D01*
G01*
X7025000Y-13525500D02*
G75*
G03*
X7025000Y-13525500I-40000J0D01*
G01*
X7152000Y-10223500D02*
G75*
G03*
X7152000Y-10223500I-40000J0D01*
G01*
X7152000Y-10985500D02*
G75*
G03*
X7152000Y-10985500I-40000J0D01*
G01*
X7279000Y-7493000D02*
G75*
G03*
X7279000Y-7493000I-40000J0D01*
G01*
X7279000Y-8255000D02*
G75*
G03*
X7279000Y-8255000I-40000J0D01*
G01*
X7406000Y-10223500D02*
G75*
G03*
X7406000Y-10223500I-40000J0D01*
G01*
X7406000Y-10985500D02*
G75*
G03*
X7406000Y-10985500I-40000J0D01*
G01*
X7533000Y-7493000D02*
G75*
G03*
X7533000Y-7493000I-40000J0D01*
G01*
X7533000Y-8255000D02*
G75*
G03*
X7533000Y-8255000I-40000J0D01*
G01*
X7533000Y-8572500D02*
G75*
G03*
X7533000Y-8572500I-40000J0D01*
G01*
X7533000Y-9334500D02*
G75*
G03*
X7533000Y-9334500I-40000J0D01*
G01*
X7660000Y-10223500D02*
G75*
G03*
X7660000Y-10223500I-40000J0D01*
G01*
X7660000Y-10985500D02*
G75*
G03*
X7660000Y-10985500I-40000J0D01*
G01*
X7787000Y-7493000D02*
G75*
G03*
X7787000Y-7493000I-40000J0D01*
G01*
X7787000Y-8255000D02*
G75*
G03*
X7787000Y-8255000I-40000J0D01*
G01*
X7914000Y-12763500D02*
G75*
G03*
X7914000Y-12763500I-40000J0D01*
G01*
X7914000Y-13017500D02*
G75*
G03*
X7914000Y-13017500I-40000J0D01*
G01*
X7914000Y-13271500D02*
G75*
G03*
X7914000Y-13271500I-40000J0D01*
G01*
X8041000Y-7493000D02*
G75*
G03*
X8041000Y-7493000I-40000J0D01*
G01*
X8041000Y-8255000D02*
G75*
G03*
X8041000Y-8255000I-40000J0D01*
G01*
X8041000Y-10223500D02*
G75*
G03*
X8041000Y-10223500I-40000J0D01*
G01*
X8041000Y-10985500D02*
G75*
G03*
X8041000Y-10985500I-40000J0D01*
G01*
X8295000Y-10223500D02*
G75*
G03*
X8295000Y-10223500I-40000J0D01*
G01*
X8295000Y-10985500D02*
G75*
G03*
X8295000Y-10985500I-40000J0D01*
G01*
X8358500Y-7239000D02*
G75*
G03*
X8358500Y-7239000I-40000J0D01*
G01*
X8358500Y-7489000D02*
G75*
G03*
X8358500Y-7489000I-40000J0D01*
G01*
X8549000Y-10223500D02*
G75*
G03*
X8549000Y-10223500I-40000J0D01*
G01*
X8549000Y-10985500D02*
G75*
G03*
X8549000Y-10985500I-40000J0D01*
G01*
X8549000Y-11303000D02*
G75*
G03*
X8549000Y-11303000I-40000J0D01*
G01*
X8549000Y-11803000D02*
G75*
G03*
X8549000Y-11803000I-40000J0D01*
G01*
X8803000Y-9406000D02*
G75*
G03*
X8803000Y-9406000I-40000J0D01*
G01*
X8803000Y-9906000D02*
G75*
G03*
X8803000Y-9906000I-40000J0D01*
G01*
X8803000Y-10223500D02*
G75*
G03*
X8803000Y-10223500I-40000J0D01*
G01*
X8803000Y-10985500D02*
G75*
G03*
X8803000Y-10985500I-40000J0D01*
G01*
X9057000Y-9406000D02*
G75*
G03*
X9057000Y-9406000I-40000J0D01*
G01*
X9057000Y-9906000D02*
G75*
G03*
X9057000Y-9906000I-40000J0D01*
G01*
X9057000Y-10223500D02*
G75*
G03*
X9057000Y-10223500I-40000J0D01*
G01*
X9057000Y-10985500D02*
G75*
G03*
X9057000Y-10985500I-40000J0D01*
G01*
X9057000Y-11307000D02*
G75*
G03*
X9057000Y-11307000I-40000J0D01*
G01*
X9057000Y-11557000D02*
G75*
G03*
X9057000Y-11557000I-40000J0D01*
G01*
X9311000Y-10223500D02*
G75*
G03*
X9311000Y-10223500I-40000J0D01*
G01*
X9311000Y-10985500D02*
G75*
G03*
X9311000Y-10985500I-40000J0D01*
G01*
X9565000Y-10223500D02*
G75*
G03*
X9565000Y-10223500I-40000J0D01*
G01*
X9565000Y-10985500D02*
G75*
G03*
X9565000Y-10985500I-40000J0D01*
G01*
X9819000Y-10223500D02*
G75*
G03*
X9819000Y-10223500I-40000J0D01*
G01*
X9819000Y-10985500D02*
G75*
G03*
X9819000Y-10985500I-40000J0D01*
G01*
X9819000Y-11303000D02*
G75*
G03*
X9819000Y-11303000I-40000J0D01*
G01*
X9819000Y-11803000D02*
G75*
G03*
X9819000Y-11803000I-40000J0D01*
G01*
X10073000Y-10223500D02*
G75*
G03*
X10073000Y-10223500I-40000J0D01*
G01*
X10073000Y-10985500D02*
G75*
G03*
X10073000Y-10985500I-40000J0D01*
G01*
X10140500Y-12255500D02*
G75*
G03*
X10140500Y-12255500I-40000J0D01*
G01*
X10390500Y-12255500D02*
G75*
G03*
X10390500Y-12255500I-40000J0D01*
G01*
X10454000Y-10223500D02*
G75*
G03*
X10454000Y-10223500I-40000J0D01*
G01*
X10454000Y-10985500D02*
G75*
G03*
X10454000Y-10985500I-40000J0D01*
G01*
X10454000Y-11307000D02*
G75*
G03*
X10454000Y-11307000I-40000J0D01*
G01*
X10454000Y-11557000D02*
G75*
G03*
X10454000Y-11557000I-40000J0D01*
G01*
X10708000Y-10223500D02*
G75*
G03*
X10708000Y-10223500I-40000J0D01*
G01*
X10708000Y-10985500D02*
G75*
G03*
X10708000Y-10985500I-40000J0D01*
G01*
X10962000Y-10223500D02*
G75*
G03*
X10962000Y-10223500I-40000J0D01*
G01*
X10962000Y-10985500D02*
G75*
G03*
X10962000Y-10985500I-40000J0D01*
G01*
X11216000Y-7620000D02*
G75*
G03*
X11216000Y-7620000I-40000J0D01*
G01*
X11216000Y-7874000D02*
G75*
G03*
X11216000Y-7874000I-40000J0D01*
G01*
X11216000Y-8128000D02*
G75*
G03*
X11216000Y-8128000I-40000J0D01*
G01*
X11216000Y-10223500D02*
G75*
G03*
X11216000Y-10223500I-40000J0D01*
G01*
X11216000Y-10985500D02*
G75*
G03*
X11216000Y-10985500I-40000J0D01*
G01*
X11470000Y-10223500D02*
G75*
G03*
X11470000Y-10223500I-40000J0D01*
G01*
X11470000Y-10985500D02*
G75*
G03*
X11470000Y-10985500I-40000J0D01*
G01*
X11724000Y-10223500D02*
G75*
G03*
X11724000Y-10223500I-40000J0D01*
G01*
X11724000Y-10985500D02*
G75*
G03*
X11724000Y-10985500I-40000J0D01*
G01*
X11978000Y-10223500D02*
G75*
G03*
X11978000Y-10223500I-40000J0D01*
G01*
X11978000Y-10985500D02*
G75*
G03*
X11978000Y-10985500I-40000J0D01*
G01*
X12359000Y-10223500D02*
G75*
G03*
X12359000Y-10223500I-40000J0D01*
G01*
X12359000Y-10985500D02*
G75*
G03*
X12359000Y-10985500I-40000J0D01*
G01*
X12359000Y-11307000D02*
G75*
G03*
X12359000Y-11307000I-40000J0D01*
G01*
X12359000Y-11557000D02*
G75*
G03*
X12359000Y-11557000I-40000J0D01*
G01*
X12613000Y-10223500D02*
G75*
G03*
X12613000Y-10223500I-40000J0D01*
G01*
X12613000Y-10985500D02*
G75*
G03*
X12613000Y-10985500I-40000J0D01*
G01*
X12867000Y-10223500D02*
G75*
G03*
X12867000Y-10223500I-40000J0D01*
G01*
X12867000Y-10985500D02*
G75*
G03*
X12867000Y-10985500I-40000J0D01*
G01*
X13121000Y-7683500D02*
G75*
G03*
X13121000Y-7683500I-40000J0D01*
G01*
X13121000Y-7937500D02*
G75*
G03*
X13121000Y-7937500I-40000J0D01*
G01*
X13121000Y-8191500D02*
G75*
G03*
X13121000Y-8191500I-40000J0D01*
G01*
X13121000Y-9656000D02*
G75*
G03*
X13121000Y-9656000I-40000J0D01*
G01*
X13121000Y-9906000D02*
G75*
G03*
X13121000Y-9906000I-40000J0D01*
G01*
X13121000Y-10223500D02*
G75*
G03*
X13121000Y-10223500I-40000J0D01*
G01*
X13121000Y-10985500D02*
G75*
G03*
X13121000Y-10985500I-40000J0D01*
G01*
X4635500Y-12396000D02*
X4635500Y-12496000D01*
X4585500Y-12446000D02*
X4685500Y-12446000D01*
X4635500Y-12650000D02*
X4635500Y-12750000D01*
X4585500Y-12700000D02*
X4685500Y-12700000D01*
X4635500Y-12904000D02*
X4635500Y-13004000D01*
X4585500Y-12954000D02*
X4685500Y-12954000D01*
X4635500Y-13158000D02*
X4635500Y-13258000D01*
X4585500Y-13208000D02*
X4685500Y-13208000D01*
X4635500Y-13412000D02*
X4635500Y-13512000D01*
X4585500Y-13462000D02*
X4685500Y-13462000D01*
X4889500Y-12396000D02*
X4889500Y-12496000D01*
X4839500Y-12446000D02*
X4939500Y-12446000D01*
X4889500Y-12650000D02*
X4889500Y-12750000D01*
X4839500Y-12700000D02*
X4939500Y-12700000D01*
X4889500Y-12904000D02*
X4889500Y-13004000D01*
X4839500Y-12954000D02*
X4939500Y-12954000D01*
X4889500Y-13158000D02*
X4889500Y-13258000D01*
X4839500Y-13208000D02*
X4939500Y-13208000D01*
X4889500Y-13412000D02*
X4889500Y-13512000D01*
X4839500Y-13462000D02*
X4939500Y-13462000D01*
X5334000Y-7252500D02*
X5334000Y-7352500D01*
X5284000Y-7302500D02*
X5384000Y-7302500D01*
X5334000Y-7502500D02*
X5334000Y-7602500D01*
X5284000Y-7552500D02*
X5384000Y-7552500D01*
X5334000Y-7752500D02*
X5334000Y-7852500D01*
X5284000Y-7802500D02*
X5384000Y-7802500D01*
X5334000Y-8967000D02*
X5334000Y-9067000D01*
X5284000Y-9017000D02*
X5384000Y-9017000D01*
X5334000Y-9217000D02*
X5334000Y-9317000D01*
X5284000Y-9267000D02*
X5384000Y-9267000D01*
X5334000Y-9467000D02*
X5334000Y-9567000D01*
X5284000Y-9517000D02*
X5384000Y-9517000D01*
X5334000Y-10681500D02*
X5334000Y-10781500D01*
X5284000Y-10731500D02*
X5384000Y-10731500D01*
X5334000Y-10931500D02*
X5334000Y-11031500D01*
X5284000Y-10981500D02*
X5384000Y-10981500D01*
X5334000Y-11181500D02*
X5334000Y-11281500D01*
X5284000Y-11231500D02*
X5384000Y-11231500D01*
X7556500Y-5165000D02*
X7556500Y-5265000D01*
X7506500Y-5215000D02*
X7606500Y-5215000D01*
X7556500Y-5415000D02*
X7556500Y-5515000D01*
X7506500Y-5465000D02*
X7606500Y-5465000D01*
X7556500Y-5665000D02*
X7556500Y-5765000D01*
X7506500Y-5715000D02*
X7606500Y-5715000D01*
X9144000Y-12840000D02*
X9144000Y-12940000D01*
X9094000Y-12890000D02*
X9194000Y-12890000D01*
X9079000Y-12930000D02*
X9209000Y-12930000D01*
X9079000Y-12850000D02*
X9209000Y-12850000D01*
X9209000Y-12930000D02*
G75*
G03*
X9209000Y-12850000I0J40000D01*
G01*
X9079000Y-12850000D02*
G75*
G03*
X9079000Y-12930000I0J-40000D01*
G01*
X9144000Y-13285000D02*
X9144000Y-13385000D01*
X9094000Y-13335000D02*
X9194000Y-13335000D01*
X9079000Y-13375000D02*
X9209000Y-13375000D01*
X9079000Y-13295000D02*
X9209000Y-13295000D01*
X9209000Y-13375000D02*
G75*
G03*
X9209000Y-13295000I0J40000D01*
G01*
X9079000Y-13295000D02*
G75*
G03*
X9079000Y-13375000I0J-40000D01*
G01*
X9144000Y-13730000D02*
X9144000Y-13830000D01*
X9094000Y-13780000D02*
X9194000Y-13780000D01*
X9079000Y-13820000D02*
X9209000Y-13820000D01*
X9079000Y-13740000D02*
X9209000Y-13740000D01*
X9209000Y-13820000D02*
G75*
G03*
X9209000Y-13740000I0J40000D01*
G01*
X9079000Y-13740000D02*
G75*
G03*
X9079000Y-13820000I0J-40000D01*
G01*
X9207500Y-5165000D02*
X9207500Y-5265000D01*
X9157500Y-5215000D02*
X9257500Y-5215000D01*
X9207500Y-5415000D02*
X9207500Y-5515000D01*
X9157500Y-5465000D02*
X9257500Y-5465000D01*
X9207500Y-5665000D02*
X9207500Y-5765000D01*
X9157500Y-5715000D02*
X9257500Y-5715000D01*
X10731500Y-13039000D02*
X10731500Y-13139000D01*
X10681500Y-13089000D02*
X10781500Y-13089000D01*
X10731500Y-13289000D02*
X10731500Y-13389000D01*
X10681500Y-13339000D02*
X10781500Y-13339000D01*
X10731500Y-13539000D02*
X10731500Y-13639000D01*
X10681500Y-13589000D02*
X10781500Y-13589000D01*
X10858500Y-5165000D02*
X10858500Y-5265000D01*
X10808500Y-5215000D02*
X10908500Y-5215000D01*
X10858500Y-5415000D02*
X10858500Y-5515000D01*
X10808500Y-5465000D02*
X10908500Y-5465000D01*
X10858500Y-5665000D02*
X10858500Y-5765000D01*
X10808500Y-5715000D02*
X10908500Y-5715000D01*
X4615134Y-6139134D02*
X4615134Y-6052866D01*
X4528866Y-6052866D01*
X4528866Y-6139134D01*
X4615134Y-6139134D01*
X5694634Y-6139134D02*
X5694634Y-6052866D01*
X5608366Y-6052866D01*
X5608366Y-6139134D01*
X5694634Y-6139134D01*
X6774134Y-6139134D02*
X6774134Y-6052866D01*
X6687866Y-6052866D01*
X6687866Y-6139134D01*
X6774134Y-6139134D01*
X12933634Y-6139134D02*
X12933634Y-6052866D01*
X12847366Y-6052866D01*
X12847366Y-6139134D01*
X12933634Y-6139134D01*
X12933634Y-12743134D02*
X12933634Y-12656866D01*
X12847366Y-12656866D01*
X12847366Y-12743134D01*
X12933634Y-12743134D01*
X4572000Y-5857000D02*
X4643000Y-5786000D01*
X4572000Y-5715000D01*
X4501000Y-5786000D01*
X4572000Y-5857000D01*
X5651500Y-5857000D02*
X5722500Y-5786000D01*
X5651500Y-5715000D01*
X5580500Y-5786000D01*
X5651500Y-5857000D01*
X6731000Y-5857000D02*
X6802000Y-5786000D01*
X6731000Y-5715000D01*
X6660000Y-5786000D01*
X6731000Y-5857000D01*
X12890500Y-5857000D02*
X12961500Y-5786000D01*
X12890500Y-5715000D01*
X12819500Y-5786000D01*
X12890500Y-5857000D01*
X12890500Y-13081000D02*
X12961500Y-13010000D01*
X12890500Y-12939000D01*
X12819500Y-13010000D01*
X12890500Y-13081000D01*
X4500500Y-4884500D02*
X4643500Y-5027500D01*
X4643500Y-4884500D02*
X4500500Y-5027500D01*
X4643500Y-4956000D02*
G75*
G03*
X4643500Y-4956000I-71500J0D01*
G01*
X5580000Y-4884500D02*
X5723000Y-5027500D01*
X5723000Y-4884500D02*
X5580000Y-5027500D01*
X5723000Y-4956000D02*
G75*
G03*
X5723000Y-4956000I-71500J0D01*
G01*
X6659500Y-4884500D02*
X6802500Y-5027500D01*
X6802500Y-4884500D02*
X6659500Y-5027500D01*
X6802500Y-4956000D02*
G75*
G03*
X6802500Y-4956000I-71500J0D01*
G01*
X12819000Y-4884500D02*
X12962000Y-5027500D01*
X12962000Y-4884500D02*
X12819000Y-5027500D01*
X12962000Y-4956000D02*
G75*
G03*
X12962000Y-4956000I-71500J0D01*
G01*
X12819000Y-13768500D02*
X12962000Y-13911500D01*
X12962000Y-13768500D02*
X12819000Y-13911500D01*
X12962000Y-13840000D02*
G75*
G03*
X12962000Y-13840000I-71500J0D01*
G01*
D12*
X4093928Y-14819214D02*
X4093928Y-14519214D01*
X4165357Y-14519214D01*
X4208214Y-14533500D01*
X4236786Y-14562071D01*
X4251071Y-14590643D01*
X4265357Y-14647786D01*
X4265357Y-14690643D01*
X4251071Y-14747786D01*
X4236786Y-14776357D01*
X4208214Y-14804929D01*
X4165357Y-14819214D01*
X4093928Y-14819214D01*
X4393928Y-14819214D02*
X4393928Y-14619214D01*
X4393928Y-14676357D02*
X4408214Y-14647786D01*
X4422500Y-14633500D01*
X4451071Y-14619214D01*
X4479643Y-14619214D01*
X4579643Y-14819214D02*
X4579643Y-14619214D01*
X4579643Y-14519214D02*
X4565357Y-14533500D01*
X4579643Y-14547786D01*
X4593928Y-14533500D01*
X4579643Y-14519214D01*
X4579643Y-14547786D01*
X4765357Y-14819214D02*
X4736786Y-14804929D01*
X4722500Y-14776357D01*
X4722500Y-14519214D01*
X4922500Y-14819214D02*
X4893928Y-14804929D01*
X4879643Y-14776357D01*
X4879643Y-14519214D01*
X5265357Y-14819214D02*
X5265357Y-14519214D01*
X5365357Y-14733500D01*
X5465357Y-14519214D01*
X5465357Y-14819214D01*
X5736786Y-14819214D02*
X5736786Y-14662071D01*
X5722500Y-14633500D01*
X5693928Y-14619214D01*
X5636786Y-14619214D01*
X5608214Y-14633500D01*
X5736786Y-14804929D02*
X5708214Y-14819214D01*
X5636786Y-14819214D01*
X5608214Y-14804929D01*
X5593928Y-14776357D01*
X5593928Y-14747786D01*
X5608214Y-14719214D01*
X5636786Y-14704929D01*
X5708214Y-14704929D01*
X5736786Y-14690643D01*
X5879643Y-14619214D02*
X5879643Y-14919214D01*
X5879643Y-14633500D02*
X5908214Y-14619214D01*
X5965357Y-14619214D01*
X5993928Y-14633500D01*
X6008214Y-14647786D01*
X6022500Y-14676357D01*
X6022500Y-14762071D01*
X6008214Y-14790643D01*
X5993928Y-14804929D01*
X5965357Y-14819214D01*
X5908214Y-14819214D01*
X5879643Y-14804929D01*
X6151071Y-14790643D02*
X6165357Y-14804929D01*
X6151071Y-14819214D01*
X6136786Y-14804929D01*
X6151071Y-14790643D01*
X6151071Y-14819214D01*
X6151071Y-14633500D02*
X6165357Y-14647786D01*
X6151071Y-14662071D01*
X6136786Y-14647786D01*
X6151071Y-14633500D01*
X6151071Y-14662071D01*
X3737500Y-15278500D02*
X3807500Y-15348500D01*
X3807500Y-15278500D02*
X3737500Y-15348500D01*
X4151071Y-15149214D02*
X4179643Y-15149214D01*
X4208214Y-15163500D01*
X4222500Y-15177786D01*
X4236786Y-15206357D01*
X4251071Y-15263500D01*
X4251071Y-15334929D01*
X4236786Y-15392071D01*
X4222500Y-15420643D01*
X4208214Y-15434929D01*
X4179643Y-15449214D01*
X4151071Y-15449214D01*
X4122500Y-15434929D01*
X4108214Y-15420643D01*
X4093928Y-15392071D01*
X4079643Y-15334929D01*
X4079643Y-15263500D01*
X4093928Y-15206357D01*
X4108214Y-15177786D01*
X4122500Y-15163500D01*
X4151071Y-15149214D01*
X4379643Y-15420643D02*
X4393928Y-15434929D01*
X4379643Y-15449214D01*
X4365357Y-15434929D01*
X4379643Y-15420643D01*
X4379643Y-15449214D01*
X4493928Y-15149214D02*
X4693928Y-15149214D01*
X4565357Y-15449214D01*
X4865357Y-15149214D02*
X4893928Y-15149214D01*
X4922500Y-15163500D01*
X4936786Y-15177786D01*
X4951071Y-15206357D01*
X4965357Y-15263500D01*
X4965357Y-15334929D01*
X4951071Y-15392071D01*
X4936786Y-15420643D01*
X4922500Y-15434929D01*
X4893928Y-15449214D01*
X4865357Y-15449214D01*
X4836786Y-15434929D01*
X4822500Y-15420643D01*
X4808214Y-15392071D01*
X4793928Y-15334929D01*
X4793928Y-15263500D01*
X4808214Y-15206357D01*
X4822500Y-15177786D01*
X4836786Y-15163500D01*
X4865357Y-15149214D01*
X5151071Y-15149214D02*
X5179643Y-15149214D01*
X5208214Y-15163500D01*
X5222500Y-15177786D01*
X5236786Y-15206357D01*
X5251071Y-15263500D01*
X5251071Y-15334929D01*
X5236786Y-15392071D01*
X5222500Y-15420643D01*
X5208214Y-15434929D01*
X5179643Y-15449214D01*
X5151071Y-15449214D01*
X5122500Y-15434929D01*
X5108214Y-15420643D01*
X5093928Y-15392071D01*
X5079643Y-15334929D01*
X5079643Y-15263500D01*
X5093928Y-15206357D01*
X5108214Y-15177786D01*
X5122500Y-15163500D01*
X5151071Y-15149214D01*
X5379643Y-15449214D02*
X5379643Y-15249214D01*
X5379643Y-15277786D02*
X5393928Y-15263500D01*
X5422500Y-15249214D01*
X5465357Y-15249214D01*
X5493928Y-15263500D01*
X5508214Y-15292071D01*
X5508214Y-15449214D01*
X5508214Y-15292071D02*
X5522500Y-15263500D01*
X5551071Y-15249214D01*
X5593928Y-15249214D01*
X5622500Y-15263500D01*
X5636786Y-15292071D01*
X5636786Y-15449214D01*
X5779643Y-15449214D02*
X5779643Y-15249214D01*
X5779643Y-15277786D02*
X5793928Y-15263500D01*
X5822500Y-15249214D01*
X5865357Y-15249214D01*
X5893928Y-15263500D01*
X5908214Y-15292071D01*
X5908214Y-15449214D01*
X5908214Y-15292071D02*
X5922500Y-15263500D01*
X5951071Y-15249214D01*
X5993928Y-15249214D01*
X6022500Y-15263500D01*
X6036786Y-15292071D01*
X6036786Y-15449214D01*
X6622500Y-15134929D02*
X6365357Y-15520643D01*
X7008214Y-15149214D02*
X7036786Y-15149214D01*
X7065357Y-15163500D01*
X7079643Y-15177786D01*
X7093928Y-15206357D01*
X7108214Y-15263500D01*
X7108214Y-15334929D01*
X7093928Y-15392071D01*
X7079643Y-15420643D01*
X7065357Y-15434929D01*
X7036786Y-15449214D01*
X7008214Y-15449214D01*
X6979643Y-15434929D01*
X6965357Y-15420643D01*
X6951071Y-15392071D01*
X6936786Y-15334929D01*
X6936786Y-15263500D01*
X6951071Y-15206357D01*
X6965357Y-15177786D01*
X6979643Y-15163500D01*
X7008214Y-15149214D01*
X7236786Y-15420643D02*
X7251071Y-15434929D01*
X7236786Y-15449214D01*
X7222500Y-15434929D01*
X7236786Y-15420643D01*
X7236786Y-15449214D01*
X7436786Y-15149214D02*
X7465357Y-15149214D01*
X7493928Y-15163500D01*
X7508214Y-15177786D01*
X7522500Y-15206357D01*
X7536786Y-15263500D01*
X7536786Y-15334929D01*
X7522500Y-15392071D01*
X7508214Y-15420643D01*
X7493928Y-15434929D01*
X7465357Y-15449214D01*
X7436786Y-15449214D01*
X7408214Y-15434929D01*
X7393928Y-15420643D01*
X7379643Y-15392071D01*
X7365357Y-15334929D01*
X7365357Y-15263500D01*
X7379643Y-15206357D01*
X7393928Y-15177786D01*
X7408214Y-15163500D01*
X7436786Y-15149214D01*
X7651071Y-15177786D02*
X7665357Y-15163500D01*
X7693928Y-15149214D01*
X7765357Y-15149214D01*
X7793928Y-15163500D01*
X7808214Y-15177786D01*
X7822500Y-15206357D01*
X7822500Y-15234929D01*
X7808214Y-15277786D01*
X7636786Y-15449214D01*
X7822500Y-15449214D01*
X7922500Y-15149214D02*
X8122500Y-15149214D01*
X7993928Y-15449214D01*
X8365357Y-15149214D02*
X8308214Y-15149214D01*
X8279643Y-15163500D01*
X8265357Y-15177786D01*
X8236786Y-15220643D01*
X8222500Y-15277786D01*
X8222500Y-15392071D01*
X8236786Y-15420643D01*
X8251071Y-15434929D01*
X8279643Y-15449214D01*
X8336786Y-15449214D01*
X8365357Y-15434929D01*
X8379643Y-15420643D01*
X8393928Y-15392071D01*
X8393928Y-15320643D01*
X8379643Y-15292071D01*
X8365357Y-15277786D01*
X8336786Y-15263500D01*
X8279643Y-15263500D01*
X8251071Y-15277786D01*
X8236786Y-15292071D01*
X8222500Y-15320643D01*
X8508214Y-15149214D02*
X8508214Y-15206357D01*
X8622500Y-15149214D02*
X8622500Y-15206357D01*
X9065357Y-15563500D02*
X9051071Y-15549214D01*
X9022500Y-15506357D01*
X9008214Y-15477786D01*
X8993928Y-15434929D01*
X8979643Y-15363500D01*
X8979643Y-15306357D01*
X8993928Y-15234929D01*
X9008214Y-15192071D01*
X9022500Y-15163500D01*
X9051071Y-15120643D01*
X9065357Y-15106357D01*
X9222500Y-15277786D02*
X9193928Y-15263500D01*
X9179643Y-15249214D01*
X9165357Y-15220643D01*
X9165357Y-15206357D01*
X9179643Y-15177786D01*
X9193928Y-15163500D01*
X9222500Y-15149214D01*
X9279643Y-15149214D01*
X9308214Y-15163500D01*
X9322500Y-15177786D01*
X9336786Y-15206357D01*
X9336786Y-15220643D01*
X9322500Y-15249214D01*
X9308214Y-15263500D01*
X9279643Y-15277786D01*
X9222500Y-15277786D01*
X9193928Y-15292071D01*
X9179643Y-15306357D01*
X9165357Y-15334929D01*
X9165357Y-15392071D01*
X9179643Y-15420643D01*
X9193928Y-15434929D01*
X9222500Y-15449214D01*
X9279643Y-15449214D01*
X9308214Y-15434929D01*
X9322500Y-15420643D01*
X9336786Y-15392071D01*
X9336786Y-15334929D01*
X9322500Y-15306357D01*
X9308214Y-15292071D01*
X9279643Y-15277786D01*
X9522500Y-15149214D02*
X9551071Y-15149214D01*
X9579643Y-15163500D01*
X9593928Y-15177786D01*
X9608214Y-15206357D01*
X9622500Y-15263500D01*
X9622500Y-15334929D01*
X9608214Y-15392071D01*
X9593928Y-15420643D01*
X9579643Y-15434929D01*
X9551071Y-15449214D01*
X9522500Y-15449214D01*
X9493928Y-15434929D01*
X9479643Y-15420643D01*
X9465357Y-15392071D01*
X9451071Y-15334929D01*
X9451071Y-15263500D01*
X9465357Y-15206357D01*
X9479643Y-15177786D01*
X9493928Y-15163500D01*
X9522500Y-15149214D01*
X9979643Y-15449214D02*
X9979643Y-15149214D01*
X10108214Y-15449214D02*
X10108214Y-15292071D01*
X10093928Y-15263500D01*
X10065357Y-15249214D01*
X10022500Y-15249214D01*
X9993928Y-15263500D01*
X9979643Y-15277786D01*
X10293928Y-15449214D02*
X10265357Y-15434929D01*
X10251071Y-15420643D01*
X10236786Y-15392071D01*
X10236786Y-15306357D01*
X10251071Y-15277786D01*
X10265357Y-15263500D01*
X10293928Y-15249214D01*
X10336786Y-15249214D01*
X10365357Y-15263500D01*
X10379643Y-15277786D01*
X10393928Y-15306357D01*
X10393928Y-15392071D01*
X10379643Y-15420643D01*
X10365357Y-15434929D01*
X10336786Y-15449214D01*
X10293928Y-15449214D01*
X10565357Y-15449214D02*
X10536786Y-15434929D01*
X10522500Y-15406357D01*
X10522500Y-15149214D01*
X10793928Y-15434929D02*
X10765357Y-15449214D01*
X10708214Y-15449214D01*
X10679643Y-15434929D01*
X10665357Y-15406357D01*
X10665357Y-15292071D01*
X10679643Y-15263500D01*
X10708214Y-15249214D01*
X10765357Y-15249214D01*
X10793928Y-15263500D01*
X10808214Y-15292071D01*
X10808214Y-15320643D01*
X10665357Y-15349214D01*
X10922500Y-15434929D02*
X10951071Y-15449214D01*
X11008214Y-15449214D01*
X11036786Y-15434929D01*
X11051071Y-15406357D01*
X11051071Y-15392071D01*
X11036786Y-15363500D01*
X11008214Y-15349214D01*
X10965357Y-15349214D01*
X10936786Y-15334929D01*
X10922500Y-15306357D01*
X10922500Y-15292071D01*
X10936786Y-15263500D01*
X10965357Y-15249214D01*
X11008214Y-15249214D01*
X11036786Y-15263500D01*
X11151071Y-15563500D02*
X11165357Y-15549214D01*
X11193928Y-15506357D01*
X11208214Y-15477786D01*
X11222500Y-15434929D01*
X11236786Y-15363500D01*
X11236786Y-15306357D01*
X11222500Y-15234929D01*
X11208214Y-15192071D01*
X11193928Y-15163500D01*
X11165357Y-15120643D01*
X11151071Y-15106357D01*
X3807500Y-15709500D02*
G75*
G03*
X3807500Y-15709500I-40000J0D01*
G01*
X4151071Y-15545214D02*
X4179643Y-15545214D01*
X4208214Y-15559500D01*
X4222500Y-15573786D01*
X4236786Y-15602357D01*
X4251071Y-15659500D01*
X4251071Y-15730929D01*
X4236786Y-15788071D01*
X4222500Y-15816643D01*
X4208214Y-15830929D01*
X4179643Y-15845214D01*
X4151071Y-15845214D01*
X4122500Y-15830929D01*
X4108214Y-15816643D01*
X4093928Y-15788071D01*
X4079643Y-15730929D01*
X4079643Y-15659500D01*
X4093928Y-15602357D01*
X4108214Y-15573786D01*
X4122500Y-15559500D01*
X4151071Y-15545214D01*
X4379643Y-15816643D02*
X4393928Y-15830929D01*
X4379643Y-15845214D01*
X4365357Y-15830929D01*
X4379643Y-15816643D01*
X4379643Y-15845214D01*
X4565357Y-15673786D02*
X4536786Y-15659500D01*
X4522500Y-15645214D01*
X4508214Y-15616643D01*
X4508214Y-15602357D01*
X4522500Y-15573786D01*
X4536786Y-15559500D01*
X4565357Y-15545214D01*
X4622500Y-15545214D01*
X4651071Y-15559500D01*
X4665357Y-15573786D01*
X4679643Y-15602357D01*
X4679643Y-15616643D01*
X4665357Y-15645214D01*
X4651071Y-15659500D01*
X4622500Y-15673786D01*
X4565357Y-15673786D01*
X4536786Y-15688071D01*
X4522500Y-15702357D01*
X4508214Y-15730929D01*
X4508214Y-15788071D01*
X4522500Y-15816643D01*
X4536786Y-15830929D01*
X4565357Y-15845214D01*
X4622500Y-15845214D01*
X4651071Y-15830929D01*
X4665357Y-15816643D01*
X4679643Y-15788071D01*
X4679643Y-15730929D01*
X4665357Y-15702357D01*
X4651071Y-15688071D01*
X4622500Y-15673786D01*
X4865357Y-15545214D02*
X4893928Y-15545214D01*
X4922500Y-15559500D01*
X4936786Y-15573786D01*
X4951071Y-15602357D01*
X4965357Y-15659500D01*
X4965357Y-15730929D01*
X4951071Y-15788071D01*
X4936786Y-15816643D01*
X4922500Y-15830929D01*
X4893928Y-15845214D01*
X4865357Y-15845214D01*
X4836786Y-15830929D01*
X4822500Y-15816643D01*
X4808214Y-15788071D01*
X4793928Y-15730929D01*
X4793928Y-15659500D01*
X4808214Y-15602357D01*
X4822500Y-15573786D01*
X4836786Y-15559500D01*
X4865357Y-15545214D01*
X5151071Y-15545214D02*
X5179643Y-15545214D01*
X5208214Y-15559500D01*
X5222500Y-15573786D01*
X5236786Y-15602357D01*
X5251071Y-15659500D01*
X5251071Y-15730929D01*
X5236786Y-15788071D01*
X5222500Y-15816643D01*
X5208214Y-15830929D01*
X5179643Y-15845214D01*
X5151071Y-15845214D01*
X5122500Y-15830929D01*
X5108214Y-15816643D01*
X5093928Y-15788071D01*
X5079643Y-15730929D01*
X5079643Y-15659500D01*
X5093928Y-15602357D01*
X5108214Y-15573786D01*
X5122500Y-15559500D01*
X5151071Y-15545214D01*
X5379643Y-15845214D02*
X5379643Y-15645214D01*
X5379643Y-15673786D02*
X5393928Y-15659500D01*
X5422500Y-15645214D01*
X5465357Y-15645214D01*
X5493928Y-15659500D01*
X5508214Y-15688071D01*
X5508214Y-15845214D01*
X5508214Y-15688071D02*
X5522500Y-15659500D01*
X5551071Y-15645214D01*
X5593928Y-15645214D01*
X5622500Y-15659500D01*
X5636786Y-15688071D01*
X5636786Y-15845214D01*
X5779643Y-15845214D02*
X5779643Y-15645214D01*
X5779643Y-15673786D02*
X5793928Y-15659500D01*
X5822500Y-15645214D01*
X5865357Y-15645214D01*
X5893928Y-15659500D01*
X5908214Y-15688071D01*
X5908214Y-15845214D01*
X5908214Y-15688071D02*
X5922500Y-15659500D01*
X5951071Y-15645214D01*
X5993928Y-15645214D01*
X6022500Y-15659500D01*
X6036786Y-15688071D01*
X6036786Y-15845214D01*
X6622500Y-15530929D02*
X6365357Y-15916643D01*
X7008214Y-15545214D02*
X7036786Y-15545214D01*
X7065357Y-15559500D01*
X7079643Y-15573786D01*
X7093928Y-15602357D01*
X7108214Y-15659500D01*
X7108214Y-15730929D01*
X7093928Y-15788071D01*
X7079643Y-15816643D01*
X7065357Y-15830929D01*
X7036786Y-15845214D01*
X7008214Y-15845214D01*
X6979643Y-15830929D01*
X6965357Y-15816643D01*
X6951071Y-15788071D01*
X6936786Y-15730929D01*
X6936786Y-15659500D01*
X6951071Y-15602357D01*
X6965357Y-15573786D01*
X6979643Y-15559500D01*
X7008214Y-15545214D01*
X7236786Y-15816643D02*
X7251071Y-15830929D01*
X7236786Y-15845214D01*
X7222500Y-15830929D01*
X7236786Y-15816643D01*
X7236786Y-15845214D01*
X7436786Y-15545214D02*
X7465357Y-15545214D01*
X7493928Y-15559500D01*
X7508214Y-15573786D01*
X7522500Y-15602357D01*
X7536786Y-15659500D01*
X7536786Y-15730929D01*
X7522500Y-15788071D01*
X7508214Y-15816643D01*
X7493928Y-15830929D01*
X7465357Y-15845214D01*
X7436786Y-15845214D01*
X7408214Y-15830929D01*
X7393928Y-15816643D01*
X7379643Y-15788071D01*
X7365357Y-15730929D01*
X7365357Y-15659500D01*
X7379643Y-15602357D01*
X7393928Y-15573786D01*
X7408214Y-15559500D01*
X7436786Y-15545214D01*
X7636786Y-15545214D02*
X7822500Y-15545214D01*
X7722500Y-15659500D01*
X7765357Y-15659500D01*
X7793928Y-15673786D01*
X7808214Y-15688071D01*
X7822500Y-15716643D01*
X7822500Y-15788071D01*
X7808214Y-15816643D01*
X7793928Y-15830929D01*
X7765357Y-15845214D01*
X7679643Y-15845214D01*
X7651071Y-15830929D01*
X7636786Y-15816643D01*
X8108214Y-15845214D02*
X7936786Y-15845214D01*
X8022500Y-15845214D02*
X8022500Y-15545214D01*
X7993928Y-15588071D01*
X7965357Y-15616643D01*
X7936786Y-15630929D01*
X8379643Y-15545214D02*
X8236786Y-15545214D01*
X8222500Y-15688071D01*
X8236786Y-15673786D01*
X8265357Y-15659500D01*
X8336786Y-15659500D01*
X8365357Y-15673786D01*
X8379643Y-15688071D01*
X8393928Y-15716643D01*
X8393928Y-15788071D01*
X8379643Y-15816643D01*
X8365357Y-15830929D01*
X8336786Y-15845214D01*
X8265357Y-15845214D01*
X8236786Y-15830929D01*
X8222500Y-15816643D01*
X8508214Y-15545214D02*
X8508214Y-15602357D01*
X8622500Y-15545214D02*
X8622500Y-15602357D01*
X9065357Y-15959500D02*
X9051071Y-15945214D01*
X9022500Y-15902357D01*
X9008214Y-15873786D01*
X8993928Y-15830929D01*
X8979643Y-15759500D01*
X8979643Y-15702357D01*
X8993928Y-15630929D01*
X9008214Y-15588071D01*
X9022500Y-15559500D01*
X9051071Y-15516643D01*
X9065357Y-15502357D01*
X9336786Y-15845214D02*
X9165357Y-15845214D01*
X9251071Y-15845214D02*
X9251071Y-15545214D01*
X9222500Y-15588071D01*
X9193928Y-15616643D01*
X9165357Y-15630929D01*
X9522500Y-15545214D02*
X9551071Y-15545214D01*
X9579643Y-15559500D01*
X9593928Y-15573786D01*
X9608214Y-15602357D01*
X9622500Y-15659500D01*
X9622500Y-15730929D01*
X9608214Y-15788071D01*
X9593928Y-15816643D01*
X9579643Y-15830929D01*
X9551071Y-15845214D01*
X9522500Y-15845214D01*
X9493928Y-15830929D01*
X9479643Y-15816643D01*
X9465357Y-15788071D01*
X9451071Y-15730929D01*
X9451071Y-15659500D01*
X9465357Y-15602357D01*
X9479643Y-15573786D01*
X9493928Y-15559500D01*
X9522500Y-15545214D01*
X9793928Y-15673786D02*
X9765357Y-15659500D01*
X9751071Y-15645214D01*
X9736786Y-15616643D01*
X9736786Y-15602357D01*
X9751071Y-15573786D01*
X9765357Y-15559500D01*
X9793928Y-15545214D01*
X9851071Y-15545214D01*
X9879643Y-15559500D01*
X9893928Y-15573786D01*
X9908214Y-15602357D01*
X9908214Y-15616643D01*
X9893928Y-15645214D01*
X9879643Y-15659500D01*
X9851071Y-15673786D01*
X9793928Y-15673786D01*
X9765357Y-15688071D01*
X9751071Y-15702357D01*
X9736786Y-15730929D01*
X9736786Y-15788071D01*
X9751071Y-15816643D01*
X9765357Y-15830929D01*
X9793928Y-15845214D01*
X9851071Y-15845214D01*
X9879643Y-15830929D01*
X9893928Y-15816643D01*
X9908214Y-15788071D01*
X9908214Y-15730929D01*
X9893928Y-15702357D01*
X9879643Y-15688071D01*
X9851071Y-15673786D01*
X10265357Y-15845214D02*
X10265357Y-15545214D01*
X10393928Y-15845214D02*
X10393928Y-15688071D01*
X10379643Y-15659500D01*
X10351071Y-15645214D01*
X10308214Y-15645214D01*
X10279643Y-15659500D01*
X10265357Y-15673786D01*
X10579643Y-15845214D02*
X10551071Y-15830929D01*
X10536786Y-15816643D01*
X10522500Y-15788071D01*
X10522500Y-15702357D01*
X10536786Y-15673786D01*
X10551071Y-15659500D01*
X10579643Y-15645214D01*
X10622500Y-15645214D01*
X10651071Y-15659500D01*
X10665357Y-15673786D01*
X10679643Y-15702357D01*
X10679643Y-15788071D01*
X10665357Y-15816643D01*
X10651071Y-15830929D01*
X10622500Y-15845214D01*
X10579643Y-15845214D01*
X10851071Y-15845214D02*
X10822500Y-15830929D01*
X10808214Y-15802357D01*
X10808214Y-15545214D01*
X11079643Y-15830929D02*
X11051071Y-15845214D01*
X10993928Y-15845214D01*
X10965357Y-15830929D01*
X10951071Y-15802357D01*
X10951071Y-15688071D01*
X10965357Y-15659500D01*
X10993928Y-15645214D01*
X11051071Y-15645214D01*
X11079643Y-15659500D01*
X11093928Y-15688071D01*
X11093928Y-15716643D01*
X10951071Y-15745214D01*
X11208214Y-15830929D02*
X11236786Y-15845214D01*
X11293928Y-15845214D01*
X11322500Y-15830929D01*
X11336786Y-15802357D01*
X11336786Y-15788071D01*
X11322500Y-15759500D01*
X11293928Y-15745214D01*
X11251071Y-15745214D01*
X11222500Y-15730929D01*
X11208214Y-15702357D01*
X11208214Y-15688071D01*
X11222500Y-15659500D01*
X11251071Y-15645214D01*
X11293928Y-15645214D01*
X11322500Y-15659500D01*
X11436786Y-15959500D02*
X11451071Y-15945214D01*
X11479643Y-15902357D01*
X11493928Y-15873786D01*
X11508214Y-15830929D01*
X11522500Y-15759500D01*
X11522500Y-15702357D01*
X11508214Y-15630929D01*
X11493928Y-15588071D01*
X11479643Y-15559500D01*
X11451071Y-15516643D01*
X11436786Y-15502357D01*
X3757500Y-16055500D02*
X3757500Y-16155500D01*
X3707500Y-16105500D02*
X3807500Y-16105500D01*
X4251071Y-16241214D02*
X4079643Y-16241214D01*
X4165357Y-16241214D02*
X4165357Y-15941214D01*
X4136786Y-15984071D01*
X4108214Y-16012643D01*
X4079643Y-16026929D01*
X4379643Y-16212643D02*
X4393928Y-16226929D01*
X4379643Y-16241214D01*
X4365357Y-16226929D01*
X4379643Y-16212643D01*
X4379643Y-16241214D01*
X4579643Y-15941214D02*
X4608214Y-15941214D01*
X4636786Y-15955500D01*
X4651071Y-15969786D01*
X4665357Y-15998357D01*
X4679643Y-16055500D01*
X4679643Y-16126929D01*
X4665357Y-16184071D01*
X4651071Y-16212643D01*
X4636786Y-16226929D01*
X4608214Y-16241214D01*
X4579643Y-16241214D01*
X4551071Y-16226929D01*
X4536786Y-16212643D01*
X4522500Y-16184071D01*
X4508214Y-16126929D01*
X4508214Y-16055500D01*
X4522500Y-15998357D01*
X4536786Y-15969786D01*
X4551071Y-15955500D01*
X4579643Y-15941214D01*
X4865357Y-15941214D02*
X4893928Y-15941214D01*
X4922500Y-15955500D01*
X4936786Y-15969786D01*
X4951071Y-15998357D01*
X4965357Y-16055500D01*
X4965357Y-16126929D01*
X4951071Y-16184071D01*
X4936786Y-16212643D01*
X4922500Y-16226929D01*
X4893928Y-16241214D01*
X4865357Y-16241214D01*
X4836786Y-16226929D01*
X4822500Y-16212643D01*
X4808214Y-16184071D01*
X4793928Y-16126929D01*
X4793928Y-16055500D01*
X4808214Y-15998357D01*
X4822500Y-15969786D01*
X4836786Y-15955500D01*
X4865357Y-15941214D01*
X5151071Y-15941214D02*
X5179643Y-15941214D01*
X5208214Y-15955500D01*
X5222500Y-15969786D01*
X5236786Y-15998357D01*
X5251071Y-16055500D01*
X5251071Y-16126929D01*
X5236786Y-16184071D01*
X5222500Y-16212643D01*
X5208214Y-16226929D01*
X5179643Y-16241214D01*
X5151071Y-16241214D01*
X5122500Y-16226929D01*
X5108214Y-16212643D01*
X5093928Y-16184071D01*
X5079643Y-16126929D01*
X5079643Y-16055500D01*
X5093928Y-15998357D01*
X5108214Y-15969786D01*
X5122500Y-15955500D01*
X5151071Y-15941214D01*
X5379643Y-16241214D02*
X5379643Y-16041214D01*
X5379643Y-16069786D02*
X5393928Y-16055500D01*
X5422500Y-16041214D01*
X5465357Y-16041214D01*
X5493928Y-16055500D01*
X5508214Y-16084071D01*
X5508214Y-16241214D01*
X5508214Y-16084071D02*
X5522500Y-16055500D01*
X5551071Y-16041214D01*
X5593928Y-16041214D01*
X5622500Y-16055500D01*
X5636786Y-16084071D01*
X5636786Y-16241214D01*
X5779643Y-16241214D02*
X5779643Y-16041214D01*
X5779643Y-16069786D02*
X5793928Y-16055500D01*
X5822500Y-16041214D01*
X5865357Y-16041214D01*
X5893928Y-16055500D01*
X5908214Y-16084071D01*
X5908214Y-16241214D01*
X5908214Y-16084071D02*
X5922500Y-16055500D01*
X5951071Y-16041214D01*
X5993928Y-16041214D01*
X6022500Y-16055500D01*
X6036786Y-16084071D01*
X6036786Y-16241214D01*
X6622500Y-15926929D02*
X6365357Y-16312643D01*
X7008214Y-15941214D02*
X7036786Y-15941214D01*
X7065357Y-15955500D01*
X7079643Y-15969786D01*
X7093928Y-15998357D01*
X7108214Y-16055500D01*
X7108214Y-16126929D01*
X7093928Y-16184071D01*
X7079643Y-16212643D01*
X7065357Y-16226929D01*
X7036786Y-16241214D01*
X7008214Y-16241214D01*
X6979643Y-16226929D01*
X6965357Y-16212643D01*
X6951071Y-16184071D01*
X6936786Y-16126929D01*
X6936786Y-16055500D01*
X6951071Y-15998357D01*
X6965357Y-15969786D01*
X6979643Y-15955500D01*
X7008214Y-15941214D01*
X7236786Y-16212643D02*
X7251071Y-16226929D01*
X7236786Y-16241214D01*
X7222500Y-16226929D01*
X7236786Y-16212643D01*
X7236786Y-16241214D01*
X7436786Y-15941214D02*
X7465357Y-15941214D01*
X7493928Y-15955500D01*
X7508214Y-15969786D01*
X7522500Y-15998357D01*
X7536786Y-16055500D01*
X7536786Y-16126929D01*
X7522500Y-16184071D01*
X7508214Y-16212643D01*
X7493928Y-16226929D01*
X7465357Y-16241214D01*
X7436786Y-16241214D01*
X7408214Y-16226929D01*
X7393928Y-16212643D01*
X7379643Y-16184071D01*
X7365357Y-16126929D01*
X7365357Y-16055500D01*
X7379643Y-15998357D01*
X7393928Y-15969786D01*
X7408214Y-15955500D01*
X7436786Y-15941214D01*
X7636786Y-15941214D02*
X7822500Y-15941214D01*
X7722500Y-16055500D01*
X7765357Y-16055500D01*
X7793928Y-16069786D01*
X7808214Y-16084071D01*
X7822500Y-16112643D01*
X7822500Y-16184071D01*
X7808214Y-16212643D01*
X7793928Y-16226929D01*
X7765357Y-16241214D01*
X7679643Y-16241214D01*
X7651071Y-16226929D01*
X7636786Y-16212643D01*
X7965357Y-16241214D02*
X8022500Y-16241214D01*
X8051071Y-16226929D01*
X8065357Y-16212643D01*
X8093928Y-16169786D01*
X8108214Y-16112643D01*
X8108214Y-15998357D01*
X8093928Y-15969786D01*
X8079643Y-15955500D01*
X8051071Y-15941214D01*
X7993928Y-15941214D01*
X7965357Y-15955500D01*
X7951071Y-15969786D01*
X7936786Y-15998357D01*
X7936786Y-16069786D01*
X7951071Y-16098357D01*
X7965357Y-16112643D01*
X7993928Y-16126929D01*
X8051071Y-16126929D01*
X8079643Y-16112643D01*
X8093928Y-16098357D01*
X8108214Y-16069786D01*
X8365357Y-16041214D02*
X8365357Y-16241214D01*
X8293928Y-15926929D02*
X8222500Y-16141214D01*
X8408214Y-16141214D01*
X8508214Y-15941214D02*
X8508214Y-15998357D01*
X8622500Y-15941214D02*
X8622500Y-15998357D01*
X9065357Y-16355500D02*
X9051071Y-16341214D01*
X9022500Y-16298357D01*
X9008214Y-16269786D01*
X8993928Y-16226929D01*
X8979643Y-16155500D01*
X8979643Y-16098357D01*
X8993928Y-16026929D01*
X9008214Y-15984071D01*
X9022500Y-15955500D01*
X9051071Y-15912643D01*
X9065357Y-15898357D01*
X9151071Y-15941214D02*
X9336786Y-15941214D01*
X9236786Y-16055500D01*
X9279643Y-16055500D01*
X9308214Y-16069786D01*
X9322500Y-16084071D01*
X9336786Y-16112643D01*
X9336786Y-16184071D01*
X9322500Y-16212643D01*
X9308214Y-16226929D01*
X9279643Y-16241214D01*
X9193928Y-16241214D01*
X9165357Y-16226929D01*
X9151071Y-16212643D01*
X9622500Y-16241214D02*
X9451071Y-16241214D01*
X9536786Y-16241214D02*
X9536786Y-15941214D01*
X9508214Y-15984071D01*
X9479643Y-16012643D01*
X9451071Y-16026929D01*
X9979643Y-16241214D02*
X9979643Y-15941214D01*
X10108214Y-16241214D02*
X10108214Y-16084071D01*
X10093928Y-16055500D01*
X10065357Y-16041214D01*
X10022500Y-16041214D01*
X9993928Y-16055500D01*
X9979643Y-16069786D01*
X10293928Y-16241214D02*
X10265357Y-16226929D01*
X10251071Y-16212643D01*
X10236786Y-16184071D01*
X10236786Y-16098357D01*
X10251071Y-16069786D01*
X10265357Y-16055500D01*
X10293928Y-16041214D01*
X10336786Y-16041214D01*
X10365357Y-16055500D01*
X10379643Y-16069786D01*
X10393928Y-16098357D01*
X10393928Y-16184071D01*
X10379643Y-16212643D01*
X10365357Y-16226929D01*
X10336786Y-16241214D01*
X10293928Y-16241214D01*
X10565357Y-16241214D02*
X10536786Y-16226929D01*
X10522500Y-16198357D01*
X10522500Y-15941214D01*
X10793928Y-16226929D02*
X10765357Y-16241214D01*
X10708214Y-16241214D01*
X10679643Y-16226929D01*
X10665357Y-16198357D01*
X10665357Y-16084071D01*
X10679643Y-16055500D01*
X10708214Y-16041214D01*
X10765357Y-16041214D01*
X10793928Y-16055500D01*
X10808214Y-16084071D01*
X10808214Y-16112643D01*
X10665357Y-16141214D01*
X10922500Y-16226929D02*
X10951071Y-16241214D01*
X11008214Y-16241214D01*
X11036786Y-16226929D01*
X11051071Y-16198357D01*
X11051071Y-16184071D01*
X11036786Y-16155500D01*
X11008214Y-16141214D01*
X10965357Y-16141214D01*
X10936786Y-16126929D01*
X10922500Y-16098357D01*
X10922500Y-16084071D01*
X10936786Y-16055500D01*
X10965357Y-16041214D01*
X11008214Y-16041214D01*
X11036786Y-16055500D01*
X11408214Y-16126929D02*
X11636786Y-16126929D01*
X11522500Y-16241214D02*
X11522500Y-16012643D01*
X11979643Y-15941214D02*
X12165357Y-15941214D01*
X12065357Y-16055500D01*
X12108214Y-16055500D01*
X12136786Y-16069786D01*
X12151071Y-16084071D01*
X12165357Y-16112643D01*
X12165357Y-16184071D01*
X12151071Y-16212643D01*
X12136786Y-16226929D01*
X12108214Y-16241214D01*
X12022500Y-16241214D01*
X11993928Y-16226929D01*
X11979643Y-16212643D01*
X12508214Y-16226929D02*
X12536786Y-16241214D01*
X12593928Y-16241214D01*
X12622500Y-16226929D01*
X12636786Y-16198357D01*
X12636786Y-16184071D01*
X12622500Y-16155500D01*
X12593928Y-16141214D01*
X12551071Y-16141214D01*
X12522500Y-16126929D01*
X12508214Y-16098357D01*
X12508214Y-16084071D01*
X12522500Y-16055500D01*
X12551071Y-16041214D01*
X12593928Y-16041214D01*
X12622500Y-16055500D01*
X12808214Y-16241214D02*
X12779643Y-16226929D01*
X12765357Y-16198357D01*
X12765357Y-15941214D01*
X12965357Y-16241214D02*
X12936786Y-16226929D01*
X12922500Y-16212643D01*
X12908214Y-16184071D01*
X12908214Y-16098357D01*
X12922500Y-16069786D01*
X12936786Y-16055500D01*
X12965357Y-16041214D01*
X13008214Y-16041214D01*
X13036786Y-16055500D01*
X13051071Y-16069786D01*
X13065357Y-16098357D01*
X13065357Y-16184071D01*
X13051071Y-16212643D01*
X13036786Y-16226929D01*
X13008214Y-16241214D01*
X12965357Y-16241214D01*
X13151071Y-16041214D02*
X13265357Y-16041214D01*
X13193928Y-15941214D02*
X13193928Y-16198357D01*
X13208214Y-16226929D01*
X13236786Y-16241214D01*
X13265357Y-16241214D01*
X13351071Y-16226929D02*
X13379643Y-16241214D01*
X13436786Y-16241214D01*
X13465357Y-16226929D01*
X13479643Y-16198357D01*
X13479643Y-16184071D01*
X13465357Y-16155500D01*
X13436786Y-16141214D01*
X13393928Y-16141214D01*
X13365357Y-16126929D01*
X13351071Y-16098357D01*
X13351071Y-16084071D01*
X13365357Y-16055500D01*
X13393928Y-16041214D01*
X13436786Y-16041214D01*
X13465357Y-16055500D01*
X13579643Y-16355500D02*
X13593928Y-16341214D01*
X13622500Y-16298357D01*
X13636786Y-16269786D01*
X13651071Y-16226929D01*
X13665357Y-16155500D01*
X13665357Y-16098357D01*
X13651071Y-16026929D01*
X13636786Y-15984071D01*
X13622500Y-15955500D01*
X13593928Y-15912643D01*
X13579643Y-15898357D01*
X3789634Y-16544634D02*
X3789634Y-16458366D01*
X3703366Y-16458366D01*
X3703366Y-16544634D01*
X3789634Y-16544634D01*
X4251071Y-16637214D02*
X4079643Y-16637214D01*
X4165357Y-16637214D02*
X4165357Y-16337214D01*
X4136786Y-16380071D01*
X4108214Y-16408643D01*
X4079643Y-16422929D01*
X4379643Y-16608643D02*
X4393928Y-16622929D01*
X4379643Y-16637214D01*
X4365357Y-16622929D01*
X4379643Y-16608643D01*
X4379643Y-16637214D01*
X4508214Y-16365786D02*
X4522500Y-16351500D01*
X4551071Y-16337214D01*
X4622500Y-16337214D01*
X4651071Y-16351500D01*
X4665357Y-16365786D01*
X4679643Y-16394357D01*
X4679643Y-16422929D01*
X4665357Y-16465786D01*
X4493928Y-16637214D01*
X4679643Y-16637214D01*
X4793928Y-16365786D02*
X4808214Y-16351500D01*
X4836786Y-16337214D01*
X4908214Y-16337214D01*
X4936786Y-16351500D01*
X4951071Y-16365786D01*
X4965357Y-16394357D01*
X4965357Y-16422929D01*
X4951071Y-16465786D01*
X4779643Y-16637214D01*
X4965357Y-16637214D01*
X5151071Y-16337214D02*
X5179643Y-16337214D01*
X5208214Y-16351500D01*
X5222500Y-16365786D01*
X5236786Y-16394357D01*
X5251071Y-16451500D01*
X5251071Y-16522929D01*
X5236786Y-16580071D01*
X5222500Y-16608643D01*
X5208214Y-16622929D01*
X5179643Y-16637214D01*
X5151071Y-16637214D01*
X5122500Y-16622929D01*
X5108214Y-16608643D01*
X5093928Y-16580071D01*
X5079643Y-16522929D01*
X5079643Y-16451500D01*
X5093928Y-16394357D01*
X5108214Y-16365786D01*
X5122500Y-16351500D01*
X5151071Y-16337214D01*
X5379643Y-16637214D02*
X5379643Y-16437214D01*
X5379643Y-16465786D02*
X5393928Y-16451500D01*
X5422500Y-16437214D01*
X5465357Y-16437214D01*
X5493928Y-16451500D01*
X5508214Y-16480071D01*
X5508214Y-16637214D01*
X5508214Y-16480071D02*
X5522500Y-16451500D01*
X5551071Y-16437214D01*
X5593928Y-16437214D01*
X5622500Y-16451500D01*
X5636786Y-16480071D01*
X5636786Y-16637214D01*
X5779643Y-16637214D02*
X5779643Y-16437214D01*
X5779643Y-16465786D02*
X5793928Y-16451500D01*
X5822500Y-16437214D01*
X5865357Y-16437214D01*
X5893928Y-16451500D01*
X5908214Y-16480071D01*
X5908214Y-16637214D01*
X5908214Y-16480071D02*
X5922500Y-16451500D01*
X5951071Y-16437214D01*
X5993928Y-16437214D01*
X6022500Y-16451500D01*
X6036786Y-16480071D01*
X6036786Y-16637214D01*
X6622500Y-16322929D02*
X6365357Y-16708643D01*
X7008214Y-16337214D02*
X7036786Y-16337214D01*
X7065357Y-16351500D01*
X7079643Y-16365786D01*
X7093928Y-16394357D01*
X7108214Y-16451500D01*
X7108214Y-16522929D01*
X7093928Y-16580071D01*
X7079643Y-16608643D01*
X7065357Y-16622929D01*
X7036786Y-16637214D01*
X7008214Y-16637214D01*
X6979643Y-16622929D01*
X6965357Y-16608643D01*
X6951071Y-16580071D01*
X6936786Y-16522929D01*
X6936786Y-16451500D01*
X6951071Y-16394357D01*
X6965357Y-16365786D01*
X6979643Y-16351500D01*
X7008214Y-16337214D01*
X7236786Y-16608643D02*
X7251071Y-16622929D01*
X7236786Y-16637214D01*
X7222500Y-16622929D01*
X7236786Y-16608643D01*
X7236786Y-16637214D01*
X7436786Y-16337214D02*
X7465357Y-16337214D01*
X7493928Y-16351500D01*
X7508214Y-16365786D01*
X7522500Y-16394357D01*
X7536786Y-16451500D01*
X7536786Y-16522929D01*
X7522500Y-16580071D01*
X7508214Y-16608643D01*
X7493928Y-16622929D01*
X7465357Y-16637214D01*
X7436786Y-16637214D01*
X7408214Y-16622929D01*
X7393928Y-16608643D01*
X7379643Y-16580071D01*
X7365357Y-16522929D01*
X7365357Y-16451500D01*
X7379643Y-16394357D01*
X7393928Y-16365786D01*
X7408214Y-16351500D01*
X7436786Y-16337214D01*
X7793928Y-16437214D02*
X7793928Y-16637214D01*
X7722500Y-16322929D02*
X7651071Y-16537214D01*
X7836786Y-16537214D01*
X7993928Y-16465786D02*
X7965357Y-16451500D01*
X7951071Y-16437214D01*
X7936786Y-16408643D01*
X7936786Y-16394357D01*
X7951071Y-16365786D01*
X7965357Y-16351500D01*
X7993928Y-16337214D01*
X8051071Y-16337214D01*
X8079643Y-16351500D01*
X8093928Y-16365786D01*
X8108214Y-16394357D01*
X8108214Y-16408643D01*
X8093928Y-16437214D01*
X8079643Y-16451500D01*
X8051071Y-16465786D01*
X7993928Y-16465786D01*
X7965357Y-16480071D01*
X7951071Y-16494357D01*
X7936786Y-16522929D01*
X7936786Y-16580071D01*
X7951071Y-16608643D01*
X7965357Y-16622929D01*
X7993928Y-16637214D01*
X8051071Y-16637214D01*
X8079643Y-16622929D01*
X8093928Y-16608643D01*
X8108214Y-16580071D01*
X8108214Y-16522929D01*
X8093928Y-16494357D01*
X8079643Y-16480071D01*
X8051071Y-16465786D01*
X8293928Y-16337214D02*
X8322500Y-16337214D01*
X8351071Y-16351500D01*
X8365357Y-16365786D01*
X8379643Y-16394357D01*
X8393928Y-16451500D01*
X8393928Y-16522929D01*
X8379643Y-16580071D01*
X8365357Y-16608643D01*
X8351071Y-16622929D01*
X8322500Y-16637214D01*
X8293928Y-16637214D01*
X8265357Y-16622929D01*
X8251071Y-16608643D01*
X8236786Y-16580071D01*
X8222500Y-16522929D01*
X8222500Y-16451500D01*
X8236786Y-16394357D01*
X8251071Y-16365786D01*
X8265357Y-16351500D01*
X8293928Y-16337214D01*
X8508214Y-16337214D02*
X8508214Y-16394357D01*
X8622500Y-16337214D02*
X8622500Y-16394357D01*
X9065357Y-16751500D02*
X9051071Y-16737214D01*
X9022500Y-16694357D01*
X9008214Y-16665786D01*
X8993928Y-16622929D01*
X8979643Y-16551500D01*
X8979643Y-16494357D01*
X8993928Y-16422929D01*
X9008214Y-16380071D01*
X9022500Y-16351500D01*
X9051071Y-16308643D01*
X9065357Y-16294357D01*
X9322500Y-16337214D02*
X9179643Y-16337214D01*
X9165357Y-16480071D01*
X9179643Y-16465786D01*
X9208214Y-16451500D01*
X9279643Y-16451500D01*
X9308214Y-16465786D01*
X9322500Y-16480071D01*
X9336786Y-16508643D01*
X9336786Y-16580071D01*
X9322500Y-16608643D01*
X9308214Y-16622929D01*
X9279643Y-16637214D01*
X9208214Y-16637214D01*
X9179643Y-16622929D01*
X9165357Y-16608643D01*
X9693928Y-16637214D02*
X9693928Y-16337214D01*
X9822500Y-16637214D02*
X9822500Y-16480071D01*
X9808214Y-16451500D01*
X9779643Y-16437214D01*
X9736786Y-16437214D01*
X9708214Y-16451500D01*
X9693928Y-16465786D01*
X10008214Y-16637214D02*
X9979643Y-16622929D01*
X9965357Y-16608643D01*
X9951071Y-16580071D01*
X9951071Y-16494357D01*
X9965357Y-16465786D01*
X9979643Y-16451500D01*
X10008214Y-16437214D01*
X10051071Y-16437214D01*
X10079643Y-16451500D01*
X10093928Y-16465786D01*
X10108214Y-16494357D01*
X10108214Y-16580071D01*
X10093928Y-16608643D01*
X10079643Y-16622929D01*
X10051071Y-16637214D01*
X10008214Y-16637214D01*
X10279643Y-16637214D02*
X10251071Y-16622929D01*
X10236786Y-16594357D01*
X10236786Y-16337214D01*
X10508214Y-16622929D02*
X10479643Y-16637214D01*
X10422500Y-16637214D01*
X10393928Y-16622929D01*
X10379643Y-16594357D01*
X10379643Y-16480071D01*
X10393928Y-16451500D01*
X10422500Y-16437214D01*
X10479643Y-16437214D01*
X10508214Y-16451500D01*
X10522500Y-16480071D01*
X10522500Y-16508643D01*
X10379643Y-16537214D01*
X10636786Y-16622929D02*
X10665357Y-16637214D01*
X10722500Y-16637214D01*
X10751071Y-16622929D01*
X10765357Y-16594357D01*
X10765357Y-16580071D01*
X10751071Y-16551500D01*
X10722500Y-16537214D01*
X10679643Y-16537214D01*
X10651071Y-16522929D01*
X10636786Y-16494357D01*
X10636786Y-16480071D01*
X10651071Y-16451500D01*
X10679643Y-16437214D01*
X10722500Y-16437214D01*
X10751071Y-16451500D01*
X10865357Y-16751500D02*
X10879643Y-16737214D01*
X10908214Y-16694357D01*
X10922500Y-16665786D01*
X10936786Y-16622929D01*
X10951071Y-16551500D01*
X10951071Y-16494357D01*
X10936786Y-16422929D01*
X10922500Y-16380071D01*
X10908214Y-16351500D01*
X10879643Y-16308643D01*
X10865357Y-16294357D01*
X3736500Y-16968500D02*
X3807500Y-16897500D01*
X3736500Y-16826500D01*
X3665500Y-16897500D01*
X3736500Y-16968500D01*
X4251071Y-17033214D02*
X4079643Y-17033214D01*
X4165357Y-17033214D02*
X4165357Y-16733214D01*
X4136786Y-16776071D01*
X4108214Y-16804643D01*
X4079643Y-16818929D01*
X4379643Y-17004643D02*
X4393928Y-17018929D01*
X4379643Y-17033214D01*
X4365357Y-17018929D01*
X4379643Y-17004643D01*
X4379643Y-17033214D01*
X4651071Y-16833214D02*
X4651071Y-17033214D01*
X4579643Y-16718929D02*
X4508214Y-16933214D01*
X4693928Y-16933214D01*
X4793928Y-16761786D02*
X4808214Y-16747500D01*
X4836786Y-16733214D01*
X4908214Y-16733214D01*
X4936786Y-16747500D01*
X4951071Y-16761786D01*
X4965357Y-16790357D01*
X4965357Y-16818929D01*
X4951071Y-16861786D01*
X4779643Y-17033214D01*
X4965357Y-17033214D01*
X5151071Y-16733214D02*
X5179643Y-16733214D01*
X5208214Y-16747500D01*
X5222500Y-16761786D01*
X5236786Y-16790357D01*
X5251071Y-16847500D01*
X5251071Y-16918929D01*
X5236786Y-16976072D01*
X5222500Y-17004643D01*
X5208214Y-17018929D01*
X5179643Y-17033214D01*
X5151071Y-17033214D01*
X5122500Y-17018929D01*
X5108214Y-17004643D01*
X5093928Y-16976072D01*
X5079643Y-16918929D01*
X5079643Y-16847500D01*
X5093928Y-16790357D01*
X5108214Y-16761786D01*
X5122500Y-16747500D01*
X5151071Y-16733214D01*
X5379643Y-17033214D02*
X5379643Y-16833214D01*
X5379643Y-16861786D02*
X5393928Y-16847500D01*
X5422500Y-16833214D01*
X5465357Y-16833214D01*
X5493928Y-16847500D01*
X5508214Y-16876072D01*
X5508214Y-17033214D01*
X5508214Y-16876072D02*
X5522500Y-16847500D01*
X5551071Y-16833214D01*
X5593928Y-16833214D01*
X5622500Y-16847500D01*
X5636786Y-16876072D01*
X5636786Y-17033214D01*
X5779643Y-17033214D02*
X5779643Y-16833214D01*
X5779643Y-16861786D02*
X5793928Y-16847500D01*
X5822500Y-16833214D01*
X5865357Y-16833214D01*
X5893928Y-16847500D01*
X5908214Y-16876072D01*
X5908214Y-17033214D01*
X5908214Y-16876072D02*
X5922500Y-16847500D01*
X5951071Y-16833214D01*
X5993928Y-16833214D01*
X6022500Y-16847500D01*
X6036786Y-16876072D01*
X6036786Y-17033214D01*
X6622500Y-16718929D02*
X6365357Y-17104643D01*
X7008214Y-16733214D02*
X7036786Y-16733214D01*
X7065357Y-16747500D01*
X7079643Y-16761786D01*
X7093928Y-16790357D01*
X7108214Y-16847500D01*
X7108214Y-16918929D01*
X7093928Y-16976072D01*
X7079643Y-17004643D01*
X7065357Y-17018929D01*
X7036786Y-17033214D01*
X7008214Y-17033214D01*
X6979643Y-17018929D01*
X6965357Y-17004643D01*
X6951071Y-16976072D01*
X6936786Y-16918929D01*
X6936786Y-16847500D01*
X6951071Y-16790357D01*
X6965357Y-16761786D01*
X6979643Y-16747500D01*
X7008214Y-16733214D01*
X7236786Y-17004643D02*
X7251071Y-17018929D01*
X7236786Y-17033214D01*
X7222500Y-17018929D01*
X7236786Y-17004643D01*
X7236786Y-17033214D01*
X7436786Y-16733214D02*
X7465357Y-16733214D01*
X7493928Y-16747500D01*
X7508214Y-16761786D01*
X7522500Y-16790357D01*
X7536786Y-16847500D01*
X7536786Y-16918929D01*
X7522500Y-16976072D01*
X7508214Y-17004643D01*
X7493928Y-17018929D01*
X7465357Y-17033214D01*
X7436786Y-17033214D01*
X7408214Y-17018929D01*
X7393928Y-17004643D01*
X7379643Y-16976072D01*
X7365357Y-16918929D01*
X7365357Y-16847500D01*
X7379643Y-16790357D01*
X7393928Y-16761786D01*
X7408214Y-16747500D01*
X7436786Y-16733214D01*
X7808214Y-16733214D02*
X7665357Y-16733214D01*
X7651071Y-16876072D01*
X7665357Y-16861786D01*
X7693928Y-16847500D01*
X7765357Y-16847500D01*
X7793928Y-16861786D01*
X7808214Y-16876072D01*
X7822500Y-16904643D01*
X7822500Y-16976072D01*
X7808214Y-17004643D01*
X7793928Y-17018929D01*
X7765357Y-17033214D01*
X7693928Y-17033214D01*
X7665357Y-17018929D01*
X7651071Y-17004643D01*
X8093928Y-16733214D02*
X7951071Y-16733214D01*
X7936786Y-16876072D01*
X7951071Y-16861786D01*
X7979643Y-16847500D01*
X8051071Y-16847500D01*
X8079643Y-16861786D01*
X8093928Y-16876072D01*
X8108214Y-16904643D01*
X8108214Y-16976072D01*
X8093928Y-17004643D01*
X8079643Y-17018929D01*
X8051071Y-17033214D01*
X7979643Y-17033214D01*
X7951071Y-17018929D01*
X7936786Y-17004643D01*
X8251071Y-17033214D02*
X8308214Y-17033214D01*
X8336786Y-17018929D01*
X8351071Y-17004643D01*
X8379643Y-16961786D01*
X8393928Y-16904643D01*
X8393928Y-16790357D01*
X8379643Y-16761786D01*
X8365357Y-16747500D01*
X8336786Y-16733214D01*
X8279643Y-16733214D01*
X8251071Y-16747500D01*
X8236786Y-16761786D01*
X8222500Y-16790357D01*
X8222500Y-16861786D01*
X8236786Y-16890357D01*
X8251071Y-16904643D01*
X8279643Y-16918929D01*
X8336786Y-16918929D01*
X8365357Y-16904643D01*
X8379643Y-16890357D01*
X8393928Y-16861786D01*
X8508214Y-16733214D02*
X8508214Y-16790357D01*
X8622500Y-16733214D02*
X8622500Y-16790357D01*
X9065357Y-17147500D02*
X9051071Y-17133214D01*
X9022500Y-17090357D01*
X9008214Y-17061786D01*
X8993928Y-17018929D01*
X8979643Y-16947500D01*
X8979643Y-16890357D01*
X8993928Y-16818929D01*
X9008214Y-16776071D01*
X9022500Y-16747500D01*
X9051071Y-16704643D01*
X9065357Y-16690357D01*
X9322500Y-16733214D02*
X9179643Y-16733214D01*
X9165357Y-16876072D01*
X9179643Y-16861786D01*
X9208214Y-16847500D01*
X9279643Y-16847500D01*
X9308214Y-16861786D01*
X9322500Y-16876072D01*
X9336786Y-16904643D01*
X9336786Y-16976072D01*
X9322500Y-17004643D01*
X9308214Y-17018929D01*
X9279643Y-17033214D01*
X9208214Y-17033214D01*
X9179643Y-17018929D01*
X9165357Y-17004643D01*
X9693928Y-17033214D02*
X9693928Y-16733214D01*
X9822500Y-17033214D02*
X9822500Y-16876072D01*
X9808214Y-16847500D01*
X9779643Y-16833214D01*
X9736786Y-16833214D01*
X9708214Y-16847500D01*
X9693928Y-16861786D01*
X10008214Y-17033214D02*
X9979643Y-17018929D01*
X9965357Y-17004643D01*
X9951071Y-16976072D01*
X9951071Y-16890357D01*
X9965357Y-16861786D01*
X9979643Y-16847500D01*
X10008214Y-16833214D01*
X10051071Y-16833214D01*
X10079643Y-16847500D01*
X10093928Y-16861786D01*
X10108214Y-16890357D01*
X10108214Y-16976072D01*
X10093928Y-17004643D01*
X10079643Y-17018929D01*
X10051071Y-17033214D01*
X10008214Y-17033214D01*
X10279643Y-17033214D02*
X10251071Y-17018929D01*
X10236786Y-16990357D01*
X10236786Y-16733214D01*
X10508214Y-17018929D02*
X10479643Y-17033214D01*
X10422500Y-17033214D01*
X10393928Y-17018929D01*
X10379643Y-16990357D01*
X10379643Y-16876072D01*
X10393928Y-16847500D01*
X10422500Y-16833214D01*
X10479643Y-16833214D01*
X10508214Y-16847500D01*
X10522500Y-16876072D01*
X10522500Y-16904643D01*
X10379643Y-16933214D01*
X10636786Y-17018929D02*
X10665357Y-17033214D01*
X10722500Y-17033214D01*
X10751071Y-17018929D01*
X10765357Y-16990357D01*
X10765357Y-16976072D01*
X10751071Y-16947500D01*
X10722500Y-16933214D01*
X10679643Y-16933214D01*
X10651071Y-16918929D01*
X10636786Y-16890357D01*
X10636786Y-16876072D01*
X10651071Y-16847500D01*
X10679643Y-16833214D01*
X10722500Y-16833214D01*
X10751071Y-16847500D01*
X10865357Y-17147500D02*
X10879643Y-17133214D01*
X10908214Y-17090357D01*
X10922500Y-17061786D01*
X10936786Y-17018929D01*
X10951071Y-16947500D01*
X10951071Y-16890357D01*
X10936786Y-16818929D01*
X10922500Y-16776071D01*
X10908214Y-16747500D01*
X10879643Y-16704643D01*
X10865357Y-16690357D01*
X3664500Y-17222000D02*
X3807500Y-17365000D01*
X3807500Y-17222000D02*
X3664500Y-17365000D01*
X3807500Y-17293500D02*
G75*
G03*
X3807500Y-17293500I-71500J0D01*
G01*
X4251071Y-17429214D02*
X4079643Y-17429214D01*
X4165357Y-17429214D02*
X4165357Y-17129214D01*
X4136786Y-17172072D01*
X4108214Y-17200643D01*
X4079643Y-17214929D01*
X4379643Y-17400643D02*
X4393928Y-17414929D01*
X4379643Y-17429214D01*
X4365357Y-17414929D01*
X4379643Y-17400643D01*
X4379643Y-17429214D01*
X4651071Y-17229214D02*
X4651071Y-17429214D01*
X4579643Y-17114929D02*
X4508214Y-17329214D01*
X4693928Y-17329214D01*
X4779643Y-17129214D02*
X4965357Y-17129214D01*
X4865357Y-17243500D01*
X4908214Y-17243500D01*
X4936786Y-17257786D01*
X4951071Y-17272072D01*
X4965357Y-17300643D01*
X4965357Y-17372072D01*
X4951071Y-17400643D01*
X4936786Y-17414929D01*
X4908214Y-17429214D01*
X4822500Y-17429214D01*
X4793928Y-17414929D01*
X4779643Y-17400643D01*
X5151071Y-17129214D02*
X5179643Y-17129214D01*
X5208214Y-17143500D01*
X5222500Y-17157786D01*
X5236786Y-17186357D01*
X5251071Y-17243500D01*
X5251071Y-17314929D01*
X5236786Y-17372072D01*
X5222500Y-17400643D01*
X5208214Y-17414929D01*
X5179643Y-17429214D01*
X5151071Y-17429214D01*
X5122500Y-17414929D01*
X5108214Y-17400643D01*
X5093928Y-17372072D01*
X5079643Y-17314929D01*
X5079643Y-17243500D01*
X5093928Y-17186357D01*
X5108214Y-17157786D01*
X5122500Y-17143500D01*
X5151071Y-17129214D01*
X5379643Y-17429214D02*
X5379643Y-17229214D01*
X5379643Y-17257786D02*
X5393928Y-17243500D01*
X5422500Y-17229214D01*
X5465357Y-17229214D01*
X5493928Y-17243500D01*
X5508214Y-17272072D01*
X5508214Y-17429214D01*
X5508214Y-17272072D02*
X5522500Y-17243500D01*
X5551071Y-17229214D01*
X5593928Y-17229214D01*
X5622500Y-17243500D01*
X5636786Y-17272072D01*
X5636786Y-17429214D01*
X5779643Y-17429214D02*
X5779643Y-17229214D01*
X5779643Y-17257786D02*
X5793928Y-17243500D01*
X5822500Y-17229214D01*
X5865357Y-17229214D01*
X5893928Y-17243500D01*
X5908214Y-17272072D01*
X5908214Y-17429214D01*
X5908214Y-17272072D02*
X5922500Y-17243500D01*
X5951071Y-17229214D01*
X5993928Y-17229214D01*
X6022500Y-17243500D01*
X6036786Y-17272072D01*
X6036786Y-17429214D01*
X6622500Y-17114929D02*
X6365357Y-17500643D01*
X7008214Y-17129214D02*
X7036786Y-17129214D01*
X7065357Y-17143500D01*
X7079643Y-17157786D01*
X7093928Y-17186357D01*
X7108214Y-17243500D01*
X7108214Y-17314929D01*
X7093928Y-17372072D01*
X7079643Y-17400643D01*
X7065357Y-17414929D01*
X7036786Y-17429214D01*
X7008214Y-17429214D01*
X6979643Y-17414929D01*
X6965357Y-17400643D01*
X6951071Y-17372072D01*
X6936786Y-17314929D01*
X6936786Y-17243500D01*
X6951071Y-17186357D01*
X6965357Y-17157786D01*
X6979643Y-17143500D01*
X7008214Y-17129214D01*
X7236786Y-17400643D02*
X7251071Y-17414929D01*
X7236786Y-17429214D01*
X7222500Y-17414929D01*
X7236786Y-17400643D01*
X7236786Y-17429214D01*
X7436786Y-17129214D02*
X7465357Y-17129214D01*
X7493928Y-17143500D01*
X7508214Y-17157786D01*
X7522500Y-17186357D01*
X7536786Y-17243500D01*
X7536786Y-17314929D01*
X7522500Y-17372072D01*
X7508214Y-17400643D01*
X7493928Y-17414929D01*
X7465357Y-17429214D01*
X7436786Y-17429214D01*
X7408214Y-17414929D01*
X7393928Y-17400643D01*
X7379643Y-17372072D01*
X7365357Y-17314929D01*
X7365357Y-17243500D01*
X7379643Y-17186357D01*
X7393928Y-17157786D01*
X7408214Y-17143500D01*
X7436786Y-17129214D01*
X7808214Y-17129214D02*
X7665357Y-17129214D01*
X7651071Y-17272072D01*
X7665357Y-17257786D01*
X7693928Y-17243500D01*
X7765357Y-17243500D01*
X7793928Y-17257786D01*
X7808214Y-17272072D01*
X7822500Y-17300643D01*
X7822500Y-17372072D01*
X7808214Y-17400643D01*
X7793928Y-17414929D01*
X7765357Y-17429214D01*
X7693928Y-17429214D01*
X7665357Y-17414929D01*
X7651071Y-17400643D01*
X8079643Y-17129214D02*
X8022500Y-17129214D01*
X7993928Y-17143500D01*
X7979643Y-17157786D01*
X7951071Y-17200643D01*
X7936786Y-17257786D01*
X7936786Y-17372072D01*
X7951071Y-17400643D01*
X7965357Y-17414929D01*
X7993928Y-17429214D01*
X8051071Y-17429214D01*
X8079643Y-17414929D01*
X8093928Y-17400643D01*
X8108214Y-17372072D01*
X8108214Y-17300643D01*
X8093928Y-17272072D01*
X8079643Y-17257786D01*
X8051071Y-17243500D01*
X7993928Y-17243500D01*
X7965357Y-17257786D01*
X7951071Y-17272072D01*
X7936786Y-17300643D01*
X8208214Y-17129214D02*
X8393928Y-17129214D01*
X8293928Y-17243500D01*
X8336786Y-17243500D01*
X8365357Y-17257786D01*
X8379643Y-17272072D01*
X8393928Y-17300643D01*
X8393928Y-17372072D01*
X8379643Y-17400643D01*
X8365357Y-17414929D01*
X8336786Y-17429214D01*
X8251071Y-17429214D01*
X8222500Y-17414929D01*
X8208214Y-17400643D01*
X8508214Y-17129214D02*
X8508214Y-17186357D01*
X8622500Y-17129214D02*
X8622500Y-17186357D01*
X9065357Y-17543500D02*
X9051071Y-17529214D01*
X9022500Y-17486357D01*
X9008214Y-17457786D01*
X8993928Y-17414929D01*
X8979643Y-17343500D01*
X8979643Y-17286357D01*
X8993928Y-17214929D01*
X9008214Y-17172072D01*
X9022500Y-17143500D01*
X9051071Y-17100643D01*
X9065357Y-17086357D01*
X9322500Y-17129214D02*
X9179643Y-17129214D01*
X9165357Y-17272072D01*
X9179643Y-17257786D01*
X9208214Y-17243500D01*
X9279643Y-17243500D01*
X9308214Y-17257786D01*
X9322500Y-17272072D01*
X9336786Y-17300643D01*
X9336786Y-17372072D01*
X9322500Y-17400643D01*
X9308214Y-17414929D01*
X9279643Y-17429214D01*
X9208214Y-17429214D01*
X9179643Y-17414929D01*
X9165357Y-17400643D01*
X9693928Y-17429214D02*
X9693928Y-17129214D01*
X9822500Y-17429214D02*
X9822500Y-17272072D01*
X9808214Y-17243500D01*
X9779643Y-17229214D01*
X9736786Y-17229214D01*
X9708214Y-17243500D01*
X9693928Y-17257786D01*
X10008214Y-17429214D02*
X9979643Y-17414929D01*
X9965357Y-17400643D01*
X9951071Y-17372072D01*
X9951071Y-17286357D01*
X9965357Y-17257786D01*
X9979643Y-17243500D01*
X10008214Y-17229214D01*
X10051071Y-17229214D01*
X10079643Y-17243500D01*
X10093928Y-17257786D01*
X10108214Y-17286357D01*
X10108214Y-17372072D01*
X10093928Y-17400643D01*
X10079643Y-17414929D01*
X10051071Y-17429214D01*
X10008214Y-17429214D01*
X10279643Y-17429214D02*
X10251071Y-17414929D01*
X10236786Y-17386357D01*
X10236786Y-17129214D01*
X10508214Y-17414929D02*
X10479643Y-17429214D01*
X10422500Y-17429214D01*
X10393928Y-17414929D01*
X10379643Y-17386357D01*
X10379643Y-17272072D01*
X10393928Y-17243500D01*
X10422500Y-17229214D01*
X10479643Y-17229214D01*
X10508214Y-17243500D01*
X10522500Y-17272072D01*
X10522500Y-17300643D01*
X10379643Y-17329214D01*
X10636786Y-17414929D02*
X10665357Y-17429214D01*
X10722500Y-17429214D01*
X10751071Y-17414929D01*
X10765357Y-17386357D01*
X10765357Y-17372072D01*
X10751071Y-17343500D01*
X10722500Y-17329214D01*
X10679643Y-17329214D01*
X10651071Y-17314929D01*
X10636786Y-17286357D01*
X10636786Y-17272072D01*
X10651071Y-17243500D01*
X10679643Y-17229214D01*
X10722500Y-17229214D01*
X10751071Y-17243500D01*
X10865357Y-17543500D02*
X10879643Y-17529214D01*
X10908214Y-17486357D01*
X10922500Y-17457786D01*
X10936786Y-17414929D01*
X10951071Y-17343500D01*
X10951071Y-17286357D01*
X10936786Y-17214929D01*
X10922500Y-17172072D01*
X10908214Y-17143500D01*
X10879643Y-17100643D01*
X10865357Y-17086357D01*
M02*
