%FSLAX45Y45*%
G04 Gerber Fmt 4.5, Leading zero omitted, Abs format (unit mm)*
G04 Created by KiCad (PCBNEW 5.1.12-1.fc34) date 2022-01-17 20:57:30*
%MOMM*%
%LPD*%
G01*
G04 APERTURE LIST*
%TA.AperFunction,Profile*%
%ADD10C,0.050000*%
%TD*%
%ADD11C,0.200000*%
%ADD12C,0.300000*%
G04 APERTURE END LIST*
D10*
X3810000Y-14351000D02*
X3810000Y-4445000D01*
X13716000Y-14351000D02*
X3810000Y-14351000D01*
X13716000Y-4445000D02*
X13716000Y-14351000D01*
X3810000Y-4445000D02*
X13716000Y-4445000D01*
D11*
X4484000Y-6977500D02*
X4684000Y-7177500D01*
X4684000Y-6977500D02*
X4484000Y-7177500D01*
X4484000Y-7927500D02*
X4684000Y-8127500D01*
X4684000Y-7927500D02*
X4484000Y-8127500D01*
X4484000Y-8692000D02*
X4684000Y-8892000D01*
X4684000Y-8692000D02*
X4484000Y-8892000D01*
X4484000Y-9642000D02*
X4684000Y-9842000D01*
X4684000Y-9642000D02*
X4484000Y-9842000D01*
X4484000Y-10406500D02*
X4684000Y-10606500D01*
X4684000Y-10406500D02*
X4484000Y-10606500D01*
X4484000Y-11356500D02*
X4684000Y-11556500D01*
X4684000Y-11356500D02*
X4484000Y-11556500D01*
X8206500Y-4890000D02*
X8406500Y-5090000D01*
X8406500Y-4890000D02*
X8206500Y-5090000D01*
X8206500Y-5840000D02*
X8406500Y-6040000D01*
X8406500Y-5840000D02*
X8206500Y-6040000D01*
X9857500Y-4890000D02*
X10057500Y-5090000D01*
X10057500Y-4890000D02*
X9857500Y-5090000D01*
X9857500Y-5840000D02*
X10057500Y-6040000D01*
X10057500Y-5840000D02*
X9857500Y-6040000D01*
X11381500Y-12764000D02*
X11581500Y-12964000D01*
X11581500Y-12764000D02*
X11381500Y-12964000D01*
X11381500Y-13714000D02*
X11581500Y-13914000D01*
X11581500Y-13714000D02*
X11381500Y-13914000D01*
X11508500Y-4890000D02*
X11708500Y-5090000D01*
X11708500Y-4890000D02*
X11508500Y-5090000D01*
X11508500Y-5840000D02*
X11708500Y-6040000D01*
X11708500Y-5840000D02*
X11508500Y-6040000D01*
D12*
X4093928Y-14819214D02*
X4093928Y-14519214D01*
X4165357Y-14519214D01*
X4208214Y-14533500D01*
X4236786Y-14562071D01*
X4251071Y-14590643D01*
X4265357Y-14647786D01*
X4265357Y-14690643D01*
X4251071Y-14747786D01*
X4236786Y-14776357D01*
X4208214Y-14804929D01*
X4165357Y-14819214D01*
X4093928Y-14819214D01*
X4393928Y-14819214D02*
X4393928Y-14619214D01*
X4393928Y-14676357D02*
X4408214Y-14647786D01*
X4422500Y-14633500D01*
X4451071Y-14619214D01*
X4479643Y-14619214D01*
X4579643Y-14819214D02*
X4579643Y-14619214D01*
X4579643Y-14519214D02*
X4565357Y-14533500D01*
X4579643Y-14547786D01*
X4593928Y-14533500D01*
X4579643Y-14519214D01*
X4579643Y-14547786D01*
X4765357Y-14819214D02*
X4736786Y-14804929D01*
X4722500Y-14776357D01*
X4722500Y-14519214D01*
X4922500Y-14819214D02*
X4893928Y-14804929D01*
X4879643Y-14776357D01*
X4879643Y-14519214D01*
X5265357Y-14819214D02*
X5265357Y-14519214D01*
X5365357Y-14733500D01*
X5465357Y-14519214D01*
X5465357Y-14819214D01*
X5736786Y-14819214D02*
X5736786Y-14662071D01*
X5722500Y-14633500D01*
X5693928Y-14619214D01*
X5636786Y-14619214D01*
X5608214Y-14633500D01*
X5736786Y-14804929D02*
X5708214Y-14819214D01*
X5636786Y-14819214D01*
X5608214Y-14804929D01*
X5593928Y-14776357D01*
X5593928Y-14747786D01*
X5608214Y-14719214D01*
X5636786Y-14704929D01*
X5708214Y-14704929D01*
X5736786Y-14690643D01*
X5879643Y-14619214D02*
X5879643Y-14919214D01*
X5879643Y-14633500D02*
X5908214Y-14619214D01*
X5965357Y-14619214D01*
X5993928Y-14633500D01*
X6008214Y-14647786D01*
X6022500Y-14676357D01*
X6022500Y-14762071D01*
X6008214Y-14790643D01*
X5993928Y-14804929D01*
X5965357Y-14819214D01*
X5908214Y-14819214D01*
X5879643Y-14804929D01*
X6151071Y-14790643D02*
X6165357Y-14804929D01*
X6151071Y-14819214D01*
X6136786Y-14804929D01*
X6151071Y-14790643D01*
X6151071Y-14819214D01*
X6151071Y-14633500D02*
X6165357Y-14647786D01*
X6151071Y-14662071D01*
X6136786Y-14647786D01*
X6151071Y-14633500D01*
X6151071Y-14662071D01*
X3607500Y-15213500D02*
X3807500Y-15413500D01*
X3807500Y-15213500D02*
X3607500Y-15413500D01*
X4079643Y-15177786D02*
X4093928Y-15163500D01*
X4122500Y-15149214D01*
X4193928Y-15149214D01*
X4222500Y-15163500D01*
X4236786Y-15177786D01*
X4251071Y-15206357D01*
X4251071Y-15234929D01*
X4236786Y-15277786D01*
X4065357Y-15449214D01*
X4251071Y-15449214D01*
X4379643Y-15420643D02*
X4393928Y-15434929D01*
X4379643Y-15449214D01*
X4365357Y-15434929D01*
X4379643Y-15420643D01*
X4379643Y-15449214D01*
X4579643Y-15149214D02*
X4608214Y-15149214D01*
X4636786Y-15163500D01*
X4651071Y-15177786D01*
X4665357Y-15206357D01*
X4679643Y-15263500D01*
X4679643Y-15334929D01*
X4665357Y-15392071D01*
X4651071Y-15420643D01*
X4636786Y-15434929D01*
X4608214Y-15449214D01*
X4579643Y-15449214D01*
X4551071Y-15434929D01*
X4536786Y-15420643D01*
X4522500Y-15392071D01*
X4508214Y-15334929D01*
X4508214Y-15263500D01*
X4522500Y-15206357D01*
X4536786Y-15177786D01*
X4551071Y-15163500D01*
X4579643Y-15149214D01*
X4865357Y-15149214D02*
X4893928Y-15149214D01*
X4922500Y-15163500D01*
X4936786Y-15177786D01*
X4951071Y-15206357D01*
X4965357Y-15263500D01*
X4965357Y-15334929D01*
X4951071Y-15392071D01*
X4936786Y-15420643D01*
X4922500Y-15434929D01*
X4893928Y-15449214D01*
X4865357Y-15449214D01*
X4836786Y-15434929D01*
X4822500Y-15420643D01*
X4808214Y-15392071D01*
X4793928Y-15334929D01*
X4793928Y-15263500D01*
X4808214Y-15206357D01*
X4822500Y-15177786D01*
X4836786Y-15163500D01*
X4865357Y-15149214D01*
X5151071Y-15149214D02*
X5179643Y-15149214D01*
X5208214Y-15163500D01*
X5222500Y-15177786D01*
X5236786Y-15206357D01*
X5251071Y-15263500D01*
X5251071Y-15334929D01*
X5236786Y-15392071D01*
X5222500Y-15420643D01*
X5208214Y-15434929D01*
X5179643Y-15449214D01*
X5151071Y-15449214D01*
X5122500Y-15434929D01*
X5108214Y-15420643D01*
X5093928Y-15392071D01*
X5079643Y-15334929D01*
X5079643Y-15263500D01*
X5093928Y-15206357D01*
X5108214Y-15177786D01*
X5122500Y-15163500D01*
X5151071Y-15149214D01*
X5379643Y-15449214D02*
X5379643Y-15249214D01*
X5379643Y-15277786D02*
X5393928Y-15263500D01*
X5422500Y-15249214D01*
X5465357Y-15249214D01*
X5493928Y-15263500D01*
X5508214Y-15292071D01*
X5508214Y-15449214D01*
X5508214Y-15292071D02*
X5522500Y-15263500D01*
X5551071Y-15249214D01*
X5593928Y-15249214D01*
X5622500Y-15263500D01*
X5636786Y-15292071D01*
X5636786Y-15449214D01*
X5779643Y-15449214D02*
X5779643Y-15249214D01*
X5779643Y-15277786D02*
X5793928Y-15263500D01*
X5822500Y-15249214D01*
X5865357Y-15249214D01*
X5893928Y-15263500D01*
X5908214Y-15292071D01*
X5908214Y-15449214D01*
X5908214Y-15292071D02*
X5922500Y-15263500D01*
X5951071Y-15249214D01*
X5993928Y-15249214D01*
X6022500Y-15263500D01*
X6036786Y-15292071D01*
X6036786Y-15449214D01*
X6622500Y-15134929D02*
X6365357Y-15520643D01*
X7008214Y-15149214D02*
X7036786Y-15149214D01*
X7065357Y-15163500D01*
X7079643Y-15177786D01*
X7093928Y-15206357D01*
X7108214Y-15263500D01*
X7108214Y-15334929D01*
X7093928Y-15392071D01*
X7079643Y-15420643D01*
X7065357Y-15434929D01*
X7036786Y-15449214D01*
X7008214Y-15449214D01*
X6979643Y-15434929D01*
X6965357Y-15420643D01*
X6951071Y-15392071D01*
X6936786Y-15334929D01*
X6936786Y-15263500D01*
X6951071Y-15206357D01*
X6965357Y-15177786D01*
X6979643Y-15163500D01*
X7008214Y-15149214D01*
X7236786Y-15420643D02*
X7251071Y-15434929D01*
X7236786Y-15449214D01*
X7222500Y-15434929D01*
X7236786Y-15420643D01*
X7236786Y-15449214D01*
X7436786Y-15149214D02*
X7465357Y-15149214D01*
X7493928Y-15163500D01*
X7508214Y-15177786D01*
X7522500Y-15206357D01*
X7536786Y-15263500D01*
X7536786Y-15334929D01*
X7522500Y-15392071D01*
X7508214Y-15420643D01*
X7493928Y-15434929D01*
X7465357Y-15449214D01*
X7436786Y-15449214D01*
X7408214Y-15434929D01*
X7393928Y-15420643D01*
X7379643Y-15392071D01*
X7365357Y-15334929D01*
X7365357Y-15263500D01*
X7379643Y-15206357D01*
X7393928Y-15177786D01*
X7408214Y-15163500D01*
X7436786Y-15149214D01*
X7636786Y-15149214D02*
X7836786Y-15149214D01*
X7708214Y-15449214D01*
X7993928Y-15277786D02*
X7965357Y-15263500D01*
X7951071Y-15249214D01*
X7936786Y-15220643D01*
X7936786Y-15206357D01*
X7951071Y-15177786D01*
X7965357Y-15163500D01*
X7993928Y-15149214D01*
X8051071Y-15149214D01*
X8079643Y-15163500D01*
X8093928Y-15177786D01*
X8108214Y-15206357D01*
X8108214Y-15220643D01*
X8093928Y-15249214D01*
X8079643Y-15263500D01*
X8051071Y-15277786D01*
X7993928Y-15277786D01*
X7965357Y-15292071D01*
X7951071Y-15306357D01*
X7936786Y-15334929D01*
X7936786Y-15392071D01*
X7951071Y-15420643D01*
X7965357Y-15434929D01*
X7993928Y-15449214D01*
X8051071Y-15449214D01*
X8079643Y-15434929D01*
X8093928Y-15420643D01*
X8108214Y-15392071D01*
X8108214Y-15334929D01*
X8093928Y-15306357D01*
X8079643Y-15292071D01*
X8051071Y-15277786D01*
X8208214Y-15149214D02*
X8408214Y-15149214D01*
X8279643Y-15449214D01*
X8508214Y-15149214D02*
X8508214Y-15206357D01*
X8622500Y-15149214D02*
X8622500Y-15206357D01*
X9065357Y-15563500D02*
X9051071Y-15549214D01*
X9022500Y-15506357D01*
X9008214Y-15477786D01*
X8993928Y-15434929D01*
X8979643Y-15363500D01*
X8979643Y-15306357D01*
X8993928Y-15234929D01*
X9008214Y-15192071D01*
X9022500Y-15163500D01*
X9051071Y-15120643D01*
X9065357Y-15106357D01*
X9336786Y-15449214D02*
X9165357Y-15449214D01*
X9251071Y-15449214D02*
X9251071Y-15149214D01*
X9222500Y-15192071D01*
X9193928Y-15220643D01*
X9165357Y-15234929D01*
X9593928Y-15249214D02*
X9593928Y-15449214D01*
X9522500Y-15134929D02*
X9451071Y-15349214D01*
X9636786Y-15349214D01*
X9979643Y-15449214D02*
X9979643Y-15149214D01*
X10108214Y-15449214D02*
X10108214Y-15292071D01*
X10093928Y-15263500D01*
X10065357Y-15249214D01*
X10022500Y-15249214D01*
X9993928Y-15263500D01*
X9979643Y-15277786D01*
X10293928Y-15449214D02*
X10265357Y-15434929D01*
X10251071Y-15420643D01*
X10236786Y-15392071D01*
X10236786Y-15306357D01*
X10251071Y-15277786D01*
X10265357Y-15263500D01*
X10293928Y-15249214D01*
X10336786Y-15249214D01*
X10365357Y-15263500D01*
X10379643Y-15277786D01*
X10393928Y-15306357D01*
X10393928Y-15392071D01*
X10379643Y-15420643D01*
X10365357Y-15434929D01*
X10336786Y-15449214D01*
X10293928Y-15449214D01*
X10565357Y-15449214D02*
X10536786Y-15434929D01*
X10522500Y-15406357D01*
X10522500Y-15149214D01*
X10793928Y-15434929D02*
X10765357Y-15449214D01*
X10708214Y-15449214D01*
X10679643Y-15434929D01*
X10665357Y-15406357D01*
X10665357Y-15292071D01*
X10679643Y-15263500D01*
X10708214Y-15249214D01*
X10765357Y-15249214D01*
X10793928Y-15263500D01*
X10808214Y-15292071D01*
X10808214Y-15320643D01*
X10665357Y-15349214D01*
X10922500Y-15434929D02*
X10951071Y-15449214D01*
X11008214Y-15449214D01*
X11036786Y-15434929D01*
X11051071Y-15406357D01*
X11051071Y-15392071D01*
X11036786Y-15363500D01*
X11008214Y-15349214D01*
X10965357Y-15349214D01*
X10936786Y-15334929D01*
X10922500Y-15306357D01*
X10922500Y-15292071D01*
X10936786Y-15263500D01*
X10965357Y-15249214D01*
X11008214Y-15249214D01*
X11036786Y-15263500D01*
X11151071Y-15563500D02*
X11165357Y-15549214D01*
X11193928Y-15506357D01*
X11208214Y-15477786D01*
X11222500Y-15434929D01*
X11236786Y-15363500D01*
X11236786Y-15306357D01*
X11222500Y-15234929D01*
X11208214Y-15192071D01*
X11193928Y-15163500D01*
X11165357Y-15120643D01*
X11151071Y-15106357D01*
X11693928Y-15563500D02*
X11679643Y-15549214D01*
X11651071Y-15506357D01*
X11636786Y-15477786D01*
X11622500Y-15434929D01*
X11608214Y-15363500D01*
X11608214Y-15306357D01*
X11622500Y-15234929D01*
X11636786Y-15192071D01*
X11651071Y-15163500D01*
X11679643Y-15120643D01*
X11693928Y-15106357D01*
X11808214Y-15249214D02*
X11808214Y-15449214D01*
X11808214Y-15277786D02*
X11822500Y-15263500D01*
X11851071Y-15249214D01*
X11893928Y-15249214D01*
X11922500Y-15263500D01*
X11936786Y-15292071D01*
X11936786Y-15449214D01*
X12122500Y-15449214D02*
X12093928Y-15434929D01*
X12079643Y-15420643D01*
X12065357Y-15392071D01*
X12065357Y-15306357D01*
X12079643Y-15277786D01*
X12093928Y-15263500D01*
X12122500Y-15249214D01*
X12165357Y-15249214D01*
X12193928Y-15263500D01*
X12208214Y-15277786D01*
X12222500Y-15306357D01*
X12222500Y-15392071D01*
X12208214Y-15420643D01*
X12193928Y-15434929D01*
X12165357Y-15449214D01*
X12122500Y-15449214D01*
X12308214Y-15249214D02*
X12422500Y-15249214D01*
X12351071Y-15149214D02*
X12351071Y-15406357D01*
X12365357Y-15434929D01*
X12393928Y-15449214D01*
X12422500Y-15449214D01*
X12751071Y-15249214D02*
X12751071Y-15549214D01*
X12751071Y-15263500D02*
X12779643Y-15249214D01*
X12836786Y-15249214D01*
X12865357Y-15263500D01*
X12879643Y-15277786D01*
X12893928Y-15306357D01*
X12893928Y-15392071D01*
X12879643Y-15420643D01*
X12865357Y-15434929D01*
X12836786Y-15449214D01*
X12779643Y-15449214D01*
X12751071Y-15434929D01*
X13065357Y-15449214D02*
X13036786Y-15434929D01*
X13022500Y-15406357D01*
X13022500Y-15149214D01*
X13308214Y-15449214D02*
X13308214Y-15292071D01*
X13293928Y-15263500D01*
X13265357Y-15249214D01*
X13208214Y-15249214D01*
X13179643Y-15263500D01*
X13308214Y-15434929D02*
X13279643Y-15449214D01*
X13208214Y-15449214D01*
X13179643Y-15434929D01*
X13165357Y-15406357D01*
X13165357Y-15377786D01*
X13179643Y-15349214D01*
X13208214Y-15334929D01*
X13279643Y-15334929D01*
X13308214Y-15320643D01*
X13408214Y-15249214D02*
X13522500Y-15249214D01*
X13451071Y-15149214D02*
X13451071Y-15406357D01*
X13465357Y-15434929D01*
X13493928Y-15449214D01*
X13522500Y-15449214D01*
X13736786Y-15434929D02*
X13708214Y-15449214D01*
X13651071Y-15449214D01*
X13622500Y-15434929D01*
X13608214Y-15406357D01*
X13608214Y-15292071D01*
X13622500Y-15263500D01*
X13651071Y-15249214D01*
X13708214Y-15249214D01*
X13736786Y-15263500D01*
X13751071Y-15292071D01*
X13751071Y-15320643D01*
X13608214Y-15349214D01*
X14008214Y-15449214D02*
X14008214Y-15149214D01*
X14008214Y-15434929D02*
X13979643Y-15449214D01*
X13922500Y-15449214D01*
X13893928Y-15434929D01*
X13879643Y-15420643D01*
X13865357Y-15392071D01*
X13865357Y-15306357D01*
X13879643Y-15277786D01*
X13893928Y-15263500D01*
X13922500Y-15249214D01*
X13979643Y-15249214D01*
X14008214Y-15263500D01*
X14122500Y-15563500D02*
X14136786Y-15549214D01*
X14165357Y-15506357D01*
X14179643Y-15477786D01*
X14193928Y-15434929D01*
X14208214Y-15363500D01*
X14208214Y-15306357D01*
X14193928Y-15234929D01*
X14179643Y-15192071D01*
X14165357Y-15163500D01*
X14136786Y-15120643D01*
X14122500Y-15106357D01*
M02*
