G04 #@! TF.GenerationSoftware,KiCad,Pcbnew,5.1.12-1.fc34*
G04 #@! TF.CreationDate,2022-01-17T20:57:28+01:00*
G04 #@! TF.ProjectId,vcf,7663662e-6b69-4636-9164-5f7063625858,rev?*
G04 #@! TF.SameCoordinates,Original*
G04 #@! TF.FileFunction,Legend,Bot*
G04 #@! TF.FilePolarity,Positive*
%FSLAX46Y46*%
G04 Gerber Fmt 4.6, Leading zero omitted, Abs format (unit mm)*
G04 Created by KiCad (PCBNEW 5.1.12-1.fc34) date 2022-01-17 20:57:28*
%MOMM*%
%LPD*%
G01*
G04 APERTURE LIST*
%ADD10C,0.120000*%
%ADD11O,1.400000X1.400000*%
%ADD12C,1.400000*%
%ADD13O,1.700000X1.700000*%
%ADD14R,1.700000X1.700000*%
%ADD15O,1.600000X1.600000*%
%ADD16R,1.600000X1.600000*%
%ADD17C,4.000000*%
%ADD18C,1.800000*%
%ADD19C,1.440000*%
%ADD20C,2.130000*%
%ADD21R,1.930000X1.830000*%
%ADD22C,1.600000*%
G04 APERTURE END LIST*
D10*
X76550000Y-87615000D02*
X78390000Y-87615000D01*
X78390000Y-87615000D02*
X78390000Y-91455000D01*
X78390000Y-91455000D02*
X76550000Y-91455000D01*
X76550000Y-91455000D02*
X76550000Y-87615000D01*
X77470000Y-86665000D02*
X77470000Y-87615000D01*
X77470000Y-92405000D02*
X77470000Y-91455000D01*
X45025000Y-123130000D02*
X50225000Y-123130000D01*
X45025000Y-133350000D02*
X45025000Y-123130000D01*
X50225000Y-135950000D02*
X50225000Y-123130000D01*
X45025000Y-133350000D02*
X47625000Y-133350000D01*
X47625000Y-133350000D02*
X47625000Y-135950000D01*
X47625000Y-135950000D02*
X50225000Y-135950000D01*
X45025000Y-134620000D02*
X45025000Y-135950000D01*
X45025000Y-135950000D02*
X46355000Y-135950000D01*
X102810000Y-105045000D02*
X102810000Y-103395000D01*
X102810000Y-103395000D02*
X120710000Y-103395000D01*
X120710000Y-103395000D02*
X120710000Y-108695000D01*
X120710000Y-108695000D02*
X102810000Y-108695000D01*
X102810000Y-108695000D02*
X102810000Y-107045000D01*
X102750000Y-100905000D02*
X120770000Y-100905000D01*
X120770000Y-100905000D02*
X120770000Y-111185000D01*
X120770000Y-111185000D02*
X102750000Y-111185000D01*
X102750000Y-111185000D02*
X102750000Y-100905000D01*
X102810000Y-107045000D02*
G75*
G03*
X102810000Y-105045000I0J1000000D01*
G01*
X59630000Y-105045000D02*
X59630000Y-103395000D01*
X59630000Y-103395000D02*
X77530000Y-103395000D01*
X77530000Y-103395000D02*
X77530000Y-108695000D01*
X77530000Y-108695000D02*
X59630000Y-108695000D01*
X59630000Y-108695000D02*
X59630000Y-107045000D01*
X59570000Y-100905000D02*
X77590000Y-100905000D01*
X77590000Y-100905000D02*
X77590000Y-111185000D01*
X77590000Y-111185000D02*
X59570000Y-111185000D01*
X59570000Y-111185000D02*
X59570000Y-100905000D01*
X59630000Y-107045000D02*
G75*
G03*
X59630000Y-105045000I0J1000000D01*
G01*
X78680000Y-105045000D02*
X78680000Y-103395000D01*
X78680000Y-103395000D02*
X101660000Y-103395000D01*
X101660000Y-103395000D02*
X101660000Y-108695000D01*
X101660000Y-108695000D02*
X78680000Y-108695000D01*
X78680000Y-108695000D02*
X78680000Y-107045000D01*
X78680000Y-107045000D02*
G75*
G03*
X78680000Y-105045000I0J1000000D01*
G01*
X121860000Y-105045000D02*
X121860000Y-103395000D01*
X121860000Y-103395000D02*
X132140000Y-103395000D01*
X132140000Y-103395000D02*
X132140000Y-108695000D01*
X132140000Y-108695000D02*
X121860000Y-108695000D01*
X121860000Y-108695000D02*
X121860000Y-107045000D01*
X121800000Y-100905000D02*
X132200000Y-100905000D01*
X132200000Y-100905000D02*
X132200000Y-111185000D01*
X132200000Y-111185000D02*
X121800000Y-111185000D01*
X121800000Y-111185000D02*
X121800000Y-100905000D01*
X121860000Y-107045000D02*
G75*
G03*
X121860000Y-105045000I0J1000000D01*
G01*
X71060000Y-77740000D02*
X71060000Y-76090000D01*
X71060000Y-76090000D02*
X81340000Y-76090000D01*
X81340000Y-76090000D02*
X81340000Y-81390000D01*
X81340000Y-81390000D02*
X71060000Y-81390000D01*
X71060000Y-81390000D02*
X71060000Y-79740000D01*
X71000000Y-73600000D02*
X81400000Y-73600000D01*
X81400000Y-73600000D02*
X81400000Y-83880000D01*
X81400000Y-83880000D02*
X71000000Y-83880000D01*
X71000000Y-83880000D02*
X71000000Y-73600000D01*
X71060000Y-79740000D02*
G75*
G03*
X71060000Y-77740000I0J1000000D01*
G01*
X115220000Y-118760000D02*
X113380000Y-118760000D01*
X113380000Y-118760000D02*
X113380000Y-114920000D01*
X113380000Y-114920000D02*
X115220000Y-114920000D01*
X115220000Y-114920000D02*
X115220000Y-118760000D01*
X114300000Y-119710000D02*
X114300000Y-118760000D01*
X114300000Y-113970000D02*
X114300000Y-114920000D01*
X124810000Y-114920000D02*
X126650000Y-114920000D01*
X126650000Y-114920000D02*
X126650000Y-118760000D01*
X126650000Y-118760000D02*
X124810000Y-118760000D01*
X124810000Y-118760000D02*
X124810000Y-114920000D01*
X125730000Y-113970000D02*
X125730000Y-114920000D01*
X125730000Y-119710000D02*
X125730000Y-118760000D01*
X127350000Y-114920000D02*
X129190000Y-114920000D01*
X129190000Y-114920000D02*
X129190000Y-118760000D01*
X129190000Y-118760000D02*
X127350000Y-118760000D01*
X127350000Y-118760000D02*
X127350000Y-114920000D01*
X128270000Y-113970000D02*
X128270000Y-114920000D01*
X128270000Y-119710000D02*
X128270000Y-118760000D01*
X124475000Y-78455000D02*
X124475000Y-80295000D01*
X124475000Y-80295000D02*
X120635000Y-80295000D01*
X120635000Y-80295000D02*
X120635000Y-78455000D01*
X120635000Y-78455000D02*
X124475000Y-78455000D01*
X125425000Y-79375000D02*
X124475000Y-79375000D01*
X119685000Y-79375000D02*
X120635000Y-79375000D01*
X86645000Y-76215000D02*
X84805000Y-76215000D01*
X84805000Y-76215000D02*
X84805000Y-72375000D01*
X84805000Y-72375000D02*
X86645000Y-72375000D01*
X86645000Y-72375000D02*
X86645000Y-76215000D01*
X85725000Y-77165000D02*
X85725000Y-76215000D01*
X85725000Y-71425000D02*
X85725000Y-72375000D01*
X131730000Y-118760000D02*
X129890000Y-118760000D01*
X129890000Y-118760000D02*
X129890000Y-114920000D01*
X129890000Y-114920000D02*
X131730000Y-114920000D01*
X131730000Y-114920000D02*
X131730000Y-118760000D01*
X130810000Y-119710000D02*
X130810000Y-118760000D01*
X130810000Y-113970000D02*
X130810000Y-114920000D01*
X117760000Y-97170000D02*
X115920000Y-97170000D01*
X115920000Y-97170000D02*
X115920000Y-93330000D01*
X115920000Y-93330000D02*
X117760000Y-93330000D01*
X117760000Y-93330000D02*
X117760000Y-97170000D01*
X116840000Y-98120000D02*
X116840000Y-97170000D01*
X116840000Y-92380000D02*
X116840000Y-93330000D01*
X98710000Y-97170000D02*
X96870000Y-97170000D01*
X96870000Y-97170000D02*
X96870000Y-93330000D01*
X96870000Y-93330000D02*
X98710000Y-93330000D01*
X98710000Y-93330000D02*
X98710000Y-97170000D01*
X97790000Y-98120000D02*
X97790000Y-97170000D01*
X97790000Y-92380000D02*
X97790000Y-93330000D01*
X57770000Y-124745000D02*
X57770000Y-122905000D01*
X57770000Y-122905000D02*
X61610000Y-122905000D01*
X61610000Y-122905000D02*
X61610000Y-124745000D01*
X61610000Y-124745000D02*
X57770000Y-124745000D01*
X56820000Y-123825000D02*
X57770000Y-123825000D01*
X62560000Y-123825000D02*
X61610000Y-123825000D01*
X57770000Y-136175000D02*
X57770000Y-134335000D01*
X57770000Y-134335000D02*
X61610000Y-134335000D01*
X61610000Y-134335000D02*
X61610000Y-136175000D01*
X61610000Y-136175000D02*
X57770000Y-136175000D01*
X56820000Y-135255000D02*
X57770000Y-135255000D01*
X62560000Y-135255000D02*
X61610000Y-135255000D01*
X79090000Y-114920000D02*
X80930000Y-114920000D01*
X80930000Y-114920000D02*
X80930000Y-118760000D01*
X80930000Y-118760000D02*
X79090000Y-118760000D01*
X79090000Y-118760000D02*
X79090000Y-114920000D01*
X80010000Y-113970000D02*
X80010000Y-114920000D01*
X80010000Y-119710000D02*
X80010000Y-118760000D01*
X93630000Y-118760000D02*
X91790000Y-118760000D01*
X91790000Y-118760000D02*
X91790000Y-114920000D01*
X91790000Y-114920000D02*
X93630000Y-114920000D01*
X93630000Y-114920000D02*
X93630000Y-118760000D01*
X92710000Y-119710000D02*
X92710000Y-118760000D01*
X92710000Y-113970000D02*
X92710000Y-114920000D01*
X76820000Y-124110000D02*
X76820000Y-122270000D01*
X76820000Y-122270000D02*
X80660000Y-122270000D01*
X80660000Y-122270000D02*
X80660000Y-124110000D01*
X80660000Y-124110000D02*
X76820000Y-124110000D01*
X75870000Y-123190000D02*
X76820000Y-123190000D01*
X81610000Y-123190000D02*
X80660000Y-123190000D01*
X75280000Y-114920000D02*
X77120000Y-114920000D01*
X77120000Y-114920000D02*
X77120000Y-118760000D01*
X77120000Y-118760000D02*
X75280000Y-118760000D01*
X75280000Y-118760000D02*
X75280000Y-114920000D01*
X76200000Y-113970000D02*
X76200000Y-114920000D01*
X76200000Y-119710000D02*
X76200000Y-118760000D01*
X88550000Y-118760000D02*
X86710000Y-118760000D01*
X86710000Y-118760000D02*
X86710000Y-114920000D01*
X86710000Y-114920000D02*
X88550000Y-114920000D01*
X88550000Y-114920000D02*
X88550000Y-118760000D01*
X87630000Y-119710000D02*
X87630000Y-118760000D01*
X87630000Y-113970000D02*
X87630000Y-114920000D01*
X101585000Y-79660000D02*
X101585000Y-77820000D01*
X101585000Y-77820000D02*
X105425000Y-77820000D01*
X105425000Y-77820000D02*
X105425000Y-79660000D01*
X105425000Y-79660000D02*
X101585000Y-79660000D01*
X100635000Y-78740000D02*
X101585000Y-78740000D01*
X106375000Y-78740000D02*
X105425000Y-78740000D01*
X81630000Y-114920000D02*
X83470000Y-114920000D01*
X83470000Y-114920000D02*
X83470000Y-118760000D01*
X83470000Y-118760000D02*
X81630000Y-118760000D01*
X81630000Y-118760000D02*
X81630000Y-114920000D01*
X82550000Y-113970000D02*
X82550000Y-114920000D01*
X82550000Y-119710000D02*
X82550000Y-118760000D01*
X93630000Y-97170000D02*
X91790000Y-97170000D01*
X91790000Y-97170000D02*
X91790000Y-93330000D01*
X91790000Y-93330000D02*
X93630000Y-93330000D01*
X93630000Y-93330000D02*
X93630000Y-97170000D01*
X92710000Y-98120000D02*
X92710000Y-97170000D01*
X92710000Y-92380000D02*
X92710000Y-93330000D01*
X86010000Y-97170000D02*
X84170000Y-97170000D01*
X84170000Y-97170000D02*
X84170000Y-93330000D01*
X84170000Y-93330000D02*
X86010000Y-93330000D01*
X86010000Y-93330000D02*
X86010000Y-97170000D01*
X85090000Y-98120000D02*
X85090000Y-97170000D01*
X85090000Y-92380000D02*
X85090000Y-93330000D01*
X86010000Y-87010000D02*
X84170000Y-87010000D01*
X84170000Y-87010000D02*
X84170000Y-83170000D01*
X84170000Y-83170000D02*
X86010000Y-83170000D01*
X86010000Y-83170000D02*
X86010000Y-87010000D01*
X85090000Y-87960000D02*
X85090000Y-87010000D01*
X85090000Y-82220000D02*
X85090000Y-83170000D01*
X81630000Y-93330000D02*
X83470000Y-93330000D01*
X83470000Y-93330000D02*
X83470000Y-97170000D01*
X83470000Y-97170000D02*
X81630000Y-97170000D01*
X81630000Y-97170000D02*
X81630000Y-93330000D01*
X82550000Y-92380000D02*
X82550000Y-93330000D01*
X82550000Y-98120000D02*
X82550000Y-97170000D01*
X94330000Y-93330000D02*
X96170000Y-93330000D01*
X96170000Y-93330000D02*
X96170000Y-97170000D01*
X96170000Y-97170000D02*
X94330000Y-97170000D01*
X94330000Y-97170000D02*
X94330000Y-93330000D01*
X95250000Y-92380000D02*
X95250000Y-93330000D01*
X95250000Y-98120000D02*
X95250000Y-97170000D01*
X61610000Y-96870000D02*
X61610000Y-98710000D01*
X61610000Y-98710000D02*
X57770000Y-98710000D01*
X57770000Y-98710000D02*
X57770000Y-96870000D01*
X57770000Y-96870000D02*
X61610000Y-96870000D01*
X62560000Y-97790000D02*
X61610000Y-97790000D01*
X56820000Y-97790000D02*
X57770000Y-97790000D01*
X79090000Y-93330000D02*
X80930000Y-93330000D01*
X80930000Y-93330000D02*
X80930000Y-97170000D01*
X80930000Y-97170000D02*
X79090000Y-97170000D01*
X79090000Y-97170000D02*
X79090000Y-93330000D01*
X80010000Y-92380000D02*
X80010000Y-93330000D01*
X80010000Y-98120000D02*
X80010000Y-97170000D01*
X67660000Y-66025000D02*
X69500000Y-66025000D01*
X69500000Y-66025000D02*
X69500000Y-69865000D01*
X69500000Y-69865000D02*
X67660000Y-69865000D01*
X67660000Y-69865000D02*
X67660000Y-66025000D01*
X68580000Y-65075000D02*
X68580000Y-66025000D01*
X68580000Y-70815000D02*
X68580000Y-69865000D01*
X73310000Y-69865000D02*
X71470000Y-69865000D01*
X71470000Y-69865000D02*
X71470000Y-66025000D01*
X71470000Y-66025000D02*
X73310000Y-66025000D01*
X73310000Y-66025000D02*
X73310000Y-69865000D01*
X72390000Y-70815000D02*
X72390000Y-69865000D01*
X72390000Y-65075000D02*
X72390000Y-66025000D01*
X126650000Y-97170000D02*
X124810000Y-97170000D01*
X124810000Y-97170000D02*
X124810000Y-93330000D01*
X124810000Y-93330000D02*
X126650000Y-93330000D01*
X126650000Y-93330000D02*
X126650000Y-97170000D01*
X125730000Y-98120000D02*
X125730000Y-97170000D01*
X125730000Y-92380000D02*
X125730000Y-93330000D01*
X75850000Y-69865000D02*
X74010000Y-69865000D01*
X74010000Y-69865000D02*
X74010000Y-66025000D01*
X74010000Y-66025000D02*
X75850000Y-66025000D01*
X75850000Y-66025000D02*
X75850000Y-69865000D01*
X74930000Y-70815000D02*
X74930000Y-69865000D01*
X74930000Y-65075000D02*
X74930000Y-66025000D01*
X129190000Y-97170000D02*
X127350000Y-97170000D01*
X127350000Y-97170000D02*
X127350000Y-93330000D01*
X127350000Y-93330000D02*
X129190000Y-93330000D01*
X129190000Y-93330000D02*
X129190000Y-97170000D01*
X128270000Y-98120000D02*
X128270000Y-97170000D01*
X128270000Y-92380000D02*
X128270000Y-93330000D01*
X105125000Y-66025000D02*
X106965000Y-66025000D01*
X106965000Y-66025000D02*
X106965000Y-69865000D01*
X106965000Y-69865000D02*
X105125000Y-69865000D01*
X105125000Y-69865000D02*
X105125000Y-66025000D01*
X106045000Y-65075000D02*
X106045000Y-66025000D01*
X106045000Y-70815000D02*
X106045000Y-69865000D01*
X115285000Y-78090000D02*
X117125000Y-78090000D01*
X117125000Y-78090000D02*
X117125000Y-81930000D01*
X117125000Y-81930000D02*
X115285000Y-81930000D01*
X115285000Y-81930000D02*
X115285000Y-78090000D01*
X116205000Y-77140000D02*
X116205000Y-78090000D01*
X116205000Y-82880000D02*
X116205000Y-81930000D01*
X88615000Y-66025000D02*
X90455000Y-66025000D01*
X90455000Y-66025000D02*
X90455000Y-69865000D01*
X90455000Y-69865000D02*
X88615000Y-69865000D01*
X88615000Y-69865000D02*
X88615000Y-66025000D01*
X89535000Y-65075000D02*
X89535000Y-66025000D01*
X89535000Y-70815000D02*
X89535000Y-69865000D01*
X99410000Y-93330000D02*
X101250000Y-93330000D01*
X101250000Y-93330000D02*
X101250000Y-97170000D01*
X101250000Y-97170000D02*
X99410000Y-97170000D01*
X99410000Y-97170000D02*
X99410000Y-93330000D01*
X100330000Y-92380000D02*
X100330000Y-93330000D01*
X100330000Y-98120000D02*
X100330000Y-97170000D01*
X57435000Y-73675000D02*
X55595000Y-73675000D01*
X55595000Y-73675000D02*
X55595000Y-69835000D01*
X55595000Y-69835000D02*
X57435000Y-69835000D01*
X57435000Y-69835000D02*
X57435000Y-73675000D01*
X56515000Y-74625000D02*
X56515000Y-73675000D01*
X56515000Y-68885000D02*
X56515000Y-69835000D01*
X57770000Y-93630000D02*
X57770000Y-91790000D01*
X57770000Y-91790000D02*
X61610000Y-91790000D01*
X61610000Y-91790000D02*
X61610000Y-93630000D01*
X61610000Y-93630000D02*
X57770000Y-93630000D01*
X56820000Y-92710000D02*
X57770000Y-92710000D01*
X62560000Y-92710000D02*
X61610000Y-92710000D01*
X57435000Y-107965000D02*
X55595000Y-107965000D01*
X55595000Y-107965000D02*
X55595000Y-104125000D01*
X55595000Y-104125000D02*
X57435000Y-104125000D01*
X57435000Y-104125000D02*
X57435000Y-107965000D01*
X56515000Y-108915000D02*
X56515000Y-107965000D01*
X56515000Y-103175000D02*
X56515000Y-104125000D01*
X45705000Y-66960000D02*
X45705000Y-65120000D01*
X45705000Y-65120000D02*
X49545000Y-65120000D01*
X49545000Y-65120000D02*
X49545000Y-66960000D01*
X49545000Y-66960000D02*
X45705000Y-66960000D01*
X44755000Y-66040000D02*
X45705000Y-66040000D01*
X50495000Y-66040000D02*
X49545000Y-66040000D01*
X76050000Y-91655000D02*
X73810000Y-91655000D01*
X73810000Y-91655000D02*
X73810000Y-87415000D01*
X73810000Y-87415000D02*
X76050000Y-87415000D01*
X76050000Y-87415000D02*
X76050000Y-91655000D01*
X74930000Y-92305000D02*
X74930000Y-91655000D01*
X74930000Y-86765000D02*
X74930000Y-87415000D01*
X76050000Y-90935000D02*
X73810000Y-90935000D01*
X76050000Y-90815000D02*
X73810000Y-90815000D01*
X76050000Y-91055000D02*
X73810000Y-91055000D01*
X57570000Y-127485000D02*
X57570000Y-125245000D01*
X57570000Y-125245000D02*
X61810000Y-125245000D01*
X61810000Y-125245000D02*
X61810000Y-127485000D01*
X61810000Y-127485000D02*
X57570000Y-127485000D01*
X56920000Y-126365000D02*
X57570000Y-126365000D01*
X62460000Y-126365000D02*
X61810000Y-126365000D01*
X58290000Y-127485000D02*
X58290000Y-125245000D01*
X58410000Y-127485000D02*
X58410000Y-125245000D01*
X58170000Y-127485000D02*
X58170000Y-125245000D01*
X57570000Y-133835000D02*
X57570000Y-131595000D01*
X57570000Y-131595000D02*
X61810000Y-131595000D01*
X61810000Y-131595000D02*
X61810000Y-133835000D01*
X61810000Y-133835000D02*
X57570000Y-133835000D01*
X56920000Y-132715000D02*
X57570000Y-132715000D01*
X62460000Y-132715000D02*
X61810000Y-132715000D01*
X58290000Y-133835000D02*
X58290000Y-131595000D01*
X58410000Y-133835000D02*
X58410000Y-131595000D01*
X58170000Y-133835000D02*
X58170000Y-131595000D01*
X104875000Y-122555000D02*
G75*
G03*
X104875000Y-122555000I-2620000J0D01*
G01*
X105059775Y-121080000D02*
X104559775Y-121080000D01*
X104809775Y-120830000D02*
X104809775Y-121330000D01*
X96420000Y-112410000D02*
X96420000Y-118650000D01*
X99160000Y-112410000D02*
X99160000Y-118650000D01*
X96420000Y-112410000D02*
X96865000Y-112410000D01*
X98715000Y-112410000D02*
X99160000Y-112410000D01*
X96420000Y-118650000D02*
X96865000Y-118650000D01*
X98715000Y-118650000D02*
X99160000Y-118650000D01*
X72470000Y-125115000D02*
G75*
G03*
X72470000Y-125115000I-2620000J0D01*
G01*
X71325000Y-127919775D02*
X71325000Y-127419775D01*
X71575000Y-127669775D02*
X71075000Y-127669775D01*
X72470000Y-134005000D02*
G75*
G03*
X72470000Y-134005000I-2620000J0D01*
G01*
X71325000Y-136809775D02*
X71325000Y-136309775D01*
X71575000Y-136559775D02*
X71075000Y-136559775D01*
X83720000Y-112410000D02*
X83720000Y-118650000D01*
X86460000Y-112410000D02*
X86460000Y-118650000D01*
X83720000Y-112410000D02*
X84165000Y-112410000D01*
X86015000Y-112410000D02*
X86460000Y-112410000D01*
X83720000Y-118650000D02*
X84165000Y-118650000D01*
X86015000Y-118650000D02*
X86460000Y-118650000D01*
X91090000Y-114949000D02*
X91090000Y-113691000D01*
X89250000Y-114949000D02*
X89250000Y-113691000D01*
X105060000Y-114949000D02*
X105060000Y-113691000D01*
X103220000Y-114949000D02*
X103220000Y-113691000D01*
X61880000Y-114949000D02*
X61880000Y-113691000D01*
X60040000Y-114949000D02*
X60040000Y-113691000D01*
X89000000Y-99680000D02*
X89000000Y-93440000D01*
X86260000Y-99680000D02*
X86260000Y-93440000D01*
X89000000Y-99680000D02*
X88555000Y-99680000D01*
X86705000Y-99680000D02*
X86260000Y-99680000D01*
X89000000Y-93440000D02*
X88555000Y-93440000D01*
X86705000Y-93440000D02*
X86260000Y-93440000D01*
X131730000Y-98439000D02*
X131730000Y-97181000D01*
X129890000Y-98439000D02*
X129890000Y-97181000D01*
X124110000Y-114949000D02*
X124110000Y-113691000D01*
X122270000Y-114949000D02*
X122270000Y-113691000D01*
X91540000Y-99680000D02*
X91540000Y-93440000D01*
X88800000Y-99680000D02*
X88800000Y-93440000D01*
X91540000Y-99680000D02*
X91095000Y-99680000D01*
X89245000Y-99680000D02*
X88800000Y-99680000D01*
X91540000Y-93440000D02*
X91095000Y-93440000D01*
X89245000Y-93440000D02*
X88800000Y-93440000D01*
X84105000Y-74269000D02*
X84105000Y-73011000D01*
X82265000Y-74269000D02*
X82265000Y-73011000D01*
X70135000Y-84469000D02*
X70135000Y-83211000D01*
X68295000Y-84469000D02*
X68295000Y-83211000D01*
%LPC*%
D11*
X77470000Y-93345000D03*
D12*
X77470000Y-85725000D03*
D13*
X48895000Y-124460000D03*
X46355000Y-124460000D03*
X48895000Y-127000000D03*
X46355000Y-127000000D03*
X48895000Y-129540000D03*
X46355000Y-129540000D03*
X48895000Y-132080000D03*
X46355000Y-132080000D03*
X48895000Y-134620000D03*
D14*
X46355000Y-134620000D03*
D15*
X104140000Y-109855000D03*
X119380000Y-102235000D03*
X106680000Y-109855000D03*
X116840000Y-102235000D03*
X109220000Y-109855000D03*
X114300000Y-102235000D03*
X111760000Y-109855000D03*
X111760000Y-102235000D03*
X114300000Y-109855000D03*
X109220000Y-102235000D03*
X116840000Y-109855000D03*
X106680000Y-102235000D03*
X119380000Y-109855000D03*
D16*
X104140000Y-102235000D03*
D15*
X60960000Y-109855000D03*
X76200000Y-102235000D03*
X63500000Y-109855000D03*
X73660000Y-102235000D03*
X66040000Y-109855000D03*
X71120000Y-102235000D03*
X68580000Y-109855000D03*
X68580000Y-102235000D03*
X71120000Y-109855000D03*
X66040000Y-102235000D03*
X73660000Y-109855000D03*
X63500000Y-102235000D03*
X76200000Y-109855000D03*
D16*
X60960000Y-102235000D03*
D15*
X80010000Y-109855000D03*
X100330000Y-102235000D03*
X82550000Y-109855000D03*
X97790000Y-102235000D03*
X85090000Y-109855000D03*
X95250000Y-102235000D03*
X87630000Y-109855000D03*
X92710000Y-102235000D03*
X90170000Y-109855000D03*
X90170000Y-102235000D03*
X92710000Y-109855000D03*
X87630000Y-102235000D03*
X95250000Y-109855000D03*
X85090000Y-102235000D03*
X97790000Y-109855000D03*
X82550000Y-102235000D03*
X100330000Y-109855000D03*
D16*
X80010000Y-102235000D03*
D15*
X123190000Y-109855000D03*
X130810000Y-102235000D03*
X125730000Y-109855000D03*
X128270000Y-102235000D03*
X128270000Y-109855000D03*
X125730000Y-102235000D03*
X130810000Y-109855000D03*
D16*
X123190000Y-102235000D03*
D15*
X72390000Y-82550000D03*
X80010000Y-74930000D03*
X74930000Y-82550000D03*
X77470000Y-74930000D03*
X77470000Y-82550000D03*
X74930000Y-74930000D03*
X80010000Y-82550000D03*
D16*
X72390000Y-74930000D03*
D17*
X114815000Y-138140000D03*
X114815000Y-128640000D03*
D18*
X107315000Y-135890000D03*
X107315000Y-133390000D03*
X107315000Y-130890000D03*
D19*
X130810000Y-81915000D03*
X130810000Y-79375000D03*
X130810000Y-76835000D03*
X78740000Y-132715000D03*
X78740000Y-130175000D03*
X78740000Y-127635000D03*
X111760000Y-81280000D03*
X111760000Y-78740000D03*
X111760000Y-76200000D03*
X60960000Y-81280000D03*
X60960000Y-78740000D03*
X60960000Y-76200000D03*
D17*
X116085000Y-59400000D03*
X116085000Y-49900000D03*
D18*
X108585000Y-57150000D03*
X108585000Y-54650000D03*
X108585000Y-52150000D03*
D17*
X99575000Y-59400000D03*
X99575000Y-49900000D03*
D18*
X92075000Y-57150000D03*
X92075000Y-54650000D03*
X92075000Y-52150000D03*
D17*
X83065000Y-59400000D03*
X83065000Y-49900000D03*
D18*
X75565000Y-57150000D03*
X75565000Y-54650000D03*
X75565000Y-52150000D03*
D17*
X45840000Y-70775000D03*
X45840000Y-80275000D03*
D18*
X53340000Y-73025000D03*
X53340000Y-75525000D03*
X53340000Y-78025000D03*
D17*
X45840000Y-87920000D03*
X45840000Y-97420000D03*
D18*
X53340000Y-90170000D03*
X53340000Y-92670000D03*
X53340000Y-95170000D03*
D17*
X45840000Y-105065000D03*
X45840000Y-114565000D03*
D18*
X53340000Y-107315000D03*
X53340000Y-109815000D03*
X53340000Y-112315000D03*
D11*
X114300000Y-113030000D03*
D12*
X114300000Y-120650000D03*
D11*
X125730000Y-120650000D03*
D12*
X125730000Y-113030000D03*
D11*
X122555000Y-83185000D03*
D12*
X122555000Y-75565000D03*
D11*
X128270000Y-120650000D03*
D12*
X128270000Y-113030000D03*
D11*
X80010000Y-88265000D03*
D12*
X72390000Y-88265000D03*
D11*
X118745000Y-79375000D03*
D12*
X126365000Y-79375000D03*
D11*
X85725000Y-70485000D03*
D12*
X85725000Y-78105000D03*
D11*
X130810000Y-113030000D03*
D12*
X130810000Y-120650000D03*
D11*
X116840000Y-91440000D03*
D12*
X116840000Y-99060000D03*
D11*
X97790000Y-91440000D03*
D12*
X97790000Y-99060000D03*
D11*
X63500000Y-123825000D03*
D12*
X55880000Y-123825000D03*
D11*
X63500000Y-135255000D03*
D12*
X55880000Y-135255000D03*
D11*
X80010000Y-120650000D03*
D12*
X80010000Y-113030000D03*
D11*
X92710000Y-113030000D03*
D12*
X92710000Y-120650000D03*
D11*
X82550000Y-123190000D03*
D12*
X74930000Y-123190000D03*
D11*
X76200000Y-120650000D03*
D12*
X76200000Y-113030000D03*
D11*
X87630000Y-113030000D03*
D12*
X87630000Y-120650000D03*
D11*
X107315000Y-78740000D03*
D12*
X99695000Y-78740000D03*
D11*
X82550000Y-120650000D03*
D12*
X82550000Y-113030000D03*
D11*
X92710000Y-91440000D03*
D12*
X92710000Y-99060000D03*
D11*
X85090000Y-91440000D03*
D12*
X85090000Y-99060000D03*
D11*
X85090000Y-81280000D03*
D12*
X85090000Y-88900000D03*
D11*
X82550000Y-99060000D03*
D12*
X82550000Y-91440000D03*
D11*
X95250000Y-99060000D03*
D12*
X95250000Y-91440000D03*
D11*
X55880000Y-97790000D03*
D12*
X63500000Y-97790000D03*
D11*
X80010000Y-99060000D03*
D12*
X80010000Y-91440000D03*
D11*
X68580000Y-71755000D03*
D12*
X68580000Y-64135000D03*
D11*
X72390000Y-64135000D03*
D12*
X72390000Y-71755000D03*
D11*
X125730000Y-91440000D03*
D12*
X125730000Y-99060000D03*
D11*
X74930000Y-64135000D03*
D12*
X74930000Y-71755000D03*
D11*
X128270000Y-91440000D03*
D12*
X128270000Y-99060000D03*
D11*
X106045000Y-71755000D03*
D12*
X106045000Y-64135000D03*
D11*
X116205000Y-83820000D03*
D12*
X116205000Y-76200000D03*
D11*
X89535000Y-71755000D03*
D12*
X89535000Y-64135000D03*
D11*
X100330000Y-99060000D03*
D12*
X100330000Y-91440000D03*
D11*
X56515000Y-67945000D03*
D12*
X56515000Y-75565000D03*
D11*
X63500000Y-92710000D03*
D12*
X55880000Y-92710000D03*
D11*
X56515000Y-102235000D03*
D12*
X56515000Y-109855000D03*
D11*
X51435000Y-66040000D03*
D12*
X43815000Y-66040000D03*
D20*
X128905000Y-138400000D03*
D21*
X128905000Y-127000000D03*
D20*
X128905000Y-130100000D03*
X128905000Y-49560000D03*
D21*
X128905000Y-60960000D03*
D20*
X128905000Y-57860000D03*
X67310000Y-49560000D03*
D21*
X67310000Y-60960000D03*
D20*
X67310000Y-57860000D03*
X56515000Y-49560000D03*
D21*
X56515000Y-60960000D03*
D20*
X56515000Y-57860000D03*
X45720000Y-49560000D03*
D21*
X45720000Y-60960000D03*
D20*
X45720000Y-57860000D03*
D15*
X74930000Y-85725000D03*
D16*
X74930000Y-93345000D03*
D15*
X63500000Y-126365000D03*
D16*
X55880000Y-126365000D03*
D15*
X63500000Y-132715000D03*
D16*
X55880000Y-132715000D03*
D22*
X101005000Y-122555000D03*
D16*
X103505000Y-122555000D03*
D22*
X97790000Y-118030000D03*
X97790000Y-113030000D03*
X69850000Y-123865000D03*
D16*
X69850000Y-126365000D03*
D22*
X69850000Y-132755000D03*
D16*
X69850000Y-135255000D03*
D22*
X85090000Y-118030000D03*
X85090000Y-113030000D03*
X90170000Y-113070000D03*
X90170000Y-115570000D03*
X104140000Y-113070000D03*
X104140000Y-115570000D03*
X60960000Y-113070000D03*
X60960000Y-115570000D03*
X87630000Y-94060000D03*
X87630000Y-99060000D03*
X130810000Y-96560000D03*
X130810000Y-99060000D03*
X123190000Y-113070000D03*
X123190000Y-115570000D03*
X90170000Y-94060000D03*
X90170000Y-99060000D03*
X83185000Y-72390000D03*
X83185000Y-74890000D03*
X69215000Y-82590000D03*
X69215000Y-85090000D03*
M02*
