G04 #@! TF.GenerationSoftware,KiCad,Pcbnew,5.1.12-1.fc34*
G04 #@! TF.CreationDate,2022-01-17T20:57:28+01:00*
G04 #@! TF.ProjectId,vcf,7663662e-6b69-4636-9164-5f7063625858,rev?*
G04 #@! TF.SameCoordinates,Original*
G04 #@! TF.FileFunction,Legend,Top*
G04 #@! TF.FilePolarity,Positive*
%FSLAX46Y46*%
G04 Gerber Fmt 4.6, Leading zero omitted, Abs format (unit mm)*
G04 Created by KiCad (PCBNEW 5.1.12-1.fc34) date 2022-01-17 20:57:28*
%MOMM*%
%LPD*%
G01*
G04 APERTURE LIST*
%ADD10C,0.100000*%
%ADD11C,0.120000*%
%ADD12O,1.400000X1.400000*%
%ADD13C,1.400000*%
%ADD14O,1.700000X1.700000*%
%ADD15R,1.700000X1.700000*%
%ADD16O,1.600000X1.600000*%
%ADD17R,1.600000X1.600000*%
%ADD18C,4.000000*%
%ADD19C,1.800000*%
%ADD20C,1.440000*%
%ADD21C,2.130000*%
%ADD22R,1.930000X1.830000*%
%ADD23C,1.600000*%
G04 APERTURE END LIST*
D10*
G36*
X137160000Y-143510000D02*
G01*
X38100000Y-143510000D01*
X38100000Y-140335000D01*
X137160000Y-140335000D01*
X137160000Y-143510000D01*
G37*
X137160000Y-143510000D02*
X38100000Y-143510000D01*
X38100000Y-140335000D01*
X137160000Y-140335000D01*
X137160000Y-143510000D01*
G36*
X137160000Y-47625000D02*
G01*
X38100000Y-47625000D01*
X38100000Y-44450000D01*
X137160000Y-44450000D01*
X137160000Y-47625000D01*
G37*
X137160000Y-47625000D02*
X38100000Y-47625000D01*
X38100000Y-44450000D01*
X137160000Y-44450000D01*
X137160000Y-47625000D01*
D11*
X95142654Y-133350000D02*
G75*
G03*
X95142654Y-133350000I-3702654J0D01*
G01*
X91440000Y-136525000D02*
X88265000Y-135255000D01*
X94615000Y-135255000D02*
X91440000Y-136525000D01*
X94615000Y-131445000D02*
X94615000Y-135255000D01*
X91440000Y-130175000D02*
X94615000Y-131445000D01*
X88265000Y-131445000D02*
X91440000Y-130175000D01*
X88265000Y-135255000D02*
X88265000Y-131445000D01*
X95885000Y-140335000D02*
X86995000Y-140335000D01*
X95885000Y-126365000D02*
X95885000Y-140335000D01*
X86995000Y-126365000D02*
X95885000Y-126365000D01*
X86995000Y-140335000D02*
X86995000Y-126365000D01*
X108195000Y-127220000D02*
X112861000Y-127220000D01*
X116770000Y-127220000D02*
X119785000Y-127220000D01*
X108195000Y-139560000D02*
X112861000Y-139560000D01*
X116770000Y-139560000D02*
X119785000Y-139560000D01*
X108195000Y-127220000D02*
X108195000Y-130019000D01*
X108195000Y-131761000D02*
X108195000Y-132520000D01*
X108195000Y-134261000D02*
X108195000Y-135020000D01*
X108195000Y-136760000D02*
X108195000Y-139560000D01*
X119785000Y-127220000D02*
X119785000Y-139560000D01*
X128280000Y-84260000D02*
X128280000Y-74490000D01*
X133350000Y-84260000D02*
X133350000Y-74490000D01*
X128280000Y-84260000D02*
X133350000Y-84260000D01*
X128280000Y-74490000D02*
X133350000Y-74490000D01*
X76210000Y-135060000D02*
X76210000Y-125290000D01*
X81280000Y-135060000D02*
X81280000Y-125290000D01*
X76210000Y-135060000D02*
X81280000Y-135060000D01*
X76210000Y-125290000D02*
X81280000Y-125290000D01*
X109230000Y-83625000D02*
X109230000Y-73855000D01*
X114300000Y-83625000D02*
X114300000Y-73855000D01*
X109230000Y-83625000D02*
X114300000Y-83625000D01*
X109230000Y-73855000D02*
X114300000Y-73855000D01*
X58430000Y-83625000D02*
X58430000Y-73855000D01*
X63500000Y-83625000D02*
X63500000Y-73855000D01*
X58430000Y-83625000D02*
X63500000Y-83625000D01*
X58430000Y-73855000D02*
X63500000Y-73855000D01*
X109465000Y-48480000D02*
X114131000Y-48480000D01*
X118040000Y-48480000D02*
X121055000Y-48480000D01*
X109465000Y-60820000D02*
X114131000Y-60820000D01*
X118040000Y-60820000D02*
X121055000Y-60820000D01*
X109465000Y-48480000D02*
X109465000Y-51279000D01*
X109465000Y-53021000D02*
X109465000Y-53780000D01*
X109465000Y-55521000D02*
X109465000Y-56280000D01*
X109465000Y-58020000D02*
X109465000Y-60820000D01*
X121055000Y-48480000D02*
X121055000Y-60820000D01*
X92955000Y-48480000D02*
X97621000Y-48480000D01*
X101530000Y-48480000D02*
X104545000Y-48480000D01*
X92955000Y-60820000D02*
X97621000Y-60820000D01*
X101530000Y-60820000D02*
X104545000Y-60820000D01*
X92955000Y-48480000D02*
X92955000Y-51279000D01*
X92955000Y-53021000D02*
X92955000Y-53780000D01*
X92955000Y-55521000D02*
X92955000Y-56280000D01*
X92955000Y-58020000D02*
X92955000Y-60820000D01*
X104545000Y-48480000D02*
X104545000Y-60820000D01*
X76445000Y-48480000D02*
X81111000Y-48480000D01*
X85020000Y-48480000D02*
X88035000Y-48480000D01*
X76445000Y-60820000D02*
X81111000Y-60820000D01*
X85020000Y-60820000D02*
X88035000Y-60820000D01*
X76445000Y-48480000D02*
X76445000Y-51279000D01*
X76445000Y-53021000D02*
X76445000Y-53780000D01*
X76445000Y-55521000D02*
X76445000Y-56280000D01*
X76445000Y-58020000D02*
X76445000Y-60820000D01*
X88035000Y-48480000D02*
X88035000Y-60820000D01*
X52460000Y-81695000D02*
X47794000Y-81695000D01*
X43885000Y-81695000D02*
X40870000Y-81695000D01*
X52460000Y-69355000D02*
X47794000Y-69355000D01*
X43885000Y-69355000D02*
X40870000Y-69355000D01*
X52460000Y-81695000D02*
X52460000Y-78896000D01*
X52460000Y-77154000D02*
X52460000Y-76395000D01*
X52460000Y-74654000D02*
X52460000Y-73895000D01*
X52460000Y-72155000D02*
X52460000Y-69355000D01*
X40870000Y-81695000D02*
X40870000Y-69355000D01*
X52460000Y-98840000D02*
X47794000Y-98840000D01*
X43885000Y-98840000D02*
X40870000Y-98840000D01*
X52460000Y-86500000D02*
X47794000Y-86500000D01*
X43885000Y-86500000D02*
X40870000Y-86500000D01*
X52460000Y-98840000D02*
X52460000Y-96041000D01*
X52460000Y-94299000D02*
X52460000Y-93540000D01*
X52460000Y-91799000D02*
X52460000Y-91040000D01*
X52460000Y-89300000D02*
X52460000Y-86500000D01*
X40870000Y-98840000D02*
X40870000Y-86500000D01*
X52460000Y-115985000D02*
X47794000Y-115985000D01*
X43885000Y-115985000D02*
X40870000Y-115985000D01*
X52460000Y-103645000D02*
X47794000Y-103645000D01*
X43885000Y-103645000D02*
X40870000Y-103645000D01*
X52460000Y-115985000D02*
X52460000Y-113186000D01*
X52460000Y-111444000D02*
X52460000Y-110685000D01*
X52460000Y-108944000D02*
X52460000Y-108185000D01*
X52460000Y-106445000D02*
X52460000Y-103645000D01*
X40870000Y-115985000D02*
X40870000Y-103645000D01*
X123475000Y-77455000D02*
X121635000Y-77455000D01*
X121635000Y-77455000D02*
X121635000Y-81295000D01*
X121635000Y-81295000D02*
X123475000Y-81295000D01*
X123475000Y-81295000D02*
X123475000Y-77455000D01*
X122555000Y-76505000D02*
X122555000Y-77455000D01*
X122555000Y-82245000D02*
X122555000Y-81295000D01*
X74280000Y-87345000D02*
X74280000Y-89185000D01*
X74280000Y-89185000D02*
X78120000Y-89185000D01*
X78120000Y-89185000D02*
X78120000Y-87345000D01*
X78120000Y-87345000D02*
X74280000Y-87345000D01*
X73330000Y-88265000D02*
X74280000Y-88265000D01*
X79070000Y-88265000D02*
X78120000Y-88265000D01*
X124405000Y-128980000D02*
X124405000Y-139480000D01*
X133405000Y-128980000D02*
X133405000Y-139480000D01*
X133405000Y-139480000D02*
X129405000Y-139480000D01*
X128405000Y-139480000D02*
X124405000Y-139480000D01*
X133405000Y-128980000D02*
X129255000Y-128980000D01*
X128555000Y-128980000D02*
X124405000Y-128980000D01*
X130705000Y-133480000D02*
G75*
G03*
X130705000Y-133480000I-1800000J0D01*
G01*
X127845000Y-126000000D02*
X127845000Y-126800000D01*
X127845000Y-126000000D02*
X128705000Y-126000000D01*
X133405000Y-58980000D02*
X133405000Y-48480000D01*
X124405000Y-58980000D02*
X124405000Y-48480000D01*
X124405000Y-48480000D02*
X128405000Y-48480000D01*
X129405000Y-48480000D02*
X133405000Y-48480000D01*
X124405000Y-58980000D02*
X128555000Y-58980000D01*
X129255000Y-58980000D02*
X133405000Y-58980000D01*
X130705000Y-54480000D02*
G75*
G03*
X130705000Y-54480000I-1800000J0D01*
G01*
X129965000Y-61960000D02*
X129965000Y-61160000D01*
X129965000Y-61960000D02*
X129105000Y-61960000D01*
X71810000Y-58980000D02*
X71810000Y-48480000D01*
X62810000Y-58980000D02*
X62810000Y-48480000D01*
X62810000Y-48480000D02*
X66810000Y-48480000D01*
X67810000Y-48480000D02*
X71810000Y-48480000D01*
X62810000Y-58980000D02*
X66960000Y-58980000D01*
X67660000Y-58980000D02*
X71810000Y-58980000D01*
X69110000Y-54480000D02*
G75*
G03*
X69110000Y-54480000I-1800000J0D01*
G01*
X68370000Y-61960000D02*
X68370000Y-61160000D01*
X68370000Y-61960000D02*
X67510000Y-61960000D01*
X61015000Y-58980000D02*
X61015000Y-48480000D01*
X52015000Y-58980000D02*
X52015000Y-48480000D01*
X52015000Y-48480000D02*
X56015000Y-48480000D01*
X57015000Y-48480000D02*
X61015000Y-48480000D01*
X52015000Y-58980000D02*
X56165000Y-58980000D01*
X56865000Y-58980000D02*
X61015000Y-58980000D01*
X58315000Y-54480000D02*
G75*
G03*
X58315000Y-54480000I-1800000J0D01*
G01*
X57575000Y-61960000D02*
X57575000Y-61160000D01*
X57575000Y-61960000D02*
X56715000Y-61960000D01*
X50220000Y-58980000D02*
X50220000Y-48480000D01*
X41220000Y-58980000D02*
X41220000Y-48480000D01*
X41220000Y-48480000D02*
X45220000Y-48480000D01*
X46220000Y-48480000D02*
X50220000Y-48480000D01*
X41220000Y-58980000D02*
X45370000Y-58980000D01*
X46070000Y-58980000D02*
X50220000Y-58980000D01*
X47520000Y-54480000D02*
G75*
G03*
X47520000Y-54480000I-1800000J0D01*
G01*
X46780000Y-61960000D02*
X46780000Y-61160000D01*
X46780000Y-61960000D02*
X45920000Y-61960000D01*
%LPC*%
D12*
X77470000Y-93345000D03*
D13*
X77470000Y-85725000D03*
D14*
X48895000Y-124460000D03*
X46355000Y-124460000D03*
X48895000Y-127000000D03*
X46355000Y-127000000D03*
X48895000Y-129540000D03*
X46355000Y-129540000D03*
X48895000Y-132080000D03*
X46355000Y-132080000D03*
X48895000Y-134620000D03*
D15*
X46355000Y-134620000D03*
D16*
X104140000Y-109855000D03*
X119380000Y-102235000D03*
X106680000Y-109855000D03*
X116840000Y-102235000D03*
X109220000Y-109855000D03*
X114300000Y-102235000D03*
X111760000Y-109855000D03*
X111760000Y-102235000D03*
X114300000Y-109855000D03*
X109220000Y-102235000D03*
X116840000Y-109855000D03*
X106680000Y-102235000D03*
X119380000Y-109855000D03*
D17*
X104140000Y-102235000D03*
D16*
X60960000Y-109855000D03*
X76200000Y-102235000D03*
X63500000Y-109855000D03*
X73660000Y-102235000D03*
X66040000Y-109855000D03*
X71120000Y-102235000D03*
X68580000Y-109855000D03*
X68580000Y-102235000D03*
X71120000Y-109855000D03*
X66040000Y-102235000D03*
X73660000Y-109855000D03*
X63500000Y-102235000D03*
X76200000Y-109855000D03*
D17*
X60960000Y-102235000D03*
D16*
X80010000Y-109855000D03*
X100330000Y-102235000D03*
X82550000Y-109855000D03*
X97790000Y-102235000D03*
X85090000Y-109855000D03*
X95250000Y-102235000D03*
X87630000Y-109855000D03*
X92710000Y-102235000D03*
X90170000Y-109855000D03*
X90170000Y-102235000D03*
X92710000Y-109855000D03*
X87630000Y-102235000D03*
X95250000Y-109855000D03*
X85090000Y-102235000D03*
X97790000Y-109855000D03*
X82550000Y-102235000D03*
X100330000Y-109855000D03*
D17*
X80010000Y-102235000D03*
D16*
X123190000Y-109855000D03*
X130810000Y-102235000D03*
X125730000Y-109855000D03*
X128270000Y-102235000D03*
X128270000Y-109855000D03*
X125730000Y-102235000D03*
X130810000Y-109855000D03*
D17*
X123190000Y-102235000D03*
D16*
X72390000Y-82550000D03*
X80010000Y-74930000D03*
X74930000Y-82550000D03*
X77470000Y-74930000D03*
X77470000Y-82550000D03*
X74930000Y-74930000D03*
X80010000Y-82550000D03*
D17*
X72390000Y-74930000D03*
D18*
X114815000Y-138140000D03*
X114815000Y-128640000D03*
D19*
X107315000Y-135890000D03*
X107315000Y-133390000D03*
X107315000Y-130890000D03*
D20*
X130810000Y-81915000D03*
X130810000Y-79375000D03*
X130810000Y-76835000D03*
X78740000Y-132715000D03*
X78740000Y-130175000D03*
X78740000Y-127635000D03*
X111760000Y-81280000D03*
X111760000Y-78740000D03*
X111760000Y-76200000D03*
X60960000Y-81280000D03*
X60960000Y-78740000D03*
X60960000Y-76200000D03*
D18*
X116085000Y-59400000D03*
X116085000Y-49900000D03*
D19*
X108585000Y-57150000D03*
X108585000Y-54650000D03*
X108585000Y-52150000D03*
D18*
X99575000Y-59400000D03*
X99575000Y-49900000D03*
D19*
X92075000Y-57150000D03*
X92075000Y-54650000D03*
X92075000Y-52150000D03*
D18*
X83065000Y-59400000D03*
X83065000Y-49900000D03*
D19*
X75565000Y-57150000D03*
X75565000Y-54650000D03*
X75565000Y-52150000D03*
D18*
X45840000Y-70775000D03*
X45840000Y-80275000D03*
D19*
X53340000Y-73025000D03*
X53340000Y-75525000D03*
X53340000Y-78025000D03*
D18*
X45840000Y-87920000D03*
X45840000Y-97420000D03*
D19*
X53340000Y-90170000D03*
X53340000Y-92670000D03*
X53340000Y-95170000D03*
D18*
X45840000Y-105065000D03*
X45840000Y-114565000D03*
D19*
X53340000Y-107315000D03*
X53340000Y-109815000D03*
X53340000Y-112315000D03*
D12*
X114300000Y-113030000D03*
D13*
X114300000Y-120650000D03*
D12*
X125730000Y-120650000D03*
D13*
X125730000Y-113030000D03*
D12*
X122555000Y-83185000D03*
D13*
X122555000Y-75565000D03*
D12*
X128270000Y-120650000D03*
D13*
X128270000Y-113030000D03*
D12*
X80010000Y-88265000D03*
D13*
X72390000Y-88265000D03*
D12*
X118745000Y-79375000D03*
D13*
X126365000Y-79375000D03*
D12*
X85725000Y-70485000D03*
D13*
X85725000Y-78105000D03*
D12*
X130810000Y-113030000D03*
D13*
X130810000Y-120650000D03*
D12*
X116840000Y-91440000D03*
D13*
X116840000Y-99060000D03*
D12*
X97790000Y-91440000D03*
D13*
X97790000Y-99060000D03*
D12*
X63500000Y-123825000D03*
D13*
X55880000Y-123825000D03*
D12*
X63500000Y-135255000D03*
D13*
X55880000Y-135255000D03*
D12*
X80010000Y-120650000D03*
D13*
X80010000Y-113030000D03*
D12*
X92710000Y-113030000D03*
D13*
X92710000Y-120650000D03*
D12*
X82550000Y-123190000D03*
D13*
X74930000Y-123190000D03*
D12*
X76200000Y-120650000D03*
D13*
X76200000Y-113030000D03*
D12*
X87630000Y-113030000D03*
D13*
X87630000Y-120650000D03*
D12*
X107315000Y-78740000D03*
D13*
X99695000Y-78740000D03*
D12*
X82550000Y-120650000D03*
D13*
X82550000Y-113030000D03*
D12*
X92710000Y-91440000D03*
D13*
X92710000Y-99060000D03*
D12*
X85090000Y-91440000D03*
D13*
X85090000Y-99060000D03*
D12*
X85090000Y-81280000D03*
D13*
X85090000Y-88900000D03*
D12*
X82550000Y-99060000D03*
D13*
X82550000Y-91440000D03*
D12*
X95250000Y-99060000D03*
D13*
X95250000Y-91440000D03*
D12*
X55880000Y-97790000D03*
D13*
X63500000Y-97790000D03*
D12*
X80010000Y-99060000D03*
D13*
X80010000Y-91440000D03*
D12*
X68580000Y-71755000D03*
D13*
X68580000Y-64135000D03*
D12*
X72390000Y-64135000D03*
D13*
X72390000Y-71755000D03*
D12*
X125730000Y-91440000D03*
D13*
X125730000Y-99060000D03*
D12*
X74930000Y-64135000D03*
D13*
X74930000Y-71755000D03*
D12*
X128270000Y-91440000D03*
D13*
X128270000Y-99060000D03*
D12*
X106045000Y-71755000D03*
D13*
X106045000Y-64135000D03*
D12*
X116205000Y-83820000D03*
D13*
X116205000Y-76200000D03*
D12*
X89535000Y-71755000D03*
D13*
X89535000Y-64135000D03*
D12*
X100330000Y-99060000D03*
D13*
X100330000Y-91440000D03*
D12*
X56515000Y-67945000D03*
D13*
X56515000Y-75565000D03*
D12*
X63500000Y-92710000D03*
D13*
X55880000Y-92710000D03*
D12*
X56515000Y-102235000D03*
D13*
X56515000Y-109855000D03*
D12*
X51435000Y-66040000D03*
D13*
X43815000Y-66040000D03*
D21*
X128905000Y-138400000D03*
D22*
X128905000Y-127000000D03*
D21*
X128905000Y-130100000D03*
X128905000Y-49560000D03*
D22*
X128905000Y-60960000D03*
D21*
X128905000Y-57860000D03*
X67310000Y-49560000D03*
D22*
X67310000Y-60960000D03*
D21*
X67310000Y-57860000D03*
X56515000Y-49560000D03*
D22*
X56515000Y-60960000D03*
D21*
X56515000Y-57860000D03*
X45720000Y-49560000D03*
D22*
X45720000Y-60960000D03*
D21*
X45720000Y-57860000D03*
D16*
X74930000Y-85725000D03*
D17*
X74930000Y-93345000D03*
D16*
X63500000Y-126365000D03*
D17*
X55880000Y-126365000D03*
D16*
X63500000Y-132715000D03*
D17*
X55880000Y-132715000D03*
D23*
X101005000Y-122555000D03*
D17*
X103505000Y-122555000D03*
D23*
X97790000Y-118030000D03*
X97790000Y-113030000D03*
X69850000Y-123865000D03*
D17*
X69850000Y-126365000D03*
D23*
X69850000Y-132755000D03*
D17*
X69850000Y-135255000D03*
D23*
X85090000Y-118030000D03*
X85090000Y-113030000D03*
X90170000Y-113070000D03*
X90170000Y-115570000D03*
X104140000Y-113070000D03*
X104140000Y-115570000D03*
X60960000Y-113070000D03*
X60960000Y-115570000D03*
X87630000Y-94060000D03*
X87630000Y-99060000D03*
X130810000Y-96560000D03*
X130810000Y-99060000D03*
X123190000Y-113070000D03*
X123190000Y-115570000D03*
X90170000Y-94060000D03*
X90170000Y-99060000D03*
X83185000Y-72390000D03*
X83185000Y-74890000D03*
X69215000Y-82590000D03*
X69215000Y-85090000D03*
M02*
