%FSLAX45Y45*%
G04 Gerber Fmt 4.5, Leading zero omitted, Abs format (unit mm)*
G04 Created by KiCad (PCBNEW 5.1.12-1.fc34) date 2022-01-17 20:52:52*
%MOMM*%
%LPD*%
G01*
G04 APERTURE LIST*
%TA.AperFunction,Profile*%
%ADD10C,0.050000*%
%TD*%
%ADD11C,0.200000*%
%ADD12C,0.300000*%
G04 APERTURE END LIST*
D10*
X6350000Y-14986000D02*
X6350000Y-5080000D01*
X16256000Y-14986000D02*
X6350000Y-14986000D01*
X16256000Y-5080000D02*
X16256000Y-14986000D01*
X6350000Y-5080000D02*
X16256000Y-5080000D01*
D11*
X13556000Y-5682000D02*
X13876000Y-6002000D01*
X13876000Y-5682000D02*
X13556000Y-6002000D01*
X15588000Y-7777500D02*
X15908000Y-8097500D01*
X15908000Y-7777500D02*
X15588000Y-8097500D01*
X15588000Y-14064000D02*
X15908000Y-14384000D01*
X15908000Y-14064000D02*
X15588000Y-14384000D01*
X7412000Y-6299454D02*
G75*
G03*
X7412000Y-6299454I-300000J0D01*
G01*
X7412000Y-13919454D02*
G75*
G03*
X7412000Y-13919454I-300000J0D01*
G01*
X8491500Y-13919454D02*
G75*
G03*
X8491500Y-13919454I-300000J0D01*
G01*
X9571000Y-13919454D02*
G75*
G03*
X9571000Y-13919454I-300000J0D01*
G01*
X10650500Y-13919454D02*
G75*
G03*
X10650500Y-13919454I-300000J0D01*
G01*
X11730000Y-13919454D02*
G75*
G03*
X11730000Y-13919454I-300000J0D01*
G01*
X12809500Y-13919454D02*
G75*
G03*
X12809500Y-13919454I-300000J0D01*
G01*
X11497564Y-7687938D02*
X11497564Y-8337938D01*
X11172564Y-8012938D02*
X11822564Y-8012938D01*
X15180564Y-5909938D02*
X15180564Y-6559938D01*
X14855564Y-6234938D02*
X15505564Y-6234938D01*
D12*
X6633928Y-15454214D02*
X6633928Y-15154214D01*
X6705357Y-15154214D01*
X6748214Y-15168500D01*
X6776786Y-15197071D01*
X6791071Y-15225643D01*
X6805357Y-15282786D01*
X6805357Y-15325643D01*
X6791071Y-15382786D01*
X6776786Y-15411357D01*
X6748214Y-15439929D01*
X6705357Y-15454214D01*
X6633928Y-15454214D01*
X6933928Y-15454214D02*
X6933928Y-15254214D01*
X6933928Y-15311357D02*
X6948214Y-15282786D01*
X6962500Y-15268500D01*
X6991071Y-15254214D01*
X7019643Y-15254214D01*
X7119643Y-15454214D02*
X7119643Y-15254214D01*
X7119643Y-15154214D02*
X7105357Y-15168500D01*
X7119643Y-15182786D01*
X7133928Y-15168500D01*
X7119643Y-15154214D01*
X7119643Y-15182786D01*
X7305357Y-15454214D02*
X7276786Y-15439929D01*
X7262500Y-15411357D01*
X7262500Y-15154214D01*
X7462500Y-15454214D02*
X7433928Y-15439929D01*
X7419643Y-15411357D01*
X7419643Y-15154214D01*
X7805357Y-15454214D02*
X7805357Y-15154214D01*
X7905357Y-15368500D01*
X8005357Y-15154214D01*
X8005357Y-15454214D01*
X8276786Y-15454214D02*
X8276786Y-15297071D01*
X8262500Y-15268500D01*
X8233928Y-15254214D01*
X8176786Y-15254214D01*
X8148214Y-15268500D01*
X8276786Y-15439929D02*
X8248214Y-15454214D01*
X8176786Y-15454214D01*
X8148214Y-15439929D01*
X8133928Y-15411357D01*
X8133928Y-15382786D01*
X8148214Y-15354214D01*
X8176786Y-15339929D01*
X8248214Y-15339929D01*
X8276786Y-15325643D01*
X8419643Y-15254214D02*
X8419643Y-15554214D01*
X8419643Y-15268500D02*
X8448214Y-15254214D01*
X8505357Y-15254214D01*
X8533928Y-15268500D01*
X8548214Y-15282786D01*
X8562500Y-15311357D01*
X8562500Y-15397071D01*
X8548214Y-15425643D01*
X8533928Y-15439929D01*
X8505357Y-15454214D01*
X8448214Y-15454214D01*
X8419643Y-15439929D01*
X8691071Y-15425643D02*
X8705357Y-15439929D01*
X8691071Y-15454214D01*
X8676786Y-15439929D01*
X8691071Y-15425643D01*
X8691071Y-15454214D01*
X8691071Y-15268500D02*
X8705357Y-15282786D01*
X8691071Y-15297071D01*
X8676786Y-15282786D01*
X8691071Y-15268500D01*
X8691071Y-15297071D01*
X6027500Y-15788500D02*
X6347500Y-16108500D01*
X6347500Y-15788500D02*
X6027500Y-16108500D01*
X6605357Y-15784214D02*
X6791071Y-15784214D01*
X6691071Y-15898500D01*
X6733928Y-15898500D01*
X6762500Y-15912786D01*
X6776786Y-15927071D01*
X6791071Y-15955643D01*
X6791071Y-16027071D01*
X6776786Y-16055643D01*
X6762500Y-16069929D01*
X6733928Y-16084214D01*
X6648214Y-16084214D01*
X6619643Y-16069929D01*
X6605357Y-16055643D01*
X6919643Y-16055643D02*
X6933928Y-16069929D01*
X6919643Y-16084214D01*
X6905357Y-16069929D01*
X6919643Y-16055643D01*
X6919643Y-16084214D01*
X7048214Y-15812786D02*
X7062500Y-15798500D01*
X7091071Y-15784214D01*
X7162500Y-15784214D01*
X7191071Y-15798500D01*
X7205357Y-15812786D01*
X7219643Y-15841357D01*
X7219643Y-15869929D01*
X7205357Y-15912786D01*
X7033928Y-16084214D01*
X7219643Y-16084214D01*
X7405357Y-15784214D02*
X7433928Y-15784214D01*
X7462500Y-15798500D01*
X7476786Y-15812786D01*
X7491071Y-15841357D01*
X7505357Y-15898500D01*
X7505357Y-15969929D01*
X7491071Y-16027071D01*
X7476786Y-16055643D01*
X7462500Y-16069929D01*
X7433928Y-16084214D01*
X7405357Y-16084214D01*
X7376786Y-16069929D01*
X7362500Y-16055643D01*
X7348214Y-16027071D01*
X7333928Y-15969929D01*
X7333928Y-15898500D01*
X7348214Y-15841357D01*
X7362500Y-15812786D01*
X7376786Y-15798500D01*
X7405357Y-15784214D01*
X7691071Y-15784214D02*
X7719643Y-15784214D01*
X7748214Y-15798500D01*
X7762500Y-15812786D01*
X7776786Y-15841357D01*
X7791071Y-15898500D01*
X7791071Y-15969929D01*
X7776786Y-16027071D01*
X7762500Y-16055643D01*
X7748214Y-16069929D01*
X7719643Y-16084214D01*
X7691071Y-16084214D01*
X7662500Y-16069929D01*
X7648214Y-16055643D01*
X7633928Y-16027071D01*
X7619643Y-15969929D01*
X7619643Y-15898500D01*
X7633928Y-15841357D01*
X7648214Y-15812786D01*
X7662500Y-15798500D01*
X7691071Y-15784214D01*
X7919643Y-16084214D02*
X7919643Y-15884214D01*
X7919643Y-15912786D02*
X7933928Y-15898500D01*
X7962500Y-15884214D01*
X8005357Y-15884214D01*
X8033928Y-15898500D01*
X8048214Y-15927071D01*
X8048214Y-16084214D01*
X8048214Y-15927071D02*
X8062500Y-15898500D01*
X8091071Y-15884214D01*
X8133928Y-15884214D01*
X8162500Y-15898500D01*
X8176786Y-15927071D01*
X8176786Y-16084214D01*
X8319643Y-16084214D02*
X8319643Y-15884214D01*
X8319643Y-15912786D02*
X8333928Y-15898500D01*
X8362500Y-15884214D01*
X8405357Y-15884214D01*
X8433928Y-15898500D01*
X8448214Y-15927071D01*
X8448214Y-16084214D01*
X8448214Y-15927071D02*
X8462500Y-15898500D01*
X8491071Y-15884214D01*
X8533928Y-15884214D01*
X8562500Y-15898500D01*
X8576786Y-15927071D01*
X8576786Y-16084214D01*
X9162500Y-15769929D02*
X8905357Y-16155643D01*
X9548214Y-15784214D02*
X9576786Y-15784214D01*
X9605357Y-15798500D01*
X9619643Y-15812786D01*
X9633928Y-15841357D01*
X9648214Y-15898500D01*
X9648214Y-15969929D01*
X9633928Y-16027071D01*
X9619643Y-16055643D01*
X9605357Y-16069929D01*
X9576786Y-16084214D01*
X9548214Y-16084214D01*
X9519643Y-16069929D01*
X9505357Y-16055643D01*
X9491071Y-16027071D01*
X9476786Y-15969929D01*
X9476786Y-15898500D01*
X9491071Y-15841357D01*
X9505357Y-15812786D01*
X9519643Y-15798500D01*
X9548214Y-15784214D01*
X9776786Y-16055643D02*
X9791071Y-16069929D01*
X9776786Y-16084214D01*
X9762500Y-16069929D01*
X9776786Y-16055643D01*
X9776786Y-16084214D01*
X10076786Y-16084214D02*
X9905357Y-16084214D01*
X9991071Y-16084214D02*
X9991071Y-15784214D01*
X9962500Y-15827071D01*
X9933928Y-15855643D01*
X9905357Y-15869929D01*
X10191071Y-15812786D02*
X10205357Y-15798500D01*
X10233928Y-15784214D01*
X10305357Y-15784214D01*
X10333928Y-15798500D01*
X10348214Y-15812786D01*
X10362500Y-15841357D01*
X10362500Y-15869929D01*
X10348214Y-15912786D01*
X10176786Y-16084214D01*
X10362500Y-16084214D01*
X10619643Y-15784214D02*
X10562500Y-15784214D01*
X10533928Y-15798500D01*
X10519643Y-15812786D01*
X10491071Y-15855643D01*
X10476786Y-15912786D01*
X10476786Y-16027071D01*
X10491071Y-16055643D01*
X10505357Y-16069929D01*
X10533928Y-16084214D01*
X10591071Y-16084214D01*
X10619643Y-16069929D01*
X10633928Y-16055643D01*
X10648214Y-16027071D01*
X10648214Y-15955643D01*
X10633928Y-15927071D01*
X10619643Y-15912786D01*
X10591071Y-15898500D01*
X10533928Y-15898500D01*
X10505357Y-15912786D01*
X10491071Y-15927071D01*
X10476786Y-15955643D01*
X10833928Y-15784214D02*
X10862500Y-15784214D01*
X10891071Y-15798500D01*
X10905357Y-15812786D01*
X10919643Y-15841357D01*
X10933928Y-15898500D01*
X10933928Y-15969929D01*
X10919643Y-16027071D01*
X10905357Y-16055643D01*
X10891071Y-16069929D01*
X10862500Y-16084214D01*
X10833928Y-16084214D01*
X10805357Y-16069929D01*
X10791071Y-16055643D01*
X10776786Y-16027071D01*
X10762500Y-15969929D01*
X10762500Y-15898500D01*
X10776786Y-15841357D01*
X10791071Y-15812786D01*
X10805357Y-15798500D01*
X10833928Y-15784214D01*
X11048214Y-15784214D02*
X11048214Y-15841357D01*
X11162500Y-15784214D02*
X11162500Y-15841357D01*
X11605357Y-16198500D02*
X11591071Y-16184214D01*
X11562500Y-16141357D01*
X11548214Y-16112786D01*
X11533928Y-16069929D01*
X11519643Y-15998500D01*
X11519643Y-15941357D01*
X11533928Y-15869929D01*
X11548214Y-15827071D01*
X11562500Y-15798500D01*
X11591071Y-15755643D01*
X11605357Y-15741357D01*
X11691071Y-15784214D02*
X11876786Y-15784214D01*
X11776786Y-15898500D01*
X11819643Y-15898500D01*
X11848214Y-15912786D01*
X11862500Y-15927071D01*
X11876786Y-15955643D01*
X11876786Y-16027071D01*
X11862500Y-16055643D01*
X11848214Y-16069929D01*
X11819643Y-16084214D01*
X11733928Y-16084214D01*
X11705357Y-16069929D01*
X11691071Y-16055643D01*
X12233928Y-16084214D02*
X12233928Y-15784214D01*
X12362500Y-16084214D02*
X12362500Y-15927071D01*
X12348214Y-15898500D01*
X12319643Y-15884214D01*
X12276786Y-15884214D01*
X12248214Y-15898500D01*
X12233928Y-15912786D01*
X12548214Y-16084214D02*
X12519643Y-16069929D01*
X12505357Y-16055643D01*
X12491071Y-16027071D01*
X12491071Y-15941357D01*
X12505357Y-15912786D01*
X12519643Y-15898500D01*
X12548214Y-15884214D01*
X12591071Y-15884214D01*
X12619643Y-15898500D01*
X12633928Y-15912786D01*
X12648214Y-15941357D01*
X12648214Y-16027071D01*
X12633928Y-16055643D01*
X12619643Y-16069929D01*
X12591071Y-16084214D01*
X12548214Y-16084214D01*
X12819643Y-16084214D02*
X12791071Y-16069929D01*
X12776786Y-16041357D01*
X12776786Y-15784214D01*
X13048214Y-16069929D02*
X13019643Y-16084214D01*
X12962500Y-16084214D01*
X12933928Y-16069929D01*
X12919643Y-16041357D01*
X12919643Y-15927071D01*
X12933928Y-15898500D01*
X12962500Y-15884214D01*
X13019643Y-15884214D01*
X13048214Y-15898500D01*
X13062500Y-15927071D01*
X13062500Y-15955643D01*
X12919643Y-15984214D01*
X13176786Y-16069929D02*
X13205357Y-16084214D01*
X13262500Y-16084214D01*
X13291071Y-16069929D01*
X13305357Y-16041357D01*
X13305357Y-16027071D01*
X13291071Y-15998500D01*
X13262500Y-15984214D01*
X13219643Y-15984214D01*
X13191071Y-15969929D01*
X13176786Y-15941357D01*
X13176786Y-15927071D01*
X13191071Y-15898500D01*
X13219643Y-15884214D01*
X13262500Y-15884214D01*
X13291071Y-15898500D01*
X13405357Y-16198500D02*
X13419643Y-16184214D01*
X13448214Y-16141357D01*
X13462500Y-16112786D01*
X13476786Y-16069929D01*
X13491071Y-15998500D01*
X13491071Y-15941357D01*
X13476786Y-15869929D01*
X13462500Y-15827071D01*
X13448214Y-15798500D01*
X13419643Y-15755643D01*
X13405357Y-15741357D01*
X13948214Y-16198500D02*
X13933928Y-16184214D01*
X13905357Y-16141357D01*
X13891071Y-16112786D01*
X13876786Y-16069929D01*
X13862500Y-15998500D01*
X13862500Y-15941357D01*
X13876786Y-15869929D01*
X13891071Y-15827071D01*
X13905357Y-15798500D01*
X13933928Y-15755643D01*
X13948214Y-15741357D01*
X14062500Y-15884214D02*
X14062500Y-16084214D01*
X14062500Y-15912786D02*
X14076786Y-15898500D01*
X14105357Y-15884214D01*
X14148214Y-15884214D01*
X14176786Y-15898500D01*
X14191071Y-15927071D01*
X14191071Y-16084214D01*
X14376786Y-16084214D02*
X14348214Y-16069929D01*
X14333928Y-16055643D01*
X14319643Y-16027071D01*
X14319643Y-15941357D01*
X14333928Y-15912786D01*
X14348214Y-15898500D01*
X14376786Y-15884214D01*
X14419643Y-15884214D01*
X14448214Y-15898500D01*
X14462500Y-15912786D01*
X14476786Y-15941357D01*
X14476786Y-16027071D01*
X14462500Y-16055643D01*
X14448214Y-16069929D01*
X14419643Y-16084214D01*
X14376786Y-16084214D01*
X14562500Y-15884214D02*
X14676786Y-15884214D01*
X14605357Y-15784214D02*
X14605357Y-16041357D01*
X14619643Y-16069929D01*
X14648214Y-16084214D01*
X14676786Y-16084214D01*
X15005357Y-15884214D02*
X15005357Y-16184214D01*
X15005357Y-15898500D02*
X15033928Y-15884214D01*
X15091071Y-15884214D01*
X15119643Y-15898500D01*
X15133928Y-15912786D01*
X15148214Y-15941357D01*
X15148214Y-16027071D01*
X15133928Y-16055643D01*
X15119643Y-16069929D01*
X15091071Y-16084214D01*
X15033928Y-16084214D01*
X15005357Y-16069929D01*
X15319643Y-16084214D02*
X15291071Y-16069929D01*
X15276786Y-16041357D01*
X15276786Y-15784214D01*
X15562500Y-16084214D02*
X15562500Y-15927071D01*
X15548214Y-15898500D01*
X15519643Y-15884214D01*
X15462500Y-15884214D01*
X15433928Y-15898500D01*
X15562500Y-16069929D02*
X15533928Y-16084214D01*
X15462500Y-16084214D01*
X15433928Y-16069929D01*
X15419643Y-16041357D01*
X15419643Y-16012786D01*
X15433928Y-15984214D01*
X15462500Y-15969929D01*
X15533928Y-15969929D01*
X15562500Y-15955643D01*
X15662500Y-15884214D02*
X15776786Y-15884214D01*
X15705357Y-15784214D02*
X15705357Y-16041357D01*
X15719643Y-16069929D01*
X15748214Y-16084214D01*
X15776786Y-16084214D01*
X15991071Y-16069929D02*
X15962500Y-16084214D01*
X15905357Y-16084214D01*
X15876786Y-16069929D01*
X15862500Y-16041357D01*
X15862500Y-15927071D01*
X15876786Y-15898500D01*
X15905357Y-15884214D01*
X15962500Y-15884214D01*
X15991071Y-15898500D01*
X16005357Y-15927071D01*
X16005357Y-15955643D01*
X15862500Y-15984214D01*
X16262500Y-16084214D02*
X16262500Y-15784214D01*
X16262500Y-16069929D02*
X16233928Y-16084214D01*
X16176786Y-16084214D01*
X16148214Y-16069929D01*
X16133928Y-16055643D01*
X16119643Y-16027071D01*
X16119643Y-15941357D01*
X16133928Y-15912786D01*
X16148214Y-15898500D01*
X16176786Y-15884214D01*
X16233928Y-15884214D01*
X16262500Y-15898500D01*
X16376786Y-16198500D02*
X16391071Y-16184214D01*
X16419643Y-16141357D01*
X16433928Y-16112786D01*
X16448214Y-16069929D01*
X16462500Y-15998500D01*
X16462500Y-15941357D01*
X16448214Y-15869929D01*
X16433928Y-15827071D01*
X16419643Y-15798500D01*
X16391071Y-15755643D01*
X16376786Y-15741357D01*
X6347500Y-16398500D02*
G75*
G03*
X6347500Y-16398500I-300000J0D01*
G01*
X6762500Y-16234214D02*
X6705357Y-16234214D01*
X6676786Y-16248500D01*
X6662500Y-16262786D01*
X6633928Y-16305643D01*
X6619643Y-16362786D01*
X6619643Y-16477071D01*
X6633928Y-16505643D01*
X6648214Y-16519929D01*
X6676786Y-16534214D01*
X6733928Y-16534214D01*
X6762500Y-16519929D01*
X6776786Y-16505643D01*
X6791071Y-16477071D01*
X6791071Y-16405643D01*
X6776786Y-16377071D01*
X6762500Y-16362786D01*
X6733928Y-16348500D01*
X6676786Y-16348500D01*
X6648214Y-16362786D01*
X6633928Y-16377071D01*
X6619643Y-16405643D01*
X6919643Y-16505643D02*
X6933928Y-16519929D01*
X6919643Y-16534214D01*
X6905357Y-16519929D01*
X6919643Y-16505643D01*
X6919643Y-16534214D01*
X7119643Y-16234214D02*
X7148214Y-16234214D01*
X7176786Y-16248500D01*
X7191071Y-16262786D01*
X7205357Y-16291357D01*
X7219643Y-16348500D01*
X7219643Y-16419929D01*
X7205357Y-16477071D01*
X7191071Y-16505643D01*
X7176786Y-16519929D01*
X7148214Y-16534214D01*
X7119643Y-16534214D01*
X7091071Y-16519929D01*
X7076786Y-16505643D01*
X7062500Y-16477071D01*
X7048214Y-16419929D01*
X7048214Y-16348500D01*
X7062500Y-16291357D01*
X7076786Y-16262786D01*
X7091071Y-16248500D01*
X7119643Y-16234214D01*
X7405357Y-16234214D02*
X7433928Y-16234214D01*
X7462500Y-16248500D01*
X7476786Y-16262786D01*
X7491071Y-16291357D01*
X7505357Y-16348500D01*
X7505357Y-16419929D01*
X7491071Y-16477071D01*
X7476786Y-16505643D01*
X7462500Y-16519929D01*
X7433928Y-16534214D01*
X7405357Y-16534214D01*
X7376786Y-16519929D01*
X7362500Y-16505643D01*
X7348214Y-16477071D01*
X7333928Y-16419929D01*
X7333928Y-16348500D01*
X7348214Y-16291357D01*
X7362500Y-16262786D01*
X7376786Y-16248500D01*
X7405357Y-16234214D01*
X7691071Y-16234214D02*
X7719643Y-16234214D01*
X7748214Y-16248500D01*
X7762500Y-16262786D01*
X7776786Y-16291357D01*
X7791071Y-16348500D01*
X7791071Y-16419929D01*
X7776786Y-16477071D01*
X7762500Y-16505643D01*
X7748214Y-16519929D01*
X7719643Y-16534214D01*
X7691071Y-16534214D01*
X7662500Y-16519929D01*
X7648214Y-16505643D01*
X7633928Y-16477071D01*
X7619643Y-16419929D01*
X7619643Y-16348500D01*
X7633928Y-16291357D01*
X7648214Y-16262786D01*
X7662500Y-16248500D01*
X7691071Y-16234214D01*
X7919643Y-16534214D02*
X7919643Y-16334214D01*
X7919643Y-16362786D02*
X7933928Y-16348500D01*
X7962500Y-16334214D01*
X8005357Y-16334214D01*
X8033928Y-16348500D01*
X8048214Y-16377071D01*
X8048214Y-16534214D01*
X8048214Y-16377071D02*
X8062500Y-16348500D01*
X8091071Y-16334214D01*
X8133928Y-16334214D01*
X8162500Y-16348500D01*
X8176786Y-16377071D01*
X8176786Y-16534214D01*
X8319643Y-16534214D02*
X8319643Y-16334214D01*
X8319643Y-16362786D02*
X8333928Y-16348500D01*
X8362500Y-16334214D01*
X8405357Y-16334214D01*
X8433928Y-16348500D01*
X8448214Y-16377071D01*
X8448214Y-16534214D01*
X8448214Y-16377071D02*
X8462500Y-16348500D01*
X8491071Y-16334214D01*
X8533928Y-16334214D01*
X8562500Y-16348500D01*
X8576786Y-16377071D01*
X8576786Y-16534214D01*
X9162500Y-16219929D02*
X8905357Y-16605643D01*
X9548214Y-16234214D02*
X9576786Y-16234214D01*
X9605357Y-16248500D01*
X9619643Y-16262786D01*
X9633928Y-16291357D01*
X9648214Y-16348500D01*
X9648214Y-16419929D01*
X9633928Y-16477071D01*
X9619643Y-16505643D01*
X9605357Y-16519929D01*
X9576786Y-16534214D01*
X9548214Y-16534214D01*
X9519643Y-16519929D01*
X9505357Y-16505643D01*
X9491071Y-16477071D01*
X9476786Y-16419929D01*
X9476786Y-16348500D01*
X9491071Y-16291357D01*
X9505357Y-16262786D01*
X9519643Y-16248500D01*
X9548214Y-16234214D01*
X9776786Y-16505643D02*
X9791071Y-16519929D01*
X9776786Y-16534214D01*
X9762500Y-16519929D01*
X9776786Y-16505643D01*
X9776786Y-16534214D01*
X9905357Y-16262786D02*
X9919643Y-16248500D01*
X9948214Y-16234214D01*
X10019643Y-16234214D01*
X10048214Y-16248500D01*
X10062500Y-16262786D01*
X10076786Y-16291357D01*
X10076786Y-16319929D01*
X10062500Y-16362786D01*
X9891071Y-16534214D01*
X10076786Y-16534214D01*
X10176786Y-16234214D02*
X10362500Y-16234214D01*
X10262500Y-16348500D01*
X10305357Y-16348500D01*
X10333928Y-16362786D01*
X10348214Y-16377071D01*
X10362500Y-16405643D01*
X10362500Y-16477071D01*
X10348214Y-16505643D01*
X10333928Y-16519929D01*
X10305357Y-16534214D01*
X10219643Y-16534214D01*
X10191071Y-16519929D01*
X10176786Y-16505643D01*
X10619643Y-16234214D02*
X10562500Y-16234214D01*
X10533928Y-16248500D01*
X10519643Y-16262786D01*
X10491071Y-16305643D01*
X10476786Y-16362786D01*
X10476786Y-16477071D01*
X10491071Y-16505643D01*
X10505357Y-16519929D01*
X10533928Y-16534214D01*
X10591071Y-16534214D01*
X10619643Y-16519929D01*
X10633928Y-16505643D01*
X10648214Y-16477071D01*
X10648214Y-16405643D01*
X10633928Y-16377071D01*
X10619643Y-16362786D01*
X10591071Y-16348500D01*
X10533928Y-16348500D01*
X10505357Y-16362786D01*
X10491071Y-16377071D01*
X10476786Y-16405643D01*
X10762500Y-16262786D02*
X10776786Y-16248500D01*
X10805357Y-16234214D01*
X10876786Y-16234214D01*
X10905357Y-16248500D01*
X10919643Y-16262786D01*
X10933928Y-16291357D01*
X10933928Y-16319929D01*
X10919643Y-16362786D01*
X10748214Y-16534214D01*
X10933928Y-16534214D01*
X11048214Y-16234214D02*
X11048214Y-16291357D01*
X11162500Y-16234214D02*
X11162500Y-16291357D01*
X11605357Y-16648500D02*
X11591071Y-16634214D01*
X11562500Y-16591357D01*
X11548214Y-16562786D01*
X11533928Y-16519929D01*
X11519643Y-16448500D01*
X11519643Y-16391357D01*
X11533928Y-16319929D01*
X11548214Y-16277071D01*
X11562500Y-16248500D01*
X11591071Y-16205643D01*
X11605357Y-16191357D01*
X11691071Y-16234214D02*
X11891071Y-16234214D01*
X11762500Y-16534214D01*
X12233928Y-16534214D02*
X12233928Y-16234214D01*
X12362500Y-16534214D02*
X12362500Y-16377071D01*
X12348214Y-16348500D01*
X12319643Y-16334214D01*
X12276786Y-16334214D01*
X12248214Y-16348500D01*
X12233928Y-16362786D01*
X12548214Y-16534214D02*
X12519643Y-16519929D01*
X12505357Y-16505643D01*
X12491071Y-16477071D01*
X12491071Y-16391357D01*
X12505357Y-16362786D01*
X12519643Y-16348500D01*
X12548214Y-16334214D01*
X12591071Y-16334214D01*
X12619643Y-16348500D01*
X12633928Y-16362786D01*
X12648214Y-16391357D01*
X12648214Y-16477071D01*
X12633928Y-16505643D01*
X12619643Y-16519929D01*
X12591071Y-16534214D01*
X12548214Y-16534214D01*
X12819643Y-16534214D02*
X12791071Y-16519929D01*
X12776786Y-16491357D01*
X12776786Y-16234214D01*
X13048214Y-16519929D02*
X13019643Y-16534214D01*
X12962500Y-16534214D01*
X12933928Y-16519929D01*
X12919643Y-16491357D01*
X12919643Y-16377071D01*
X12933928Y-16348500D01*
X12962500Y-16334214D01*
X13019643Y-16334214D01*
X13048214Y-16348500D01*
X13062500Y-16377071D01*
X13062500Y-16405643D01*
X12919643Y-16434214D01*
X13176786Y-16519929D02*
X13205357Y-16534214D01*
X13262500Y-16534214D01*
X13291071Y-16519929D01*
X13305357Y-16491357D01*
X13305357Y-16477071D01*
X13291071Y-16448500D01*
X13262500Y-16434214D01*
X13219643Y-16434214D01*
X13191071Y-16419929D01*
X13176786Y-16391357D01*
X13176786Y-16377071D01*
X13191071Y-16348500D01*
X13219643Y-16334214D01*
X13262500Y-16334214D01*
X13291071Y-16348500D01*
X13405357Y-16648500D02*
X13419643Y-16634214D01*
X13448214Y-16591357D01*
X13462500Y-16562786D01*
X13476786Y-16519929D01*
X13491071Y-16448500D01*
X13491071Y-16391357D01*
X13476786Y-16319929D01*
X13462500Y-16277071D01*
X13448214Y-16248500D01*
X13419643Y-16205643D01*
X13405357Y-16191357D01*
X13948214Y-16648500D02*
X13933928Y-16634214D01*
X13905357Y-16591357D01*
X13891071Y-16562786D01*
X13876786Y-16519929D01*
X13862500Y-16448500D01*
X13862500Y-16391357D01*
X13876786Y-16319929D01*
X13891071Y-16277071D01*
X13905357Y-16248500D01*
X13933928Y-16205643D01*
X13948214Y-16191357D01*
X14062500Y-16334214D02*
X14062500Y-16534214D01*
X14062500Y-16362786D02*
X14076786Y-16348500D01*
X14105357Y-16334214D01*
X14148214Y-16334214D01*
X14176786Y-16348500D01*
X14191071Y-16377071D01*
X14191071Y-16534214D01*
X14376786Y-16534214D02*
X14348214Y-16519929D01*
X14333928Y-16505643D01*
X14319643Y-16477071D01*
X14319643Y-16391357D01*
X14333928Y-16362786D01*
X14348214Y-16348500D01*
X14376786Y-16334214D01*
X14419643Y-16334214D01*
X14448214Y-16348500D01*
X14462500Y-16362786D01*
X14476786Y-16391357D01*
X14476786Y-16477071D01*
X14462500Y-16505643D01*
X14448214Y-16519929D01*
X14419643Y-16534214D01*
X14376786Y-16534214D01*
X14562500Y-16334214D02*
X14676786Y-16334214D01*
X14605357Y-16234214D02*
X14605357Y-16491357D01*
X14619643Y-16519929D01*
X14648214Y-16534214D01*
X14676786Y-16534214D01*
X15005357Y-16334214D02*
X15005357Y-16634214D01*
X15005357Y-16348500D02*
X15033928Y-16334214D01*
X15091071Y-16334214D01*
X15119643Y-16348500D01*
X15133928Y-16362786D01*
X15148214Y-16391357D01*
X15148214Y-16477071D01*
X15133928Y-16505643D01*
X15119643Y-16519929D01*
X15091071Y-16534214D01*
X15033928Y-16534214D01*
X15005357Y-16519929D01*
X15319643Y-16534214D02*
X15291071Y-16519929D01*
X15276786Y-16491357D01*
X15276786Y-16234214D01*
X15562500Y-16534214D02*
X15562500Y-16377071D01*
X15548214Y-16348500D01*
X15519643Y-16334214D01*
X15462500Y-16334214D01*
X15433928Y-16348500D01*
X15562500Y-16519929D02*
X15533928Y-16534214D01*
X15462500Y-16534214D01*
X15433928Y-16519929D01*
X15419643Y-16491357D01*
X15419643Y-16462786D01*
X15433928Y-16434214D01*
X15462500Y-16419929D01*
X15533928Y-16419929D01*
X15562500Y-16405643D01*
X15662500Y-16334214D02*
X15776786Y-16334214D01*
X15705357Y-16234214D02*
X15705357Y-16491357D01*
X15719643Y-16519929D01*
X15748214Y-16534214D01*
X15776786Y-16534214D01*
X15991071Y-16519929D02*
X15962500Y-16534214D01*
X15905357Y-16534214D01*
X15876786Y-16519929D01*
X15862500Y-16491357D01*
X15862500Y-16377071D01*
X15876786Y-16348500D01*
X15905357Y-16334214D01*
X15962500Y-16334214D01*
X15991071Y-16348500D01*
X16005357Y-16377071D01*
X16005357Y-16405643D01*
X15862500Y-16434214D01*
X16262500Y-16534214D02*
X16262500Y-16234214D01*
X16262500Y-16519929D02*
X16233928Y-16534214D01*
X16176786Y-16534214D01*
X16148214Y-16519929D01*
X16133928Y-16505643D01*
X16119643Y-16477071D01*
X16119643Y-16391357D01*
X16133928Y-16362786D01*
X16148214Y-16348500D01*
X16176786Y-16334214D01*
X16233928Y-16334214D01*
X16262500Y-16348500D01*
X16376786Y-16648500D02*
X16391071Y-16634214D01*
X16419643Y-16591357D01*
X16433928Y-16562786D01*
X16448214Y-16519929D01*
X16462500Y-16448500D01*
X16462500Y-16391357D01*
X16448214Y-16319929D01*
X16433928Y-16277071D01*
X16419643Y-16248500D01*
X16391071Y-16205643D01*
X16376786Y-16191357D01*
X6022500Y-16803500D02*
X6022500Y-17453500D01*
X5697500Y-17128500D02*
X6347500Y-17128500D01*
X6762500Y-16964214D02*
X6705357Y-16964214D01*
X6676786Y-16978500D01*
X6662500Y-16992786D01*
X6633928Y-17035643D01*
X6619643Y-17092786D01*
X6619643Y-17207072D01*
X6633928Y-17235643D01*
X6648214Y-17249929D01*
X6676786Y-17264214D01*
X6733928Y-17264214D01*
X6762500Y-17249929D01*
X6776786Y-17235643D01*
X6791071Y-17207072D01*
X6791071Y-17135643D01*
X6776786Y-17107072D01*
X6762500Y-17092786D01*
X6733928Y-17078500D01*
X6676786Y-17078500D01*
X6648214Y-17092786D01*
X6633928Y-17107072D01*
X6619643Y-17135643D01*
X6919643Y-17235643D02*
X6933928Y-17249929D01*
X6919643Y-17264214D01*
X6905357Y-17249929D01*
X6919643Y-17235643D01*
X6919643Y-17264214D01*
X7205357Y-16964214D02*
X7062500Y-16964214D01*
X7048214Y-17107072D01*
X7062500Y-17092786D01*
X7091071Y-17078500D01*
X7162500Y-17078500D01*
X7191071Y-17092786D01*
X7205357Y-17107072D01*
X7219643Y-17135643D01*
X7219643Y-17207072D01*
X7205357Y-17235643D01*
X7191071Y-17249929D01*
X7162500Y-17264214D01*
X7091071Y-17264214D01*
X7062500Y-17249929D01*
X7048214Y-17235643D01*
X7405357Y-16964214D02*
X7433928Y-16964214D01*
X7462500Y-16978500D01*
X7476786Y-16992786D01*
X7491071Y-17021357D01*
X7505357Y-17078500D01*
X7505357Y-17149929D01*
X7491071Y-17207072D01*
X7476786Y-17235643D01*
X7462500Y-17249929D01*
X7433928Y-17264214D01*
X7405357Y-17264214D01*
X7376786Y-17249929D01*
X7362500Y-17235643D01*
X7348214Y-17207072D01*
X7333928Y-17149929D01*
X7333928Y-17078500D01*
X7348214Y-17021357D01*
X7362500Y-16992786D01*
X7376786Y-16978500D01*
X7405357Y-16964214D01*
X7691071Y-16964214D02*
X7719643Y-16964214D01*
X7748214Y-16978500D01*
X7762500Y-16992786D01*
X7776786Y-17021357D01*
X7791071Y-17078500D01*
X7791071Y-17149929D01*
X7776786Y-17207072D01*
X7762500Y-17235643D01*
X7748214Y-17249929D01*
X7719643Y-17264214D01*
X7691071Y-17264214D01*
X7662500Y-17249929D01*
X7648214Y-17235643D01*
X7633928Y-17207072D01*
X7619643Y-17149929D01*
X7619643Y-17078500D01*
X7633928Y-17021357D01*
X7648214Y-16992786D01*
X7662500Y-16978500D01*
X7691071Y-16964214D01*
X7919643Y-17264214D02*
X7919643Y-17064214D01*
X7919643Y-17092786D02*
X7933928Y-17078500D01*
X7962500Y-17064214D01*
X8005357Y-17064214D01*
X8033928Y-17078500D01*
X8048214Y-17107072D01*
X8048214Y-17264214D01*
X8048214Y-17107072D02*
X8062500Y-17078500D01*
X8091071Y-17064214D01*
X8133928Y-17064214D01*
X8162500Y-17078500D01*
X8176786Y-17107072D01*
X8176786Y-17264214D01*
X8319643Y-17264214D02*
X8319643Y-17064214D01*
X8319643Y-17092786D02*
X8333928Y-17078500D01*
X8362500Y-17064214D01*
X8405357Y-17064214D01*
X8433928Y-17078500D01*
X8448214Y-17107072D01*
X8448214Y-17264214D01*
X8448214Y-17107072D02*
X8462500Y-17078500D01*
X8491071Y-17064214D01*
X8533928Y-17064214D01*
X8562500Y-17078500D01*
X8576786Y-17107072D01*
X8576786Y-17264214D01*
X9162500Y-16949929D02*
X8905357Y-17335643D01*
X9548214Y-16964214D02*
X9576786Y-16964214D01*
X9605357Y-16978500D01*
X9619643Y-16992786D01*
X9633928Y-17021357D01*
X9648214Y-17078500D01*
X9648214Y-17149929D01*
X9633928Y-17207072D01*
X9619643Y-17235643D01*
X9605357Y-17249929D01*
X9576786Y-17264214D01*
X9548214Y-17264214D01*
X9519643Y-17249929D01*
X9505357Y-17235643D01*
X9491071Y-17207072D01*
X9476786Y-17149929D01*
X9476786Y-17078500D01*
X9491071Y-17021357D01*
X9505357Y-16992786D01*
X9519643Y-16978500D01*
X9548214Y-16964214D01*
X9776786Y-17235643D02*
X9791071Y-17249929D01*
X9776786Y-17264214D01*
X9762500Y-17249929D01*
X9776786Y-17235643D01*
X9776786Y-17264214D01*
X9905357Y-16992786D02*
X9919643Y-16978500D01*
X9948214Y-16964214D01*
X10019643Y-16964214D01*
X10048214Y-16978500D01*
X10062500Y-16992786D01*
X10076786Y-17021357D01*
X10076786Y-17049929D01*
X10062500Y-17092786D01*
X9891071Y-17264214D01*
X10076786Y-17264214D01*
X10348214Y-16964214D02*
X10205357Y-16964214D01*
X10191071Y-17107072D01*
X10205357Y-17092786D01*
X10233928Y-17078500D01*
X10305357Y-17078500D01*
X10333928Y-17092786D01*
X10348214Y-17107072D01*
X10362500Y-17135643D01*
X10362500Y-17207072D01*
X10348214Y-17235643D01*
X10333928Y-17249929D01*
X10305357Y-17264214D01*
X10233928Y-17264214D01*
X10205357Y-17249929D01*
X10191071Y-17235643D01*
X10633928Y-16964214D02*
X10491071Y-16964214D01*
X10476786Y-17107072D01*
X10491071Y-17092786D01*
X10519643Y-17078500D01*
X10591071Y-17078500D01*
X10619643Y-17092786D01*
X10633928Y-17107072D01*
X10648214Y-17135643D01*
X10648214Y-17207072D01*
X10633928Y-17235643D01*
X10619643Y-17249929D01*
X10591071Y-17264214D01*
X10519643Y-17264214D01*
X10491071Y-17249929D01*
X10476786Y-17235643D01*
X10791071Y-17264214D02*
X10848214Y-17264214D01*
X10876786Y-17249929D01*
X10891071Y-17235643D01*
X10919643Y-17192786D01*
X10933928Y-17135643D01*
X10933928Y-17021357D01*
X10919643Y-16992786D01*
X10905357Y-16978500D01*
X10876786Y-16964214D01*
X10819643Y-16964214D01*
X10791071Y-16978500D01*
X10776786Y-16992786D01*
X10762500Y-17021357D01*
X10762500Y-17092786D01*
X10776786Y-17121357D01*
X10791071Y-17135643D01*
X10819643Y-17149929D01*
X10876786Y-17149929D01*
X10905357Y-17135643D01*
X10919643Y-17121357D01*
X10933928Y-17092786D01*
X11048214Y-16964214D02*
X11048214Y-17021357D01*
X11162500Y-16964214D02*
X11162500Y-17021357D01*
X11605357Y-17378500D02*
X11591071Y-17364214D01*
X11562500Y-17321357D01*
X11548214Y-17292786D01*
X11533928Y-17249929D01*
X11519643Y-17178500D01*
X11519643Y-17121357D01*
X11533928Y-17049929D01*
X11548214Y-17007072D01*
X11562500Y-16978500D01*
X11591071Y-16935643D01*
X11605357Y-16921357D01*
X11705357Y-16992786D02*
X11719643Y-16978500D01*
X11748214Y-16964214D01*
X11819643Y-16964214D01*
X11848214Y-16978500D01*
X11862500Y-16992786D01*
X11876786Y-17021357D01*
X11876786Y-17049929D01*
X11862500Y-17092786D01*
X11691071Y-17264214D01*
X11876786Y-17264214D01*
X12233928Y-17264214D02*
X12233928Y-16964214D01*
X12362500Y-17264214D02*
X12362500Y-17107072D01*
X12348214Y-17078500D01*
X12319643Y-17064214D01*
X12276786Y-17064214D01*
X12248214Y-17078500D01*
X12233928Y-17092786D01*
X12548214Y-17264214D02*
X12519643Y-17249929D01*
X12505357Y-17235643D01*
X12491071Y-17207072D01*
X12491071Y-17121357D01*
X12505357Y-17092786D01*
X12519643Y-17078500D01*
X12548214Y-17064214D01*
X12591071Y-17064214D01*
X12619643Y-17078500D01*
X12633928Y-17092786D01*
X12648214Y-17121357D01*
X12648214Y-17207072D01*
X12633928Y-17235643D01*
X12619643Y-17249929D01*
X12591071Y-17264214D01*
X12548214Y-17264214D01*
X12819643Y-17264214D02*
X12791071Y-17249929D01*
X12776786Y-17221357D01*
X12776786Y-16964214D01*
X13048214Y-17249929D02*
X13019643Y-17264214D01*
X12962500Y-17264214D01*
X12933928Y-17249929D01*
X12919643Y-17221357D01*
X12919643Y-17107072D01*
X12933928Y-17078500D01*
X12962500Y-17064214D01*
X13019643Y-17064214D01*
X13048214Y-17078500D01*
X13062500Y-17107072D01*
X13062500Y-17135643D01*
X12919643Y-17164214D01*
X13176786Y-17249929D02*
X13205357Y-17264214D01*
X13262500Y-17264214D01*
X13291071Y-17249929D01*
X13305357Y-17221357D01*
X13305357Y-17207072D01*
X13291071Y-17178500D01*
X13262500Y-17164214D01*
X13219643Y-17164214D01*
X13191071Y-17149929D01*
X13176786Y-17121357D01*
X13176786Y-17107072D01*
X13191071Y-17078500D01*
X13219643Y-17064214D01*
X13262500Y-17064214D01*
X13291071Y-17078500D01*
X13405357Y-17378500D02*
X13419643Y-17364214D01*
X13448214Y-17321357D01*
X13462500Y-17292786D01*
X13476786Y-17249929D01*
X13491071Y-17178500D01*
X13491071Y-17121357D01*
X13476786Y-17049929D01*
X13462500Y-17007072D01*
X13448214Y-16978500D01*
X13419643Y-16935643D01*
X13405357Y-16921357D01*
X13948214Y-17378500D02*
X13933928Y-17364214D01*
X13905357Y-17321357D01*
X13891071Y-17292786D01*
X13876786Y-17249929D01*
X13862500Y-17178500D01*
X13862500Y-17121357D01*
X13876786Y-17049929D01*
X13891071Y-17007072D01*
X13905357Y-16978500D01*
X13933928Y-16935643D01*
X13948214Y-16921357D01*
X14062500Y-17064214D02*
X14062500Y-17264214D01*
X14062500Y-17092786D02*
X14076786Y-17078500D01*
X14105357Y-17064214D01*
X14148214Y-17064214D01*
X14176786Y-17078500D01*
X14191071Y-17107072D01*
X14191071Y-17264214D01*
X14376786Y-17264214D02*
X14348214Y-17249929D01*
X14333928Y-17235643D01*
X14319643Y-17207072D01*
X14319643Y-17121357D01*
X14333928Y-17092786D01*
X14348214Y-17078500D01*
X14376786Y-17064214D01*
X14419643Y-17064214D01*
X14448214Y-17078500D01*
X14462500Y-17092786D01*
X14476786Y-17121357D01*
X14476786Y-17207072D01*
X14462500Y-17235643D01*
X14448214Y-17249929D01*
X14419643Y-17264214D01*
X14376786Y-17264214D01*
X14562500Y-17064214D02*
X14676786Y-17064214D01*
X14605357Y-16964214D02*
X14605357Y-17221357D01*
X14619643Y-17249929D01*
X14648214Y-17264214D01*
X14676786Y-17264214D01*
X15005357Y-17064214D02*
X15005357Y-17364214D01*
X15005357Y-17078500D02*
X15033928Y-17064214D01*
X15091071Y-17064214D01*
X15119643Y-17078500D01*
X15133928Y-17092786D01*
X15148214Y-17121357D01*
X15148214Y-17207072D01*
X15133928Y-17235643D01*
X15119643Y-17249929D01*
X15091071Y-17264214D01*
X15033928Y-17264214D01*
X15005357Y-17249929D01*
X15319643Y-17264214D02*
X15291071Y-17249929D01*
X15276786Y-17221357D01*
X15276786Y-16964214D01*
X15562500Y-17264214D02*
X15562500Y-17107072D01*
X15548214Y-17078500D01*
X15519643Y-17064214D01*
X15462500Y-17064214D01*
X15433928Y-17078500D01*
X15562500Y-17249929D02*
X15533928Y-17264214D01*
X15462500Y-17264214D01*
X15433928Y-17249929D01*
X15419643Y-17221357D01*
X15419643Y-17192786D01*
X15433928Y-17164214D01*
X15462500Y-17149929D01*
X15533928Y-17149929D01*
X15562500Y-17135643D01*
X15662500Y-17064214D02*
X15776786Y-17064214D01*
X15705357Y-16964214D02*
X15705357Y-17221357D01*
X15719643Y-17249929D01*
X15748214Y-17264214D01*
X15776786Y-17264214D01*
X15991071Y-17249929D02*
X15962500Y-17264214D01*
X15905357Y-17264214D01*
X15876786Y-17249929D01*
X15862500Y-17221357D01*
X15862500Y-17107072D01*
X15876786Y-17078500D01*
X15905357Y-17064214D01*
X15962500Y-17064214D01*
X15991071Y-17078500D01*
X16005357Y-17107072D01*
X16005357Y-17135643D01*
X15862500Y-17164214D01*
X16262500Y-17264214D02*
X16262500Y-16964214D01*
X16262500Y-17249929D02*
X16233928Y-17264214D01*
X16176786Y-17264214D01*
X16148214Y-17249929D01*
X16133928Y-17235643D01*
X16119643Y-17207072D01*
X16119643Y-17121357D01*
X16133928Y-17092786D01*
X16148214Y-17078500D01*
X16176786Y-17064214D01*
X16233928Y-17064214D01*
X16262500Y-17078500D01*
X16376786Y-17378500D02*
X16391071Y-17364214D01*
X16419643Y-17321357D01*
X16433928Y-17292786D01*
X16448214Y-17249929D01*
X16462500Y-17178500D01*
X16462500Y-17121357D01*
X16448214Y-17049929D01*
X16433928Y-17007072D01*
X16419643Y-16978500D01*
X16391071Y-16935643D01*
X16376786Y-16921357D01*
M02*
