G04 #@! TF.GenerationSoftware,KiCad,Pcbnew,5.1.12-1.fc34*
G04 #@! TF.CreationDate,2022-01-17T20:52:51+01:00*
G04 #@! TF.ProjectId,lfo-panel,6c666f2d-7061-46e6-956c-2e6b69636164,rev?*
G04 #@! TF.SameCoordinates,Original*
G04 #@! TF.FileFunction,Legend,Top*
G04 #@! TF.FilePolarity,Positive*
%FSLAX46Y46*%
G04 Gerber Fmt 4.6, Leading zero omitted, Abs format (unit mm)*
G04 Created by KiCad (PCBNEW 5.1.12-1.fc34) date 2022-01-17 20:52:51*
%MOMM*%
%LPD*%
G01*
G04 APERTURE LIST*
%ADD10C,0.150000*%
%ADD11C,0.120000*%
%ADD12C,3.200000*%
%ADD13C,6.500000*%
%ADD14C,6.000000*%
G04 APERTURE END LIST*
D10*
X68532357Y-118327714D02*
X65689976Y-118327714D01*
X66451976Y-112231714D01*
X72910833Y-115134571D02*
X70921166Y-115134571D01*
X70522023Y-118327714D02*
X71284023Y-112231714D01*
X74126404Y-112231714D01*
X77537261Y-112231714D02*
X78674214Y-112231714D01*
X79206404Y-112522000D01*
X79702309Y-113102571D01*
X79841404Y-114263714D01*
X79587404Y-116295714D01*
X79158023Y-117456857D01*
X78516976Y-118037428D01*
X77912214Y-118327714D01*
X76775261Y-118327714D01*
X76243071Y-118037428D01*
X75747166Y-117456857D01*
X75608071Y-116295714D01*
X75862071Y-114263714D01*
X76291452Y-113102571D01*
X76932500Y-112522000D01*
X77537261Y-112231714D01*
X84733928Y-118327714D02*
X81891547Y-118327714D01*
X82653547Y-112231714D01*
X89112404Y-115134571D02*
X87122738Y-115134571D01*
X86723595Y-118327714D02*
X87485595Y-112231714D01*
X90327976Y-112231714D01*
X93738833Y-112231714D02*
X94875785Y-112231714D01*
X95407976Y-112522000D01*
X95903880Y-113102571D01*
X96042976Y-114263714D01*
X95788976Y-116295714D01*
X95359595Y-117456857D01*
X94718547Y-118037428D01*
X94113785Y-118327714D01*
X92976833Y-118327714D01*
X92444642Y-118037428D01*
X91948738Y-117456857D01*
X91809642Y-116295714D01*
X92063642Y-114263714D01*
X92493023Y-113102571D01*
X93134071Y-112522000D01*
X93738833Y-112231714D01*
X100935500Y-118327714D02*
X98093119Y-118327714D01*
X98855119Y-112231714D01*
X105313976Y-115134571D02*
X103324309Y-115134571D01*
X102925166Y-118327714D02*
X103687166Y-112231714D01*
X106529547Y-112231714D01*
X109940404Y-112231714D02*
X111077357Y-112231714D01*
X111609547Y-112522000D01*
X112105452Y-113102571D01*
X112244547Y-114263714D01*
X111990547Y-116295714D01*
X111561166Y-117456857D01*
X110920119Y-118037428D01*
X110315357Y-118327714D01*
X109178404Y-118327714D01*
X108646214Y-118037428D01*
X108150309Y-117456857D01*
X108011214Y-116295714D01*
X108265214Y-114263714D01*
X108694595Y-113102571D01*
X109335642Y-112522000D01*
X109940404Y-112231714D01*
X117137071Y-118327714D02*
X114294690Y-118327714D01*
X115056690Y-112231714D01*
X121515547Y-115134571D02*
X119525880Y-115134571D01*
X119126738Y-118327714D02*
X119888738Y-112231714D01*
X122731119Y-112231714D01*
X126141976Y-112231714D02*
X127278928Y-112231714D01*
X127811119Y-112522000D01*
X128307023Y-113102571D01*
X128446119Y-114263714D01*
X128192119Y-116295714D01*
X127762738Y-117456857D01*
X127121690Y-118037428D01*
X126516928Y-118327714D01*
X125379976Y-118327714D01*
X124847785Y-118037428D01*
X124351880Y-117456857D01*
X124212785Y-116295714D01*
X124466785Y-114263714D01*
X124896166Y-113102571D01*
X125537214Y-112522000D01*
X126141976Y-112231714D01*
X133338642Y-118327714D02*
X130496261Y-118327714D01*
X131258261Y-112231714D01*
X137717119Y-115134571D02*
X135727452Y-115134571D01*
X135328309Y-118327714D02*
X136090309Y-112231714D01*
X138932690Y-112231714D01*
X142343547Y-112231714D02*
X143480500Y-112231714D01*
X144012690Y-112522000D01*
X144508595Y-113102571D01*
X144647690Y-114263714D01*
X144393690Y-116295714D01*
X143964309Y-117456857D01*
X143323261Y-118037428D01*
X142718500Y-118327714D01*
X141581547Y-118327714D01*
X141049357Y-118037428D01*
X140553452Y-117456857D01*
X140414357Y-116295714D01*
X140668357Y-114263714D01*
X141097738Y-113102571D01*
X141738785Y-112522000D01*
X142343547Y-112231714D01*
X149540214Y-118327714D02*
X146697833Y-118327714D01*
X147459833Y-112231714D01*
X153918690Y-115134571D02*
X151929023Y-115134571D01*
X151529880Y-118327714D02*
X152291880Y-112231714D01*
X155134261Y-112231714D01*
X158545119Y-112231714D02*
X159682071Y-112231714D01*
X160214261Y-112522000D01*
X160710166Y-113102571D01*
X160849261Y-114263714D01*
X160595261Y-116295714D01*
X160165880Y-117456857D01*
X159524833Y-118037428D01*
X158920071Y-118327714D01*
X157783119Y-118327714D01*
X157250928Y-118037428D01*
X156755023Y-117456857D01*
X156615928Y-116295714D01*
X156869928Y-114263714D01*
X157299309Y-113102571D01*
X157940357Y-112522000D01*
X158545119Y-112231714D01*
D11*
X125095000Y-120650000D02*
X130175000Y-128270000D01*
X120015000Y-128270000D02*
X125095000Y-120650000D01*
X117475000Y-120650000D02*
G75*
G02*
X109855000Y-128270000I-7620000J0D01*
G01*
X99060000Y-120650000D02*
G75*
G02*
X106680000Y-128270000I0J-7620000D01*
G01*
X86995000Y-128270000D02*
X97155000Y-120650000D01*
X76200000Y-120650000D02*
X86360000Y-128270000D01*
X75565000Y-128270000D02*
X75565000Y-120650000D01*
X70485000Y-128270000D02*
X75565000Y-128270000D01*
X70485000Y-120650000D02*
X70485000Y-128270000D01*
X65405000Y-120650000D02*
X70485000Y-120650000D01*
X65405000Y-128270000D02*
X65405000Y-120650000D01*
D10*
X137758424Y-69608161D02*
X137279477Y-69129214D01*
X136526846Y-69881845D02*
X137963687Y-68445004D01*
X138647897Y-69129214D01*
X137758424Y-71113423D02*
X138716318Y-70155529D01*
X138442634Y-70429213D02*
X138647897Y-70360792D01*
X138784739Y-70360792D01*
X138990002Y-70429213D01*
X139126844Y-70566055D01*
X139263686Y-72481843D02*
X139058423Y-72413422D01*
X138784739Y-72139738D01*
X138716318Y-71934475D01*
X138784739Y-71729212D01*
X139332107Y-71181844D01*
X139537370Y-71113423D01*
X139742633Y-71181844D01*
X140016317Y-71455528D01*
X140084738Y-71660791D01*
X140016317Y-71866054D01*
X139879475Y-72002896D01*
X139058423Y-71455528D01*
X141453158Y-72892369D02*
X140016317Y-74329210D01*
X140563685Y-73781842D02*
X140358422Y-73713421D01*
X140084738Y-73439737D01*
X140016317Y-73234474D01*
X140016317Y-73097632D01*
X140084738Y-72892369D01*
X140495264Y-72481843D01*
X140700527Y-72413422D01*
X140837369Y-72413422D01*
X141042632Y-72481843D01*
X141316316Y-72755527D01*
X141384737Y-72960790D01*
X142753157Y-74192368D02*
X141795263Y-75150262D01*
X142137368Y-73576579D02*
X141384737Y-74329210D01*
X141316316Y-74534473D01*
X141384737Y-74739736D01*
X141590000Y-74944999D01*
X141795263Y-75013420D01*
X141932105Y-75013420D01*
X143095262Y-76313419D02*
X142889999Y-76244998D01*
X142616315Y-75971314D01*
X142547894Y-75766051D01*
X142616315Y-75560788D01*
X143163683Y-75013420D01*
X143368946Y-74944999D01*
X143574209Y-75013420D01*
X143847893Y-75287104D01*
X143916314Y-75492367D01*
X143847893Y-75697630D01*
X143711051Y-75834472D01*
X142889999Y-75287104D01*
X144668945Y-76108156D02*
X143711051Y-77066050D01*
X144532103Y-76244998D02*
X144668945Y-76244998D01*
X144874208Y-76313419D01*
X145079471Y-76518682D01*
X145147892Y-76723945D01*
X145079471Y-76929208D01*
X144326840Y-77681839D01*
X145695260Y-78913417D02*
X145489997Y-78844996D01*
X145216313Y-78571312D01*
X145147892Y-78366049D01*
X145147892Y-78229207D01*
X145216313Y-78023944D01*
X145626839Y-77613418D01*
X145832102Y-77544997D01*
X145968944Y-77544997D01*
X146174207Y-77613418D01*
X146447891Y-77887102D01*
X146516312Y-78092365D01*
X147063680Y-78502891D02*
X146447891Y-79802890D01*
X147747890Y-79187101D02*
X146447891Y-79802890D01*
X145968944Y-80008153D01*
X145832102Y-80008153D01*
X145626839Y-79939732D01*
X70878095Y-74385714D02*
X70781333Y-74482476D01*
X70491047Y-74579238D01*
X70297523Y-74579238D01*
X70007238Y-74482476D01*
X69813714Y-74288952D01*
X69716952Y-74095428D01*
X69620190Y-73708380D01*
X69620190Y-73418095D01*
X69716952Y-73031047D01*
X69813714Y-72837523D01*
X70007238Y-72644000D01*
X70297523Y-72547238D01*
X70491047Y-72547238D01*
X70781333Y-72644000D01*
X70878095Y-72740761D01*
X71458666Y-72547238D02*
X72136000Y-74579238D01*
X72813333Y-72547238D01*
D11*
X114935000Y-62865000D02*
X114935000Y-76200000D01*
X74930000Y-62865000D02*
X114935000Y-62865000D01*
%LPC*%
D12*
X157480000Y-142240000D03*
X157480000Y-79375000D03*
X137160000Y-58420000D03*
D13*
X151805640Y-62349380D03*
X114975640Y-80129380D03*
D14*
X125095000Y-139194540D03*
X114300000Y-139194540D03*
X103505000Y-139194540D03*
X92710000Y-139194540D03*
X81915000Y-139194540D03*
X71120000Y-139194540D03*
X71120000Y-62994540D03*
M02*
