%TF.GenerationSoftware,KiCad,Pcbnew,5.1.12-1.fc34*%
%TF.CreationDate,2022-01-17T20:48:41+01:00*%
%TF.ProjectId,lfo,6c666f2e-6b69-4636-9164-5f7063625858,rev?*%
%TF.SameCoordinates,Original*%
%TF.FileFunction,Soldermask,Top*%
%TF.FilePolarity,Negative*%
%FSLAX46Y46*%
G04 Gerber Fmt 4.6, Leading zero omitted, Abs format (unit mm)*
G04 Created by KiCad (PCBNEW 5.1.12-1.fc34) date 2022-01-17 20:48:41*
%MOMM*%
%LPD*%
G01*
G04 APERTURE LIST*
%ADD10C,3.200000*%
%ADD11C,4.000000*%
%ADD12C,1.800000*%
%ADD13O,2.400000X1.600000*%
%ADD14R,2.400000X1.600000*%
%ADD15C,1.440000*%
%ADD16O,1.400000X1.400000*%
%ADD17C,1.400000*%
%ADD18R,1.050000X1.500000*%
%ADD19O,1.050000X1.500000*%
%ADD20C,2.130000*%
%ADD21R,1.930000X1.830000*%
%ADD22O,1.700000X1.700000*%
%ADD23R,1.700000X1.700000*%
%ADD24O,2.800000X2.800000*%
%ADD25R,2.800000X2.800000*%
%ADD26R,1.800000X1.800000*%
%ADD27C,1.600000*%
%ADD28R,1.600000X1.600000*%
G04 APERTURE END LIST*
D10*
X151130000Y-135890000D03*
X151130000Y-73025000D03*
X130810000Y-52070000D03*
D11*
X113375000Y-73780000D03*
X103875000Y-73780000D03*
D12*
X111125000Y-81280000D03*
X108625000Y-81280000D03*
X106125000Y-81280000D03*
D13*
X111760000Y-102235000D03*
X119380000Y-109855000D03*
X111760000Y-104775000D03*
X119380000Y-107315000D03*
X111760000Y-107315000D03*
X119380000Y-104775000D03*
X111760000Y-109855000D03*
D14*
X119380000Y-102235000D03*
D13*
X79375000Y-94615000D03*
X86995000Y-109855000D03*
X79375000Y-97155000D03*
X86995000Y-107315000D03*
X79375000Y-99695000D03*
X86995000Y-104775000D03*
X79375000Y-102235000D03*
X86995000Y-102235000D03*
X79375000Y-104775000D03*
X86995000Y-99695000D03*
X79375000Y-107315000D03*
X86995000Y-97155000D03*
X79375000Y-109855000D03*
D14*
X86995000Y-94615000D03*
D13*
X79375000Y-68580000D03*
X86995000Y-83820000D03*
X79375000Y-71120000D03*
X86995000Y-81280000D03*
X79375000Y-73660000D03*
X86995000Y-78740000D03*
X79375000Y-76200000D03*
X86995000Y-76200000D03*
X79375000Y-78740000D03*
X86995000Y-73660000D03*
X79375000Y-81280000D03*
X86995000Y-71120000D03*
X79375000Y-83820000D03*
D14*
X86995000Y-68580000D03*
D15*
X116205000Y-118745000D03*
X113665000Y-118745000D03*
X111125000Y-118745000D03*
X99695000Y-118745000D03*
X97155000Y-118745000D03*
X94615000Y-118745000D03*
D11*
X150205000Y-56000000D03*
X140705000Y-56000000D03*
D12*
X147955000Y-63500000D03*
X145455000Y-63500000D03*
X142955000Y-63500000D03*
D16*
X100965000Y-104775000D03*
D17*
X108585000Y-104775000D03*
D16*
X128905000Y-90805000D03*
D17*
X128905000Y-98425000D03*
D16*
X128905000Y-88265000D03*
D17*
X128905000Y-80645000D03*
D16*
X90170000Y-67945000D03*
D17*
X97790000Y-67945000D03*
D16*
X79375000Y-123190000D03*
D17*
X71755000Y-123190000D03*
D16*
X100965000Y-123190000D03*
D17*
X93345000Y-123190000D03*
D16*
X76200000Y-94615000D03*
D17*
X68580000Y-94615000D03*
D16*
X90170000Y-123190000D03*
D17*
X82550000Y-123190000D03*
D16*
X68580000Y-97155000D03*
D17*
X76200000Y-97155000D03*
D16*
X90170000Y-110490000D03*
D17*
X97790000Y-110490000D03*
D16*
X111760000Y-123190000D03*
D17*
X104140000Y-123190000D03*
D15*
X78105000Y-118745000D03*
X75565000Y-118745000D03*
X73025000Y-118745000D03*
D16*
X100965000Y-107315000D03*
D17*
X108585000Y-107315000D03*
D16*
X90170000Y-105410000D03*
D17*
X97790000Y-105410000D03*
D16*
X97790000Y-107950000D03*
D17*
X90170000Y-107950000D03*
D16*
X130175000Y-102235000D03*
D17*
X122555000Y-102235000D03*
D16*
X127000000Y-116205000D03*
D17*
X127000000Y-123825000D03*
D16*
X129540000Y-116205000D03*
D17*
X129540000Y-123825000D03*
D16*
X97790000Y-93980000D03*
D17*
X90170000Y-93980000D03*
D16*
X130175000Y-104775000D03*
D17*
X122555000Y-104775000D03*
D16*
X130175000Y-107315000D03*
D17*
X122555000Y-107315000D03*
D16*
X100965000Y-112395000D03*
D17*
X108585000Y-112395000D03*
D16*
X97790000Y-99060000D03*
D17*
X90170000Y-99060000D03*
D16*
X97790000Y-96520000D03*
D17*
X90170000Y-96520000D03*
D16*
X68580000Y-123190000D03*
D17*
X60960000Y-123190000D03*
D16*
X108585000Y-102235000D03*
D17*
X100965000Y-102235000D03*
D16*
X60960000Y-120650000D03*
D17*
X68580000Y-120650000D03*
D16*
X68580000Y-105410000D03*
D17*
X76200000Y-105410000D03*
D16*
X76200000Y-107950000D03*
D17*
X68580000Y-107950000D03*
D16*
X100965000Y-109855000D03*
D17*
X108585000Y-109855000D03*
D16*
X122555000Y-123190000D03*
D17*
X114935000Y-123190000D03*
D16*
X76200000Y-71120000D03*
D17*
X68580000Y-71120000D03*
D16*
X107315000Y-94615000D03*
D17*
X107315000Y-86995000D03*
D16*
X68580000Y-68580000D03*
D17*
X76200000Y-68580000D03*
D16*
X97790000Y-88900000D03*
D17*
X90170000Y-88900000D03*
D16*
X90170000Y-79375000D03*
D17*
X97790000Y-79375000D03*
D16*
X68580000Y-78740000D03*
D17*
X76200000Y-78740000D03*
D16*
X76200000Y-86360000D03*
D17*
X68580000Y-86360000D03*
D16*
X68580000Y-81280000D03*
D17*
X76200000Y-81280000D03*
D16*
X68580000Y-83820000D03*
D17*
X76200000Y-83820000D03*
D16*
X97790000Y-84455000D03*
D17*
X90170000Y-84455000D03*
D16*
X97790000Y-81915000D03*
D17*
X90170000Y-81915000D03*
D16*
X97790000Y-73025000D03*
D17*
X90170000Y-73025000D03*
D16*
X97790000Y-70485000D03*
D17*
X90170000Y-70485000D03*
D18*
X120650000Y-118745000D03*
D19*
X123190000Y-118745000D03*
X121920000Y-118745000D03*
D18*
X62865000Y-106045000D03*
D19*
X65405000Y-106045000D03*
X64135000Y-106045000D03*
D18*
X104140000Y-118745000D03*
D19*
X106680000Y-118745000D03*
X105410000Y-118745000D03*
D18*
X101600000Y-86995000D03*
D19*
X104140000Y-86995000D03*
X102870000Y-86995000D03*
D18*
X62865000Y-84455000D03*
D19*
X65405000Y-84455000D03*
X64135000Y-84455000D03*
D20*
X75565000Y-137765000D03*
D21*
X75565000Y-126365000D03*
D20*
X75565000Y-129465000D03*
X97155000Y-137765000D03*
D21*
X97155000Y-126365000D03*
D20*
X97155000Y-129465000D03*
X107950000Y-137765000D03*
D21*
X107950000Y-126365000D03*
D20*
X107950000Y-129465000D03*
X86360000Y-137765000D03*
D21*
X86360000Y-126365000D03*
D20*
X86360000Y-129465000D03*
X64770000Y-137765000D03*
D21*
X64770000Y-126365000D03*
D20*
X64770000Y-129465000D03*
X118745000Y-137765000D03*
D21*
X118745000Y-126365000D03*
D20*
X118745000Y-129465000D03*
D22*
X141605000Y-95250000D03*
X144145000Y-95250000D03*
X141605000Y-92710000D03*
X144145000Y-92710000D03*
X141605000Y-90170000D03*
X144145000Y-90170000D03*
X141605000Y-87630000D03*
X144145000Y-87630000D03*
X141605000Y-85090000D03*
D23*
X144145000Y-85090000D03*
D20*
X64770000Y-61565000D03*
D21*
X64770000Y-50165000D03*
D20*
X64770000Y-53265000D03*
D24*
X124460000Y-95885000D03*
D25*
X124460000Y-83185000D03*
D24*
X119380000Y-95885000D03*
D25*
X119380000Y-83185000D03*
D12*
X104140000Y-93345000D03*
D26*
X101600000Y-93345000D03*
D27*
X144145000Y-109220000D03*
D28*
X142145000Y-109220000D03*
D27*
X144240000Y-73025000D03*
D28*
X142240000Y-73025000D03*
D27*
X79415000Y-87630000D03*
X81915000Y-87630000D03*
X123230000Y-110490000D03*
X125730000Y-110490000D03*
X114260000Y-98425000D03*
X111760000Y-98425000D03*
X75525000Y-102235000D03*
X73025000Y-102235000D03*
X93305000Y-102235000D03*
X90805000Y-102235000D03*
X75525000Y-75565000D03*
X73025000Y-75565000D03*
X93305000Y-76200000D03*
X90805000Y-76200000D03*
M02*
