%TF.GenerationSoftware,KiCad,Pcbnew,5.1.12-1.fc34*%
%TF.CreationDate,2022-01-17T20:48:41+01:00*%
%TF.ProjectId,lfo,6c666f2e-6b69-4636-9164-5f7063625858,rev?*%
%TF.SameCoordinates,Original*%
%TF.FileFunction,Legend,Bot*%
%TF.FilePolarity,Positive*%
%FSLAX46Y46*%
G04 Gerber Fmt 4.6, Leading zero omitted, Abs format (unit mm)*
G04 Created by KiCad (PCBNEW 5.1.12-1.fc34) date 2022-01-17 20:48:41*
%MOMM*%
%LPD*%
G01*
G04 APERTURE LIST*
%ADD10C,0.150000*%
%ADD11C,0.120000*%
%ADD12C,3.200000*%
%ADD13C,4.000000*%
%ADD14C,1.800000*%
%ADD15O,2.400000X1.600000*%
%ADD16R,2.400000X1.600000*%
%ADD17C,1.440000*%
%ADD18O,1.400000X1.400000*%
%ADD19C,1.400000*%
%ADD20R,1.050000X1.500000*%
%ADD21O,1.050000X1.500000*%
%ADD22C,2.130000*%
%ADD23R,1.930000X1.830000*%
%ADD24O,1.700000X1.700000*%
%ADD25R,1.700000X1.700000*%
%ADD26O,2.800000X2.800000*%
%ADD27R,2.800000X2.800000*%
%ADD28R,1.800000X1.800000*%
%ADD29C,1.600000*%
%ADD30R,1.600000X1.600000*%
G04 APERTURE END LIST*
D10*
X137851190Y-102052380D02*
X137517857Y-101576190D01*
X137279761Y-102052380D02*
X137279761Y-101052380D01*
X137660714Y-101052380D01*
X137755952Y-101100000D01*
X137803571Y-101147619D01*
X137851190Y-101242857D01*
X137851190Y-101385714D01*
X137803571Y-101480952D01*
X137755952Y-101528571D01*
X137660714Y-101576190D01*
X137279761Y-101576190D01*
X138279761Y-101528571D02*
X138613095Y-101528571D01*
X138755952Y-102052380D02*
X138279761Y-102052380D01*
X138279761Y-101052380D01*
X138755952Y-101052380D01*
X139184523Y-102052380D02*
X139184523Y-101052380D01*
X139422619Y-101052380D01*
X139565476Y-101100000D01*
X139660714Y-101195238D01*
X139708333Y-101290476D01*
X139755952Y-101480952D01*
X139755952Y-101623809D01*
X139708333Y-101814285D01*
X139660714Y-101909523D01*
X139565476Y-102004761D01*
X139422619Y-102052380D01*
X139184523Y-102052380D01*
X141422619Y-102052380D02*
X140946428Y-102052380D01*
X140946428Y-101052380D01*
X141755952Y-102052380D02*
X141755952Y-101052380D01*
X142232142Y-102052380D02*
X142232142Y-101052380D01*
X142803571Y-102052380D01*
X142803571Y-101052380D01*
X143279761Y-101528571D02*
X143613095Y-101528571D01*
X143755952Y-102052380D02*
X143279761Y-102052380D01*
X143279761Y-101052380D01*
X143755952Y-101052380D01*
X144946428Y-101671428D02*
X145708333Y-101671428D01*
X146708333Y-102052380D02*
X146136904Y-102052380D01*
X146422619Y-102052380D02*
X146422619Y-101052380D01*
X146327380Y-101195238D01*
X146232142Y-101290476D01*
X146136904Y-101338095D01*
X147089285Y-101147619D02*
X147136904Y-101100000D01*
X147232142Y-101052380D01*
X147470238Y-101052380D01*
X147565476Y-101100000D01*
X147613095Y-101147619D01*
X147660714Y-101242857D01*
X147660714Y-101338095D01*
X147613095Y-101480952D01*
X147041666Y-102052380D01*
X147660714Y-102052380D01*
X147946428Y-101052380D02*
X148279761Y-102052380D01*
X148613095Y-101052380D01*
D11*
X116570000Y-100905000D02*
X117820000Y-100905000D01*
X117820000Y-100905000D02*
X117820000Y-111185000D01*
X117820000Y-111185000D02*
X113320000Y-111185000D01*
X113320000Y-111185000D02*
X113320000Y-100905000D01*
X113320000Y-100905000D02*
X114570000Y-100905000D01*
X120820000Y-100845000D02*
X120820000Y-111245000D01*
X120820000Y-111245000D02*
X110320000Y-111245000D01*
X110320000Y-111245000D02*
X110320000Y-100845000D01*
X110320000Y-100845000D02*
X120820000Y-100845000D01*
X114570000Y-100905000D02*
G75*
G03*
X116570000Y-100905000I1000000J0D01*
G01*
X84185000Y-93285000D02*
X85435000Y-93285000D01*
X85435000Y-93285000D02*
X85435000Y-111185000D01*
X85435000Y-111185000D02*
X80935000Y-111185000D01*
X80935000Y-111185000D02*
X80935000Y-93285000D01*
X80935000Y-93285000D02*
X82185000Y-93285000D01*
X88435000Y-93225000D02*
X88435000Y-111245000D01*
X88435000Y-111245000D02*
X77935000Y-111245000D01*
X77935000Y-111245000D02*
X77935000Y-93225000D01*
X77935000Y-93225000D02*
X88435000Y-93225000D01*
X82185000Y-93285000D02*
G75*
G03*
X84185000Y-93285000I1000000J0D01*
G01*
X84185000Y-67250000D02*
X85435000Y-67250000D01*
X85435000Y-67250000D02*
X85435000Y-85150000D01*
X85435000Y-85150000D02*
X80935000Y-85150000D01*
X80935000Y-85150000D02*
X80935000Y-67250000D01*
X80935000Y-67250000D02*
X82185000Y-67250000D01*
X88435000Y-67190000D02*
X88435000Y-85210000D01*
X88435000Y-85210000D02*
X77935000Y-85210000D01*
X77935000Y-85210000D02*
X77935000Y-67190000D01*
X77935000Y-67190000D02*
X88435000Y-67190000D01*
X82185000Y-67250000D02*
G75*
G03*
X84185000Y-67250000I1000000J0D01*
G01*
X106695000Y-103855000D02*
X106695000Y-105695000D01*
X106695000Y-105695000D02*
X102855000Y-105695000D01*
X102855000Y-105695000D02*
X102855000Y-103855000D01*
X102855000Y-103855000D02*
X106695000Y-103855000D01*
X107645000Y-104775000D02*
X106695000Y-104775000D01*
X101905000Y-104775000D02*
X102855000Y-104775000D01*
X129825000Y-96535000D02*
X127985000Y-96535000D01*
X127985000Y-96535000D02*
X127985000Y-92695000D01*
X127985000Y-92695000D02*
X129825000Y-92695000D01*
X129825000Y-92695000D02*
X129825000Y-96535000D01*
X128905000Y-97485000D02*
X128905000Y-96535000D01*
X128905000Y-91745000D02*
X128905000Y-92695000D01*
X127985000Y-82535000D02*
X129825000Y-82535000D01*
X129825000Y-82535000D02*
X129825000Y-86375000D01*
X129825000Y-86375000D02*
X127985000Y-86375000D01*
X127985000Y-86375000D02*
X127985000Y-82535000D01*
X128905000Y-81585000D02*
X128905000Y-82535000D01*
X128905000Y-87325000D02*
X128905000Y-86375000D01*
X95900000Y-67025000D02*
X95900000Y-68865000D01*
X95900000Y-68865000D02*
X92060000Y-68865000D01*
X92060000Y-68865000D02*
X92060000Y-67025000D01*
X92060000Y-67025000D02*
X95900000Y-67025000D01*
X96850000Y-67945000D02*
X95900000Y-67945000D01*
X91110000Y-67945000D02*
X92060000Y-67945000D01*
X73645000Y-124110000D02*
X73645000Y-122270000D01*
X73645000Y-122270000D02*
X77485000Y-122270000D01*
X77485000Y-122270000D02*
X77485000Y-124110000D01*
X77485000Y-124110000D02*
X73645000Y-124110000D01*
X72695000Y-123190000D02*
X73645000Y-123190000D01*
X78435000Y-123190000D02*
X77485000Y-123190000D01*
X95235000Y-124110000D02*
X95235000Y-122270000D01*
X95235000Y-122270000D02*
X99075000Y-122270000D01*
X99075000Y-122270000D02*
X99075000Y-124110000D01*
X99075000Y-124110000D02*
X95235000Y-124110000D01*
X94285000Y-123190000D02*
X95235000Y-123190000D01*
X100025000Y-123190000D02*
X99075000Y-123190000D01*
X70470000Y-95535000D02*
X70470000Y-93695000D01*
X70470000Y-93695000D02*
X74310000Y-93695000D01*
X74310000Y-93695000D02*
X74310000Y-95535000D01*
X74310000Y-95535000D02*
X70470000Y-95535000D01*
X69520000Y-94615000D02*
X70470000Y-94615000D01*
X75260000Y-94615000D02*
X74310000Y-94615000D01*
X84440000Y-124110000D02*
X84440000Y-122270000D01*
X84440000Y-122270000D02*
X88280000Y-122270000D01*
X88280000Y-122270000D02*
X88280000Y-124110000D01*
X88280000Y-124110000D02*
X84440000Y-124110000D01*
X83490000Y-123190000D02*
X84440000Y-123190000D01*
X89230000Y-123190000D02*
X88280000Y-123190000D01*
X74310000Y-96235000D02*
X74310000Y-98075000D01*
X74310000Y-98075000D02*
X70470000Y-98075000D01*
X70470000Y-98075000D02*
X70470000Y-96235000D01*
X70470000Y-96235000D02*
X74310000Y-96235000D01*
X75260000Y-97155000D02*
X74310000Y-97155000D01*
X69520000Y-97155000D02*
X70470000Y-97155000D01*
X95900000Y-109570000D02*
X95900000Y-111410000D01*
X95900000Y-111410000D02*
X92060000Y-111410000D01*
X92060000Y-111410000D02*
X92060000Y-109570000D01*
X92060000Y-109570000D02*
X95900000Y-109570000D01*
X96850000Y-110490000D02*
X95900000Y-110490000D01*
X91110000Y-110490000D02*
X92060000Y-110490000D01*
X106030000Y-124110000D02*
X106030000Y-122270000D01*
X106030000Y-122270000D02*
X109870000Y-122270000D01*
X109870000Y-122270000D02*
X109870000Y-124110000D01*
X109870000Y-124110000D02*
X106030000Y-124110000D01*
X105080000Y-123190000D02*
X106030000Y-123190000D01*
X110820000Y-123190000D02*
X109870000Y-123190000D01*
X106695000Y-106395000D02*
X106695000Y-108235000D01*
X106695000Y-108235000D02*
X102855000Y-108235000D01*
X102855000Y-108235000D02*
X102855000Y-106395000D01*
X102855000Y-106395000D02*
X106695000Y-106395000D01*
X107645000Y-107315000D02*
X106695000Y-107315000D01*
X101905000Y-107315000D02*
X102855000Y-107315000D01*
X95900000Y-104490000D02*
X95900000Y-106330000D01*
X95900000Y-106330000D02*
X92060000Y-106330000D01*
X92060000Y-106330000D02*
X92060000Y-104490000D01*
X92060000Y-104490000D02*
X95900000Y-104490000D01*
X96850000Y-105410000D02*
X95900000Y-105410000D01*
X91110000Y-105410000D02*
X92060000Y-105410000D01*
X92060000Y-108870000D02*
X92060000Y-107030000D01*
X92060000Y-107030000D02*
X95900000Y-107030000D01*
X95900000Y-107030000D02*
X95900000Y-108870000D01*
X95900000Y-108870000D02*
X92060000Y-108870000D01*
X91110000Y-107950000D02*
X92060000Y-107950000D01*
X96850000Y-107950000D02*
X95900000Y-107950000D01*
X124445000Y-103155000D02*
X124445000Y-101315000D01*
X124445000Y-101315000D02*
X128285000Y-101315000D01*
X128285000Y-101315000D02*
X128285000Y-103155000D01*
X128285000Y-103155000D02*
X124445000Y-103155000D01*
X123495000Y-102235000D02*
X124445000Y-102235000D01*
X129235000Y-102235000D02*
X128285000Y-102235000D01*
X127920000Y-121935000D02*
X126080000Y-121935000D01*
X126080000Y-121935000D02*
X126080000Y-118095000D01*
X126080000Y-118095000D02*
X127920000Y-118095000D01*
X127920000Y-118095000D02*
X127920000Y-121935000D01*
X127000000Y-122885000D02*
X127000000Y-121935000D01*
X127000000Y-117145000D02*
X127000000Y-118095000D01*
X130460000Y-121935000D02*
X128620000Y-121935000D01*
X128620000Y-121935000D02*
X128620000Y-118095000D01*
X128620000Y-118095000D02*
X130460000Y-118095000D01*
X130460000Y-118095000D02*
X130460000Y-121935000D01*
X129540000Y-122885000D02*
X129540000Y-121935000D01*
X129540000Y-117145000D02*
X129540000Y-118095000D01*
X92060000Y-94900000D02*
X92060000Y-93060000D01*
X92060000Y-93060000D02*
X95900000Y-93060000D01*
X95900000Y-93060000D02*
X95900000Y-94900000D01*
X95900000Y-94900000D02*
X92060000Y-94900000D01*
X91110000Y-93980000D02*
X92060000Y-93980000D01*
X96850000Y-93980000D02*
X95900000Y-93980000D01*
X124445000Y-105695000D02*
X124445000Y-103855000D01*
X124445000Y-103855000D02*
X128285000Y-103855000D01*
X128285000Y-103855000D02*
X128285000Y-105695000D01*
X128285000Y-105695000D02*
X124445000Y-105695000D01*
X123495000Y-104775000D02*
X124445000Y-104775000D01*
X129235000Y-104775000D02*
X128285000Y-104775000D01*
X124445000Y-108235000D02*
X124445000Y-106395000D01*
X124445000Y-106395000D02*
X128285000Y-106395000D01*
X128285000Y-106395000D02*
X128285000Y-108235000D01*
X128285000Y-108235000D02*
X124445000Y-108235000D01*
X123495000Y-107315000D02*
X124445000Y-107315000D01*
X129235000Y-107315000D02*
X128285000Y-107315000D01*
X106695000Y-111475000D02*
X106695000Y-113315000D01*
X106695000Y-113315000D02*
X102855000Y-113315000D01*
X102855000Y-113315000D02*
X102855000Y-111475000D01*
X102855000Y-111475000D02*
X106695000Y-111475000D01*
X107645000Y-112395000D02*
X106695000Y-112395000D01*
X101905000Y-112395000D02*
X102855000Y-112395000D01*
X92060000Y-99980000D02*
X92060000Y-98140000D01*
X92060000Y-98140000D02*
X95900000Y-98140000D01*
X95900000Y-98140000D02*
X95900000Y-99980000D01*
X95900000Y-99980000D02*
X92060000Y-99980000D01*
X91110000Y-99060000D02*
X92060000Y-99060000D01*
X96850000Y-99060000D02*
X95900000Y-99060000D01*
X92060000Y-97440000D02*
X92060000Y-95600000D01*
X92060000Y-95600000D02*
X95900000Y-95600000D01*
X95900000Y-95600000D02*
X95900000Y-97440000D01*
X95900000Y-97440000D02*
X92060000Y-97440000D01*
X91110000Y-96520000D02*
X92060000Y-96520000D01*
X96850000Y-96520000D02*
X95900000Y-96520000D01*
X62850000Y-124110000D02*
X62850000Y-122270000D01*
X62850000Y-122270000D02*
X66690000Y-122270000D01*
X66690000Y-122270000D02*
X66690000Y-124110000D01*
X66690000Y-124110000D02*
X62850000Y-124110000D01*
X61900000Y-123190000D02*
X62850000Y-123190000D01*
X67640000Y-123190000D02*
X66690000Y-123190000D01*
X102855000Y-103155000D02*
X102855000Y-101315000D01*
X102855000Y-101315000D02*
X106695000Y-101315000D01*
X106695000Y-101315000D02*
X106695000Y-103155000D01*
X106695000Y-103155000D02*
X102855000Y-103155000D01*
X101905000Y-102235000D02*
X102855000Y-102235000D01*
X107645000Y-102235000D02*
X106695000Y-102235000D01*
X66690000Y-119730000D02*
X66690000Y-121570000D01*
X66690000Y-121570000D02*
X62850000Y-121570000D01*
X62850000Y-121570000D02*
X62850000Y-119730000D01*
X62850000Y-119730000D02*
X66690000Y-119730000D01*
X67640000Y-120650000D02*
X66690000Y-120650000D01*
X61900000Y-120650000D02*
X62850000Y-120650000D01*
X74310000Y-104490000D02*
X74310000Y-106330000D01*
X74310000Y-106330000D02*
X70470000Y-106330000D01*
X70470000Y-106330000D02*
X70470000Y-104490000D01*
X70470000Y-104490000D02*
X74310000Y-104490000D01*
X75260000Y-105410000D02*
X74310000Y-105410000D01*
X69520000Y-105410000D02*
X70470000Y-105410000D01*
X70470000Y-108870000D02*
X70470000Y-107030000D01*
X70470000Y-107030000D02*
X74310000Y-107030000D01*
X74310000Y-107030000D02*
X74310000Y-108870000D01*
X74310000Y-108870000D02*
X70470000Y-108870000D01*
X69520000Y-107950000D02*
X70470000Y-107950000D01*
X75260000Y-107950000D02*
X74310000Y-107950000D01*
X106695000Y-108935000D02*
X106695000Y-110775000D01*
X106695000Y-110775000D02*
X102855000Y-110775000D01*
X102855000Y-110775000D02*
X102855000Y-108935000D01*
X102855000Y-108935000D02*
X106695000Y-108935000D01*
X107645000Y-109855000D02*
X106695000Y-109855000D01*
X101905000Y-109855000D02*
X102855000Y-109855000D01*
X116825000Y-124110000D02*
X116825000Y-122270000D01*
X116825000Y-122270000D02*
X120665000Y-122270000D01*
X120665000Y-122270000D02*
X120665000Y-124110000D01*
X120665000Y-124110000D02*
X116825000Y-124110000D01*
X115875000Y-123190000D02*
X116825000Y-123190000D01*
X121615000Y-123190000D02*
X120665000Y-123190000D01*
X70470000Y-72040000D02*
X70470000Y-70200000D01*
X70470000Y-70200000D02*
X74310000Y-70200000D01*
X74310000Y-70200000D02*
X74310000Y-72040000D01*
X74310000Y-72040000D02*
X70470000Y-72040000D01*
X69520000Y-71120000D02*
X70470000Y-71120000D01*
X75260000Y-71120000D02*
X74310000Y-71120000D01*
X106395000Y-88885000D02*
X108235000Y-88885000D01*
X108235000Y-88885000D02*
X108235000Y-92725000D01*
X108235000Y-92725000D02*
X106395000Y-92725000D01*
X106395000Y-92725000D02*
X106395000Y-88885000D01*
X107315000Y-87935000D02*
X107315000Y-88885000D01*
X107315000Y-93675000D02*
X107315000Y-92725000D01*
X74310000Y-67660000D02*
X74310000Y-69500000D01*
X74310000Y-69500000D02*
X70470000Y-69500000D01*
X70470000Y-69500000D02*
X70470000Y-67660000D01*
X70470000Y-67660000D02*
X74310000Y-67660000D01*
X75260000Y-68580000D02*
X74310000Y-68580000D01*
X69520000Y-68580000D02*
X70470000Y-68580000D01*
X92060000Y-89820000D02*
X92060000Y-87980000D01*
X92060000Y-87980000D02*
X95900000Y-87980000D01*
X95900000Y-87980000D02*
X95900000Y-89820000D01*
X95900000Y-89820000D02*
X92060000Y-89820000D01*
X91110000Y-88900000D02*
X92060000Y-88900000D01*
X96850000Y-88900000D02*
X95900000Y-88900000D01*
X95900000Y-78455000D02*
X95900000Y-80295000D01*
X95900000Y-80295000D02*
X92060000Y-80295000D01*
X92060000Y-80295000D02*
X92060000Y-78455000D01*
X92060000Y-78455000D02*
X95900000Y-78455000D01*
X96850000Y-79375000D02*
X95900000Y-79375000D01*
X91110000Y-79375000D02*
X92060000Y-79375000D01*
X74310000Y-77820000D02*
X74310000Y-79660000D01*
X74310000Y-79660000D02*
X70470000Y-79660000D01*
X70470000Y-79660000D02*
X70470000Y-77820000D01*
X70470000Y-77820000D02*
X74310000Y-77820000D01*
X75260000Y-78740000D02*
X74310000Y-78740000D01*
X69520000Y-78740000D02*
X70470000Y-78740000D01*
X70470000Y-87280000D02*
X70470000Y-85440000D01*
X70470000Y-85440000D02*
X74310000Y-85440000D01*
X74310000Y-85440000D02*
X74310000Y-87280000D01*
X74310000Y-87280000D02*
X70470000Y-87280000D01*
X69520000Y-86360000D02*
X70470000Y-86360000D01*
X75260000Y-86360000D02*
X74310000Y-86360000D01*
X74310000Y-80360000D02*
X74310000Y-82200000D01*
X74310000Y-82200000D02*
X70470000Y-82200000D01*
X70470000Y-82200000D02*
X70470000Y-80360000D01*
X70470000Y-80360000D02*
X74310000Y-80360000D01*
X75260000Y-81280000D02*
X74310000Y-81280000D01*
X69520000Y-81280000D02*
X70470000Y-81280000D01*
X74310000Y-82900000D02*
X74310000Y-84740000D01*
X74310000Y-84740000D02*
X70470000Y-84740000D01*
X70470000Y-84740000D02*
X70470000Y-82900000D01*
X70470000Y-82900000D02*
X74310000Y-82900000D01*
X75260000Y-83820000D02*
X74310000Y-83820000D01*
X69520000Y-83820000D02*
X70470000Y-83820000D01*
X92060000Y-85375000D02*
X92060000Y-83535000D01*
X92060000Y-83535000D02*
X95900000Y-83535000D01*
X95900000Y-83535000D02*
X95900000Y-85375000D01*
X95900000Y-85375000D02*
X92060000Y-85375000D01*
X91110000Y-84455000D02*
X92060000Y-84455000D01*
X96850000Y-84455000D02*
X95900000Y-84455000D01*
X92060000Y-82835000D02*
X92060000Y-80995000D01*
X92060000Y-80995000D02*
X95900000Y-80995000D01*
X95900000Y-80995000D02*
X95900000Y-82835000D01*
X95900000Y-82835000D02*
X92060000Y-82835000D01*
X91110000Y-81915000D02*
X92060000Y-81915000D01*
X96850000Y-81915000D02*
X95900000Y-81915000D01*
X92060000Y-73945000D02*
X92060000Y-72105000D01*
X92060000Y-72105000D02*
X95900000Y-72105000D01*
X95900000Y-72105000D02*
X95900000Y-73945000D01*
X95900000Y-73945000D02*
X92060000Y-73945000D01*
X91110000Y-73025000D02*
X92060000Y-73025000D01*
X96850000Y-73025000D02*
X95900000Y-73025000D01*
X92060000Y-71405000D02*
X92060000Y-69565000D01*
X92060000Y-69565000D02*
X95900000Y-69565000D01*
X95900000Y-69565000D02*
X95900000Y-71405000D01*
X95900000Y-71405000D02*
X92060000Y-71405000D01*
X91110000Y-70485000D02*
X92060000Y-70485000D01*
X96850000Y-70485000D02*
X95900000Y-70485000D01*
X120120000Y-116895000D02*
X123720000Y-116895000D01*
X123758478Y-116906522D02*
G75*
G02*
X121920000Y-121345000I-1838478J-1838478D01*
G01*
X120081522Y-116906522D02*
G75*
G03*
X121920000Y-121345000I1838478J-1838478D01*
G01*
X62335000Y-104195000D02*
X65935000Y-104195000D01*
X65973478Y-104206522D02*
G75*
G02*
X64135000Y-108645000I-1838478J-1838478D01*
G01*
X62296522Y-104206522D02*
G75*
G03*
X64135000Y-108645000I1838478J-1838478D01*
G01*
X103610000Y-116895000D02*
X107210000Y-116895000D01*
X107248478Y-116906522D02*
G75*
G02*
X105410000Y-121345000I-1838478J-1838478D01*
G01*
X103571522Y-116906522D02*
G75*
G03*
X105410000Y-121345000I1838478J-1838478D01*
G01*
X101070000Y-85145000D02*
X104670000Y-85145000D01*
X104708478Y-85156522D02*
G75*
G02*
X102870000Y-89595000I-1838478J-1838478D01*
G01*
X101031522Y-85156522D02*
G75*
G03*
X102870000Y-89595000I1838478J-1838478D01*
G01*
X62335000Y-82605000D02*
X65935000Y-82605000D01*
X65973478Y-82616522D02*
G75*
G02*
X64135000Y-87055000I-1838478J-1838478D01*
G01*
X62296522Y-82616522D02*
G75*
G03*
X64135000Y-87055000I1838478J-1838478D01*
G01*
X145475000Y-96580000D02*
X140275000Y-96580000D01*
X145475000Y-86360000D02*
X145475000Y-96580000D01*
X140275000Y-83760000D02*
X140275000Y-96580000D01*
X145475000Y-86360000D02*
X142875000Y-86360000D01*
X142875000Y-86360000D02*
X142875000Y-83760000D01*
X142875000Y-83760000D02*
X140275000Y-83760000D01*
X145475000Y-85090000D02*
X145475000Y-83760000D01*
X145475000Y-83760000D02*
X144145000Y-83760000D01*
X122490000Y-84965000D02*
X126430000Y-84965000D01*
X126430000Y-84965000D02*
X126430000Y-94105000D01*
X126430000Y-94105000D02*
X122490000Y-94105000D01*
X122490000Y-94105000D02*
X122490000Y-84965000D01*
X124460000Y-84825000D02*
X124460000Y-84965000D01*
X124460000Y-94245000D02*
X124460000Y-94105000D01*
X122490000Y-86420000D02*
X126430000Y-86420000D01*
X122490000Y-86540000D02*
X126430000Y-86540000D01*
X122490000Y-86300000D02*
X126430000Y-86300000D01*
X117410000Y-84965000D02*
X121350000Y-84965000D01*
X121350000Y-84965000D02*
X121350000Y-94105000D01*
X121350000Y-94105000D02*
X117410000Y-94105000D01*
X117410000Y-94105000D02*
X117410000Y-84965000D01*
X119380000Y-84825000D02*
X119380000Y-84965000D01*
X119380000Y-94245000D02*
X119380000Y-94105000D01*
X117410000Y-86420000D02*
X121350000Y-86420000D01*
X117410000Y-86540000D02*
X121350000Y-86540000D01*
X117410000Y-86300000D02*
X121350000Y-86300000D01*
X145765000Y-109220000D02*
G75*
G03*
X145765000Y-109220000I-2620000J0D01*
G01*
X143145000Y-108180000D02*
X143145000Y-106640000D01*
X143145000Y-111800000D02*
X143145000Y-110260000D01*
X143185000Y-108180000D02*
X143185000Y-106640000D01*
X143185000Y-111800000D02*
X143185000Y-110260000D01*
X143225000Y-111799000D02*
X143225000Y-110260000D01*
X143225000Y-108180000D02*
X143225000Y-106641000D01*
X143265000Y-111798000D02*
X143265000Y-110260000D01*
X143265000Y-108180000D02*
X143265000Y-106642000D01*
X143305000Y-111796000D02*
X143305000Y-110260000D01*
X143305000Y-108180000D02*
X143305000Y-106644000D01*
X143345000Y-111793000D02*
X143345000Y-110260000D01*
X143345000Y-108180000D02*
X143345000Y-106647000D01*
X143385000Y-111789000D02*
X143385000Y-110260000D01*
X143385000Y-108180000D02*
X143385000Y-106651000D01*
X143425000Y-111785000D02*
X143425000Y-110260000D01*
X143425000Y-108180000D02*
X143425000Y-106655000D01*
X143465000Y-111781000D02*
X143465000Y-110260000D01*
X143465000Y-108180000D02*
X143465000Y-106659000D01*
X143505000Y-111776000D02*
X143505000Y-110260000D01*
X143505000Y-108180000D02*
X143505000Y-106664000D01*
X143545000Y-111770000D02*
X143545000Y-110260000D01*
X143545000Y-108180000D02*
X143545000Y-106670000D01*
X143585000Y-111763000D02*
X143585000Y-110260000D01*
X143585000Y-108180000D02*
X143585000Y-106677000D01*
X143625000Y-111756000D02*
X143625000Y-110260000D01*
X143625000Y-108180000D02*
X143625000Y-106684000D01*
X143665000Y-111748000D02*
X143665000Y-110260000D01*
X143665000Y-108180000D02*
X143665000Y-106692000D01*
X143705000Y-111740000D02*
X143705000Y-110260000D01*
X143705000Y-108180000D02*
X143705000Y-106700000D01*
X143745000Y-111731000D02*
X143745000Y-110260000D01*
X143745000Y-108180000D02*
X143745000Y-106709000D01*
X143785000Y-111721000D02*
X143785000Y-110260000D01*
X143785000Y-108180000D02*
X143785000Y-106719000D01*
X143825000Y-111711000D02*
X143825000Y-110260000D01*
X143825000Y-108180000D02*
X143825000Y-106729000D01*
X143866000Y-111700000D02*
X143866000Y-110260000D01*
X143866000Y-108180000D02*
X143866000Y-106740000D01*
X143906000Y-111688000D02*
X143906000Y-110260000D01*
X143906000Y-108180000D02*
X143906000Y-106752000D01*
X143946000Y-111675000D02*
X143946000Y-110260000D01*
X143946000Y-108180000D02*
X143946000Y-106765000D01*
X143986000Y-111662000D02*
X143986000Y-110260000D01*
X143986000Y-108180000D02*
X143986000Y-106778000D01*
X144026000Y-111648000D02*
X144026000Y-110260000D01*
X144026000Y-108180000D02*
X144026000Y-106792000D01*
X144066000Y-111634000D02*
X144066000Y-110260000D01*
X144066000Y-108180000D02*
X144066000Y-106806000D01*
X144106000Y-111618000D02*
X144106000Y-110260000D01*
X144106000Y-108180000D02*
X144106000Y-106822000D01*
X144146000Y-111602000D02*
X144146000Y-110260000D01*
X144146000Y-108180000D02*
X144146000Y-106838000D01*
X144186000Y-111585000D02*
X144186000Y-110260000D01*
X144186000Y-108180000D02*
X144186000Y-106855000D01*
X144226000Y-111568000D02*
X144226000Y-110260000D01*
X144226000Y-108180000D02*
X144226000Y-106872000D01*
X144266000Y-111549000D02*
X144266000Y-110260000D01*
X144266000Y-108180000D02*
X144266000Y-106891000D01*
X144306000Y-111530000D02*
X144306000Y-110260000D01*
X144306000Y-108180000D02*
X144306000Y-106910000D01*
X144346000Y-111510000D02*
X144346000Y-110260000D01*
X144346000Y-108180000D02*
X144346000Y-106930000D01*
X144386000Y-111488000D02*
X144386000Y-110260000D01*
X144386000Y-108180000D02*
X144386000Y-106952000D01*
X144426000Y-111467000D02*
X144426000Y-110260000D01*
X144426000Y-108180000D02*
X144426000Y-106973000D01*
X144466000Y-111444000D02*
X144466000Y-110260000D01*
X144466000Y-108180000D02*
X144466000Y-106996000D01*
X144506000Y-111420000D02*
X144506000Y-110260000D01*
X144506000Y-108180000D02*
X144506000Y-107020000D01*
X144546000Y-111395000D02*
X144546000Y-110260000D01*
X144546000Y-108180000D02*
X144546000Y-107045000D01*
X144586000Y-111369000D02*
X144586000Y-110260000D01*
X144586000Y-108180000D02*
X144586000Y-107071000D01*
X144626000Y-111342000D02*
X144626000Y-110260000D01*
X144626000Y-108180000D02*
X144626000Y-107098000D01*
X144666000Y-111315000D02*
X144666000Y-110260000D01*
X144666000Y-108180000D02*
X144666000Y-107125000D01*
X144706000Y-111285000D02*
X144706000Y-110260000D01*
X144706000Y-108180000D02*
X144706000Y-107155000D01*
X144746000Y-111255000D02*
X144746000Y-110260000D01*
X144746000Y-108180000D02*
X144746000Y-107185000D01*
X144786000Y-111224000D02*
X144786000Y-110260000D01*
X144786000Y-108180000D02*
X144786000Y-107216000D01*
X144826000Y-111191000D02*
X144826000Y-110260000D01*
X144826000Y-108180000D02*
X144826000Y-107249000D01*
X144866000Y-111157000D02*
X144866000Y-110260000D01*
X144866000Y-108180000D02*
X144866000Y-107283000D01*
X144906000Y-111121000D02*
X144906000Y-110260000D01*
X144906000Y-108180000D02*
X144906000Y-107319000D01*
X144946000Y-111084000D02*
X144946000Y-110260000D01*
X144946000Y-108180000D02*
X144946000Y-107356000D01*
X144986000Y-111046000D02*
X144986000Y-110260000D01*
X144986000Y-108180000D02*
X144986000Y-107394000D01*
X145026000Y-111005000D02*
X145026000Y-110260000D01*
X145026000Y-108180000D02*
X145026000Y-107435000D01*
X145066000Y-110963000D02*
X145066000Y-110260000D01*
X145066000Y-108180000D02*
X145066000Y-107477000D01*
X145106000Y-110919000D02*
X145106000Y-110260000D01*
X145106000Y-108180000D02*
X145106000Y-107521000D01*
X145146000Y-110873000D02*
X145146000Y-110260000D01*
X145146000Y-108180000D02*
X145146000Y-107567000D01*
X145186000Y-110825000D02*
X145186000Y-107615000D01*
X145226000Y-110774000D02*
X145226000Y-107666000D01*
X145266000Y-110720000D02*
X145266000Y-107720000D01*
X145306000Y-110663000D02*
X145306000Y-107777000D01*
X145346000Y-110603000D02*
X145346000Y-107837000D01*
X145386000Y-110539000D02*
X145386000Y-107901000D01*
X145426000Y-110471000D02*
X145426000Y-107969000D01*
X145466000Y-110398000D02*
X145466000Y-108042000D01*
X145506000Y-110318000D02*
X145506000Y-108122000D01*
X145546000Y-110231000D02*
X145546000Y-108209000D01*
X145586000Y-110135000D02*
X145586000Y-108305000D01*
X145626000Y-110025000D02*
X145626000Y-108415000D01*
X145666000Y-109897000D02*
X145666000Y-108543000D01*
X145706000Y-109738000D02*
X145706000Y-108702000D01*
X145746000Y-109504000D02*
X145746000Y-108936000D01*
X140340225Y-110695000D02*
X140840225Y-110695000D01*
X140590225Y-110945000D02*
X140590225Y-110445000D01*
X145860000Y-73025000D02*
G75*
G03*
X145860000Y-73025000I-2620000J0D01*
G01*
X143240000Y-71985000D02*
X143240000Y-70445000D01*
X143240000Y-75605000D02*
X143240000Y-74065000D01*
X143280000Y-71985000D02*
X143280000Y-70445000D01*
X143280000Y-75605000D02*
X143280000Y-74065000D01*
X143320000Y-75604000D02*
X143320000Y-74065000D01*
X143320000Y-71985000D02*
X143320000Y-70446000D01*
X143360000Y-75603000D02*
X143360000Y-74065000D01*
X143360000Y-71985000D02*
X143360000Y-70447000D01*
X143400000Y-75601000D02*
X143400000Y-74065000D01*
X143400000Y-71985000D02*
X143400000Y-70449000D01*
X143440000Y-75598000D02*
X143440000Y-74065000D01*
X143440000Y-71985000D02*
X143440000Y-70452000D01*
X143480000Y-75594000D02*
X143480000Y-74065000D01*
X143480000Y-71985000D02*
X143480000Y-70456000D01*
X143520000Y-75590000D02*
X143520000Y-74065000D01*
X143520000Y-71985000D02*
X143520000Y-70460000D01*
X143560000Y-75586000D02*
X143560000Y-74065000D01*
X143560000Y-71985000D02*
X143560000Y-70464000D01*
X143600000Y-75581000D02*
X143600000Y-74065000D01*
X143600000Y-71985000D02*
X143600000Y-70469000D01*
X143640000Y-75575000D02*
X143640000Y-74065000D01*
X143640000Y-71985000D02*
X143640000Y-70475000D01*
X143680000Y-75568000D02*
X143680000Y-74065000D01*
X143680000Y-71985000D02*
X143680000Y-70482000D01*
X143720000Y-75561000D02*
X143720000Y-74065000D01*
X143720000Y-71985000D02*
X143720000Y-70489000D01*
X143760000Y-75553000D02*
X143760000Y-74065000D01*
X143760000Y-71985000D02*
X143760000Y-70497000D01*
X143800000Y-75545000D02*
X143800000Y-74065000D01*
X143800000Y-71985000D02*
X143800000Y-70505000D01*
X143840000Y-75536000D02*
X143840000Y-74065000D01*
X143840000Y-71985000D02*
X143840000Y-70514000D01*
X143880000Y-75526000D02*
X143880000Y-74065000D01*
X143880000Y-71985000D02*
X143880000Y-70524000D01*
X143920000Y-75516000D02*
X143920000Y-74065000D01*
X143920000Y-71985000D02*
X143920000Y-70534000D01*
X143961000Y-75505000D02*
X143961000Y-74065000D01*
X143961000Y-71985000D02*
X143961000Y-70545000D01*
X144001000Y-75493000D02*
X144001000Y-74065000D01*
X144001000Y-71985000D02*
X144001000Y-70557000D01*
X144041000Y-75480000D02*
X144041000Y-74065000D01*
X144041000Y-71985000D02*
X144041000Y-70570000D01*
X144081000Y-75467000D02*
X144081000Y-74065000D01*
X144081000Y-71985000D02*
X144081000Y-70583000D01*
X144121000Y-75453000D02*
X144121000Y-74065000D01*
X144121000Y-71985000D02*
X144121000Y-70597000D01*
X144161000Y-75439000D02*
X144161000Y-74065000D01*
X144161000Y-71985000D02*
X144161000Y-70611000D01*
X144201000Y-75423000D02*
X144201000Y-74065000D01*
X144201000Y-71985000D02*
X144201000Y-70627000D01*
X144241000Y-75407000D02*
X144241000Y-74065000D01*
X144241000Y-71985000D02*
X144241000Y-70643000D01*
X144281000Y-75390000D02*
X144281000Y-74065000D01*
X144281000Y-71985000D02*
X144281000Y-70660000D01*
X144321000Y-75373000D02*
X144321000Y-74065000D01*
X144321000Y-71985000D02*
X144321000Y-70677000D01*
X144361000Y-75354000D02*
X144361000Y-74065000D01*
X144361000Y-71985000D02*
X144361000Y-70696000D01*
X144401000Y-75335000D02*
X144401000Y-74065000D01*
X144401000Y-71985000D02*
X144401000Y-70715000D01*
X144441000Y-75315000D02*
X144441000Y-74065000D01*
X144441000Y-71985000D02*
X144441000Y-70735000D01*
X144481000Y-75293000D02*
X144481000Y-74065000D01*
X144481000Y-71985000D02*
X144481000Y-70757000D01*
X144521000Y-75272000D02*
X144521000Y-74065000D01*
X144521000Y-71985000D02*
X144521000Y-70778000D01*
X144561000Y-75249000D02*
X144561000Y-74065000D01*
X144561000Y-71985000D02*
X144561000Y-70801000D01*
X144601000Y-75225000D02*
X144601000Y-74065000D01*
X144601000Y-71985000D02*
X144601000Y-70825000D01*
X144641000Y-75200000D02*
X144641000Y-74065000D01*
X144641000Y-71985000D02*
X144641000Y-70850000D01*
X144681000Y-75174000D02*
X144681000Y-74065000D01*
X144681000Y-71985000D02*
X144681000Y-70876000D01*
X144721000Y-75147000D02*
X144721000Y-74065000D01*
X144721000Y-71985000D02*
X144721000Y-70903000D01*
X144761000Y-75120000D02*
X144761000Y-74065000D01*
X144761000Y-71985000D02*
X144761000Y-70930000D01*
X144801000Y-75090000D02*
X144801000Y-74065000D01*
X144801000Y-71985000D02*
X144801000Y-70960000D01*
X144841000Y-75060000D02*
X144841000Y-74065000D01*
X144841000Y-71985000D02*
X144841000Y-70990000D01*
X144881000Y-75029000D02*
X144881000Y-74065000D01*
X144881000Y-71985000D02*
X144881000Y-71021000D01*
X144921000Y-74996000D02*
X144921000Y-74065000D01*
X144921000Y-71985000D02*
X144921000Y-71054000D01*
X144961000Y-74962000D02*
X144961000Y-74065000D01*
X144961000Y-71985000D02*
X144961000Y-71088000D01*
X145001000Y-74926000D02*
X145001000Y-74065000D01*
X145001000Y-71985000D02*
X145001000Y-71124000D01*
X145041000Y-74889000D02*
X145041000Y-74065000D01*
X145041000Y-71985000D02*
X145041000Y-71161000D01*
X145081000Y-74851000D02*
X145081000Y-74065000D01*
X145081000Y-71985000D02*
X145081000Y-71199000D01*
X145121000Y-74810000D02*
X145121000Y-74065000D01*
X145121000Y-71985000D02*
X145121000Y-71240000D01*
X145161000Y-74768000D02*
X145161000Y-74065000D01*
X145161000Y-71985000D02*
X145161000Y-71282000D01*
X145201000Y-74724000D02*
X145201000Y-74065000D01*
X145201000Y-71985000D02*
X145201000Y-71326000D01*
X145241000Y-74678000D02*
X145241000Y-74065000D01*
X145241000Y-71985000D02*
X145241000Y-71372000D01*
X145281000Y-74630000D02*
X145281000Y-71420000D01*
X145321000Y-74579000D02*
X145321000Y-71471000D01*
X145361000Y-74525000D02*
X145361000Y-71525000D01*
X145401000Y-74468000D02*
X145401000Y-71582000D01*
X145441000Y-74408000D02*
X145441000Y-71642000D01*
X145481000Y-74344000D02*
X145481000Y-71706000D01*
X145521000Y-74276000D02*
X145521000Y-71774000D01*
X145561000Y-74203000D02*
X145561000Y-71847000D01*
X145601000Y-74123000D02*
X145601000Y-71927000D01*
X145641000Y-74036000D02*
X145641000Y-72014000D01*
X145681000Y-73940000D02*
X145681000Y-72110000D01*
X145721000Y-73830000D02*
X145721000Y-72220000D01*
X145761000Y-73702000D02*
X145761000Y-72348000D01*
X145801000Y-73543000D02*
X145801000Y-72507000D01*
X145841000Y-73309000D02*
X145841000Y-72741000D01*
X140435225Y-74500000D02*
X140935225Y-74500000D01*
X140685225Y-74750000D02*
X140685225Y-74250000D01*
X83285000Y-86260000D02*
X78045000Y-86260000D01*
X83285000Y-89000000D02*
X78045000Y-89000000D01*
X83285000Y-86260000D02*
X83285000Y-89000000D01*
X78045000Y-86260000D02*
X78045000Y-89000000D01*
X127100000Y-109120000D02*
X121860000Y-109120000D01*
X127100000Y-111860000D02*
X121860000Y-111860000D01*
X127100000Y-109120000D02*
X127100000Y-111860000D01*
X121860000Y-109120000D02*
X121860000Y-111860000D01*
X110390000Y-99795000D02*
X115630000Y-99795000D01*
X110390000Y-97055000D02*
X115630000Y-97055000D01*
X110390000Y-99795000D02*
X110390000Y-97055000D01*
X115630000Y-99795000D02*
X115630000Y-97055000D01*
X71655000Y-103605000D02*
X76895000Y-103605000D01*
X71655000Y-100865000D02*
X76895000Y-100865000D01*
X71655000Y-103605000D02*
X71655000Y-100865000D01*
X76895000Y-103605000D02*
X76895000Y-100865000D01*
X89435000Y-103605000D02*
X94675000Y-103605000D01*
X89435000Y-100865000D02*
X94675000Y-100865000D01*
X89435000Y-103605000D02*
X89435000Y-100865000D01*
X94675000Y-103605000D02*
X94675000Y-100865000D01*
X71655000Y-76935000D02*
X76895000Y-76935000D01*
X71655000Y-74195000D02*
X76895000Y-74195000D01*
X71655000Y-76935000D02*
X71655000Y-74195000D01*
X76895000Y-76935000D02*
X76895000Y-74195000D01*
X89435000Y-77570000D02*
X94675000Y-77570000D01*
X89435000Y-74830000D02*
X94675000Y-74830000D01*
X89435000Y-77570000D02*
X89435000Y-74830000D01*
X94675000Y-77570000D02*
X94675000Y-74830000D01*
%LPC*%
D12*
X151130000Y-135890000D03*
X151130000Y-73025000D03*
X130810000Y-52070000D03*
D13*
X113375000Y-73780000D03*
X103875000Y-73780000D03*
D14*
X111125000Y-81280000D03*
X108625000Y-81280000D03*
X106125000Y-81280000D03*
D15*
X111760000Y-102235000D03*
X119380000Y-109855000D03*
X111760000Y-104775000D03*
X119380000Y-107315000D03*
X111760000Y-107315000D03*
X119380000Y-104775000D03*
X111760000Y-109855000D03*
D16*
X119380000Y-102235000D03*
D15*
X79375000Y-94615000D03*
X86995000Y-109855000D03*
X79375000Y-97155000D03*
X86995000Y-107315000D03*
X79375000Y-99695000D03*
X86995000Y-104775000D03*
X79375000Y-102235000D03*
X86995000Y-102235000D03*
X79375000Y-104775000D03*
X86995000Y-99695000D03*
X79375000Y-107315000D03*
X86995000Y-97155000D03*
X79375000Y-109855000D03*
D16*
X86995000Y-94615000D03*
D15*
X79375000Y-68580000D03*
X86995000Y-83820000D03*
X79375000Y-71120000D03*
X86995000Y-81280000D03*
X79375000Y-73660000D03*
X86995000Y-78740000D03*
X79375000Y-76200000D03*
X86995000Y-76200000D03*
X79375000Y-78740000D03*
X86995000Y-73660000D03*
X79375000Y-81280000D03*
X86995000Y-71120000D03*
X79375000Y-83820000D03*
D16*
X86995000Y-68580000D03*
D17*
X116205000Y-118745000D03*
X113665000Y-118745000D03*
X111125000Y-118745000D03*
X99695000Y-118745000D03*
X97155000Y-118745000D03*
X94615000Y-118745000D03*
D13*
X150205000Y-56000000D03*
X140705000Y-56000000D03*
D14*
X147955000Y-63500000D03*
X145455000Y-63500000D03*
X142955000Y-63500000D03*
D18*
X100965000Y-104775000D03*
D19*
X108585000Y-104775000D03*
D18*
X128905000Y-90805000D03*
D19*
X128905000Y-98425000D03*
D18*
X128905000Y-88265000D03*
D19*
X128905000Y-80645000D03*
D18*
X90170000Y-67945000D03*
D19*
X97790000Y-67945000D03*
D18*
X79375000Y-123190000D03*
D19*
X71755000Y-123190000D03*
D18*
X100965000Y-123190000D03*
D19*
X93345000Y-123190000D03*
D18*
X76200000Y-94615000D03*
D19*
X68580000Y-94615000D03*
D18*
X90170000Y-123190000D03*
D19*
X82550000Y-123190000D03*
D18*
X68580000Y-97155000D03*
D19*
X76200000Y-97155000D03*
D18*
X90170000Y-110490000D03*
D19*
X97790000Y-110490000D03*
D18*
X111760000Y-123190000D03*
D19*
X104140000Y-123190000D03*
D17*
X78105000Y-118745000D03*
X75565000Y-118745000D03*
X73025000Y-118745000D03*
D18*
X100965000Y-107315000D03*
D19*
X108585000Y-107315000D03*
D18*
X90170000Y-105410000D03*
D19*
X97790000Y-105410000D03*
D18*
X97790000Y-107950000D03*
D19*
X90170000Y-107950000D03*
D18*
X130175000Y-102235000D03*
D19*
X122555000Y-102235000D03*
D18*
X127000000Y-116205000D03*
D19*
X127000000Y-123825000D03*
D18*
X129540000Y-116205000D03*
D19*
X129540000Y-123825000D03*
D18*
X97790000Y-93980000D03*
D19*
X90170000Y-93980000D03*
D18*
X130175000Y-104775000D03*
D19*
X122555000Y-104775000D03*
D18*
X130175000Y-107315000D03*
D19*
X122555000Y-107315000D03*
D18*
X100965000Y-112395000D03*
D19*
X108585000Y-112395000D03*
D18*
X97790000Y-99060000D03*
D19*
X90170000Y-99060000D03*
D18*
X97790000Y-96520000D03*
D19*
X90170000Y-96520000D03*
D18*
X68580000Y-123190000D03*
D19*
X60960000Y-123190000D03*
D18*
X108585000Y-102235000D03*
D19*
X100965000Y-102235000D03*
D18*
X60960000Y-120650000D03*
D19*
X68580000Y-120650000D03*
D18*
X68580000Y-105410000D03*
D19*
X76200000Y-105410000D03*
D18*
X76200000Y-107950000D03*
D19*
X68580000Y-107950000D03*
D18*
X100965000Y-109855000D03*
D19*
X108585000Y-109855000D03*
D18*
X122555000Y-123190000D03*
D19*
X114935000Y-123190000D03*
D18*
X76200000Y-71120000D03*
D19*
X68580000Y-71120000D03*
D18*
X107315000Y-94615000D03*
D19*
X107315000Y-86995000D03*
D18*
X68580000Y-68580000D03*
D19*
X76200000Y-68580000D03*
D18*
X97790000Y-88900000D03*
D19*
X90170000Y-88900000D03*
D18*
X90170000Y-79375000D03*
D19*
X97790000Y-79375000D03*
D18*
X68580000Y-78740000D03*
D19*
X76200000Y-78740000D03*
D18*
X76200000Y-86360000D03*
D19*
X68580000Y-86360000D03*
D18*
X68580000Y-81280000D03*
D19*
X76200000Y-81280000D03*
D18*
X68580000Y-83820000D03*
D19*
X76200000Y-83820000D03*
D18*
X97790000Y-84455000D03*
D19*
X90170000Y-84455000D03*
D18*
X97790000Y-81915000D03*
D19*
X90170000Y-81915000D03*
D18*
X97790000Y-73025000D03*
D19*
X90170000Y-73025000D03*
D18*
X97790000Y-70485000D03*
D19*
X90170000Y-70485000D03*
D20*
X120650000Y-118745000D03*
D21*
X123190000Y-118745000D03*
X121920000Y-118745000D03*
D20*
X62865000Y-106045000D03*
D21*
X65405000Y-106045000D03*
X64135000Y-106045000D03*
D20*
X104140000Y-118745000D03*
D21*
X106680000Y-118745000D03*
X105410000Y-118745000D03*
D20*
X101600000Y-86995000D03*
D21*
X104140000Y-86995000D03*
X102870000Y-86995000D03*
D20*
X62865000Y-84455000D03*
D21*
X65405000Y-84455000D03*
X64135000Y-84455000D03*
D22*
X75565000Y-137765000D03*
D23*
X75565000Y-126365000D03*
D22*
X75565000Y-129465000D03*
X97155000Y-137765000D03*
D23*
X97155000Y-126365000D03*
D22*
X97155000Y-129465000D03*
X107950000Y-137765000D03*
D23*
X107950000Y-126365000D03*
D22*
X107950000Y-129465000D03*
X86360000Y-137765000D03*
D23*
X86360000Y-126365000D03*
D22*
X86360000Y-129465000D03*
X64770000Y-137765000D03*
D23*
X64770000Y-126365000D03*
D22*
X64770000Y-129465000D03*
X118745000Y-137765000D03*
D23*
X118745000Y-126365000D03*
D22*
X118745000Y-129465000D03*
D24*
X141605000Y-95250000D03*
X144145000Y-95250000D03*
X141605000Y-92710000D03*
X144145000Y-92710000D03*
X141605000Y-90170000D03*
X144145000Y-90170000D03*
X141605000Y-87630000D03*
X144145000Y-87630000D03*
X141605000Y-85090000D03*
D25*
X144145000Y-85090000D03*
D22*
X64770000Y-61565000D03*
D23*
X64770000Y-50165000D03*
D22*
X64770000Y-53265000D03*
D26*
X124460000Y-95885000D03*
D27*
X124460000Y-83185000D03*
D26*
X119380000Y-95885000D03*
D27*
X119380000Y-83185000D03*
D14*
X104140000Y-93345000D03*
D28*
X101600000Y-93345000D03*
D29*
X144145000Y-109220000D03*
D30*
X142145000Y-109220000D03*
D29*
X144240000Y-73025000D03*
D30*
X142240000Y-73025000D03*
D29*
X79415000Y-87630000D03*
X81915000Y-87630000D03*
X123230000Y-110490000D03*
X125730000Y-110490000D03*
X114260000Y-98425000D03*
X111760000Y-98425000D03*
X75525000Y-102235000D03*
X73025000Y-102235000D03*
X93305000Y-102235000D03*
X90805000Y-102235000D03*
X75525000Y-75565000D03*
X73025000Y-75565000D03*
X93305000Y-76200000D03*
X90805000Y-76200000D03*
M02*
