%FSLAX45Y45*%
G04 Gerber Fmt 4.5, Leading zero omitted, Abs format (unit mm)*
G04 Created by KiCad (PCBNEW 5.1.12-1.fc34) date 2022-01-17 20:48:46*
%MOMM*%
%LPD*%
G01*
G04 APERTURE LIST*
%TA.AperFunction,Profile*%
%ADD10C,0.050000*%
%TD*%
%ADD11C,0.200000*%
%ADD12C,0.300000*%
G04 APERTURE END LIST*
D10*
X5715000Y-14351000D02*
X5715000Y-4445000D01*
X15621000Y-14351000D02*
X5715000Y-14351000D01*
X15621000Y-4445000D02*
X15621000Y-14351000D01*
X5715000Y-4445000D02*
X15621000Y-4445000D01*
D11*
X10287500Y-7278000D02*
X10487500Y-7478000D01*
X10487500Y-7278000D02*
X10287500Y-7478000D01*
X11237500Y-7278000D02*
X11437500Y-7478000D01*
X11437500Y-7278000D02*
X11237500Y-7478000D01*
X13970500Y-5500000D02*
X14170500Y-5700000D01*
X14170500Y-5500000D02*
X13970500Y-5700000D01*
X14920500Y-5500000D02*
X15120500Y-5700000D01*
X15120500Y-5500000D02*
X14920500Y-5700000D01*
X13241000Y-5207000D02*
G75*
G03*
X13241000Y-5207000I-160000J0D01*
G01*
X15273000Y-7302500D02*
G75*
G03*
X15273000Y-7302500I-160000J0D01*
G01*
X15273000Y-13589000D02*
G75*
G03*
X15273000Y-13589000I-160000J0D01*
G01*
D12*
X5998928Y-14819214D02*
X5998928Y-14519214D01*
X6070357Y-14519214D01*
X6113214Y-14533500D01*
X6141786Y-14562071D01*
X6156071Y-14590643D01*
X6170357Y-14647786D01*
X6170357Y-14690643D01*
X6156071Y-14747786D01*
X6141786Y-14776357D01*
X6113214Y-14804929D01*
X6070357Y-14819214D01*
X5998928Y-14819214D01*
X6298928Y-14819214D02*
X6298928Y-14619214D01*
X6298928Y-14676357D02*
X6313214Y-14647786D01*
X6327500Y-14633500D01*
X6356071Y-14619214D01*
X6384643Y-14619214D01*
X6484643Y-14819214D02*
X6484643Y-14619214D01*
X6484643Y-14519214D02*
X6470357Y-14533500D01*
X6484643Y-14547786D01*
X6498928Y-14533500D01*
X6484643Y-14519214D01*
X6484643Y-14547786D01*
X6670357Y-14819214D02*
X6641786Y-14804929D01*
X6627500Y-14776357D01*
X6627500Y-14519214D01*
X6827500Y-14819214D02*
X6798928Y-14804929D01*
X6784643Y-14776357D01*
X6784643Y-14519214D01*
X7170357Y-14819214D02*
X7170357Y-14519214D01*
X7270357Y-14733500D01*
X7370357Y-14519214D01*
X7370357Y-14819214D01*
X7641786Y-14819214D02*
X7641786Y-14662071D01*
X7627500Y-14633500D01*
X7598928Y-14619214D01*
X7541786Y-14619214D01*
X7513214Y-14633500D01*
X7641786Y-14804929D02*
X7613214Y-14819214D01*
X7541786Y-14819214D01*
X7513214Y-14804929D01*
X7498928Y-14776357D01*
X7498928Y-14747786D01*
X7513214Y-14719214D01*
X7541786Y-14704929D01*
X7613214Y-14704929D01*
X7641786Y-14690643D01*
X7784643Y-14619214D02*
X7784643Y-14919214D01*
X7784643Y-14633500D02*
X7813214Y-14619214D01*
X7870357Y-14619214D01*
X7898928Y-14633500D01*
X7913214Y-14647786D01*
X7927500Y-14676357D01*
X7927500Y-14762071D01*
X7913214Y-14790643D01*
X7898928Y-14804929D01*
X7870357Y-14819214D01*
X7813214Y-14819214D01*
X7784643Y-14804929D01*
X8056071Y-14790643D02*
X8070357Y-14804929D01*
X8056071Y-14819214D01*
X8041786Y-14804929D01*
X8056071Y-14790643D01*
X8056071Y-14819214D01*
X8056071Y-14633500D02*
X8070357Y-14647786D01*
X8056071Y-14662071D01*
X8041786Y-14647786D01*
X8056071Y-14633500D01*
X8056071Y-14662071D01*
X5512500Y-15213500D02*
X5712500Y-15413500D01*
X5712500Y-15213500D02*
X5512500Y-15413500D01*
X5984643Y-15177786D02*
X5998928Y-15163500D01*
X6027500Y-15149214D01*
X6098928Y-15149214D01*
X6127500Y-15163500D01*
X6141786Y-15177786D01*
X6156071Y-15206357D01*
X6156071Y-15234929D01*
X6141786Y-15277786D01*
X5970357Y-15449214D01*
X6156071Y-15449214D01*
X6284643Y-15420643D02*
X6298928Y-15434929D01*
X6284643Y-15449214D01*
X6270357Y-15434929D01*
X6284643Y-15420643D01*
X6284643Y-15449214D01*
X6484643Y-15149214D02*
X6513214Y-15149214D01*
X6541786Y-15163500D01*
X6556071Y-15177786D01*
X6570357Y-15206357D01*
X6584643Y-15263500D01*
X6584643Y-15334929D01*
X6570357Y-15392071D01*
X6556071Y-15420643D01*
X6541786Y-15434929D01*
X6513214Y-15449214D01*
X6484643Y-15449214D01*
X6456071Y-15434929D01*
X6441786Y-15420643D01*
X6427500Y-15392071D01*
X6413214Y-15334929D01*
X6413214Y-15263500D01*
X6427500Y-15206357D01*
X6441786Y-15177786D01*
X6456071Y-15163500D01*
X6484643Y-15149214D01*
X6770357Y-15149214D02*
X6798928Y-15149214D01*
X6827500Y-15163500D01*
X6841786Y-15177786D01*
X6856071Y-15206357D01*
X6870357Y-15263500D01*
X6870357Y-15334929D01*
X6856071Y-15392071D01*
X6841786Y-15420643D01*
X6827500Y-15434929D01*
X6798928Y-15449214D01*
X6770357Y-15449214D01*
X6741786Y-15434929D01*
X6727500Y-15420643D01*
X6713214Y-15392071D01*
X6698928Y-15334929D01*
X6698928Y-15263500D01*
X6713214Y-15206357D01*
X6727500Y-15177786D01*
X6741786Y-15163500D01*
X6770357Y-15149214D01*
X7056071Y-15149214D02*
X7084643Y-15149214D01*
X7113214Y-15163500D01*
X7127500Y-15177786D01*
X7141786Y-15206357D01*
X7156071Y-15263500D01*
X7156071Y-15334929D01*
X7141786Y-15392071D01*
X7127500Y-15420643D01*
X7113214Y-15434929D01*
X7084643Y-15449214D01*
X7056071Y-15449214D01*
X7027500Y-15434929D01*
X7013214Y-15420643D01*
X6998928Y-15392071D01*
X6984643Y-15334929D01*
X6984643Y-15263500D01*
X6998928Y-15206357D01*
X7013214Y-15177786D01*
X7027500Y-15163500D01*
X7056071Y-15149214D01*
X7284643Y-15449214D02*
X7284643Y-15249214D01*
X7284643Y-15277786D02*
X7298928Y-15263500D01*
X7327500Y-15249214D01*
X7370357Y-15249214D01*
X7398928Y-15263500D01*
X7413214Y-15292071D01*
X7413214Y-15449214D01*
X7413214Y-15292071D02*
X7427500Y-15263500D01*
X7456071Y-15249214D01*
X7498928Y-15249214D01*
X7527500Y-15263500D01*
X7541786Y-15292071D01*
X7541786Y-15449214D01*
X7684643Y-15449214D02*
X7684643Y-15249214D01*
X7684643Y-15277786D02*
X7698928Y-15263500D01*
X7727500Y-15249214D01*
X7770357Y-15249214D01*
X7798928Y-15263500D01*
X7813214Y-15292071D01*
X7813214Y-15449214D01*
X7813214Y-15292071D02*
X7827500Y-15263500D01*
X7856071Y-15249214D01*
X7898928Y-15249214D01*
X7927500Y-15263500D01*
X7941786Y-15292071D01*
X7941786Y-15449214D01*
X8527500Y-15134929D02*
X8270357Y-15520643D01*
X8913214Y-15149214D02*
X8941786Y-15149214D01*
X8970357Y-15163500D01*
X8984643Y-15177786D01*
X8998928Y-15206357D01*
X9013214Y-15263500D01*
X9013214Y-15334929D01*
X8998928Y-15392071D01*
X8984643Y-15420643D01*
X8970357Y-15434929D01*
X8941786Y-15449214D01*
X8913214Y-15449214D01*
X8884643Y-15434929D01*
X8870357Y-15420643D01*
X8856071Y-15392071D01*
X8841786Y-15334929D01*
X8841786Y-15263500D01*
X8856071Y-15206357D01*
X8870357Y-15177786D01*
X8884643Y-15163500D01*
X8913214Y-15149214D01*
X9141786Y-15420643D02*
X9156071Y-15434929D01*
X9141786Y-15449214D01*
X9127500Y-15434929D01*
X9141786Y-15420643D01*
X9141786Y-15449214D01*
X9341786Y-15149214D02*
X9370357Y-15149214D01*
X9398928Y-15163500D01*
X9413214Y-15177786D01*
X9427500Y-15206357D01*
X9441786Y-15263500D01*
X9441786Y-15334929D01*
X9427500Y-15392071D01*
X9413214Y-15420643D01*
X9398928Y-15434929D01*
X9370357Y-15449214D01*
X9341786Y-15449214D01*
X9313214Y-15434929D01*
X9298928Y-15420643D01*
X9284643Y-15392071D01*
X9270357Y-15334929D01*
X9270357Y-15263500D01*
X9284643Y-15206357D01*
X9298928Y-15177786D01*
X9313214Y-15163500D01*
X9341786Y-15149214D01*
X9541786Y-15149214D02*
X9741786Y-15149214D01*
X9613214Y-15449214D01*
X9898928Y-15277786D02*
X9870357Y-15263500D01*
X9856071Y-15249214D01*
X9841786Y-15220643D01*
X9841786Y-15206357D01*
X9856071Y-15177786D01*
X9870357Y-15163500D01*
X9898928Y-15149214D01*
X9956071Y-15149214D01*
X9984643Y-15163500D01*
X9998928Y-15177786D01*
X10013214Y-15206357D01*
X10013214Y-15220643D01*
X9998928Y-15249214D01*
X9984643Y-15263500D01*
X9956071Y-15277786D01*
X9898928Y-15277786D01*
X9870357Y-15292071D01*
X9856071Y-15306357D01*
X9841786Y-15334929D01*
X9841786Y-15392071D01*
X9856071Y-15420643D01*
X9870357Y-15434929D01*
X9898928Y-15449214D01*
X9956071Y-15449214D01*
X9984643Y-15434929D01*
X9998928Y-15420643D01*
X10013214Y-15392071D01*
X10013214Y-15334929D01*
X9998928Y-15306357D01*
X9984643Y-15292071D01*
X9956071Y-15277786D01*
X10113214Y-15149214D02*
X10313214Y-15149214D01*
X10184643Y-15449214D01*
X10413214Y-15149214D02*
X10413214Y-15206357D01*
X10527500Y-15149214D02*
X10527500Y-15206357D01*
X10970357Y-15563500D02*
X10956071Y-15549214D01*
X10927500Y-15506357D01*
X10913214Y-15477786D01*
X10898928Y-15434929D01*
X10884643Y-15363500D01*
X10884643Y-15306357D01*
X10898928Y-15234929D01*
X10913214Y-15192071D01*
X10927500Y-15163500D01*
X10956071Y-15120643D01*
X10970357Y-15106357D01*
X11213214Y-15249214D02*
X11213214Y-15449214D01*
X11141786Y-15134929D02*
X11070357Y-15349214D01*
X11256071Y-15349214D01*
X11598928Y-15449214D02*
X11598928Y-15149214D01*
X11727500Y-15449214D02*
X11727500Y-15292071D01*
X11713214Y-15263500D01*
X11684643Y-15249214D01*
X11641786Y-15249214D01*
X11613214Y-15263500D01*
X11598928Y-15277786D01*
X11913214Y-15449214D02*
X11884643Y-15434929D01*
X11870357Y-15420643D01*
X11856071Y-15392071D01*
X11856071Y-15306357D01*
X11870357Y-15277786D01*
X11884643Y-15263500D01*
X11913214Y-15249214D01*
X11956071Y-15249214D01*
X11984643Y-15263500D01*
X11998928Y-15277786D01*
X12013214Y-15306357D01*
X12013214Y-15392071D01*
X11998928Y-15420643D01*
X11984643Y-15434929D01*
X11956071Y-15449214D01*
X11913214Y-15449214D01*
X12184643Y-15449214D02*
X12156071Y-15434929D01*
X12141786Y-15406357D01*
X12141786Y-15149214D01*
X12413214Y-15434929D02*
X12384643Y-15449214D01*
X12327500Y-15449214D01*
X12298928Y-15434929D01*
X12284643Y-15406357D01*
X12284643Y-15292071D01*
X12298928Y-15263500D01*
X12327500Y-15249214D01*
X12384643Y-15249214D01*
X12413214Y-15263500D01*
X12427500Y-15292071D01*
X12427500Y-15320643D01*
X12284643Y-15349214D01*
X12541786Y-15434929D02*
X12570357Y-15449214D01*
X12627500Y-15449214D01*
X12656071Y-15434929D01*
X12670357Y-15406357D01*
X12670357Y-15392071D01*
X12656071Y-15363500D01*
X12627500Y-15349214D01*
X12584643Y-15349214D01*
X12556071Y-15334929D01*
X12541786Y-15306357D01*
X12541786Y-15292071D01*
X12556071Y-15263500D01*
X12584643Y-15249214D01*
X12627500Y-15249214D01*
X12656071Y-15263500D01*
X12770357Y-15563500D02*
X12784643Y-15549214D01*
X12813214Y-15506357D01*
X12827500Y-15477786D01*
X12841786Y-15434929D01*
X12856071Y-15363500D01*
X12856071Y-15306357D01*
X12841786Y-15234929D01*
X12827500Y-15192071D01*
X12813214Y-15163500D01*
X12784643Y-15120643D01*
X12770357Y-15106357D01*
X13313214Y-15563500D02*
X13298928Y-15549214D01*
X13270357Y-15506357D01*
X13256071Y-15477786D01*
X13241786Y-15434929D01*
X13227500Y-15363500D01*
X13227500Y-15306357D01*
X13241786Y-15234929D01*
X13256071Y-15192071D01*
X13270357Y-15163500D01*
X13298928Y-15120643D01*
X13313214Y-15106357D01*
X13427500Y-15249214D02*
X13427500Y-15449214D01*
X13427500Y-15277786D02*
X13441786Y-15263500D01*
X13470357Y-15249214D01*
X13513214Y-15249214D01*
X13541786Y-15263500D01*
X13556071Y-15292071D01*
X13556071Y-15449214D01*
X13741786Y-15449214D02*
X13713214Y-15434929D01*
X13698928Y-15420643D01*
X13684643Y-15392071D01*
X13684643Y-15306357D01*
X13698928Y-15277786D01*
X13713214Y-15263500D01*
X13741786Y-15249214D01*
X13784643Y-15249214D01*
X13813214Y-15263500D01*
X13827500Y-15277786D01*
X13841786Y-15306357D01*
X13841786Y-15392071D01*
X13827500Y-15420643D01*
X13813214Y-15434929D01*
X13784643Y-15449214D01*
X13741786Y-15449214D01*
X13927500Y-15249214D02*
X14041786Y-15249214D01*
X13970357Y-15149214D02*
X13970357Y-15406357D01*
X13984643Y-15434929D01*
X14013214Y-15449214D01*
X14041786Y-15449214D01*
X14370357Y-15249214D02*
X14370357Y-15549214D01*
X14370357Y-15263500D02*
X14398928Y-15249214D01*
X14456071Y-15249214D01*
X14484643Y-15263500D01*
X14498928Y-15277786D01*
X14513214Y-15306357D01*
X14513214Y-15392071D01*
X14498928Y-15420643D01*
X14484643Y-15434929D01*
X14456071Y-15449214D01*
X14398928Y-15449214D01*
X14370357Y-15434929D01*
X14684643Y-15449214D02*
X14656071Y-15434929D01*
X14641786Y-15406357D01*
X14641786Y-15149214D01*
X14927500Y-15449214D02*
X14927500Y-15292071D01*
X14913214Y-15263500D01*
X14884643Y-15249214D01*
X14827500Y-15249214D01*
X14798928Y-15263500D01*
X14927500Y-15434929D02*
X14898928Y-15449214D01*
X14827500Y-15449214D01*
X14798928Y-15434929D01*
X14784643Y-15406357D01*
X14784643Y-15377786D01*
X14798928Y-15349214D01*
X14827500Y-15334929D01*
X14898928Y-15334929D01*
X14927500Y-15320643D01*
X15027500Y-15249214D02*
X15141786Y-15249214D01*
X15070357Y-15149214D02*
X15070357Y-15406357D01*
X15084643Y-15434929D01*
X15113214Y-15449214D01*
X15141786Y-15449214D01*
X15356071Y-15434929D02*
X15327500Y-15449214D01*
X15270357Y-15449214D01*
X15241786Y-15434929D01*
X15227500Y-15406357D01*
X15227500Y-15292071D01*
X15241786Y-15263500D01*
X15270357Y-15249214D01*
X15327500Y-15249214D01*
X15356071Y-15263500D01*
X15370357Y-15292071D01*
X15370357Y-15320643D01*
X15227500Y-15349214D01*
X15627500Y-15449214D02*
X15627500Y-15149214D01*
X15627500Y-15434929D02*
X15598928Y-15449214D01*
X15541786Y-15449214D01*
X15513214Y-15434929D01*
X15498928Y-15420643D01*
X15484643Y-15392071D01*
X15484643Y-15306357D01*
X15498928Y-15277786D01*
X15513214Y-15263500D01*
X15541786Y-15249214D01*
X15598928Y-15249214D01*
X15627500Y-15263500D01*
X15741786Y-15563500D02*
X15756071Y-15549214D01*
X15784643Y-15506357D01*
X15798928Y-15477786D01*
X15813214Y-15434929D01*
X15827500Y-15363500D01*
X15827500Y-15306357D01*
X15813214Y-15234929D01*
X15798928Y-15192071D01*
X15784643Y-15163500D01*
X15756071Y-15120643D01*
X15741786Y-15106357D01*
X5712500Y-15709500D02*
G75*
G03*
X5712500Y-15709500I-160000J0D01*
G01*
X5970357Y-15545214D02*
X6156071Y-15545214D01*
X6056071Y-15659500D01*
X6098928Y-15659500D01*
X6127500Y-15673786D01*
X6141786Y-15688071D01*
X6156071Y-15716643D01*
X6156071Y-15788071D01*
X6141786Y-15816643D01*
X6127500Y-15830929D01*
X6098928Y-15845214D01*
X6013214Y-15845214D01*
X5984643Y-15830929D01*
X5970357Y-15816643D01*
X6284643Y-15816643D02*
X6298928Y-15830929D01*
X6284643Y-15845214D01*
X6270357Y-15830929D01*
X6284643Y-15816643D01*
X6284643Y-15845214D01*
X6413214Y-15573786D02*
X6427500Y-15559500D01*
X6456071Y-15545214D01*
X6527500Y-15545214D01*
X6556071Y-15559500D01*
X6570357Y-15573786D01*
X6584643Y-15602357D01*
X6584643Y-15630929D01*
X6570357Y-15673786D01*
X6398928Y-15845214D01*
X6584643Y-15845214D01*
X6770357Y-15545214D02*
X6798928Y-15545214D01*
X6827500Y-15559500D01*
X6841786Y-15573786D01*
X6856071Y-15602357D01*
X6870357Y-15659500D01*
X6870357Y-15730929D01*
X6856071Y-15788071D01*
X6841786Y-15816643D01*
X6827500Y-15830929D01*
X6798928Y-15845214D01*
X6770357Y-15845214D01*
X6741786Y-15830929D01*
X6727500Y-15816643D01*
X6713214Y-15788071D01*
X6698928Y-15730929D01*
X6698928Y-15659500D01*
X6713214Y-15602357D01*
X6727500Y-15573786D01*
X6741786Y-15559500D01*
X6770357Y-15545214D01*
X7056071Y-15545214D02*
X7084643Y-15545214D01*
X7113214Y-15559500D01*
X7127500Y-15573786D01*
X7141786Y-15602357D01*
X7156071Y-15659500D01*
X7156071Y-15730929D01*
X7141786Y-15788071D01*
X7127500Y-15816643D01*
X7113214Y-15830929D01*
X7084643Y-15845214D01*
X7056071Y-15845214D01*
X7027500Y-15830929D01*
X7013214Y-15816643D01*
X6998928Y-15788071D01*
X6984643Y-15730929D01*
X6984643Y-15659500D01*
X6998928Y-15602357D01*
X7013214Y-15573786D01*
X7027500Y-15559500D01*
X7056071Y-15545214D01*
X7284643Y-15845214D02*
X7284643Y-15645214D01*
X7284643Y-15673786D02*
X7298928Y-15659500D01*
X7327500Y-15645214D01*
X7370357Y-15645214D01*
X7398928Y-15659500D01*
X7413214Y-15688071D01*
X7413214Y-15845214D01*
X7413214Y-15688071D02*
X7427500Y-15659500D01*
X7456071Y-15645214D01*
X7498928Y-15645214D01*
X7527500Y-15659500D01*
X7541786Y-15688071D01*
X7541786Y-15845214D01*
X7684643Y-15845214D02*
X7684643Y-15645214D01*
X7684643Y-15673786D02*
X7698928Y-15659500D01*
X7727500Y-15645214D01*
X7770357Y-15645214D01*
X7798928Y-15659500D01*
X7813214Y-15688071D01*
X7813214Y-15845214D01*
X7813214Y-15688071D02*
X7827500Y-15659500D01*
X7856071Y-15645214D01*
X7898928Y-15645214D01*
X7927500Y-15659500D01*
X7941786Y-15688071D01*
X7941786Y-15845214D01*
X8527500Y-15530929D02*
X8270357Y-15916643D01*
X8913214Y-15545214D02*
X8941786Y-15545214D01*
X8970357Y-15559500D01*
X8984643Y-15573786D01*
X8998928Y-15602357D01*
X9013214Y-15659500D01*
X9013214Y-15730929D01*
X8998928Y-15788071D01*
X8984643Y-15816643D01*
X8970357Y-15830929D01*
X8941786Y-15845214D01*
X8913214Y-15845214D01*
X8884643Y-15830929D01*
X8870357Y-15816643D01*
X8856071Y-15788071D01*
X8841786Y-15730929D01*
X8841786Y-15659500D01*
X8856071Y-15602357D01*
X8870357Y-15573786D01*
X8884643Y-15559500D01*
X8913214Y-15545214D01*
X9141786Y-15816643D02*
X9156071Y-15830929D01*
X9141786Y-15845214D01*
X9127500Y-15830929D01*
X9141786Y-15816643D01*
X9141786Y-15845214D01*
X9441786Y-15845214D02*
X9270357Y-15845214D01*
X9356071Y-15845214D02*
X9356071Y-15545214D01*
X9327500Y-15588071D01*
X9298928Y-15616643D01*
X9270357Y-15630929D01*
X9556071Y-15573786D02*
X9570357Y-15559500D01*
X9598928Y-15545214D01*
X9670357Y-15545214D01*
X9698928Y-15559500D01*
X9713214Y-15573786D01*
X9727500Y-15602357D01*
X9727500Y-15630929D01*
X9713214Y-15673786D01*
X9541786Y-15845214D01*
X9727500Y-15845214D01*
X9984643Y-15545214D02*
X9927500Y-15545214D01*
X9898928Y-15559500D01*
X9884643Y-15573786D01*
X9856071Y-15616643D01*
X9841786Y-15673786D01*
X9841786Y-15788071D01*
X9856071Y-15816643D01*
X9870357Y-15830929D01*
X9898928Y-15845214D01*
X9956071Y-15845214D01*
X9984643Y-15830929D01*
X9998928Y-15816643D01*
X10013214Y-15788071D01*
X10013214Y-15716643D01*
X9998928Y-15688071D01*
X9984643Y-15673786D01*
X9956071Y-15659500D01*
X9898928Y-15659500D01*
X9870357Y-15673786D01*
X9856071Y-15688071D01*
X9841786Y-15716643D01*
X10198928Y-15545214D02*
X10227500Y-15545214D01*
X10256071Y-15559500D01*
X10270357Y-15573786D01*
X10284643Y-15602357D01*
X10298928Y-15659500D01*
X10298928Y-15730929D01*
X10284643Y-15788071D01*
X10270357Y-15816643D01*
X10256071Y-15830929D01*
X10227500Y-15845214D01*
X10198928Y-15845214D01*
X10170357Y-15830929D01*
X10156071Y-15816643D01*
X10141786Y-15788071D01*
X10127500Y-15730929D01*
X10127500Y-15659500D01*
X10141786Y-15602357D01*
X10156071Y-15573786D01*
X10170357Y-15559500D01*
X10198928Y-15545214D01*
X10413214Y-15545214D02*
X10413214Y-15602357D01*
X10527500Y-15545214D02*
X10527500Y-15602357D01*
X10970357Y-15959500D02*
X10956071Y-15945214D01*
X10927500Y-15902357D01*
X10913214Y-15873786D01*
X10898928Y-15830929D01*
X10884643Y-15759500D01*
X10884643Y-15702357D01*
X10898928Y-15630929D01*
X10913214Y-15588071D01*
X10927500Y-15559500D01*
X10956071Y-15516643D01*
X10970357Y-15502357D01*
X11056071Y-15545214D02*
X11241786Y-15545214D01*
X11141786Y-15659500D01*
X11184643Y-15659500D01*
X11213214Y-15673786D01*
X11227500Y-15688071D01*
X11241786Y-15716643D01*
X11241786Y-15788071D01*
X11227500Y-15816643D01*
X11213214Y-15830929D01*
X11184643Y-15845214D01*
X11098928Y-15845214D01*
X11070357Y-15830929D01*
X11056071Y-15816643D01*
X11598928Y-15845214D02*
X11598928Y-15545214D01*
X11727500Y-15845214D02*
X11727500Y-15688071D01*
X11713214Y-15659500D01*
X11684643Y-15645214D01*
X11641786Y-15645214D01*
X11613214Y-15659500D01*
X11598928Y-15673786D01*
X11913214Y-15845214D02*
X11884643Y-15830929D01*
X11870357Y-15816643D01*
X11856071Y-15788071D01*
X11856071Y-15702357D01*
X11870357Y-15673786D01*
X11884643Y-15659500D01*
X11913214Y-15645214D01*
X11956071Y-15645214D01*
X11984643Y-15659500D01*
X11998928Y-15673786D01*
X12013214Y-15702357D01*
X12013214Y-15788071D01*
X11998928Y-15816643D01*
X11984643Y-15830929D01*
X11956071Y-15845214D01*
X11913214Y-15845214D01*
X12184643Y-15845214D02*
X12156071Y-15830929D01*
X12141786Y-15802357D01*
X12141786Y-15545214D01*
X12413214Y-15830929D02*
X12384643Y-15845214D01*
X12327500Y-15845214D01*
X12298928Y-15830929D01*
X12284643Y-15802357D01*
X12284643Y-15688071D01*
X12298928Y-15659500D01*
X12327500Y-15645214D01*
X12384643Y-15645214D01*
X12413214Y-15659500D01*
X12427500Y-15688071D01*
X12427500Y-15716643D01*
X12284643Y-15745214D01*
X12541786Y-15830929D02*
X12570357Y-15845214D01*
X12627500Y-15845214D01*
X12656071Y-15830929D01*
X12670357Y-15802357D01*
X12670357Y-15788071D01*
X12656071Y-15759500D01*
X12627500Y-15745214D01*
X12584643Y-15745214D01*
X12556071Y-15730929D01*
X12541786Y-15702357D01*
X12541786Y-15688071D01*
X12556071Y-15659500D01*
X12584643Y-15645214D01*
X12627500Y-15645214D01*
X12656071Y-15659500D01*
X12770357Y-15959500D02*
X12784643Y-15945214D01*
X12813214Y-15902357D01*
X12827500Y-15873786D01*
X12841786Y-15830929D01*
X12856071Y-15759500D01*
X12856071Y-15702357D01*
X12841786Y-15630929D01*
X12827500Y-15588071D01*
X12813214Y-15559500D01*
X12784643Y-15516643D01*
X12770357Y-15502357D01*
X13313214Y-15959500D02*
X13298928Y-15945214D01*
X13270357Y-15902357D01*
X13256071Y-15873786D01*
X13241786Y-15830929D01*
X13227500Y-15759500D01*
X13227500Y-15702357D01*
X13241786Y-15630929D01*
X13256071Y-15588071D01*
X13270357Y-15559500D01*
X13298928Y-15516643D01*
X13313214Y-15502357D01*
X13427500Y-15645214D02*
X13427500Y-15845214D01*
X13427500Y-15673786D02*
X13441786Y-15659500D01*
X13470357Y-15645214D01*
X13513214Y-15645214D01*
X13541786Y-15659500D01*
X13556071Y-15688071D01*
X13556071Y-15845214D01*
X13741786Y-15845214D02*
X13713214Y-15830929D01*
X13698928Y-15816643D01*
X13684643Y-15788071D01*
X13684643Y-15702357D01*
X13698928Y-15673786D01*
X13713214Y-15659500D01*
X13741786Y-15645214D01*
X13784643Y-15645214D01*
X13813214Y-15659500D01*
X13827500Y-15673786D01*
X13841786Y-15702357D01*
X13841786Y-15788071D01*
X13827500Y-15816643D01*
X13813214Y-15830929D01*
X13784643Y-15845214D01*
X13741786Y-15845214D01*
X13927500Y-15645214D02*
X14041786Y-15645214D01*
X13970357Y-15545214D02*
X13970357Y-15802357D01*
X13984643Y-15830929D01*
X14013214Y-15845214D01*
X14041786Y-15845214D01*
X14370357Y-15645214D02*
X14370357Y-15945214D01*
X14370357Y-15659500D02*
X14398928Y-15645214D01*
X14456071Y-15645214D01*
X14484643Y-15659500D01*
X14498928Y-15673786D01*
X14513214Y-15702357D01*
X14513214Y-15788071D01*
X14498928Y-15816643D01*
X14484643Y-15830929D01*
X14456071Y-15845214D01*
X14398928Y-15845214D01*
X14370357Y-15830929D01*
X14684643Y-15845214D02*
X14656071Y-15830929D01*
X14641786Y-15802357D01*
X14641786Y-15545214D01*
X14927500Y-15845214D02*
X14927500Y-15688071D01*
X14913214Y-15659500D01*
X14884643Y-15645214D01*
X14827500Y-15645214D01*
X14798928Y-15659500D01*
X14927500Y-15830929D02*
X14898928Y-15845214D01*
X14827500Y-15845214D01*
X14798928Y-15830929D01*
X14784643Y-15802357D01*
X14784643Y-15773786D01*
X14798928Y-15745214D01*
X14827500Y-15730929D01*
X14898928Y-15730929D01*
X14927500Y-15716643D01*
X15027500Y-15645214D02*
X15141786Y-15645214D01*
X15070357Y-15545214D02*
X15070357Y-15802357D01*
X15084643Y-15830929D01*
X15113214Y-15845214D01*
X15141786Y-15845214D01*
X15356071Y-15830929D02*
X15327500Y-15845214D01*
X15270357Y-15845214D01*
X15241786Y-15830929D01*
X15227500Y-15802357D01*
X15227500Y-15688071D01*
X15241786Y-15659500D01*
X15270357Y-15645214D01*
X15327500Y-15645214D01*
X15356071Y-15659500D01*
X15370357Y-15688071D01*
X15370357Y-15716643D01*
X15227500Y-15745214D01*
X15627500Y-15845214D02*
X15627500Y-15545214D01*
X15627500Y-15830929D02*
X15598928Y-15845214D01*
X15541786Y-15845214D01*
X15513214Y-15830929D01*
X15498928Y-15816643D01*
X15484643Y-15788071D01*
X15484643Y-15702357D01*
X15498928Y-15673786D01*
X15513214Y-15659500D01*
X15541786Y-15645214D01*
X15598928Y-15645214D01*
X15627500Y-15659500D01*
X15741786Y-15959500D02*
X15756071Y-15945214D01*
X15784643Y-15902357D01*
X15798928Y-15873786D01*
X15813214Y-15830929D01*
X15827500Y-15759500D01*
X15827500Y-15702357D01*
X15813214Y-15630929D01*
X15798928Y-15588071D01*
X15784643Y-15559500D01*
X15756071Y-15516643D01*
X15741786Y-15502357D01*
M02*
