%FSLAX45Y45*%
G04 Gerber Fmt 4.5, Leading zero omitted, Abs format (unit mm)*
G04 Created by KiCad (PCBNEW 5.1.12-1.fc34) date 2022-01-17 21:01:34*
%MOMM*%
%LPD*%
G01*
G04 APERTURE LIST*
%TA.AperFunction,Profile*%
%ADD10C,0.050000*%
%TD*%
%ADD11C,0.200000*%
%ADD12C,0.300000*%
G04 APERTURE END LIST*
D10*
X6350000Y-6350000D02*
X16256000Y-6350000D01*
X6350000Y-16256000D02*
X6350000Y-6350000D01*
X16256000Y-16256000D02*
X6350000Y-16256000D01*
X16256000Y-6350000D02*
X16256000Y-16256000D01*
D11*
X6792000Y-7033046D02*
X7432000Y-7673046D01*
X7432000Y-7033046D02*
X6792000Y-7673046D01*
X7871500Y-7033046D02*
X8511500Y-7673046D01*
X8511500Y-7033046D02*
X7871500Y-7673046D01*
X8951000Y-7033046D02*
X9591000Y-7673046D01*
X9591000Y-7033046D02*
X8951000Y-7673046D01*
X15110500Y-7033046D02*
X15750500Y-7673046D01*
X15750500Y-7033046D02*
X15110500Y-7673046D01*
X15110500Y-14932954D02*
X15750500Y-15572954D01*
X15750500Y-14932954D02*
X15110500Y-15572954D01*
X7448938Y-9457436D02*
G75*
G03*
X7448938Y-9457436I-325000J0D01*
G01*
X7448938Y-11171936D02*
G75*
G03*
X7448938Y-11171936I-325000J0D01*
G01*
X7448938Y-12886436D02*
G75*
G03*
X7448938Y-12886436I-325000J0D01*
G01*
X11171562Y-7370064D02*
G75*
G03*
X11171562Y-7370064I-325000J0D01*
G01*
X12009000Y-15240000D02*
G75*
G03*
X12009000Y-15240000I-325000J0D01*
G01*
X12822562Y-7370064D02*
G75*
G03*
X12822562Y-7370064I-325000J0D01*
G01*
X14346562Y-15244064D02*
G75*
G03*
X14346562Y-15244064I-325000J0D01*
G01*
X14473562Y-7370064D02*
G75*
G03*
X14473562Y-7370064I-325000J0D01*
G01*
D12*
X6633928Y-16724214D02*
X6633928Y-16424214D01*
X6705357Y-16424214D01*
X6748214Y-16438500D01*
X6776786Y-16467071D01*
X6791071Y-16495643D01*
X6805357Y-16552786D01*
X6805357Y-16595643D01*
X6791071Y-16652786D01*
X6776786Y-16681357D01*
X6748214Y-16709929D01*
X6705357Y-16724214D01*
X6633928Y-16724214D01*
X6933928Y-16724214D02*
X6933928Y-16524214D01*
X6933928Y-16581357D02*
X6948214Y-16552786D01*
X6962500Y-16538500D01*
X6991071Y-16524214D01*
X7019643Y-16524214D01*
X7119643Y-16724214D02*
X7119643Y-16524214D01*
X7119643Y-16424214D02*
X7105357Y-16438500D01*
X7119643Y-16452786D01*
X7133928Y-16438500D01*
X7119643Y-16424214D01*
X7119643Y-16452786D01*
X7305357Y-16724214D02*
X7276786Y-16709929D01*
X7262500Y-16681357D01*
X7262500Y-16424214D01*
X7462500Y-16724214D02*
X7433928Y-16709929D01*
X7419643Y-16681357D01*
X7419643Y-16424214D01*
X7805357Y-16724214D02*
X7805357Y-16424214D01*
X7905357Y-16638500D01*
X8005357Y-16424214D01*
X8005357Y-16724214D01*
X8276786Y-16724214D02*
X8276786Y-16567071D01*
X8262500Y-16538500D01*
X8233928Y-16524214D01*
X8176786Y-16524214D01*
X8148214Y-16538500D01*
X8276786Y-16709929D02*
X8248214Y-16724214D01*
X8176786Y-16724214D01*
X8148214Y-16709929D01*
X8133928Y-16681357D01*
X8133928Y-16652786D01*
X8148214Y-16624214D01*
X8176786Y-16609929D01*
X8248214Y-16609929D01*
X8276786Y-16595643D01*
X8419643Y-16524214D02*
X8419643Y-16824214D01*
X8419643Y-16538500D02*
X8448214Y-16524214D01*
X8505357Y-16524214D01*
X8533928Y-16538500D01*
X8548214Y-16552786D01*
X8562500Y-16581357D01*
X8562500Y-16667071D01*
X8548214Y-16695643D01*
X8533928Y-16709929D01*
X8505357Y-16724214D01*
X8448214Y-16724214D01*
X8419643Y-16709929D01*
X8691071Y-16695643D02*
X8705357Y-16709929D01*
X8691071Y-16724214D01*
X8676786Y-16709929D01*
X8691071Y-16695643D01*
X8691071Y-16724214D01*
X8691071Y-16538500D02*
X8705357Y-16552786D01*
X8691071Y-16567071D01*
X8676786Y-16552786D01*
X8691071Y-16538500D01*
X8691071Y-16567071D01*
X5707500Y-16898500D02*
X6347500Y-17538500D01*
X6347500Y-16898500D02*
X5707500Y-17538500D01*
X6762500Y-17054214D02*
X6705357Y-17054214D01*
X6676786Y-17068500D01*
X6662500Y-17082786D01*
X6633928Y-17125643D01*
X6619643Y-17182786D01*
X6619643Y-17297072D01*
X6633928Y-17325643D01*
X6648214Y-17339929D01*
X6676786Y-17354214D01*
X6733928Y-17354214D01*
X6762500Y-17339929D01*
X6776786Y-17325643D01*
X6791071Y-17297072D01*
X6791071Y-17225643D01*
X6776786Y-17197072D01*
X6762500Y-17182786D01*
X6733928Y-17168500D01*
X6676786Y-17168500D01*
X6648214Y-17182786D01*
X6633928Y-17197072D01*
X6619643Y-17225643D01*
X6919643Y-17325643D02*
X6933928Y-17339929D01*
X6919643Y-17354214D01*
X6905357Y-17339929D01*
X6919643Y-17325643D01*
X6919643Y-17354214D01*
X7191071Y-17154214D02*
X7191071Y-17354214D01*
X7119643Y-17039929D02*
X7048214Y-17254214D01*
X7233928Y-17254214D01*
X7405357Y-17054214D02*
X7433928Y-17054214D01*
X7462500Y-17068500D01*
X7476786Y-17082786D01*
X7491071Y-17111357D01*
X7505357Y-17168500D01*
X7505357Y-17239929D01*
X7491071Y-17297072D01*
X7476786Y-17325643D01*
X7462500Y-17339929D01*
X7433928Y-17354214D01*
X7405357Y-17354214D01*
X7376786Y-17339929D01*
X7362500Y-17325643D01*
X7348214Y-17297072D01*
X7333928Y-17239929D01*
X7333928Y-17168500D01*
X7348214Y-17111357D01*
X7362500Y-17082786D01*
X7376786Y-17068500D01*
X7405357Y-17054214D01*
X7691071Y-17054214D02*
X7719643Y-17054214D01*
X7748214Y-17068500D01*
X7762500Y-17082786D01*
X7776786Y-17111357D01*
X7791071Y-17168500D01*
X7791071Y-17239929D01*
X7776786Y-17297072D01*
X7762500Y-17325643D01*
X7748214Y-17339929D01*
X7719643Y-17354214D01*
X7691071Y-17354214D01*
X7662500Y-17339929D01*
X7648214Y-17325643D01*
X7633928Y-17297072D01*
X7619643Y-17239929D01*
X7619643Y-17168500D01*
X7633928Y-17111357D01*
X7648214Y-17082786D01*
X7662500Y-17068500D01*
X7691071Y-17054214D01*
X7919643Y-17354214D02*
X7919643Y-17154214D01*
X7919643Y-17182786D02*
X7933928Y-17168500D01*
X7962500Y-17154214D01*
X8005357Y-17154214D01*
X8033928Y-17168500D01*
X8048214Y-17197072D01*
X8048214Y-17354214D01*
X8048214Y-17197072D02*
X8062500Y-17168500D01*
X8091071Y-17154214D01*
X8133928Y-17154214D01*
X8162500Y-17168500D01*
X8176786Y-17197072D01*
X8176786Y-17354214D01*
X8319643Y-17354214D02*
X8319643Y-17154214D01*
X8319643Y-17182786D02*
X8333928Y-17168500D01*
X8362500Y-17154214D01*
X8405357Y-17154214D01*
X8433928Y-17168500D01*
X8448214Y-17197072D01*
X8448214Y-17354214D01*
X8448214Y-17197072D02*
X8462500Y-17168500D01*
X8491071Y-17154214D01*
X8533928Y-17154214D01*
X8562500Y-17168500D01*
X8576786Y-17197072D01*
X8576786Y-17354214D01*
X9162500Y-17039929D02*
X8905357Y-17425643D01*
X9548214Y-17054214D02*
X9576786Y-17054214D01*
X9605357Y-17068500D01*
X9619643Y-17082786D01*
X9633928Y-17111357D01*
X9648214Y-17168500D01*
X9648214Y-17239929D01*
X9633928Y-17297072D01*
X9619643Y-17325643D01*
X9605357Y-17339929D01*
X9576786Y-17354214D01*
X9548214Y-17354214D01*
X9519643Y-17339929D01*
X9505357Y-17325643D01*
X9491071Y-17297072D01*
X9476786Y-17239929D01*
X9476786Y-17168500D01*
X9491071Y-17111357D01*
X9505357Y-17082786D01*
X9519643Y-17068500D01*
X9548214Y-17054214D01*
X9776786Y-17325643D02*
X9791071Y-17339929D01*
X9776786Y-17354214D01*
X9762500Y-17339929D01*
X9776786Y-17325643D01*
X9776786Y-17354214D01*
X9905357Y-17082786D02*
X9919643Y-17068500D01*
X9948214Y-17054214D01*
X10019643Y-17054214D01*
X10048214Y-17068500D01*
X10062500Y-17082786D01*
X10076786Y-17111357D01*
X10076786Y-17139929D01*
X10062500Y-17182786D01*
X9891071Y-17354214D01*
X10076786Y-17354214D01*
X10348214Y-17054214D02*
X10205357Y-17054214D01*
X10191071Y-17197072D01*
X10205357Y-17182786D01*
X10233928Y-17168500D01*
X10305357Y-17168500D01*
X10333928Y-17182786D01*
X10348214Y-17197072D01*
X10362500Y-17225643D01*
X10362500Y-17297072D01*
X10348214Y-17325643D01*
X10333928Y-17339929D01*
X10305357Y-17354214D01*
X10233928Y-17354214D01*
X10205357Y-17339929D01*
X10191071Y-17325643D01*
X10476786Y-17082786D02*
X10491071Y-17068500D01*
X10519643Y-17054214D01*
X10591071Y-17054214D01*
X10619643Y-17068500D01*
X10633928Y-17082786D01*
X10648214Y-17111357D01*
X10648214Y-17139929D01*
X10633928Y-17182786D01*
X10462500Y-17354214D01*
X10648214Y-17354214D01*
X10833928Y-17054214D02*
X10862500Y-17054214D01*
X10891071Y-17068500D01*
X10905357Y-17082786D01*
X10919643Y-17111357D01*
X10933928Y-17168500D01*
X10933928Y-17239929D01*
X10919643Y-17297072D01*
X10905357Y-17325643D01*
X10891071Y-17339929D01*
X10862500Y-17354214D01*
X10833928Y-17354214D01*
X10805357Y-17339929D01*
X10791071Y-17325643D01*
X10776786Y-17297072D01*
X10762500Y-17239929D01*
X10762500Y-17168500D01*
X10776786Y-17111357D01*
X10791071Y-17082786D01*
X10805357Y-17068500D01*
X10833928Y-17054214D01*
X11048214Y-17054214D02*
X11048214Y-17111357D01*
X11162500Y-17054214D02*
X11162500Y-17111357D01*
X11605357Y-17468500D02*
X11591071Y-17454214D01*
X11562500Y-17411357D01*
X11548214Y-17382786D01*
X11533928Y-17339929D01*
X11519643Y-17268500D01*
X11519643Y-17211357D01*
X11533928Y-17139929D01*
X11548214Y-17097072D01*
X11562500Y-17068500D01*
X11591071Y-17025643D01*
X11605357Y-17011357D01*
X11862500Y-17054214D02*
X11719643Y-17054214D01*
X11705357Y-17197072D01*
X11719643Y-17182786D01*
X11748214Y-17168500D01*
X11819643Y-17168500D01*
X11848214Y-17182786D01*
X11862500Y-17197072D01*
X11876786Y-17225643D01*
X11876786Y-17297072D01*
X11862500Y-17325643D01*
X11848214Y-17339929D01*
X11819643Y-17354214D01*
X11748214Y-17354214D01*
X11719643Y-17339929D01*
X11705357Y-17325643D01*
X12233928Y-17354214D02*
X12233928Y-17054214D01*
X12362500Y-17354214D02*
X12362500Y-17197072D01*
X12348214Y-17168500D01*
X12319643Y-17154214D01*
X12276786Y-17154214D01*
X12248214Y-17168500D01*
X12233928Y-17182786D01*
X12548214Y-17354214D02*
X12519643Y-17339929D01*
X12505357Y-17325643D01*
X12491071Y-17297072D01*
X12491071Y-17211357D01*
X12505357Y-17182786D01*
X12519643Y-17168500D01*
X12548214Y-17154214D01*
X12591071Y-17154214D01*
X12619643Y-17168500D01*
X12633928Y-17182786D01*
X12648214Y-17211357D01*
X12648214Y-17297072D01*
X12633928Y-17325643D01*
X12619643Y-17339929D01*
X12591071Y-17354214D01*
X12548214Y-17354214D01*
X12819643Y-17354214D02*
X12791071Y-17339929D01*
X12776786Y-17311357D01*
X12776786Y-17054214D01*
X13048214Y-17339929D02*
X13019643Y-17354214D01*
X12962500Y-17354214D01*
X12933928Y-17339929D01*
X12919643Y-17311357D01*
X12919643Y-17197072D01*
X12933928Y-17168500D01*
X12962500Y-17154214D01*
X13019643Y-17154214D01*
X13048214Y-17168500D01*
X13062500Y-17197072D01*
X13062500Y-17225643D01*
X12919643Y-17254214D01*
X13176786Y-17339929D02*
X13205357Y-17354214D01*
X13262500Y-17354214D01*
X13291071Y-17339929D01*
X13305357Y-17311357D01*
X13305357Y-17297072D01*
X13291071Y-17268500D01*
X13262500Y-17254214D01*
X13219643Y-17254214D01*
X13191071Y-17239929D01*
X13176786Y-17211357D01*
X13176786Y-17197072D01*
X13191071Y-17168500D01*
X13219643Y-17154214D01*
X13262500Y-17154214D01*
X13291071Y-17168500D01*
X13405357Y-17468500D02*
X13419643Y-17454214D01*
X13448214Y-17411357D01*
X13462500Y-17382786D01*
X13476786Y-17339929D01*
X13491071Y-17268500D01*
X13491071Y-17211357D01*
X13476786Y-17139929D01*
X13462500Y-17097072D01*
X13448214Y-17068500D01*
X13419643Y-17025643D01*
X13405357Y-17011357D01*
X13948214Y-17468500D02*
X13933928Y-17454214D01*
X13905357Y-17411357D01*
X13891071Y-17382786D01*
X13876786Y-17339929D01*
X13862500Y-17268500D01*
X13862500Y-17211357D01*
X13876786Y-17139929D01*
X13891071Y-17097072D01*
X13905357Y-17068500D01*
X13933928Y-17025643D01*
X13948214Y-17011357D01*
X14062500Y-17154214D02*
X14062500Y-17354214D01*
X14062500Y-17182786D02*
X14076786Y-17168500D01*
X14105357Y-17154214D01*
X14148214Y-17154214D01*
X14176786Y-17168500D01*
X14191071Y-17197072D01*
X14191071Y-17354214D01*
X14376786Y-17354214D02*
X14348214Y-17339929D01*
X14333928Y-17325643D01*
X14319643Y-17297072D01*
X14319643Y-17211357D01*
X14333928Y-17182786D01*
X14348214Y-17168500D01*
X14376786Y-17154214D01*
X14419643Y-17154214D01*
X14448214Y-17168500D01*
X14462500Y-17182786D01*
X14476786Y-17211357D01*
X14476786Y-17297072D01*
X14462500Y-17325643D01*
X14448214Y-17339929D01*
X14419643Y-17354214D01*
X14376786Y-17354214D01*
X14562500Y-17154214D02*
X14676786Y-17154214D01*
X14605357Y-17054214D02*
X14605357Y-17311357D01*
X14619643Y-17339929D01*
X14648214Y-17354214D01*
X14676786Y-17354214D01*
X15005357Y-17154214D02*
X15005357Y-17454214D01*
X15005357Y-17168500D02*
X15033928Y-17154214D01*
X15091071Y-17154214D01*
X15119643Y-17168500D01*
X15133928Y-17182786D01*
X15148214Y-17211357D01*
X15148214Y-17297072D01*
X15133928Y-17325643D01*
X15119643Y-17339929D01*
X15091071Y-17354214D01*
X15033928Y-17354214D01*
X15005357Y-17339929D01*
X15319643Y-17354214D02*
X15291071Y-17339929D01*
X15276786Y-17311357D01*
X15276786Y-17054214D01*
X15562500Y-17354214D02*
X15562500Y-17197072D01*
X15548214Y-17168500D01*
X15519643Y-17154214D01*
X15462500Y-17154214D01*
X15433928Y-17168500D01*
X15562500Y-17339929D02*
X15533928Y-17354214D01*
X15462500Y-17354214D01*
X15433928Y-17339929D01*
X15419643Y-17311357D01*
X15419643Y-17282786D01*
X15433928Y-17254214D01*
X15462500Y-17239929D01*
X15533928Y-17239929D01*
X15562500Y-17225643D01*
X15662500Y-17154214D02*
X15776786Y-17154214D01*
X15705357Y-17054214D02*
X15705357Y-17311357D01*
X15719643Y-17339929D01*
X15748214Y-17354214D01*
X15776786Y-17354214D01*
X15991071Y-17339929D02*
X15962500Y-17354214D01*
X15905357Y-17354214D01*
X15876786Y-17339929D01*
X15862500Y-17311357D01*
X15862500Y-17197072D01*
X15876786Y-17168500D01*
X15905357Y-17154214D01*
X15962500Y-17154214D01*
X15991071Y-17168500D01*
X16005357Y-17197072D01*
X16005357Y-17225643D01*
X15862500Y-17254214D01*
X16262500Y-17354214D02*
X16262500Y-17054214D01*
X16262500Y-17339929D02*
X16233928Y-17354214D01*
X16176786Y-17354214D01*
X16148214Y-17339929D01*
X16133928Y-17325643D01*
X16119643Y-17297072D01*
X16119643Y-17211357D01*
X16133928Y-17182786D01*
X16148214Y-17168500D01*
X16176786Y-17154214D01*
X16233928Y-17154214D01*
X16262500Y-17168500D01*
X16376786Y-17468500D02*
X16391071Y-17454214D01*
X16419643Y-17411357D01*
X16433928Y-17382786D01*
X16448214Y-17339929D01*
X16462500Y-17268500D01*
X16462500Y-17211357D01*
X16448214Y-17139929D01*
X16433928Y-17097072D01*
X16419643Y-17068500D01*
X16391071Y-17025643D01*
X16376786Y-17011357D01*
X6347500Y-17988500D02*
G75*
G03*
X6347500Y-17988500I-325000J0D01*
G01*
X6762500Y-17824214D02*
X6705357Y-17824214D01*
X6676786Y-17838500D01*
X6662500Y-17852786D01*
X6633928Y-17895643D01*
X6619643Y-17952786D01*
X6619643Y-18067072D01*
X6633928Y-18095643D01*
X6648214Y-18109929D01*
X6676786Y-18124214D01*
X6733928Y-18124214D01*
X6762500Y-18109929D01*
X6776786Y-18095643D01*
X6791071Y-18067072D01*
X6791071Y-17995643D01*
X6776786Y-17967072D01*
X6762500Y-17952786D01*
X6733928Y-17938500D01*
X6676786Y-17938500D01*
X6648214Y-17952786D01*
X6633928Y-17967072D01*
X6619643Y-17995643D01*
X6919643Y-18095643D02*
X6933928Y-18109929D01*
X6919643Y-18124214D01*
X6905357Y-18109929D01*
X6919643Y-18095643D01*
X6919643Y-18124214D01*
X7205357Y-17824214D02*
X7062500Y-17824214D01*
X7048214Y-17967072D01*
X7062500Y-17952786D01*
X7091071Y-17938500D01*
X7162500Y-17938500D01*
X7191071Y-17952786D01*
X7205357Y-17967072D01*
X7219643Y-17995643D01*
X7219643Y-18067072D01*
X7205357Y-18095643D01*
X7191071Y-18109929D01*
X7162500Y-18124214D01*
X7091071Y-18124214D01*
X7062500Y-18109929D01*
X7048214Y-18095643D01*
X7405357Y-17824214D02*
X7433928Y-17824214D01*
X7462500Y-17838500D01*
X7476786Y-17852786D01*
X7491071Y-17881357D01*
X7505357Y-17938500D01*
X7505357Y-18009929D01*
X7491071Y-18067072D01*
X7476786Y-18095643D01*
X7462500Y-18109929D01*
X7433928Y-18124214D01*
X7405357Y-18124214D01*
X7376786Y-18109929D01*
X7362500Y-18095643D01*
X7348214Y-18067072D01*
X7333928Y-18009929D01*
X7333928Y-17938500D01*
X7348214Y-17881357D01*
X7362500Y-17852786D01*
X7376786Y-17838500D01*
X7405357Y-17824214D01*
X7691071Y-17824214D02*
X7719643Y-17824214D01*
X7748214Y-17838500D01*
X7762500Y-17852786D01*
X7776786Y-17881357D01*
X7791071Y-17938500D01*
X7791071Y-18009929D01*
X7776786Y-18067072D01*
X7762500Y-18095643D01*
X7748214Y-18109929D01*
X7719643Y-18124214D01*
X7691071Y-18124214D01*
X7662500Y-18109929D01*
X7648214Y-18095643D01*
X7633928Y-18067072D01*
X7619643Y-18009929D01*
X7619643Y-17938500D01*
X7633928Y-17881357D01*
X7648214Y-17852786D01*
X7662500Y-17838500D01*
X7691071Y-17824214D01*
X7919643Y-18124214D02*
X7919643Y-17924214D01*
X7919643Y-17952786D02*
X7933928Y-17938500D01*
X7962500Y-17924214D01*
X8005357Y-17924214D01*
X8033928Y-17938500D01*
X8048214Y-17967072D01*
X8048214Y-18124214D01*
X8048214Y-17967072D02*
X8062500Y-17938500D01*
X8091071Y-17924214D01*
X8133928Y-17924214D01*
X8162500Y-17938500D01*
X8176786Y-17967072D01*
X8176786Y-18124214D01*
X8319643Y-18124214D02*
X8319643Y-17924214D01*
X8319643Y-17952786D02*
X8333928Y-17938500D01*
X8362500Y-17924214D01*
X8405357Y-17924214D01*
X8433928Y-17938500D01*
X8448214Y-17967072D01*
X8448214Y-18124214D01*
X8448214Y-17967072D02*
X8462500Y-17938500D01*
X8491071Y-17924214D01*
X8533928Y-17924214D01*
X8562500Y-17938500D01*
X8576786Y-17967072D01*
X8576786Y-18124214D01*
X9162500Y-17809929D02*
X8905357Y-18195643D01*
X9548214Y-17824214D02*
X9576786Y-17824214D01*
X9605357Y-17838500D01*
X9619643Y-17852786D01*
X9633928Y-17881357D01*
X9648214Y-17938500D01*
X9648214Y-18009929D01*
X9633928Y-18067072D01*
X9619643Y-18095643D01*
X9605357Y-18109929D01*
X9576786Y-18124214D01*
X9548214Y-18124214D01*
X9519643Y-18109929D01*
X9505357Y-18095643D01*
X9491071Y-18067072D01*
X9476786Y-18009929D01*
X9476786Y-17938500D01*
X9491071Y-17881357D01*
X9505357Y-17852786D01*
X9519643Y-17838500D01*
X9548214Y-17824214D01*
X9776786Y-18095643D02*
X9791071Y-18109929D01*
X9776786Y-18124214D01*
X9762500Y-18109929D01*
X9776786Y-18095643D01*
X9776786Y-18124214D01*
X9905357Y-17852786D02*
X9919643Y-17838500D01*
X9948214Y-17824214D01*
X10019643Y-17824214D01*
X10048214Y-17838500D01*
X10062500Y-17852786D01*
X10076786Y-17881357D01*
X10076786Y-17909929D01*
X10062500Y-17952786D01*
X9891071Y-18124214D01*
X10076786Y-18124214D01*
X10348214Y-17824214D02*
X10205357Y-17824214D01*
X10191071Y-17967072D01*
X10205357Y-17952786D01*
X10233928Y-17938500D01*
X10305357Y-17938500D01*
X10333928Y-17952786D01*
X10348214Y-17967072D01*
X10362500Y-17995643D01*
X10362500Y-18067072D01*
X10348214Y-18095643D01*
X10333928Y-18109929D01*
X10305357Y-18124214D01*
X10233928Y-18124214D01*
X10205357Y-18109929D01*
X10191071Y-18095643D01*
X10633928Y-17824214D02*
X10491071Y-17824214D01*
X10476786Y-17967072D01*
X10491071Y-17952786D01*
X10519643Y-17938500D01*
X10591071Y-17938500D01*
X10619643Y-17952786D01*
X10633928Y-17967072D01*
X10648214Y-17995643D01*
X10648214Y-18067072D01*
X10633928Y-18095643D01*
X10619643Y-18109929D01*
X10591071Y-18124214D01*
X10519643Y-18124214D01*
X10491071Y-18109929D01*
X10476786Y-18095643D01*
X10791071Y-18124214D02*
X10848214Y-18124214D01*
X10876786Y-18109929D01*
X10891071Y-18095643D01*
X10919643Y-18052786D01*
X10933928Y-17995643D01*
X10933928Y-17881357D01*
X10919643Y-17852786D01*
X10905357Y-17838500D01*
X10876786Y-17824214D01*
X10819643Y-17824214D01*
X10791071Y-17838500D01*
X10776786Y-17852786D01*
X10762500Y-17881357D01*
X10762500Y-17952786D01*
X10776786Y-17981357D01*
X10791071Y-17995643D01*
X10819643Y-18009929D01*
X10876786Y-18009929D01*
X10905357Y-17995643D01*
X10919643Y-17981357D01*
X10933928Y-17952786D01*
X11048214Y-17824214D02*
X11048214Y-17881357D01*
X11162500Y-17824214D02*
X11162500Y-17881357D01*
X11605357Y-18238500D02*
X11591071Y-18224214D01*
X11562500Y-18181357D01*
X11548214Y-18152786D01*
X11533928Y-18109929D01*
X11519643Y-18038500D01*
X11519643Y-17981357D01*
X11533928Y-17909929D01*
X11548214Y-17867072D01*
X11562500Y-17838500D01*
X11591071Y-17795643D01*
X11605357Y-17781357D01*
X11762500Y-17952786D02*
X11733928Y-17938500D01*
X11719643Y-17924214D01*
X11705357Y-17895643D01*
X11705357Y-17881357D01*
X11719643Y-17852786D01*
X11733928Y-17838500D01*
X11762500Y-17824214D01*
X11819643Y-17824214D01*
X11848214Y-17838500D01*
X11862500Y-17852786D01*
X11876786Y-17881357D01*
X11876786Y-17895643D01*
X11862500Y-17924214D01*
X11848214Y-17938500D01*
X11819643Y-17952786D01*
X11762500Y-17952786D01*
X11733928Y-17967072D01*
X11719643Y-17981357D01*
X11705357Y-18009929D01*
X11705357Y-18067072D01*
X11719643Y-18095643D01*
X11733928Y-18109929D01*
X11762500Y-18124214D01*
X11819643Y-18124214D01*
X11848214Y-18109929D01*
X11862500Y-18095643D01*
X11876786Y-18067072D01*
X11876786Y-18009929D01*
X11862500Y-17981357D01*
X11848214Y-17967072D01*
X11819643Y-17952786D01*
X12233928Y-18124214D02*
X12233928Y-17824214D01*
X12362500Y-18124214D02*
X12362500Y-17967072D01*
X12348214Y-17938500D01*
X12319643Y-17924214D01*
X12276786Y-17924214D01*
X12248214Y-17938500D01*
X12233928Y-17952786D01*
X12548214Y-18124214D02*
X12519643Y-18109929D01*
X12505357Y-18095643D01*
X12491071Y-18067072D01*
X12491071Y-17981357D01*
X12505357Y-17952786D01*
X12519643Y-17938500D01*
X12548214Y-17924214D01*
X12591071Y-17924214D01*
X12619643Y-17938500D01*
X12633928Y-17952786D01*
X12648214Y-17981357D01*
X12648214Y-18067072D01*
X12633928Y-18095643D01*
X12619643Y-18109929D01*
X12591071Y-18124214D01*
X12548214Y-18124214D01*
X12819643Y-18124214D02*
X12791071Y-18109929D01*
X12776786Y-18081357D01*
X12776786Y-17824214D01*
X13048214Y-18109929D02*
X13019643Y-18124214D01*
X12962500Y-18124214D01*
X12933928Y-18109929D01*
X12919643Y-18081357D01*
X12919643Y-17967072D01*
X12933928Y-17938500D01*
X12962500Y-17924214D01*
X13019643Y-17924214D01*
X13048214Y-17938500D01*
X13062500Y-17967072D01*
X13062500Y-17995643D01*
X12919643Y-18024214D01*
X13176786Y-18109929D02*
X13205357Y-18124214D01*
X13262500Y-18124214D01*
X13291071Y-18109929D01*
X13305357Y-18081357D01*
X13305357Y-18067072D01*
X13291071Y-18038500D01*
X13262500Y-18024214D01*
X13219643Y-18024214D01*
X13191071Y-18009929D01*
X13176786Y-17981357D01*
X13176786Y-17967072D01*
X13191071Y-17938500D01*
X13219643Y-17924214D01*
X13262500Y-17924214D01*
X13291071Y-17938500D01*
X13405357Y-18238500D02*
X13419643Y-18224214D01*
X13448214Y-18181357D01*
X13462500Y-18152786D01*
X13476786Y-18109929D01*
X13491071Y-18038500D01*
X13491071Y-17981357D01*
X13476786Y-17909929D01*
X13462500Y-17867072D01*
X13448214Y-17838500D01*
X13419643Y-17795643D01*
X13405357Y-17781357D01*
X13948214Y-18238500D02*
X13933928Y-18224214D01*
X13905357Y-18181357D01*
X13891071Y-18152786D01*
X13876786Y-18109929D01*
X13862500Y-18038500D01*
X13862500Y-17981357D01*
X13876786Y-17909929D01*
X13891071Y-17867072D01*
X13905357Y-17838500D01*
X13933928Y-17795643D01*
X13948214Y-17781357D01*
X14062500Y-17924214D02*
X14062500Y-18124214D01*
X14062500Y-17952786D02*
X14076786Y-17938500D01*
X14105357Y-17924214D01*
X14148214Y-17924214D01*
X14176786Y-17938500D01*
X14191071Y-17967072D01*
X14191071Y-18124214D01*
X14376786Y-18124214D02*
X14348214Y-18109929D01*
X14333928Y-18095643D01*
X14319643Y-18067072D01*
X14319643Y-17981357D01*
X14333928Y-17952786D01*
X14348214Y-17938500D01*
X14376786Y-17924214D01*
X14419643Y-17924214D01*
X14448214Y-17938500D01*
X14462500Y-17952786D01*
X14476786Y-17981357D01*
X14476786Y-18067072D01*
X14462500Y-18095643D01*
X14448214Y-18109929D01*
X14419643Y-18124214D01*
X14376786Y-18124214D01*
X14562500Y-17924214D02*
X14676786Y-17924214D01*
X14605357Y-17824214D02*
X14605357Y-18081357D01*
X14619643Y-18109929D01*
X14648214Y-18124214D01*
X14676786Y-18124214D01*
X15005357Y-17924214D02*
X15005357Y-18224214D01*
X15005357Y-17938500D02*
X15033928Y-17924214D01*
X15091071Y-17924214D01*
X15119643Y-17938500D01*
X15133928Y-17952786D01*
X15148214Y-17981357D01*
X15148214Y-18067072D01*
X15133928Y-18095643D01*
X15119643Y-18109929D01*
X15091071Y-18124214D01*
X15033928Y-18124214D01*
X15005357Y-18109929D01*
X15319643Y-18124214D02*
X15291071Y-18109929D01*
X15276786Y-18081357D01*
X15276786Y-17824214D01*
X15562500Y-18124214D02*
X15562500Y-17967072D01*
X15548214Y-17938500D01*
X15519643Y-17924214D01*
X15462500Y-17924214D01*
X15433928Y-17938500D01*
X15562500Y-18109929D02*
X15533928Y-18124214D01*
X15462500Y-18124214D01*
X15433928Y-18109929D01*
X15419643Y-18081357D01*
X15419643Y-18052786D01*
X15433928Y-18024214D01*
X15462500Y-18009929D01*
X15533928Y-18009929D01*
X15562500Y-17995643D01*
X15662500Y-17924214D02*
X15776786Y-17924214D01*
X15705357Y-17824214D02*
X15705357Y-18081357D01*
X15719643Y-18109929D01*
X15748214Y-18124214D01*
X15776786Y-18124214D01*
X15991071Y-18109929D02*
X15962500Y-18124214D01*
X15905357Y-18124214D01*
X15876786Y-18109929D01*
X15862500Y-18081357D01*
X15862500Y-17967072D01*
X15876786Y-17938500D01*
X15905357Y-17924214D01*
X15962500Y-17924214D01*
X15991071Y-17938500D01*
X16005357Y-17967072D01*
X16005357Y-17995643D01*
X15862500Y-18024214D01*
X16262500Y-18124214D02*
X16262500Y-17824214D01*
X16262500Y-18109929D02*
X16233928Y-18124214D01*
X16176786Y-18124214D01*
X16148214Y-18109929D01*
X16133928Y-18095643D01*
X16119643Y-18067072D01*
X16119643Y-17981357D01*
X16133928Y-17952786D01*
X16148214Y-17938500D01*
X16176786Y-17924214D01*
X16233928Y-17924214D01*
X16262500Y-17938500D01*
X16376786Y-18238500D02*
X16391071Y-18224214D01*
X16419643Y-18181357D01*
X16433928Y-18152786D01*
X16448214Y-18109929D01*
X16462500Y-18038500D01*
X16462500Y-17981357D01*
X16448214Y-17909929D01*
X16433928Y-17867072D01*
X16419643Y-17838500D01*
X16391071Y-17795643D01*
X16376786Y-17781357D01*
M02*
