G04 #@! TF.GenerationSoftware,KiCad,Pcbnew,5.1.12-1.fc34*
G04 #@! TF.CreationDate,2022-01-17T21:01:31+01:00*
G04 #@! TF.ProjectId,vcf-panel,7663662d-7061-46e6-956c-2e6b69636164,rev?*
G04 #@! TF.SameCoordinates,Original*
G04 #@! TF.FileFunction,Legend,Top*
G04 #@! TF.FilePolarity,Positive*
%FSLAX46Y46*%
G04 Gerber Fmt 4.6, Leading zero omitted, Abs format (unit mm)*
G04 Created by KiCad (PCBNEW 5.1.12-1.fc34) date 2022-01-17 21:01:31*
%MOMM*%
%LPD*%
G01*
G04 APERTURE LIST*
%ADD10C,0.300000*%
%ADD11C,0.120000*%
%ADD12C,0.150000*%
%ADD13C,6.500000*%
%ADD14C,6.400000*%
G04 APERTURE END LIST*
D10*
X104904839Y-118962714D02*
X105666839Y-112866714D01*
X107989125Y-112866714D01*
X108533410Y-113157000D01*
X108787410Y-113447285D01*
X109005125Y-114027857D01*
X108896267Y-114898714D01*
X108533410Y-115479285D01*
X108206839Y-115769571D01*
X107589982Y-116059857D01*
X105267696Y-116059857D01*
X110928267Y-117221000D02*
X113831125Y-117221000D01*
X110129982Y-118962714D02*
X112923982Y-112866714D01*
X114193982Y-118962714D01*
X119128839Y-118962714D02*
X116225982Y-118962714D01*
X116987982Y-112866714D01*
X128236553Y-115769571D02*
X126204553Y-115769571D01*
X125805410Y-118962714D02*
X126567410Y-112866714D01*
X129470267Y-112866714D01*
X131030553Y-118962714D02*
X131538553Y-114898714D01*
X131792553Y-112866714D02*
X131465982Y-113157000D01*
X131719982Y-113447285D01*
X132046553Y-113157000D01*
X131792553Y-112866714D01*
X131719982Y-113447285D01*
X134804267Y-118962714D02*
X134259982Y-118672428D01*
X134042267Y-118091857D01*
X134695410Y-112866714D01*
X136763696Y-114898714D02*
X139085982Y-114898714D01*
X137888553Y-112866714D02*
X137235410Y-118091857D01*
X137453125Y-118672428D01*
X137997410Y-118962714D01*
X138577982Y-118962714D01*
X142968553Y-118672428D02*
X142351696Y-118962714D01*
X141190553Y-118962714D01*
X140646267Y-118672428D01*
X140428553Y-118091857D01*
X140718839Y-115769571D01*
X141081696Y-115189000D01*
X141698553Y-114898714D01*
X142859696Y-114898714D01*
X143403982Y-115189000D01*
X143621696Y-115769571D01*
X143549125Y-116350142D01*
X140573696Y-116930714D01*
X145835125Y-118962714D02*
X146343125Y-114898714D01*
X146197982Y-116059857D02*
X146560839Y-115479285D01*
X146887410Y-115189000D01*
X147504267Y-114898714D01*
X148084839Y-114898714D01*
X104269839Y-118327714D02*
X105031839Y-112231714D01*
X107354125Y-112231714D01*
X107898410Y-112522000D01*
X108152410Y-112812285D01*
X108370125Y-113392857D01*
X108261267Y-114263714D01*
X107898410Y-114844285D01*
X107571839Y-115134571D01*
X106954982Y-115424857D01*
X104632696Y-115424857D01*
X110293267Y-116586000D02*
X113196125Y-116586000D01*
X109494982Y-118327714D02*
X112288982Y-112231714D01*
X113558982Y-118327714D01*
X118493839Y-118327714D02*
X115590982Y-118327714D01*
X116352982Y-112231714D01*
X127601553Y-115134571D02*
X125569553Y-115134571D01*
X125170410Y-118327714D02*
X125932410Y-112231714D01*
X128835267Y-112231714D01*
X130395553Y-118327714D02*
X130903553Y-114263714D01*
X131157553Y-112231714D02*
X130830982Y-112522000D01*
X131084982Y-112812285D01*
X131411553Y-112522000D01*
X131157553Y-112231714D01*
X131084982Y-112812285D01*
X134169267Y-118327714D02*
X133624982Y-118037428D01*
X133407267Y-117456857D01*
X134060410Y-112231714D01*
X136128696Y-114263714D02*
X138450982Y-114263714D01*
X137253553Y-112231714D02*
X136600410Y-117456857D01*
X136818125Y-118037428D01*
X137362410Y-118327714D01*
X137942982Y-118327714D01*
X142333553Y-118037428D02*
X141716696Y-118327714D01*
X140555553Y-118327714D01*
X140011267Y-118037428D01*
X139793553Y-117456857D01*
X140083839Y-115134571D01*
X140446696Y-114554000D01*
X141063553Y-114263714D01*
X142224696Y-114263714D01*
X142768982Y-114554000D01*
X142986696Y-115134571D01*
X142914125Y-115715142D01*
X139938696Y-116295714D01*
X145200125Y-118327714D02*
X145708125Y-114263714D01*
X145562982Y-115424857D02*
X145925839Y-114844285D01*
X146252410Y-114554000D01*
X146869267Y-114263714D01*
X147449839Y-114263714D01*
X103634839Y-117692714D02*
X104396839Y-111596714D01*
X106719125Y-111596714D01*
X107263410Y-111887000D01*
X107517410Y-112177285D01*
X107735125Y-112757857D01*
X107626267Y-113628714D01*
X107263410Y-114209285D01*
X106936839Y-114499571D01*
X106319982Y-114789857D01*
X103997696Y-114789857D01*
X109658267Y-115951000D02*
X112561125Y-115951000D01*
X108859982Y-117692714D02*
X111653982Y-111596714D01*
X112923982Y-117692714D01*
X117858839Y-117692714D02*
X114955982Y-117692714D01*
X115717982Y-111596714D01*
X126966553Y-114499571D02*
X124934553Y-114499571D01*
X124535410Y-117692714D02*
X125297410Y-111596714D01*
X128200267Y-111596714D01*
X129760553Y-117692714D02*
X130268553Y-113628714D01*
X130522553Y-111596714D02*
X130195982Y-111887000D01*
X130449982Y-112177285D01*
X130776553Y-111887000D01*
X130522553Y-111596714D01*
X130449982Y-112177285D01*
X133534267Y-117692714D02*
X132989982Y-117402428D01*
X132772267Y-116821857D01*
X133425410Y-111596714D01*
X135493696Y-113628714D02*
X137815982Y-113628714D01*
X136618553Y-111596714D02*
X135965410Y-116821857D01*
X136183125Y-117402428D01*
X136727410Y-117692714D01*
X137307982Y-117692714D01*
X141698553Y-117402428D02*
X141081696Y-117692714D01*
X139920553Y-117692714D01*
X139376267Y-117402428D01*
X139158553Y-116821857D01*
X139448839Y-114499571D01*
X139811696Y-113919000D01*
X140428553Y-113628714D01*
X141589696Y-113628714D01*
X142133982Y-113919000D01*
X142351696Y-114499571D01*
X142279125Y-115080142D01*
X139303696Y-115660714D01*
X144565125Y-117692714D02*
X145073125Y-113628714D01*
X144927982Y-114789857D02*
X145290839Y-114209285D01*
X145617410Y-113919000D01*
X146234267Y-113628714D01*
X146814839Y-113628714D01*
X102999839Y-117057714D02*
X103761839Y-110961714D01*
X106084125Y-110961714D01*
X106628410Y-111252000D01*
X106882410Y-111542285D01*
X107100125Y-112122857D01*
X106991267Y-112993714D01*
X106628410Y-113574285D01*
X106301839Y-113864571D01*
X105684982Y-114154857D01*
X103362696Y-114154857D01*
X109023267Y-115316000D02*
X111926125Y-115316000D01*
X108224982Y-117057714D02*
X111018982Y-110961714D01*
X112288982Y-117057714D01*
X117223839Y-117057714D02*
X114320982Y-117057714D01*
X115082982Y-110961714D01*
X126331553Y-113864571D02*
X124299553Y-113864571D01*
X123900410Y-117057714D02*
X124662410Y-110961714D01*
X127565267Y-110961714D01*
X129125553Y-117057714D02*
X129633553Y-112993714D01*
X129887553Y-110961714D02*
X129560982Y-111252000D01*
X129814982Y-111542285D01*
X130141553Y-111252000D01*
X129887553Y-110961714D01*
X129814982Y-111542285D01*
X132899267Y-117057714D02*
X132354982Y-116767428D01*
X132137267Y-116186857D01*
X132790410Y-110961714D01*
X134858696Y-112993714D02*
X137180982Y-112993714D01*
X135983553Y-110961714D02*
X135330410Y-116186857D01*
X135548125Y-116767428D01*
X136092410Y-117057714D01*
X136672982Y-117057714D01*
X141063553Y-116767428D02*
X140446696Y-117057714D01*
X139285553Y-117057714D01*
X138741267Y-116767428D01*
X138523553Y-116186857D01*
X138813839Y-113864571D01*
X139176696Y-113284000D01*
X139793553Y-112993714D01*
X140954696Y-112993714D01*
X141498982Y-113284000D01*
X141716696Y-113864571D01*
X141644125Y-114445142D01*
X138668696Y-115025714D01*
X143930125Y-117057714D02*
X144438125Y-112993714D01*
X144292982Y-114154857D02*
X144655839Y-113574285D01*
X144982410Y-113284000D01*
X145599267Y-112993714D01*
X146179839Y-112993714D01*
X102364839Y-116422714D02*
X103126839Y-110326714D01*
X105449125Y-110326714D01*
X105993410Y-110617000D01*
X106247410Y-110907285D01*
X106465125Y-111487857D01*
X106356267Y-112358714D01*
X105993410Y-112939285D01*
X105666839Y-113229571D01*
X105049982Y-113519857D01*
X102727696Y-113519857D01*
X108388267Y-114681000D02*
X111291125Y-114681000D01*
X107589982Y-116422714D02*
X110383982Y-110326714D01*
X111653982Y-116422714D01*
X116588839Y-116422714D02*
X113685982Y-116422714D01*
X114447982Y-110326714D01*
X125696553Y-113229571D02*
X123664553Y-113229571D01*
X123265410Y-116422714D02*
X124027410Y-110326714D01*
X126930267Y-110326714D01*
X128490553Y-116422714D02*
X128998553Y-112358714D01*
X129252553Y-110326714D02*
X128925982Y-110617000D01*
X129179982Y-110907285D01*
X129506553Y-110617000D01*
X129252553Y-110326714D01*
X129179982Y-110907285D01*
X132264267Y-116422714D02*
X131719982Y-116132428D01*
X131502267Y-115551857D01*
X132155410Y-110326714D01*
X134223696Y-112358714D02*
X136545982Y-112358714D01*
X135348553Y-110326714D02*
X134695410Y-115551857D01*
X134913125Y-116132428D01*
X135457410Y-116422714D01*
X136037982Y-116422714D01*
X140428553Y-116132428D02*
X139811696Y-116422714D01*
X138650553Y-116422714D01*
X138106267Y-116132428D01*
X137888553Y-115551857D01*
X138178839Y-113229571D01*
X138541696Y-112649000D01*
X139158553Y-112358714D01*
X140319696Y-112358714D01*
X140863982Y-112649000D01*
X141081696Y-113229571D01*
X141009125Y-113810142D01*
X138033696Y-114390714D01*
X143295125Y-116422714D02*
X143803125Y-112358714D01*
X143657982Y-113519857D02*
X144020839Y-112939285D01*
X144347410Y-112649000D01*
X144964267Y-112358714D01*
X145544839Y-112358714D01*
X101729839Y-115787714D02*
X102491839Y-109691714D01*
X104814125Y-109691714D01*
X105358410Y-109982000D01*
X105612410Y-110272285D01*
X105830125Y-110852857D01*
X105721267Y-111723714D01*
X105358410Y-112304285D01*
X105031839Y-112594571D01*
X104414982Y-112884857D01*
X102092696Y-112884857D01*
X107753267Y-114046000D02*
X110656125Y-114046000D01*
X106954982Y-115787714D02*
X109748982Y-109691714D01*
X111018982Y-115787714D01*
X115953839Y-115787714D02*
X113050982Y-115787714D01*
X113812982Y-109691714D01*
X125061553Y-112594571D02*
X123029553Y-112594571D01*
X122630410Y-115787714D02*
X123392410Y-109691714D01*
X126295267Y-109691714D01*
X127855553Y-115787714D02*
X128363553Y-111723714D01*
X128617553Y-109691714D02*
X128290982Y-109982000D01*
X128544982Y-110272285D01*
X128871553Y-109982000D01*
X128617553Y-109691714D01*
X128544982Y-110272285D01*
X131629267Y-115787714D02*
X131084982Y-115497428D01*
X130867267Y-114916857D01*
X131520410Y-109691714D01*
X133588696Y-111723714D02*
X135910982Y-111723714D01*
X134713553Y-109691714D02*
X134060410Y-114916857D01*
X134278125Y-115497428D01*
X134822410Y-115787714D01*
X135402982Y-115787714D01*
X139793553Y-115497428D02*
X139176696Y-115787714D01*
X138015553Y-115787714D01*
X137471267Y-115497428D01*
X137253553Y-114916857D01*
X137543839Y-112594571D01*
X137906696Y-112014000D01*
X138523553Y-111723714D01*
X139684696Y-111723714D01*
X140228982Y-112014000D01*
X140446696Y-112594571D01*
X140374125Y-113175142D01*
X137398696Y-113755714D01*
X142660125Y-115787714D02*
X143168125Y-111723714D01*
X143022982Y-112884857D02*
X143385839Y-112304285D01*
X143712410Y-112014000D01*
X144329267Y-111723714D01*
X144909839Y-111723714D01*
X101094839Y-115152714D02*
X101856839Y-109056714D01*
X104179125Y-109056714D01*
X104723410Y-109347000D01*
X104977410Y-109637285D01*
X105195125Y-110217857D01*
X105086267Y-111088714D01*
X104723410Y-111669285D01*
X104396839Y-111959571D01*
X103779982Y-112249857D01*
X101457696Y-112249857D01*
X107118267Y-113411000D02*
X110021125Y-113411000D01*
X106319982Y-115152714D02*
X109113982Y-109056714D01*
X110383982Y-115152714D01*
X115318839Y-115152714D02*
X112415982Y-115152714D01*
X113177982Y-109056714D01*
X124426553Y-111959571D02*
X122394553Y-111959571D01*
X121995410Y-115152714D02*
X122757410Y-109056714D01*
X125660267Y-109056714D01*
X127220553Y-115152714D02*
X127728553Y-111088714D01*
X127982553Y-109056714D02*
X127655982Y-109347000D01*
X127909982Y-109637285D01*
X128236553Y-109347000D01*
X127982553Y-109056714D01*
X127909982Y-109637285D01*
X130994267Y-115152714D02*
X130449982Y-114862428D01*
X130232267Y-114281857D01*
X130885410Y-109056714D01*
X132953696Y-111088714D02*
X135275982Y-111088714D01*
X134078553Y-109056714D02*
X133425410Y-114281857D01*
X133643125Y-114862428D01*
X134187410Y-115152714D01*
X134767982Y-115152714D01*
X139158553Y-114862428D02*
X138541696Y-115152714D01*
X137380553Y-115152714D01*
X136836267Y-114862428D01*
X136618553Y-114281857D01*
X136908839Y-111959571D01*
X137271696Y-111379000D01*
X137888553Y-111088714D01*
X139049696Y-111088714D01*
X139593982Y-111379000D01*
X139811696Y-111959571D01*
X139739125Y-112540142D01*
X136763696Y-113120714D01*
X142025125Y-115152714D02*
X142533125Y-111088714D01*
X142387982Y-112249857D02*
X142750839Y-111669285D01*
X143077410Y-111379000D01*
X143694267Y-111088714D01*
X144274839Y-111088714D01*
X96560000Y-153078571D02*
X96560000Y-151578571D01*
X97060000Y-152650000D01*
X97560000Y-151578571D01*
X97560000Y-153078571D01*
X98488571Y-153078571D02*
X98345714Y-153007142D01*
X98274285Y-152935714D01*
X98202857Y-152792857D01*
X98202857Y-152364285D01*
X98274285Y-152221428D01*
X98345714Y-152150000D01*
X98488571Y-152078571D01*
X98702857Y-152078571D01*
X98845714Y-152150000D01*
X98917142Y-152221428D01*
X98988571Y-152364285D01*
X98988571Y-152792857D01*
X98917142Y-152935714D01*
X98845714Y-153007142D01*
X98702857Y-153078571D01*
X98488571Y-153078571D01*
X100274285Y-153078571D02*
X100274285Y-151578571D01*
X100274285Y-153007142D02*
X100131428Y-153078571D01*
X99845714Y-153078571D01*
X99702857Y-153007142D01*
X99631428Y-152935714D01*
X99560000Y-152792857D01*
X99560000Y-152364285D01*
X99631428Y-152221428D01*
X99702857Y-152150000D01*
X99845714Y-152078571D01*
X100131428Y-152078571D01*
X100274285Y-152150000D01*
X101560000Y-153007142D02*
X101417142Y-153078571D01*
X101131428Y-153078571D01*
X100988571Y-153007142D01*
X100917142Y-152864285D01*
X100917142Y-152292857D01*
X100988571Y-152150000D01*
X101131428Y-152078571D01*
X101417142Y-152078571D01*
X101560000Y-152150000D01*
X101631428Y-152292857D01*
X101631428Y-152435714D01*
X100917142Y-152578571D01*
X141355000Y-84998214D02*
X141355000Y-85712500D01*
X140926428Y-84801785D02*
X142426428Y-85489285D01*
X140926428Y-85801785D01*
X141926428Y-86212500D02*
X141926428Y-86783928D01*
X142426428Y-86489285D02*
X141140714Y-86328571D01*
X140997857Y-86382142D01*
X140926428Y-86516071D01*
X140926428Y-86658928D01*
X141926428Y-87069642D02*
X141926428Y-87641071D01*
X142426428Y-87346428D02*
X141140714Y-87185714D01*
X140997857Y-87239285D01*
X140926428Y-87373214D01*
X140926428Y-87516071D01*
D11*
X141605000Y-83820000D02*
X149225000Y-83820000D01*
D10*
X125916428Y-85489285D02*
X125916428Y-85775000D01*
X125845000Y-85908928D01*
X125702142Y-86033928D01*
X125416428Y-86069642D01*
X124916428Y-86007142D01*
X124630714Y-85900000D01*
X124487857Y-85739285D01*
X124416428Y-85587500D01*
X124416428Y-85301785D01*
X124487857Y-85167857D01*
X124630714Y-85042857D01*
X124916428Y-85007142D01*
X125416428Y-85069642D01*
X125702142Y-85176785D01*
X125845000Y-85337500D01*
X125916428Y-85489285D01*
X125416428Y-86498214D02*
X125416428Y-87069642D01*
X124416428Y-86587500D02*
X125702142Y-86748214D01*
X125845000Y-86837500D01*
X125916428Y-86989285D01*
X125916428Y-87132142D01*
X125416428Y-87355357D02*
X125416428Y-87926785D01*
X124416428Y-87444642D02*
X125702142Y-87605357D01*
X125845000Y-87694642D01*
X125916428Y-87846428D01*
X125916428Y-87989285D01*
X124487857Y-88239285D02*
X124416428Y-88373214D01*
X124416428Y-88658928D01*
X124487857Y-88810714D01*
X124630714Y-88900000D01*
X124702142Y-88908928D01*
X124845000Y-88855357D01*
X124916428Y-88721428D01*
X124916428Y-88507142D01*
X124987857Y-88373214D01*
X125130714Y-88319642D01*
X125202142Y-88328571D01*
X125345000Y-88417857D01*
X125416428Y-88569642D01*
X125416428Y-88783928D01*
X125345000Y-88917857D01*
X124487857Y-90096428D02*
X124416428Y-89944642D01*
X124416428Y-89658928D01*
X124487857Y-89525000D01*
X124630714Y-89471428D01*
X125202142Y-89542857D01*
X125345000Y-89632142D01*
X125416428Y-89783928D01*
X125416428Y-90069642D01*
X125345000Y-90203571D01*
X125202142Y-90257142D01*
X125059285Y-90239285D01*
X124916428Y-89507142D01*
X125416428Y-90712500D02*
X125416428Y-91283928D01*
X125916428Y-90989285D02*
X124630714Y-90828571D01*
X124487857Y-90882142D01*
X124416428Y-91016071D01*
X124416428Y-91158928D01*
X108335000Y-84998214D02*
X108335000Y-85712500D01*
X107906428Y-84801785D02*
X109406428Y-85489285D01*
X107906428Y-85801785D01*
X108906428Y-86212500D02*
X108906428Y-86783928D01*
X109406428Y-86489285D02*
X108120714Y-86328571D01*
X107977857Y-86382142D01*
X107906428Y-86516071D01*
X107906428Y-86658928D01*
X108906428Y-87069642D02*
X108906428Y-87641071D01*
X109406428Y-87346428D02*
X108120714Y-87185714D01*
X107977857Y-87239285D01*
X107906428Y-87373214D01*
X107906428Y-87516071D01*
D11*
X108585000Y-83820000D02*
X108585000Y-80645000D01*
X125095000Y-83820000D02*
X125095000Y-80645000D01*
X141605000Y-83820000D02*
X141605000Y-80645000D01*
X99695000Y-83820000D02*
X125095000Y-83820000D01*
D10*
X83093214Y-129155000D02*
X83807500Y-129155000D01*
X82896785Y-129583571D02*
X83584285Y-128083571D01*
X83896785Y-129583571D01*
X84307500Y-128583571D02*
X84878928Y-128583571D01*
X84584285Y-128083571D02*
X84423571Y-129369285D01*
X84477142Y-129512142D01*
X84611071Y-129583571D01*
X84753928Y-129583571D01*
X85164642Y-128583571D02*
X85736071Y-128583571D01*
X85441428Y-128083571D02*
X85280714Y-129369285D01*
X85334285Y-129512142D01*
X85468214Y-129583571D01*
X85611071Y-129583571D01*
X83986071Y-112295714D02*
X83905714Y-112367142D01*
X83682500Y-112438571D01*
X83539642Y-112438571D01*
X83334285Y-112367142D01*
X83209285Y-112224285D01*
X83155714Y-112081428D01*
X83120000Y-111795714D01*
X83146785Y-111581428D01*
X83253928Y-111295714D01*
X83343214Y-111152857D01*
X83503928Y-111010000D01*
X83727142Y-110938571D01*
X83870000Y-110938571D01*
X84075357Y-111010000D01*
X84137857Y-111081428D01*
X84825357Y-112438571D02*
X84691428Y-112367142D01*
X84628928Y-112295714D01*
X84575357Y-112152857D01*
X84628928Y-111724285D01*
X84718214Y-111581428D01*
X84798571Y-111510000D01*
X84950357Y-111438571D01*
X85164642Y-111438571D01*
X85298571Y-111510000D01*
X85361071Y-111581428D01*
X85414642Y-111724285D01*
X85361071Y-112152857D01*
X85271785Y-112295714D01*
X85191428Y-112367142D01*
X85039642Y-112438571D01*
X84825357Y-112438571D01*
X86611071Y-112438571D02*
X86709285Y-111652857D01*
X86655714Y-111510000D01*
X86521785Y-111438571D01*
X86236071Y-111438571D01*
X86084285Y-111510000D01*
X86620000Y-112367142D02*
X86468214Y-112438571D01*
X86111071Y-112438571D01*
X85977142Y-112367142D01*
X85923571Y-112224285D01*
X85941428Y-112081428D01*
X86030714Y-111938571D01*
X86182500Y-111867142D01*
X86539642Y-111867142D01*
X86691428Y-111795714D01*
X87325357Y-112438571D02*
X87450357Y-111438571D01*
X87414642Y-111724285D02*
X87503928Y-111581428D01*
X87584285Y-111510000D01*
X87736071Y-111438571D01*
X87878928Y-111438571D01*
X88191428Y-112367142D02*
X88325357Y-112438571D01*
X88611071Y-112438571D01*
X88762857Y-112367142D01*
X88852142Y-112224285D01*
X88861071Y-112152857D01*
X88807500Y-112010000D01*
X88673571Y-111938571D01*
X88459285Y-111938571D01*
X88325357Y-111867142D01*
X88271785Y-111724285D01*
X88280714Y-111652857D01*
X88370000Y-111510000D01*
X88521785Y-111438571D01*
X88736071Y-111438571D01*
X88870000Y-111510000D01*
X90048571Y-112367142D02*
X89896785Y-112438571D01*
X89611071Y-112438571D01*
X89477142Y-112367142D01*
X89423571Y-112224285D01*
X89495000Y-111652857D01*
X89584285Y-111510000D01*
X89736071Y-111438571D01*
X90021785Y-111438571D01*
X90155714Y-111510000D01*
X90209285Y-111652857D01*
X90191428Y-111795714D01*
X89459285Y-111938571D01*
X83709285Y-94507857D02*
X83209285Y-94507857D01*
X83111071Y-95293571D02*
X83298571Y-93793571D01*
X84012857Y-93793571D01*
X84396785Y-95293571D02*
X84521785Y-94293571D01*
X84584285Y-93793571D02*
X84503928Y-93865000D01*
X84566428Y-93936428D01*
X84646785Y-93865000D01*
X84584285Y-93793571D01*
X84566428Y-93936428D01*
X85236071Y-94293571D02*
X85111071Y-95293571D01*
X85218214Y-94436428D02*
X85298571Y-94365000D01*
X85450357Y-94293571D01*
X85664642Y-94293571D01*
X85798571Y-94365000D01*
X85852142Y-94507857D01*
X85753928Y-95293571D01*
X87048571Y-95222142D02*
X86896785Y-95293571D01*
X86611071Y-95293571D01*
X86477142Y-95222142D01*
X86423571Y-95079285D01*
X86495000Y-94507857D01*
X86584285Y-94365000D01*
X86736071Y-94293571D01*
X87021785Y-94293571D01*
X87155714Y-94365000D01*
X87209285Y-94507857D01*
X87191428Y-94650714D01*
X86459285Y-94793571D01*
D12*
X74930000Y-94615000D02*
X81915000Y-94615000D01*
X74930000Y-111760000D02*
X81915000Y-111760000D01*
X81915000Y-128905000D02*
X74930000Y-128905000D01*
X81915000Y-85725000D02*
X81915000Y-128905000D01*
D10*
X149090714Y-142490000D02*
X149805000Y-142490000D01*
X148947857Y-142918571D02*
X149447857Y-141418571D01*
X149947857Y-142918571D01*
X151090714Y-141918571D02*
X151090714Y-142918571D01*
X150447857Y-141918571D02*
X150447857Y-142704285D01*
X150519285Y-142847142D01*
X150662142Y-142918571D01*
X150876428Y-142918571D01*
X151019285Y-142847142D01*
X151090714Y-142775714D01*
X152447857Y-142918571D02*
X152447857Y-141418571D01*
X152447857Y-142847142D02*
X152305000Y-142918571D01*
X152019285Y-142918571D01*
X151876428Y-142847142D01*
X151805000Y-142775714D01*
X151733571Y-142632857D01*
X151733571Y-142204285D01*
X151805000Y-142061428D01*
X151876428Y-141990000D01*
X152019285Y-141918571D01*
X152305000Y-141918571D01*
X152447857Y-141990000D01*
X153162142Y-142918571D02*
X153162142Y-141918571D01*
X153162142Y-141418571D02*
X153090714Y-141490000D01*
X153162142Y-141561428D01*
X153233571Y-141490000D01*
X153162142Y-141418571D01*
X153162142Y-141561428D01*
X154090714Y-142918571D02*
X153947857Y-142847142D01*
X153876428Y-142775714D01*
X153805000Y-142632857D01*
X153805000Y-142204285D01*
X153876428Y-142061428D01*
X153947857Y-141990000D01*
X154090714Y-141918571D01*
X154305000Y-141918571D01*
X154447857Y-141990000D01*
X154519285Y-142061428D01*
X154590714Y-142204285D01*
X154590714Y-142632857D01*
X154519285Y-142775714D01*
X154447857Y-142847142D01*
X154305000Y-142918571D01*
X154090714Y-142918571D01*
X156662142Y-141418571D02*
X156947857Y-141418571D01*
X157090714Y-141490000D01*
X157233571Y-141632857D01*
X157305000Y-141918571D01*
X157305000Y-142418571D01*
X157233571Y-142704285D01*
X157090714Y-142847142D01*
X156947857Y-142918571D01*
X156662142Y-142918571D01*
X156519285Y-142847142D01*
X156376428Y-142704285D01*
X156305000Y-142418571D01*
X156305000Y-141918571D01*
X156376428Y-141632857D01*
X156519285Y-141490000D01*
X156662142Y-141418571D01*
X158590714Y-141918571D02*
X158590714Y-142918571D01*
X157947857Y-141918571D02*
X157947857Y-142704285D01*
X158019285Y-142847142D01*
X158162142Y-142918571D01*
X158376428Y-142918571D01*
X158519285Y-142847142D01*
X158590714Y-142775714D01*
X159090714Y-141918571D02*
X159662142Y-141918571D01*
X159305000Y-141418571D02*
X159305000Y-142704285D01*
X159376428Y-142847142D01*
X159519285Y-142918571D01*
X159662142Y-142918571D01*
X138049285Y-142132857D02*
X138263571Y-142204285D01*
X138335000Y-142275714D01*
X138406428Y-142418571D01*
X138406428Y-142632857D01*
X138335000Y-142775714D01*
X138263571Y-142847142D01*
X138120714Y-142918571D01*
X137549285Y-142918571D01*
X137549285Y-141418571D01*
X138049285Y-141418571D01*
X138192142Y-141490000D01*
X138263571Y-141561428D01*
X138335000Y-141704285D01*
X138335000Y-141847142D01*
X138263571Y-141990000D01*
X138192142Y-142061428D01*
X138049285Y-142132857D01*
X137549285Y-142132857D01*
X139263571Y-142918571D02*
X139120714Y-142847142D01*
X139049285Y-142704285D01*
X139049285Y-141418571D01*
X140406428Y-142847142D02*
X140263571Y-142918571D01*
X139977857Y-142918571D01*
X139835000Y-142847142D01*
X139763571Y-142704285D01*
X139763571Y-142132857D01*
X139835000Y-141990000D01*
X139977857Y-141918571D01*
X140263571Y-141918571D01*
X140406428Y-141990000D01*
X140477857Y-142132857D01*
X140477857Y-142275714D01*
X139763571Y-142418571D01*
X141120714Y-141918571D02*
X141120714Y-142918571D01*
X141120714Y-142061428D02*
X141192142Y-141990000D01*
X141335000Y-141918571D01*
X141549285Y-141918571D01*
X141692142Y-141990000D01*
X141763571Y-142132857D01*
X141763571Y-142918571D01*
X143120714Y-142918571D02*
X143120714Y-141418571D01*
X143120714Y-142847142D02*
X142977857Y-142918571D01*
X142692142Y-142918571D01*
X142549285Y-142847142D01*
X142477857Y-142775714D01*
X142406428Y-142632857D01*
X142406428Y-142204285D01*
X142477857Y-142061428D01*
X142549285Y-141990000D01*
X142692142Y-141918571D01*
X142977857Y-141918571D01*
X143120714Y-141990000D01*
X149947857Y-84070000D02*
X150662142Y-84070000D01*
X149805000Y-84498571D02*
X150305000Y-82998571D01*
X150805000Y-84498571D01*
X151947857Y-83498571D02*
X151947857Y-84498571D01*
X151305000Y-83498571D02*
X151305000Y-84284285D01*
X151376428Y-84427142D01*
X151519285Y-84498571D01*
X151733571Y-84498571D01*
X151876428Y-84427142D01*
X151947857Y-84355714D01*
X153305000Y-84498571D02*
X153305000Y-82998571D01*
X153305000Y-84427142D02*
X153162142Y-84498571D01*
X152876428Y-84498571D01*
X152733571Y-84427142D01*
X152662142Y-84355714D01*
X152590714Y-84212857D01*
X152590714Y-83784285D01*
X152662142Y-83641428D01*
X152733571Y-83570000D01*
X152876428Y-83498571D01*
X153162142Y-83498571D01*
X153305000Y-83570000D01*
X154019285Y-84498571D02*
X154019285Y-83498571D01*
X154019285Y-82998571D02*
X153947857Y-83070000D01*
X154019285Y-83141428D01*
X154090714Y-83070000D01*
X154019285Y-82998571D01*
X154019285Y-83141428D01*
X154947857Y-84498571D02*
X154805000Y-84427142D01*
X154733571Y-84355714D01*
X154662142Y-84212857D01*
X154662142Y-83784285D01*
X154733571Y-83641428D01*
X154805000Y-83570000D01*
X154947857Y-83498571D01*
X155162142Y-83498571D01*
X155305000Y-83570000D01*
X155376428Y-83641428D01*
X155447857Y-83784285D01*
X155447857Y-84212857D01*
X155376428Y-84355714D01*
X155305000Y-84427142D01*
X155162142Y-84498571D01*
X154947857Y-84498571D01*
X157233571Y-84498571D02*
X157233571Y-82998571D01*
X157947857Y-83498571D02*
X157947857Y-84498571D01*
X157947857Y-83641428D02*
X158019285Y-83570000D01*
X158162142Y-83498571D01*
X158376428Y-83498571D01*
X158519285Y-83570000D01*
X158590714Y-83712857D01*
X158590714Y-84498571D01*
X87924285Y-84498571D02*
X87424285Y-83784285D01*
X87067142Y-84498571D02*
X87067142Y-82998571D01*
X87638571Y-82998571D01*
X87781428Y-83070000D01*
X87852857Y-83141428D01*
X87924285Y-83284285D01*
X87924285Y-83498571D01*
X87852857Y-83641428D01*
X87781428Y-83712857D01*
X87638571Y-83784285D01*
X87067142Y-83784285D01*
X89138571Y-84427142D02*
X88995714Y-84498571D01*
X88710000Y-84498571D01*
X88567142Y-84427142D01*
X88495714Y-84284285D01*
X88495714Y-83712857D01*
X88567142Y-83570000D01*
X88710000Y-83498571D01*
X88995714Y-83498571D01*
X89138571Y-83570000D01*
X89210000Y-83712857D01*
X89210000Y-83855714D01*
X88495714Y-83998571D01*
X89781428Y-84427142D02*
X89924285Y-84498571D01*
X90210000Y-84498571D01*
X90352857Y-84427142D01*
X90424285Y-84284285D01*
X90424285Y-84212857D01*
X90352857Y-84070000D01*
X90210000Y-83998571D01*
X89995714Y-83998571D01*
X89852857Y-83927142D01*
X89781428Y-83784285D01*
X89781428Y-83712857D01*
X89852857Y-83570000D01*
X89995714Y-83498571D01*
X90210000Y-83498571D01*
X90352857Y-83570000D01*
X91281428Y-84498571D02*
X91138571Y-84427142D01*
X91067142Y-84355714D01*
X90995714Y-84212857D01*
X90995714Y-83784285D01*
X91067142Y-83641428D01*
X91138571Y-83570000D01*
X91281428Y-83498571D01*
X91495714Y-83498571D01*
X91638571Y-83570000D01*
X91710000Y-83641428D01*
X91781428Y-83784285D01*
X91781428Y-84212857D01*
X91710000Y-84355714D01*
X91638571Y-84427142D01*
X91495714Y-84498571D01*
X91281428Y-84498571D01*
X92424285Y-83498571D02*
X92424285Y-84498571D01*
X92424285Y-83641428D02*
X92495714Y-83570000D01*
X92638571Y-83498571D01*
X92852857Y-83498571D01*
X92995714Y-83570000D01*
X93067142Y-83712857D01*
X93067142Y-84498571D01*
X94424285Y-84498571D02*
X94424285Y-83712857D01*
X94352857Y-83570000D01*
X94210000Y-83498571D01*
X93924285Y-83498571D01*
X93781428Y-83570000D01*
X94424285Y-84427142D02*
X94281428Y-84498571D01*
X93924285Y-84498571D01*
X93781428Y-84427142D01*
X93710000Y-84284285D01*
X93710000Y-84141428D01*
X93781428Y-83998571D01*
X93924285Y-83927142D01*
X94281428Y-83927142D01*
X94424285Y-83855714D01*
X95138571Y-83498571D02*
X95138571Y-84498571D01*
X95138571Y-83641428D02*
X95210000Y-83570000D01*
X95352857Y-83498571D01*
X95567142Y-83498571D01*
X95710000Y-83570000D01*
X95781428Y-83712857D01*
X95781428Y-84498571D01*
X97138571Y-84427142D02*
X96995714Y-84498571D01*
X96710000Y-84498571D01*
X96567142Y-84427142D01*
X96495714Y-84355714D01*
X96424285Y-84212857D01*
X96424285Y-83784285D01*
X96495714Y-83641428D01*
X96567142Y-83570000D01*
X96710000Y-83498571D01*
X96995714Y-83498571D01*
X97138571Y-83570000D01*
X98352857Y-84427142D02*
X98210000Y-84498571D01*
X97924285Y-84498571D01*
X97781428Y-84427142D01*
X97710000Y-84284285D01*
X97710000Y-83712857D01*
X97781428Y-83570000D01*
X97924285Y-83498571D01*
X98210000Y-83498571D01*
X98352857Y-83570000D01*
X98424285Y-83712857D01*
X98424285Y-83855714D01*
X97710000Y-83998571D01*
X79843571Y-83712857D02*
X79343571Y-83712857D01*
X79343571Y-84498571D02*
X79343571Y-82998571D01*
X80057857Y-82998571D01*
X80629285Y-84498571D02*
X80629285Y-83498571D01*
X80629285Y-82998571D02*
X80557857Y-83070000D01*
X80629285Y-83141428D01*
X80700714Y-83070000D01*
X80629285Y-82998571D01*
X80629285Y-83141428D01*
X81557857Y-84498571D02*
X81415000Y-84427142D01*
X81343571Y-84284285D01*
X81343571Y-82998571D01*
X81915000Y-83498571D02*
X82486428Y-83498571D01*
X82129285Y-82998571D02*
X82129285Y-84284285D01*
X82200714Y-84427142D01*
X82343571Y-84498571D01*
X82486428Y-84498571D01*
X83557857Y-84427142D02*
X83415000Y-84498571D01*
X83129285Y-84498571D01*
X82986428Y-84427142D01*
X82915000Y-84284285D01*
X82915000Y-83712857D01*
X82986428Y-83570000D01*
X83129285Y-83498571D01*
X83415000Y-83498571D01*
X83557857Y-83570000D01*
X83629285Y-83712857D01*
X83629285Y-83855714D01*
X82915000Y-83998571D01*
X84272142Y-84498571D02*
X84272142Y-83498571D01*
X84272142Y-83784285D02*
X84343571Y-83641428D01*
X84415000Y-83570000D01*
X84557857Y-83498571D01*
X84700714Y-83498571D01*
X68262857Y-84498571D02*
X67405714Y-84498571D01*
X67834285Y-84498571D02*
X67834285Y-82998571D01*
X67691428Y-83212857D01*
X67548571Y-83355714D01*
X67405714Y-83427142D01*
X68691428Y-82998571D02*
X69191428Y-84498571D01*
X69691428Y-82998571D01*
X71262857Y-82927142D02*
X69977142Y-84855714D01*
X72048571Y-82998571D02*
X72334285Y-82998571D01*
X72477142Y-83070000D01*
X72620000Y-83212857D01*
X72691428Y-83498571D01*
X72691428Y-83998571D01*
X72620000Y-84284285D01*
X72477142Y-84427142D01*
X72334285Y-84498571D01*
X72048571Y-84498571D01*
X71905714Y-84427142D01*
X71762857Y-84284285D01*
X71691428Y-83998571D01*
X71691428Y-83498571D01*
X71762857Y-83212857D01*
X71905714Y-83070000D01*
X72048571Y-82998571D01*
X73977142Y-84427142D02*
X73834285Y-84498571D01*
X73548571Y-84498571D01*
X73405714Y-84427142D01*
X73334285Y-84355714D01*
X73262857Y-84212857D01*
X73262857Y-83784285D01*
X73334285Y-83641428D01*
X73405714Y-83570000D01*
X73548571Y-83498571D01*
X73834285Y-83498571D01*
X73977142Y-83570000D01*
X74405714Y-83498571D02*
X74977142Y-83498571D01*
X74620000Y-82998571D02*
X74620000Y-84284285D01*
X74691428Y-84427142D01*
X74834285Y-84498571D01*
X74977142Y-84498571D01*
%LPC*%
D13*
X116840000Y-152400000D03*
X140215620Y-152440640D03*
X71239380Y-128864360D03*
X71239380Y-111719360D03*
X71239380Y-94574360D03*
X141485620Y-73700640D03*
X124975620Y-73700640D03*
X108465620Y-73700640D03*
D14*
X154305000Y-152529540D03*
X154305000Y-73530460D03*
X92710000Y-73530460D03*
X81915000Y-73530460D03*
X71120000Y-73530460D03*
M02*
