%FSLAX45Y45*%
G04 Gerber Fmt 4.5, Leading zero omitted, Abs format (unit mm)*
G04 Created by KiCad (PCBNEW 5.1.12-1.fc34) date 2022-01-17 21:01:34*
%MOMM*%
%LPD*%
G01*
G04 APERTURE LIST*
%TA.AperFunction,Profile*%
%ADD10C,0.050000*%
%TD*%
%ADD11C,0.200000*%
%ADD12C,0.300000*%
G04 APERTURE END LIST*
D10*
X6350000Y-6350000D02*
X16256000Y-6350000D01*
X6350000Y-16256000D02*
X6350000Y-6350000D01*
X16256000Y-16256000D02*
X6350000Y-16256000D01*
X16256000Y-6350000D02*
X16256000Y-16256000D01*
D11*
D12*
X6633928Y-16724214D02*
X6633928Y-16424214D01*
X6705357Y-16424214D01*
X6748214Y-16438500D01*
X6776786Y-16467071D01*
X6791071Y-16495643D01*
X6805357Y-16552786D01*
X6805357Y-16595643D01*
X6791071Y-16652786D01*
X6776786Y-16681357D01*
X6748214Y-16709929D01*
X6705357Y-16724214D01*
X6633928Y-16724214D01*
X6933928Y-16724214D02*
X6933928Y-16524214D01*
X6933928Y-16581357D02*
X6948214Y-16552786D01*
X6962500Y-16538500D01*
X6991071Y-16524214D01*
X7019643Y-16524214D01*
X7119643Y-16724214D02*
X7119643Y-16524214D01*
X7119643Y-16424214D02*
X7105357Y-16438500D01*
X7119643Y-16452786D01*
X7133928Y-16438500D01*
X7119643Y-16424214D01*
X7119643Y-16452786D01*
X7305357Y-16724214D02*
X7276786Y-16709929D01*
X7262500Y-16681357D01*
X7262500Y-16424214D01*
X7462500Y-16724214D02*
X7433928Y-16709929D01*
X7419643Y-16681357D01*
X7419643Y-16424214D01*
X7805357Y-16724214D02*
X7805357Y-16424214D01*
X7905357Y-16638500D01*
X8005357Y-16424214D01*
X8005357Y-16724214D01*
X8276786Y-16724214D02*
X8276786Y-16567071D01*
X8262500Y-16538500D01*
X8233928Y-16524214D01*
X8176786Y-16524214D01*
X8148214Y-16538500D01*
X8276786Y-16709929D02*
X8248214Y-16724214D01*
X8176786Y-16724214D01*
X8148214Y-16709929D01*
X8133928Y-16681357D01*
X8133928Y-16652786D01*
X8148214Y-16624214D01*
X8176786Y-16609929D01*
X8248214Y-16609929D01*
X8276786Y-16595643D01*
X8419643Y-16524214D02*
X8419643Y-16824214D01*
X8419643Y-16538500D02*
X8448214Y-16524214D01*
X8505357Y-16524214D01*
X8533928Y-16538500D01*
X8548214Y-16552786D01*
X8562500Y-16581357D01*
X8562500Y-16667071D01*
X8548214Y-16695643D01*
X8533928Y-16709929D01*
X8505357Y-16724214D01*
X8448214Y-16724214D01*
X8419643Y-16709929D01*
X8691071Y-16695643D02*
X8705357Y-16709929D01*
X8691071Y-16724214D01*
X8676786Y-16709929D01*
X8691071Y-16695643D01*
X8691071Y-16724214D01*
X8691071Y-16538500D02*
X8705357Y-16552786D01*
X8691071Y-16567071D01*
X8676786Y-16552786D01*
X8691071Y-16538500D01*
X8691071Y-16567071D01*
M02*
