G04 #@! TF.GenerationSoftware,KiCad,Pcbnew,5.1.12-1.fc34*
G04 #@! TF.CreationDate,2022-01-17T21:01:31+01:00*
G04 #@! TF.ProjectId,vcf-panel,7663662d-7061-46e6-956c-2e6b69636164,rev?*
G04 #@! TF.SameCoordinates,Original*
G04 #@! TF.FileFunction,Copper,L2,Bot*
G04 #@! TF.FilePolarity,Positive*
%FSLAX46Y46*%
G04 Gerber Fmt 4.6, Leading zero omitted, Abs format (unit mm)*
G04 Created by KiCad (PCBNEW 5.1.12-1.fc34) date 2022-01-17 21:01:31*
%MOMM*%
%LPD*%
G01*
G04 APERTURE LIST*
G04 #@! TA.AperFunction,NonConductor*
%ADD10C,0.254000*%
G04 #@! TD*
G04 #@! TA.AperFunction,NonConductor*
%ADD11C,0.100000*%
G04 #@! TD*
G04 APERTURE END LIST*
D10*
X161900001Y-161900000D02*
X64160000Y-161900000D01*
X64160000Y-152017361D01*
X112955000Y-152017361D01*
X112955000Y-152782639D01*
X113104298Y-153533213D01*
X113397158Y-154240238D01*
X113822323Y-154876543D01*
X114363457Y-155417677D01*
X114999762Y-155842842D01*
X115706787Y-156135702D01*
X116457361Y-156285000D01*
X117222639Y-156285000D01*
X117973213Y-156135702D01*
X118680238Y-155842842D01*
X119316543Y-155417677D01*
X119857677Y-154876543D01*
X120282842Y-154240238D01*
X120575702Y-153533213D01*
X120725000Y-152782639D01*
X120725000Y-152058001D01*
X136330620Y-152058001D01*
X136330620Y-152823279D01*
X136479918Y-153573853D01*
X136772778Y-154280878D01*
X137197943Y-154917183D01*
X137739077Y-155458317D01*
X138375382Y-155883482D01*
X139082407Y-156176342D01*
X139832981Y-156325640D01*
X140598259Y-156325640D01*
X141348833Y-156176342D01*
X142055858Y-155883482D01*
X142692163Y-155458317D01*
X143233297Y-154917183D01*
X143658462Y-154280878D01*
X143951322Y-153573853D01*
X144100620Y-152823279D01*
X144100620Y-152151825D01*
X150470000Y-152151825D01*
X150470000Y-152907255D01*
X150617377Y-153648168D01*
X150906467Y-154346094D01*
X151326161Y-154974210D01*
X151860330Y-155508379D01*
X152488446Y-155928073D01*
X153186372Y-156217163D01*
X153927285Y-156364540D01*
X154682715Y-156364540D01*
X155423628Y-156217163D01*
X156121554Y-155928073D01*
X156749670Y-155508379D01*
X157283839Y-154974210D01*
X157703533Y-154346094D01*
X157992623Y-153648168D01*
X158140000Y-152907255D01*
X158140000Y-152151825D01*
X157992623Y-151410912D01*
X157703533Y-150712986D01*
X157283839Y-150084870D01*
X156749670Y-149550701D01*
X156121554Y-149131007D01*
X155423628Y-148841917D01*
X154682715Y-148694540D01*
X153927285Y-148694540D01*
X153186372Y-148841917D01*
X152488446Y-149131007D01*
X151860330Y-149550701D01*
X151326161Y-150084870D01*
X150906467Y-150712986D01*
X150617377Y-151410912D01*
X150470000Y-152151825D01*
X144100620Y-152151825D01*
X144100620Y-152058001D01*
X143951322Y-151307427D01*
X143658462Y-150600402D01*
X143233297Y-149964097D01*
X142692163Y-149422963D01*
X142055858Y-148997798D01*
X141348833Y-148704938D01*
X140598259Y-148555640D01*
X139832981Y-148555640D01*
X139082407Y-148704938D01*
X138375382Y-148997798D01*
X137739077Y-149422963D01*
X137197943Y-149964097D01*
X136772778Y-150600402D01*
X136479918Y-151307427D01*
X136330620Y-152058001D01*
X120725000Y-152058001D01*
X120725000Y-152017361D01*
X120575702Y-151266787D01*
X120282842Y-150559762D01*
X119857677Y-149923457D01*
X119316543Y-149382323D01*
X118680238Y-148957158D01*
X117973213Y-148664298D01*
X117222639Y-148515000D01*
X116457361Y-148515000D01*
X115706787Y-148664298D01*
X114999762Y-148957158D01*
X114363457Y-149382323D01*
X113822323Y-149923457D01*
X113397158Y-150559762D01*
X113104298Y-151266787D01*
X112955000Y-152017361D01*
X64160000Y-152017361D01*
X64160000Y-128481721D01*
X67354380Y-128481721D01*
X67354380Y-129246999D01*
X67503678Y-129997573D01*
X67796538Y-130704598D01*
X68221703Y-131340903D01*
X68762837Y-131882037D01*
X69399142Y-132307202D01*
X70106167Y-132600062D01*
X70856741Y-132749360D01*
X71622019Y-132749360D01*
X72372593Y-132600062D01*
X73079618Y-132307202D01*
X73715923Y-131882037D01*
X74257057Y-131340903D01*
X74682222Y-130704598D01*
X74975082Y-129997573D01*
X75124380Y-129246999D01*
X75124380Y-128481721D01*
X74975082Y-127731147D01*
X74682222Y-127024122D01*
X74257057Y-126387817D01*
X73715923Y-125846683D01*
X73079618Y-125421518D01*
X72372593Y-125128658D01*
X71622019Y-124979360D01*
X70856741Y-124979360D01*
X70106167Y-125128658D01*
X69399142Y-125421518D01*
X68762837Y-125846683D01*
X68221703Y-126387817D01*
X67796538Y-127024122D01*
X67503678Y-127731147D01*
X67354380Y-128481721D01*
X64160000Y-128481721D01*
X64160000Y-111336721D01*
X67354380Y-111336721D01*
X67354380Y-112101999D01*
X67503678Y-112852573D01*
X67796538Y-113559598D01*
X68221703Y-114195903D01*
X68762837Y-114737037D01*
X69399142Y-115162202D01*
X70106167Y-115455062D01*
X70856741Y-115604360D01*
X71622019Y-115604360D01*
X72372593Y-115455062D01*
X73079618Y-115162202D01*
X73715923Y-114737037D01*
X74257057Y-114195903D01*
X74682222Y-113559598D01*
X74975082Y-112852573D01*
X75124380Y-112101999D01*
X75124380Y-111336721D01*
X74975082Y-110586147D01*
X74682222Y-109879122D01*
X74257057Y-109242817D01*
X73715923Y-108701683D01*
X73079618Y-108276518D01*
X72372593Y-107983658D01*
X71622019Y-107834360D01*
X70856741Y-107834360D01*
X70106167Y-107983658D01*
X69399142Y-108276518D01*
X68762837Y-108701683D01*
X68221703Y-109242817D01*
X67796538Y-109879122D01*
X67503678Y-110586147D01*
X67354380Y-111336721D01*
X64160000Y-111336721D01*
X64160000Y-94191721D01*
X67354380Y-94191721D01*
X67354380Y-94956999D01*
X67503678Y-95707573D01*
X67796538Y-96414598D01*
X68221703Y-97050903D01*
X68762837Y-97592037D01*
X69399142Y-98017202D01*
X70106167Y-98310062D01*
X70856741Y-98459360D01*
X71622019Y-98459360D01*
X72372593Y-98310062D01*
X73079618Y-98017202D01*
X73715923Y-97592037D01*
X74257057Y-97050903D01*
X74682222Y-96414598D01*
X74975082Y-95707573D01*
X75124380Y-94956999D01*
X75124380Y-94191721D01*
X74975082Y-93441147D01*
X74682222Y-92734122D01*
X74257057Y-92097817D01*
X73715923Y-91556683D01*
X73079618Y-91131518D01*
X72372593Y-90838658D01*
X71622019Y-90689360D01*
X70856741Y-90689360D01*
X70106167Y-90838658D01*
X69399142Y-91131518D01*
X68762837Y-91556683D01*
X68221703Y-92097817D01*
X67796538Y-92734122D01*
X67503678Y-93441147D01*
X67354380Y-94191721D01*
X64160000Y-94191721D01*
X64160000Y-73152745D01*
X67285000Y-73152745D01*
X67285000Y-73908175D01*
X67432377Y-74649088D01*
X67721467Y-75347014D01*
X68141161Y-75975130D01*
X68675330Y-76509299D01*
X69303446Y-76928993D01*
X70001372Y-77218083D01*
X70742285Y-77365460D01*
X71497715Y-77365460D01*
X72238628Y-77218083D01*
X72936554Y-76928993D01*
X73564670Y-76509299D01*
X74098839Y-75975130D01*
X74518533Y-75347014D01*
X74807623Y-74649088D01*
X74955000Y-73908175D01*
X74955000Y-73152745D01*
X78080000Y-73152745D01*
X78080000Y-73908175D01*
X78227377Y-74649088D01*
X78516467Y-75347014D01*
X78936161Y-75975130D01*
X79470330Y-76509299D01*
X80098446Y-76928993D01*
X80796372Y-77218083D01*
X81537285Y-77365460D01*
X82292715Y-77365460D01*
X83033628Y-77218083D01*
X83731554Y-76928993D01*
X84359670Y-76509299D01*
X84893839Y-75975130D01*
X85313533Y-75347014D01*
X85602623Y-74649088D01*
X85750000Y-73908175D01*
X85750000Y-73152745D01*
X88875000Y-73152745D01*
X88875000Y-73908175D01*
X89022377Y-74649088D01*
X89311467Y-75347014D01*
X89731161Y-75975130D01*
X90265330Y-76509299D01*
X90893446Y-76928993D01*
X91591372Y-77218083D01*
X92332285Y-77365460D01*
X93087715Y-77365460D01*
X93828628Y-77218083D01*
X94526554Y-76928993D01*
X95154670Y-76509299D01*
X95688839Y-75975130D01*
X96108533Y-75347014D01*
X96397623Y-74649088D01*
X96545000Y-73908175D01*
X96545000Y-73318001D01*
X104580620Y-73318001D01*
X104580620Y-74083279D01*
X104729918Y-74833853D01*
X105022778Y-75540878D01*
X105447943Y-76177183D01*
X105989077Y-76718317D01*
X106625382Y-77143482D01*
X107332407Y-77436342D01*
X108082981Y-77585640D01*
X108848259Y-77585640D01*
X109598833Y-77436342D01*
X110305858Y-77143482D01*
X110942163Y-76718317D01*
X111483297Y-76177183D01*
X111908462Y-75540878D01*
X112201322Y-74833853D01*
X112350620Y-74083279D01*
X112350620Y-73318001D01*
X121090620Y-73318001D01*
X121090620Y-74083279D01*
X121239918Y-74833853D01*
X121532778Y-75540878D01*
X121957943Y-76177183D01*
X122499077Y-76718317D01*
X123135382Y-77143482D01*
X123842407Y-77436342D01*
X124592981Y-77585640D01*
X125358259Y-77585640D01*
X126108833Y-77436342D01*
X126815858Y-77143482D01*
X127452163Y-76718317D01*
X127993297Y-76177183D01*
X128418462Y-75540878D01*
X128711322Y-74833853D01*
X128860620Y-74083279D01*
X128860620Y-73318001D01*
X137600620Y-73318001D01*
X137600620Y-74083279D01*
X137749918Y-74833853D01*
X138042778Y-75540878D01*
X138467943Y-76177183D01*
X139009077Y-76718317D01*
X139645382Y-77143482D01*
X140352407Y-77436342D01*
X141102981Y-77585640D01*
X141868259Y-77585640D01*
X142618833Y-77436342D01*
X143325858Y-77143482D01*
X143962163Y-76718317D01*
X144503297Y-76177183D01*
X144928462Y-75540878D01*
X145221322Y-74833853D01*
X145370620Y-74083279D01*
X145370620Y-73318001D01*
X145337749Y-73152745D01*
X150470000Y-73152745D01*
X150470000Y-73908175D01*
X150617377Y-74649088D01*
X150906467Y-75347014D01*
X151326161Y-75975130D01*
X151860330Y-76509299D01*
X152488446Y-76928993D01*
X153186372Y-77218083D01*
X153927285Y-77365460D01*
X154682715Y-77365460D01*
X155423628Y-77218083D01*
X156121554Y-76928993D01*
X156749670Y-76509299D01*
X157283839Y-75975130D01*
X157703533Y-75347014D01*
X157992623Y-74649088D01*
X158140000Y-73908175D01*
X158140000Y-73152745D01*
X157992623Y-72411832D01*
X157703533Y-71713906D01*
X157283839Y-71085790D01*
X156749670Y-70551621D01*
X156121554Y-70131927D01*
X155423628Y-69842837D01*
X154682715Y-69695460D01*
X153927285Y-69695460D01*
X153186372Y-69842837D01*
X152488446Y-70131927D01*
X151860330Y-70551621D01*
X151326161Y-71085790D01*
X150906467Y-71713906D01*
X150617377Y-72411832D01*
X150470000Y-73152745D01*
X145337749Y-73152745D01*
X145221322Y-72567427D01*
X144928462Y-71860402D01*
X144503297Y-71224097D01*
X143962163Y-70682963D01*
X143325858Y-70257798D01*
X142618833Y-69964938D01*
X141868259Y-69815640D01*
X141102981Y-69815640D01*
X140352407Y-69964938D01*
X139645382Y-70257798D01*
X139009077Y-70682963D01*
X138467943Y-71224097D01*
X138042778Y-71860402D01*
X137749918Y-72567427D01*
X137600620Y-73318001D01*
X128860620Y-73318001D01*
X128711322Y-72567427D01*
X128418462Y-71860402D01*
X127993297Y-71224097D01*
X127452163Y-70682963D01*
X126815858Y-70257798D01*
X126108833Y-69964938D01*
X125358259Y-69815640D01*
X124592981Y-69815640D01*
X123842407Y-69964938D01*
X123135382Y-70257798D01*
X122499077Y-70682963D01*
X121957943Y-71224097D01*
X121532778Y-71860402D01*
X121239918Y-72567427D01*
X121090620Y-73318001D01*
X112350620Y-73318001D01*
X112201322Y-72567427D01*
X111908462Y-71860402D01*
X111483297Y-71224097D01*
X110942163Y-70682963D01*
X110305858Y-70257798D01*
X109598833Y-69964938D01*
X108848259Y-69815640D01*
X108082981Y-69815640D01*
X107332407Y-69964938D01*
X106625382Y-70257798D01*
X105989077Y-70682963D01*
X105447943Y-71224097D01*
X105022778Y-71860402D01*
X104729918Y-72567427D01*
X104580620Y-73318001D01*
X96545000Y-73318001D01*
X96545000Y-73152745D01*
X96397623Y-72411832D01*
X96108533Y-71713906D01*
X95688839Y-71085790D01*
X95154670Y-70551621D01*
X94526554Y-70131927D01*
X93828628Y-69842837D01*
X93087715Y-69695460D01*
X92332285Y-69695460D01*
X91591372Y-69842837D01*
X90893446Y-70131927D01*
X90265330Y-70551621D01*
X89731161Y-71085790D01*
X89311467Y-71713906D01*
X89022377Y-72411832D01*
X88875000Y-73152745D01*
X85750000Y-73152745D01*
X85602623Y-72411832D01*
X85313533Y-71713906D01*
X84893839Y-71085790D01*
X84359670Y-70551621D01*
X83731554Y-70131927D01*
X83033628Y-69842837D01*
X82292715Y-69695460D01*
X81537285Y-69695460D01*
X80796372Y-69842837D01*
X80098446Y-70131927D01*
X79470330Y-70551621D01*
X78936161Y-71085790D01*
X78516467Y-71713906D01*
X78227377Y-72411832D01*
X78080000Y-73152745D01*
X74955000Y-73152745D01*
X74807623Y-72411832D01*
X74518533Y-71713906D01*
X74098839Y-71085790D01*
X73564670Y-70551621D01*
X72936554Y-70131927D01*
X72238628Y-69842837D01*
X71497715Y-69695460D01*
X70742285Y-69695460D01*
X70001372Y-69842837D01*
X69303446Y-70131927D01*
X68675330Y-70551621D01*
X68141161Y-71085790D01*
X67721467Y-71713906D01*
X67432377Y-72411832D01*
X67285000Y-73152745D01*
X64160000Y-73152745D01*
X64160000Y-64160000D01*
X161900000Y-64160000D01*
X161900001Y-161900000D01*
G04 #@! TA.AperFunction,NonConductor*
D11*
G36*
X161900001Y-161900000D02*
G01*
X64160000Y-161900000D01*
X64160000Y-152017361D01*
X112955000Y-152017361D01*
X112955000Y-152782639D01*
X113104298Y-153533213D01*
X113397158Y-154240238D01*
X113822323Y-154876543D01*
X114363457Y-155417677D01*
X114999762Y-155842842D01*
X115706787Y-156135702D01*
X116457361Y-156285000D01*
X117222639Y-156285000D01*
X117973213Y-156135702D01*
X118680238Y-155842842D01*
X119316543Y-155417677D01*
X119857677Y-154876543D01*
X120282842Y-154240238D01*
X120575702Y-153533213D01*
X120725000Y-152782639D01*
X120725000Y-152058001D01*
X136330620Y-152058001D01*
X136330620Y-152823279D01*
X136479918Y-153573853D01*
X136772778Y-154280878D01*
X137197943Y-154917183D01*
X137739077Y-155458317D01*
X138375382Y-155883482D01*
X139082407Y-156176342D01*
X139832981Y-156325640D01*
X140598259Y-156325640D01*
X141348833Y-156176342D01*
X142055858Y-155883482D01*
X142692163Y-155458317D01*
X143233297Y-154917183D01*
X143658462Y-154280878D01*
X143951322Y-153573853D01*
X144100620Y-152823279D01*
X144100620Y-152151825D01*
X150470000Y-152151825D01*
X150470000Y-152907255D01*
X150617377Y-153648168D01*
X150906467Y-154346094D01*
X151326161Y-154974210D01*
X151860330Y-155508379D01*
X152488446Y-155928073D01*
X153186372Y-156217163D01*
X153927285Y-156364540D01*
X154682715Y-156364540D01*
X155423628Y-156217163D01*
X156121554Y-155928073D01*
X156749670Y-155508379D01*
X157283839Y-154974210D01*
X157703533Y-154346094D01*
X157992623Y-153648168D01*
X158140000Y-152907255D01*
X158140000Y-152151825D01*
X157992623Y-151410912D01*
X157703533Y-150712986D01*
X157283839Y-150084870D01*
X156749670Y-149550701D01*
X156121554Y-149131007D01*
X155423628Y-148841917D01*
X154682715Y-148694540D01*
X153927285Y-148694540D01*
X153186372Y-148841917D01*
X152488446Y-149131007D01*
X151860330Y-149550701D01*
X151326161Y-150084870D01*
X150906467Y-150712986D01*
X150617377Y-151410912D01*
X150470000Y-152151825D01*
X144100620Y-152151825D01*
X144100620Y-152058001D01*
X143951322Y-151307427D01*
X143658462Y-150600402D01*
X143233297Y-149964097D01*
X142692163Y-149422963D01*
X142055858Y-148997798D01*
X141348833Y-148704938D01*
X140598259Y-148555640D01*
X139832981Y-148555640D01*
X139082407Y-148704938D01*
X138375382Y-148997798D01*
X137739077Y-149422963D01*
X137197943Y-149964097D01*
X136772778Y-150600402D01*
X136479918Y-151307427D01*
X136330620Y-152058001D01*
X120725000Y-152058001D01*
X120725000Y-152017361D01*
X120575702Y-151266787D01*
X120282842Y-150559762D01*
X119857677Y-149923457D01*
X119316543Y-149382323D01*
X118680238Y-148957158D01*
X117973213Y-148664298D01*
X117222639Y-148515000D01*
X116457361Y-148515000D01*
X115706787Y-148664298D01*
X114999762Y-148957158D01*
X114363457Y-149382323D01*
X113822323Y-149923457D01*
X113397158Y-150559762D01*
X113104298Y-151266787D01*
X112955000Y-152017361D01*
X64160000Y-152017361D01*
X64160000Y-128481721D01*
X67354380Y-128481721D01*
X67354380Y-129246999D01*
X67503678Y-129997573D01*
X67796538Y-130704598D01*
X68221703Y-131340903D01*
X68762837Y-131882037D01*
X69399142Y-132307202D01*
X70106167Y-132600062D01*
X70856741Y-132749360D01*
X71622019Y-132749360D01*
X72372593Y-132600062D01*
X73079618Y-132307202D01*
X73715923Y-131882037D01*
X74257057Y-131340903D01*
X74682222Y-130704598D01*
X74975082Y-129997573D01*
X75124380Y-129246999D01*
X75124380Y-128481721D01*
X74975082Y-127731147D01*
X74682222Y-127024122D01*
X74257057Y-126387817D01*
X73715923Y-125846683D01*
X73079618Y-125421518D01*
X72372593Y-125128658D01*
X71622019Y-124979360D01*
X70856741Y-124979360D01*
X70106167Y-125128658D01*
X69399142Y-125421518D01*
X68762837Y-125846683D01*
X68221703Y-126387817D01*
X67796538Y-127024122D01*
X67503678Y-127731147D01*
X67354380Y-128481721D01*
X64160000Y-128481721D01*
X64160000Y-111336721D01*
X67354380Y-111336721D01*
X67354380Y-112101999D01*
X67503678Y-112852573D01*
X67796538Y-113559598D01*
X68221703Y-114195903D01*
X68762837Y-114737037D01*
X69399142Y-115162202D01*
X70106167Y-115455062D01*
X70856741Y-115604360D01*
X71622019Y-115604360D01*
X72372593Y-115455062D01*
X73079618Y-115162202D01*
X73715923Y-114737037D01*
X74257057Y-114195903D01*
X74682222Y-113559598D01*
X74975082Y-112852573D01*
X75124380Y-112101999D01*
X75124380Y-111336721D01*
X74975082Y-110586147D01*
X74682222Y-109879122D01*
X74257057Y-109242817D01*
X73715923Y-108701683D01*
X73079618Y-108276518D01*
X72372593Y-107983658D01*
X71622019Y-107834360D01*
X70856741Y-107834360D01*
X70106167Y-107983658D01*
X69399142Y-108276518D01*
X68762837Y-108701683D01*
X68221703Y-109242817D01*
X67796538Y-109879122D01*
X67503678Y-110586147D01*
X67354380Y-111336721D01*
X64160000Y-111336721D01*
X64160000Y-94191721D01*
X67354380Y-94191721D01*
X67354380Y-94956999D01*
X67503678Y-95707573D01*
X67796538Y-96414598D01*
X68221703Y-97050903D01*
X68762837Y-97592037D01*
X69399142Y-98017202D01*
X70106167Y-98310062D01*
X70856741Y-98459360D01*
X71622019Y-98459360D01*
X72372593Y-98310062D01*
X73079618Y-98017202D01*
X73715923Y-97592037D01*
X74257057Y-97050903D01*
X74682222Y-96414598D01*
X74975082Y-95707573D01*
X75124380Y-94956999D01*
X75124380Y-94191721D01*
X74975082Y-93441147D01*
X74682222Y-92734122D01*
X74257057Y-92097817D01*
X73715923Y-91556683D01*
X73079618Y-91131518D01*
X72372593Y-90838658D01*
X71622019Y-90689360D01*
X70856741Y-90689360D01*
X70106167Y-90838658D01*
X69399142Y-91131518D01*
X68762837Y-91556683D01*
X68221703Y-92097817D01*
X67796538Y-92734122D01*
X67503678Y-93441147D01*
X67354380Y-94191721D01*
X64160000Y-94191721D01*
X64160000Y-73152745D01*
X67285000Y-73152745D01*
X67285000Y-73908175D01*
X67432377Y-74649088D01*
X67721467Y-75347014D01*
X68141161Y-75975130D01*
X68675330Y-76509299D01*
X69303446Y-76928993D01*
X70001372Y-77218083D01*
X70742285Y-77365460D01*
X71497715Y-77365460D01*
X72238628Y-77218083D01*
X72936554Y-76928993D01*
X73564670Y-76509299D01*
X74098839Y-75975130D01*
X74518533Y-75347014D01*
X74807623Y-74649088D01*
X74955000Y-73908175D01*
X74955000Y-73152745D01*
X78080000Y-73152745D01*
X78080000Y-73908175D01*
X78227377Y-74649088D01*
X78516467Y-75347014D01*
X78936161Y-75975130D01*
X79470330Y-76509299D01*
X80098446Y-76928993D01*
X80796372Y-77218083D01*
X81537285Y-77365460D01*
X82292715Y-77365460D01*
X83033628Y-77218083D01*
X83731554Y-76928993D01*
X84359670Y-76509299D01*
X84893839Y-75975130D01*
X85313533Y-75347014D01*
X85602623Y-74649088D01*
X85750000Y-73908175D01*
X85750000Y-73152745D01*
X88875000Y-73152745D01*
X88875000Y-73908175D01*
X89022377Y-74649088D01*
X89311467Y-75347014D01*
X89731161Y-75975130D01*
X90265330Y-76509299D01*
X90893446Y-76928993D01*
X91591372Y-77218083D01*
X92332285Y-77365460D01*
X93087715Y-77365460D01*
X93828628Y-77218083D01*
X94526554Y-76928993D01*
X95154670Y-76509299D01*
X95688839Y-75975130D01*
X96108533Y-75347014D01*
X96397623Y-74649088D01*
X96545000Y-73908175D01*
X96545000Y-73318001D01*
X104580620Y-73318001D01*
X104580620Y-74083279D01*
X104729918Y-74833853D01*
X105022778Y-75540878D01*
X105447943Y-76177183D01*
X105989077Y-76718317D01*
X106625382Y-77143482D01*
X107332407Y-77436342D01*
X108082981Y-77585640D01*
X108848259Y-77585640D01*
X109598833Y-77436342D01*
X110305858Y-77143482D01*
X110942163Y-76718317D01*
X111483297Y-76177183D01*
X111908462Y-75540878D01*
X112201322Y-74833853D01*
X112350620Y-74083279D01*
X112350620Y-73318001D01*
X121090620Y-73318001D01*
X121090620Y-74083279D01*
X121239918Y-74833853D01*
X121532778Y-75540878D01*
X121957943Y-76177183D01*
X122499077Y-76718317D01*
X123135382Y-77143482D01*
X123842407Y-77436342D01*
X124592981Y-77585640D01*
X125358259Y-77585640D01*
X126108833Y-77436342D01*
X126815858Y-77143482D01*
X127452163Y-76718317D01*
X127993297Y-76177183D01*
X128418462Y-75540878D01*
X128711322Y-74833853D01*
X128860620Y-74083279D01*
X128860620Y-73318001D01*
X137600620Y-73318001D01*
X137600620Y-74083279D01*
X137749918Y-74833853D01*
X138042778Y-75540878D01*
X138467943Y-76177183D01*
X139009077Y-76718317D01*
X139645382Y-77143482D01*
X140352407Y-77436342D01*
X141102981Y-77585640D01*
X141868259Y-77585640D01*
X142618833Y-77436342D01*
X143325858Y-77143482D01*
X143962163Y-76718317D01*
X144503297Y-76177183D01*
X144928462Y-75540878D01*
X145221322Y-74833853D01*
X145370620Y-74083279D01*
X145370620Y-73318001D01*
X145337749Y-73152745D01*
X150470000Y-73152745D01*
X150470000Y-73908175D01*
X150617377Y-74649088D01*
X150906467Y-75347014D01*
X151326161Y-75975130D01*
X151860330Y-76509299D01*
X152488446Y-76928993D01*
X153186372Y-77218083D01*
X153927285Y-77365460D01*
X154682715Y-77365460D01*
X155423628Y-77218083D01*
X156121554Y-76928993D01*
X156749670Y-76509299D01*
X157283839Y-75975130D01*
X157703533Y-75347014D01*
X157992623Y-74649088D01*
X158140000Y-73908175D01*
X158140000Y-73152745D01*
X157992623Y-72411832D01*
X157703533Y-71713906D01*
X157283839Y-71085790D01*
X156749670Y-70551621D01*
X156121554Y-70131927D01*
X155423628Y-69842837D01*
X154682715Y-69695460D01*
X153927285Y-69695460D01*
X153186372Y-69842837D01*
X152488446Y-70131927D01*
X151860330Y-70551621D01*
X151326161Y-71085790D01*
X150906467Y-71713906D01*
X150617377Y-72411832D01*
X150470000Y-73152745D01*
X145337749Y-73152745D01*
X145221322Y-72567427D01*
X144928462Y-71860402D01*
X144503297Y-71224097D01*
X143962163Y-70682963D01*
X143325858Y-70257798D01*
X142618833Y-69964938D01*
X141868259Y-69815640D01*
X141102981Y-69815640D01*
X140352407Y-69964938D01*
X139645382Y-70257798D01*
X139009077Y-70682963D01*
X138467943Y-71224097D01*
X138042778Y-71860402D01*
X137749918Y-72567427D01*
X137600620Y-73318001D01*
X128860620Y-73318001D01*
X128711322Y-72567427D01*
X128418462Y-71860402D01*
X127993297Y-71224097D01*
X127452163Y-70682963D01*
X126815858Y-70257798D01*
X126108833Y-69964938D01*
X125358259Y-69815640D01*
X124592981Y-69815640D01*
X123842407Y-69964938D01*
X123135382Y-70257798D01*
X122499077Y-70682963D01*
X121957943Y-71224097D01*
X121532778Y-71860402D01*
X121239918Y-72567427D01*
X121090620Y-73318001D01*
X112350620Y-73318001D01*
X112201322Y-72567427D01*
X111908462Y-71860402D01*
X111483297Y-71224097D01*
X110942163Y-70682963D01*
X110305858Y-70257798D01*
X109598833Y-69964938D01*
X108848259Y-69815640D01*
X108082981Y-69815640D01*
X107332407Y-69964938D01*
X106625382Y-70257798D01*
X105989077Y-70682963D01*
X105447943Y-71224097D01*
X105022778Y-71860402D01*
X104729918Y-72567427D01*
X104580620Y-73318001D01*
X96545000Y-73318001D01*
X96545000Y-73152745D01*
X96397623Y-72411832D01*
X96108533Y-71713906D01*
X95688839Y-71085790D01*
X95154670Y-70551621D01*
X94526554Y-70131927D01*
X93828628Y-69842837D01*
X93087715Y-69695460D01*
X92332285Y-69695460D01*
X91591372Y-69842837D01*
X90893446Y-70131927D01*
X90265330Y-70551621D01*
X89731161Y-71085790D01*
X89311467Y-71713906D01*
X89022377Y-72411832D01*
X88875000Y-73152745D01*
X85750000Y-73152745D01*
X85602623Y-72411832D01*
X85313533Y-71713906D01*
X84893839Y-71085790D01*
X84359670Y-70551621D01*
X83731554Y-70131927D01*
X83033628Y-69842837D01*
X82292715Y-69695460D01*
X81537285Y-69695460D01*
X80796372Y-69842837D01*
X80098446Y-70131927D01*
X79470330Y-70551621D01*
X78936161Y-71085790D01*
X78516467Y-71713906D01*
X78227377Y-72411832D01*
X78080000Y-73152745D01*
X74955000Y-73152745D01*
X74807623Y-72411832D01*
X74518533Y-71713906D01*
X74098839Y-71085790D01*
X73564670Y-70551621D01*
X72936554Y-70131927D01*
X72238628Y-69842837D01*
X71497715Y-69695460D01*
X70742285Y-69695460D01*
X70001372Y-69842837D01*
X69303446Y-70131927D01*
X68675330Y-70551621D01*
X68141161Y-71085790D01*
X67721467Y-71713906D01*
X67432377Y-72411832D01*
X67285000Y-73152745D01*
X64160000Y-73152745D01*
X64160000Y-64160000D01*
X161900000Y-64160000D01*
X161900001Y-161900000D01*
G37*
G04 #@! TD.AperFunction*
M02*
